G04*
G04 #@! TF.GenerationSoftware,Altium Limited,Altium Designer,24.1.2 (44)*
G04*
G04 Layer_Physical_Order=2*
G04 Layer_Color=16711680*
%FSLAX44Y44*%
%MOMM*%
G71*
G04*
G04 #@! TF.SameCoordinates,0E3A5277-1BD3-41FE-89CB-7762C95CC174*
G04*
G04*
G04 #@! TF.FilePolarity,Positive*
G04*
G01*
G75*
%ADD11C,0.8890*%
%ADD21C,0.3810*%
%ADD22C,0.5000*%
%ADD24R,3.1554X1.8640*%
%ADD25R,6.3304X3.1555*%
%ADD27R,3.1533X6.3308*%
%ADD28C,1.1000*%
%ADD29C,0.9000*%
%ADD30C,0.6000*%
%ADD31C,6.3500*%
%ADD32C,1.0000*%
%ADD33R,0.9100X1.2200*%
%ADD34R,0.9100X1.2200*%
%ADD35R,0.8000X0.7000*%
%ADD36C,1.5000*%
%ADD37R,0.9500X0.9000*%
%ADD38R,2.5000X2.5000*%
G04:AMPARAMS|DCode=39|XSize=0.2746mm|YSize=0.8048mm|CornerRadius=0.1373mm|HoleSize=0mm|Usage=FLASHONLY|Rotation=180.000|XOffset=0mm|YOffset=0mm|HoleType=Round|Shape=RoundedRectangle|*
%AMROUNDEDRECTD39*
21,1,0.2746,0.5302,0,0,180.0*
21,1,0.0000,0.8048,0,0,180.0*
1,1,0.2746,0.0000,0.2651*
1,1,0.2746,0.0000,0.2651*
1,1,0.2746,0.0000,-0.2651*
1,1,0.2746,0.0000,-0.2651*
%
%ADD39ROUNDEDRECTD39*%
G04:AMPARAMS|DCode=40|XSize=0.2746mm|YSize=0.8048mm|CornerRadius=0.1373mm|HoleSize=0mm|Usage=FLASHONLY|Rotation=270.000|XOffset=0mm|YOffset=0mm|HoleType=Round|Shape=RoundedRectangle|*
%AMROUNDEDRECTD40*
21,1,0.2746,0.5302,0,0,270.0*
21,1,0.0000,0.8048,0,0,270.0*
1,1,0.2746,-0.2651,0.0000*
1,1,0.2746,-0.2651,0.0000*
1,1,0.2746,0.2651,0.0000*
1,1,0.2746,0.2651,0.0000*
%
%ADD40ROUNDEDRECTD40*%
%ADD41R,1.6000X0.8000*%
%ADD42R,3.0000X2.1000*%
%ADD43C,0.4000*%
%ADD44C,0.6000*%
%ADD45C,0.2794*%
%ADD46R,2.8312X3.6948*%
%ADD47R,3.1750X4.7371*%
G36*
X333000Y526110D02*
X332080Y526040D01*
X331378Y525829D01*
X330893Y525477D01*
X330626Y524985D01*
X330577Y524352D01*
X330746Y523578D01*
X331132Y522663D01*
X331680Y521705D01*
X332657Y521154D01*
X333573Y520778D01*
X334348Y520623D01*
X334982Y520689D01*
X335475Y520976D01*
X335827Y521484D01*
X336038Y522213D01*
X336109Y523163D01*
X344999Y521576D01*
X344945Y519199D01*
X344513Y513960D01*
X343650Y508077D01*
X341747Y499000D01*
X343650Y489923D01*
X344513Y484040D01*
X344945Y478801D01*
X344999Y476424D01*
X336109Y463422D01*
X329065Y474394D01*
X329712Y476424D01*
X336912Y499000D01*
X330161Y520171D01*
X309000Y526910D01*
X284403Y519076D01*
X273424Y526110D01*
X286437Y535000D01*
X294054Y534514D01*
X296914Y534137D01*
X309000Y531600D01*
X321086Y534137D01*
X323946Y534514D01*
X331562Y535000D01*
X333000Y526110D01*
D02*
G37*
G36*
X12000Y524208D02*
X273029D01*
X275435Y522666D01*
Y499000D01*
X275470Y498825D01*
Y496361D01*
X276296Y491148D01*
X277927Y486129D01*
X280323Y481426D01*
X283425Y477157D01*
X287157Y473425D01*
X291426Y470323D01*
X296129Y467926D01*
X301148Y466296D01*
X306361Y465470D01*
X311639D01*
X312113Y465545D01*
X332589D01*
X334207Y463025D01*
Y452692D01*
X330949Y452371D01*
X327053Y451189D01*
X323462Y449270D01*
X320314Y446687D01*
X317731Y443539D01*
X315812Y439948D01*
X314630Y436052D01*
X314236Y432055D01*
X314212Y432055D01*
X314209Y432038D01*
X314212Y432026D01*
X314208Y431903D01*
X314208Y430785D01*
Y92000D01*
X314251Y91782D01*
X314629Y87948D01*
X315811Y84052D01*
X316012Y83676D01*
X315359Y82587D01*
X309000D01*
X308714Y82530D01*
X306361D01*
X301148Y81704D01*
X296129Y80073D01*
X291426Y77677D01*
X287157Y74575D01*
X283425Y70843D01*
X280323Y66574D01*
X277927Y61871D01*
X276296Y56852D01*
X275619Y52579D01*
X275573Y52510D01*
X275435Y51816D01*
Y10792D01*
X12000D01*
X11847Y10761D01*
X11079Y11079D01*
X10761Y11847D01*
X10792Y12000D01*
Y523000D01*
X10761Y523153D01*
X11079Y523921D01*
X11847Y524239D01*
X12000Y524208D01*
D02*
G37*
G36*
X330288Y72667D02*
X332579Y71183D01*
X333510Y70751D01*
X334298Y70525D01*
X334943Y70505D01*
X335444Y70692D01*
X335802Y71086D01*
X336017Y71685D01*
X336088Y72491D01*
X344978Y71753D01*
X344925Y69378D01*
X344497Y64137D01*
X343642Y58244D01*
X341728Y49000D01*
X343642Y39756D01*
X344497Y33863D01*
X344925Y28622D01*
X344978Y26247D01*
X343935Y24738D01*
X344001Y24282D01*
X344497Y20863D01*
X344925Y15622D01*
X344978Y13247D01*
X336088Y11424D01*
X336017Y12436D01*
X335802Y13220D01*
X335444Y13776D01*
X334943Y14104D01*
X334298Y14204D01*
X333510Y14076D01*
X332579Y13720D01*
X331505Y13135D01*
X330288Y12323D01*
X328927Y11282D01*
X331748Y19991D01*
X328927Y24282D01*
X336933Y49000D01*
X328927Y73718D01*
X330288Y72667D01*
D02*
G37*
%LPC*%
G36*
X163882Y453580D02*
X163830D01*
Y444810D01*
X172600D01*
Y444862D01*
X171916Y447415D01*
X170594Y449705D01*
X168725Y451574D01*
X166435Y452896D01*
X163882Y453580D01*
D02*
G37*
G36*
X161290D02*
X161238D01*
X158685Y452896D01*
X156395Y451574D01*
X154526Y449705D01*
X153204Y447415D01*
X152520Y444862D01*
Y444810D01*
X161290D01*
Y453580D01*
D02*
G37*
G36*
X172600Y442270D02*
X163830D01*
Y433500D01*
X163882D01*
X166435Y434184D01*
X168725Y435506D01*
X170594Y437375D01*
X171916Y439665D01*
X172600Y442218D01*
Y442270D01*
D02*
G37*
G36*
X161290D02*
X152520D01*
Y442218D01*
X153204Y439665D01*
X154526Y437375D01*
X156395Y435506D01*
X158685Y434184D01*
X161238Y433500D01*
X161290D01*
Y442270D01*
D02*
G37*
G36*
X303334Y434888D02*
X287064D01*
Y423118D01*
X303334D01*
Y434888D01*
D02*
G37*
G36*
X284524D02*
X268254D01*
Y423118D01*
X284524D01*
Y434888D01*
D02*
G37*
G36*
X303334Y420578D02*
X287064D01*
Y408808D01*
X303334D01*
Y420578D01*
D02*
G37*
G36*
X284524D02*
X268254D01*
Y408808D01*
X284524D01*
Y420578D01*
D02*
G37*
G36*
X211998Y413494D02*
X205978D01*
Y407724D01*
X211998D01*
Y413494D01*
D02*
G37*
G36*
X203438D02*
X197418D01*
Y407724D01*
X203438D01*
Y413494D01*
D02*
G37*
G36*
X211998Y405184D02*
X205978D01*
Y399414D01*
X211998D01*
Y405184D01*
D02*
G37*
G36*
X203438D02*
X197418D01*
Y399414D01*
X203438D01*
Y405184D01*
D02*
G37*
G36*
X230659Y446778D02*
X228757D01*
X227000Y446051D01*
X225656Y444706D01*
X224928Y442949D01*
Y441048D01*
X225344Y440043D01*
Y424203D01*
X225315Y423827D01*
X225225Y423218D01*
X225112Y422746D01*
X224993Y422420D01*
X224897Y422243D01*
X224895Y422240D01*
X224844Y422234D01*
X223178D01*
Y420446D01*
X223174Y420423D01*
X223178Y420401D01*
Y411507D01*
X223174Y411484D01*
X223178Y411462D01*
Y409674D01*
X224844D01*
X224895Y409668D01*
X224897Y409665D01*
X224993Y409488D01*
X225112Y409162D01*
X225225Y408690D01*
X225315Y408081D01*
X225344Y407705D01*
Y405203D01*
X225315Y404827D01*
X225225Y404218D01*
X225112Y403746D01*
X224993Y403420D01*
X224897Y403243D01*
X224895Y403240D01*
X224844Y403234D01*
X223178D01*
Y401446D01*
X223174Y401423D01*
X223178Y401401D01*
Y390674D01*
X234405D01*
X234428Y390670D01*
X234450Y390674D01*
X236238D01*
Y392003D01*
X236261Y392012D01*
X236628Y392112D01*
X237114Y392200D01*
X238165Y392287D01*
X245217D01*
X245462Y392272D01*
X246097Y392197D01*
X246124Y392192D01*
X246579Y391140D01*
X246571Y390787D01*
X246254Y390388D01*
X246254Y389613D01*
Y385118D01*
X256794D01*
X267334D01*
Y389613D01*
X267334Y390388D01*
X266574Y391343D01*
Y402128D01*
X248847D01*
X248825Y402132D01*
X248802Y402128D01*
X247014D01*
Y401183D01*
X246783Y401139D01*
X245184Y401015D01*
X238223D01*
X237836Y401046D01*
X237230Y401138D01*
X236761Y401252D01*
X236439Y401372D01*
X236263Y401470D01*
X236248Y401483D01*
X236238Y401566D01*
Y403234D01*
X234572D01*
X234521Y403240D01*
X234519Y403243D01*
X234423Y403420D01*
X234304Y403746D01*
X234191Y404218D01*
X234101Y404827D01*
X234072Y405203D01*
Y407705D01*
X234101Y408081D01*
X234191Y408690D01*
X234304Y409162D01*
X234422Y409488D01*
X234519Y409665D01*
X234521Y409668D01*
X234572Y409674D01*
X236238D01*
Y411462D01*
X236242Y411484D01*
X236238Y411507D01*
Y420401D01*
X236242Y420423D01*
X236238Y420446D01*
Y422234D01*
X234572D01*
X234521Y422240D01*
X234519Y422243D01*
X234423Y422420D01*
X234304Y422746D01*
X234191Y423218D01*
X234101Y423827D01*
X234072Y424203D01*
Y440043D01*
X234488Y441048D01*
Y442949D01*
X233760Y444706D01*
X232416Y446051D01*
X230659Y446778D01*
D02*
G37*
G36*
X211998Y377577D02*
X205978D01*
Y371807D01*
X211998D01*
Y377577D01*
D02*
G37*
G36*
X203438D02*
X197418D01*
Y371807D01*
X203438D01*
Y377577D01*
D02*
G37*
G36*
X30101Y469600D02*
X28199D01*
X26442Y468872D01*
X25098Y467528D01*
X24370Y465771D01*
Y463869D01*
X24786Y462864D01*
Y454616D01*
X24749Y454229D01*
X24646Y453613D01*
X24506Y453045D01*
X24330Y452523D01*
X24121Y452045D01*
X23879Y451606D01*
X23602Y451203D01*
X23290Y450830D01*
X22877Y450424D01*
X22873Y450418D01*
X22867Y450414D01*
X22801Y450314D01*
X21724Y449238D01*
X20502Y447122D01*
X19870Y444762D01*
Y442318D01*
X20502Y439958D01*
X21724Y437842D01*
X22801Y436766D01*
X22867Y436666D01*
X22873Y436662D01*
X22877Y436656D01*
X23290Y436250D01*
X23602Y435877D01*
X23879Y435473D01*
X24121Y435035D01*
X24330Y434557D01*
X24506Y434035D01*
X24646Y433467D01*
X24749Y432851D01*
X24786Y432464D01*
Y414500D01*
Y411580D01*
X24763Y411255D01*
X24679Y410634D01*
X24574Y410148D01*
X24462Y409809D01*
X24398Y409680D01*
X22820D01*
Y407892D01*
X22816Y407869D01*
X22820Y407847D01*
Y395753D01*
X22816Y395731D01*
X22820Y395708D01*
Y393920D01*
X24398D01*
X24462Y393791D01*
X24574Y393452D01*
X24673Y392995D01*
X24786Y391874D01*
Y356782D01*
Y304500D01*
Y301580D01*
X24763Y301255D01*
X24679Y300634D01*
X24574Y300148D01*
X24462Y299809D01*
X24398Y299680D01*
X22820D01*
Y297892D01*
X22816Y297869D01*
X22820Y297847D01*
Y285753D01*
X22816Y285730D01*
X22820Y285708D01*
Y283920D01*
X24398D01*
X24462Y283791D01*
X24574Y283452D01*
X24673Y282995D01*
X24786Y281874D01*
Y247100D01*
Y194221D01*
Y191580D01*
X24763Y191255D01*
X24679Y190634D01*
X24574Y190148D01*
X24462Y189809D01*
X24398Y189680D01*
X22820D01*
Y187892D01*
X22816Y187869D01*
X22820Y187847D01*
Y175753D01*
X22816Y175730D01*
X22820Y175708D01*
Y173920D01*
X24398D01*
X24462Y173791D01*
X24574Y173452D01*
X24673Y172995D01*
X24786Y171874D01*
Y137100D01*
Y84782D01*
Y81580D01*
X24763Y81255D01*
X24679Y80634D01*
X24574Y80148D01*
X24462Y79809D01*
X24398Y79680D01*
X22820D01*
Y77892D01*
X22816Y77870D01*
X22820Y77847D01*
Y65753D01*
X22816Y65731D01*
X22820Y65708D01*
Y63920D01*
X24398D01*
X24462Y63791D01*
X24574Y63452D01*
X24673Y62996D01*
X24786Y61874D01*
Y33588D01*
X25118Y31918D01*
X26064Y30502D01*
X32552Y24014D01*
X33968Y23068D01*
X35638Y22736D01*
X66572D01*
X67001Y22698D01*
X67594Y22599D01*
X68049Y22477D01*
X68358Y22350D01*
X68529Y22246D01*
X68589Y22190D01*
X68595Y22182D01*
X68598Y22173D01*
X68620Y21963D01*
Y19220D01*
X81280D01*
Y34980D01*
X82361Y35436D01*
X100239D01*
X101320Y34980D01*
Y19220D01*
X113980D01*
Y25678D01*
X114172Y25756D01*
X114501Y25844D01*
X114949Y25918D01*
X115266Y25946D01*
X138496D01*
X138649Y25929D01*
X139001Y25863D01*
X139334Y25773D01*
X139650Y25658D01*
X139953Y25518D01*
X140245Y25352D01*
X140527Y25159D01*
X140804Y24935D01*
X141125Y24632D01*
X141254Y24550D01*
X141830Y23975D01*
X143490Y23016D01*
X145342Y22520D01*
X147258D01*
X148429Y22834D01*
X148572Y22847D01*
X148589Y22857D01*
X148610Y22859D01*
X149004Y22988D01*
X149110Y23016D01*
X149134Y23030D01*
X149238Y23064D01*
X150377Y23398D01*
X151878Y23742D01*
X152247Y23802D01*
X152813Y23861D01*
X231824D01*
X231824Y23861D01*
X233064Y24107D01*
X234114Y24810D01*
X299076Y89771D01*
X299076Y89771D01*
X299778Y90822D01*
X300025Y92062D01*
Y114808D01*
X300025Y114808D01*
X299778Y116048D01*
X299076Y117099D01*
X292338Y123836D01*
X291287Y124539D01*
X290048Y124785D01*
X290047Y124785D01*
X273462D01*
X273060Y125276D01*
X265877D01*
Y126546D01*
X264607D01*
Y130536D01*
X263741D01*
X263226Y130536D01*
X262568Y131700D01*
Y132947D01*
X262592Y133070D01*
Y141914D01*
X267299Y146621D01*
X289052D01*
X289052Y146621D01*
X290292Y146867D01*
X291343Y147570D01*
X298962Y155189D01*
X298962Y155189D01*
X299665Y156240D01*
X299911Y157480D01*
Y198738D01*
X299927Y198916D01*
X299959Y199110D01*
X302452D01*
Y209670D01*
X290892D01*
Y199110D01*
X293385D01*
X293417Y198916D01*
X293433Y198738D01*
Y158822D01*
X287710Y153099D01*
X265957D01*
X265957Y153099D01*
X264717Y152853D01*
X263666Y152150D01*
X263666Y152150D01*
X258766Y147250D01*
X257592Y147736D01*
Y157720D01*
X257596Y157792D01*
X257612Y157926D01*
X258505D01*
Y159705D01*
X258509Y159726D01*
X259756Y159967D01*
X259805D01*
X259920Y159952D01*
X260062Y159925D01*
X260173Y159896D01*
X260253Y159868D01*
X260304Y159845D01*
X260329Y159831D01*
X260334Y159827D01*
X260406Y159762D01*
X260521Y159693D01*
X261060Y159154D01*
X262817Y158426D01*
X264719D01*
X266476Y159154D01*
X266886Y159564D01*
X268156Y159038D01*
Y157156D01*
X273426D01*
Y163196D01*
Y169236D01*
X268156D01*
Y167374D01*
X266886Y166848D01*
X266476Y167258D01*
X264719Y167986D01*
X262817D01*
X261060Y167258D01*
X260521Y166719D01*
X260406Y166650D01*
X260334Y166585D01*
X260329Y166581D01*
X260304Y166567D01*
X260253Y166544D01*
X260173Y166516D01*
X260062Y166487D01*
X259945Y166465D01*
X259748Y166445D01*
X258877D01*
X258698Y166461D01*
X258505Y166493D01*
Y168486D01*
X247081D01*
Y173926D01*
X258505D01*
Y175914D01*
X258698Y175946D01*
X258877Y175962D01*
X268543D01*
X268722Y175946D01*
X268916Y175914D01*
Y173916D01*
X280476D01*
Y184476D01*
X268916D01*
Y182488D01*
X268722Y182456D01*
X268543Y182440D01*
X258877D01*
X258698Y182456D01*
X258505Y182488D01*
Y184486D01*
X248892D01*
X248406Y185659D01*
X251786Y189039D01*
X271018D01*
X271018Y189039D01*
X272258Y189285D01*
X273309Y189988D01*
X276991Y193670D01*
X276991Y193670D01*
X277694Y194721D01*
X277940Y195961D01*
X277940Y195961D01*
Y198738D01*
X277956Y198916D01*
X277988Y199110D01*
X280481D01*
Y209670D01*
X268921D01*
Y199110D01*
X271414D01*
X271446Y198916D01*
X271462Y198738D01*
Y197303D01*
X269676Y195517D01*
X250444D01*
X250444Y195517D01*
X249204Y195271D01*
X248153Y194569D01*
X248153Y194568D01*
X243681Y190096D01*
X242507Y190582D01*
Y196524D01*
X245777Y199794D01*
X246950Y199308D01*
Y199110D01*
X258510D01*
Y209670D01*
X246950D01*
Y207823D01*
X245792Y207629D01*
X244552Y207383D01*
X243501Y206681D01*
X243501Y206680D01*
X237799Y200978D01*
X236529Y201504D01*
Y209660D01*
X224969D01*
Y200933D01*
X224965Y200910D01*
X224969Y200888D01*
Y199100D01*
X226154D01*
X226237Y198755D01*
X226317Y198251D01*
X226390Y197258D01*
Y194412D01*
X225974Y193408D01*
Y191506D01*
X226390Y190501D01*
Y186200D01*
X226383Y185993D01*
X226321Y185355D01*
X226238Y184829D01*
X226156Y184486D01*
X224979D01*
Y182698D01*
X224975Y182676D01*
X224979Y182654D01*
Y173926D01*
X236029D01*
Y168486D01*
X224979D01*
Y157926D01*
X227472D01*
X227504Y157732D01*
X227520Y157554D01*
Y154133D01*
X226346Y153647D01*
X212027Y167966D01*
Y198738D01*
X212043Y198916D01*
X212075Y199110D01*
X214568D01*
Y209670D01*
X203008D01*
Y199110D01*
X205501D01*
X205533Y198916D01*
X205549Y198738D01*
Y166624D01*
X205549Y166624D01*
X205795Y165384D01*
X206497Y164333D01*
X231114Y139717D01*
Y133070D01*
X231138Y132947D01*
Y131700D01*
X230480Y130536D01*
X229965Y130536D01*
X229099D01*
Y126546D01*
X227829D01*
Y125276D01*
X220646D01*
X220244Y124785D01*
X217870D01*
X194755Y147900D01*
Y266954D01*
X194509Y268194D01*
X193806Y269244D01*
X193806Y269245D01*
X194709Y270131D01*
X210176Y254665D01*
X210172Y254635D01*
X209585Y253459D01*
X207566D01*
X205206Y252827D01*
X203090Y251605D01*
X201362Y249877D01*
X200140Y247761D01*
X199508Y245401D01*
Y242957D01*
X200140Y240597D01*
X201362Y238481D01*
X203090Y236753D01*
X203876Y236299D01*
X203951Y236222D01*
X204210Y236045D01*
X204349Y235918D01*
X204481Y235760D01*
X204608Y235561D01*
X204728Y235309D01*
X204839Y234997D01*
X204933Y234622D01*
X205005Y234183D01*
X205031Y233905D01*
Y226818D01*
X205005Y226527D01*
X204936Y226112D01*
X204855Y225813D01*
X204797Y225670D01*
X203008D01*
Y215110D01*
X212735D01*
X212757Y215106D01*
X212780Y215110D01*
X214568D01*
Y216464D01*
X214614Y216479D01*
X214913Y216545D01*
X215724Y216628D01*
X223925D01*
X224152Y216611D01*
X224592Y216551D01*
X224920Y216478D01*
X224969Y216462D01*
Y215100D01*
X226757D01*
X226779Y215096D01*
X226801Y215100D01*
X236529D01*
Y225660D01*
X226801D01*
X226779Y225664D01*
X226757Y225660D01*
X224969D01*
Y224306D01*
X224923Y224291D01*
X224624Y224225D01*
X223813Y224142D01*
X215612D01*
X215385Y224159D01*
X214945Y224219D01*
X214617Y224292D01*
X214568Y224308D01*
Y225670D01*
X212780D01*
X212779Y225670D01*
X212721Y225813D01*
X212640Y226112D01*
X212571Y226527D01*
X212545Y226818D01*
Y233905D01*
X212571Y234182D01*
X212643Y234622D01*
X212737Y234997D01*
X212848Y235309D01*
X212968Y235561D01*
X213095Y235760D01*
X213227Y235918D01*
X213366Y236045D01*
X213624Y236222D01*
X213700Y236299D01*
X214486Y236753D01*
X216214Y238481D01*
X217436Y240597D01*
X218068Y242957D01*
Y245401D01*
X217436Y247761D01*
X216214Y249877D01*
X215086Y251005D01*
X215612Y252275D01*
X231258D01*
X231784Y251005D01*
X230657Y249877D01*
X229435Y247761D01*
X228803Y245401D01*
Y242957D01*
X229435Y240597D01*
X230657Y238481D01*
X232385Y236753D01*
X234501Y235532D01*
X236861Y234899D01*
X239304D01*
X241665Y235532D01*
X243781Y236753D01*
X245508Y238481D01*
X245963Y239268D01*
X246040Y239343D01*
X246217Y239601D01*
X246344Y239741D01*
X246502Y239872D01*
X246701Y239999D01*
X246953Y240120D01*
X247265Y240230D01*
X247640Y240324D01*
X247703Y240335D01*
X248666Y239755D01*
X248973Y239420D01*
Y226818D01*
X248947Y226527D01*
X248878Y226112D01*
X248797Y225813D01*
X248739Y225670D01*
X246950D01*
Y215110D01*
X258510D01*
Y225670D01*
X256721D01*
X256663Y225813D01*
X256582Y226112D01*
X256513Y226527D01*
X256487Y226818D01*
Y241947D01*
X256201Y243385D01*
X255387Y244604D01*
X253155Y246836D01*
X251936Y247650D01*
X250498Y247936D01*
X248357D01*
X248079Y247962D01*
X247640Y248034D01*
X247265Y248128D01*
X246953Y248239D01*
X246701Y248360D01*
X246502Y248486D01*
X246344Y248618D01*
X246217Y248757D01*
X246040Y249016D01*
X245963Y249091D01*
X245508Y249877D01*
X244381Y251005D01*
X244907Y252275D01*
X253968D01*
X257455Y248788D01*
X257634Y248573D01*
X257894Y248211D01*
X258092Y247880D01*
X258234Y247581D01*
X258327Y247317D01*
X258379Y247087D01*
X258397Y246882D01*
X258388Y246693D01*
X258331Y246386D01*
X258332Y246278D01*
X258097Y245401D01*
Y242957D01*
X258730Y240597D01*
X259951Y238481D01*
X261679Y236753D01*
X263795Y235532D01*
X266155Y234899D01*
X268599D01*
X269795Y235220D01*
X269895Y235219D01*
X270944Y234457D01*
Y226818D01*
X270918Y226527D01*
X270849Y226112D01*
X270768Y225813D01*
X270710Y225670D01*
X268921D01*
Y215110D01*
X280481D01*
Y225670D01*
X278692D01*
X278634Y225813D01*
X278553Y226112D01*
X278484Y226527D01*
X278458Y226818D01*
Y236352D01*
X278172Y237790D01*
X277358Y239009D01*
X276729Y239637D01*
X276654Y239724D01*
X276412Y240040D01*
X276233Y240310D01*
X276116Y240527D01*
X276054Y240680D01*
X276050Y240693D01*
X276657Y242957D01*
Y245401D01*
X276025Y247761D01*
X274803Y249877D01*
X273075Y251605D01*
X270959Y252827D01*
X268599Y253459D01*
X266155D01*
X265278Y253224D01*
X265171Y253225D01*
X264863Y253168D01*
X264674Y253160D01*
X264470Y253178D01*
X264239Y253229D01*
X263976Y253322D01*
X263677Y253464D01*
X263345Y253663D01*
X262984Y253922D01*
X262769Y254101D01*
X258499Y258371D01*
X258943Y259625D01*
X258956Y259641D01*
X288512D01*
X292915Y255238D01*
Y254454D01*
X292889Y254176D01*
X292817Y253736D01*
X292723Y253361D01*
X292612Y253050D01*
X292491Y252798D01*
X292365Y252598D01*
X292233Y252441D01*
X292094Y252313D01*
X291835Y252136D01*
X291760Y252059D01*
X290974Y251605D01*
X289246Y249877D01*
X288024Y247761D01*
X287392Y245401D01*
Y242957D01*
X288024Y240597D01*
X289246Y238481D01*
X290974Y236753D01*
X291760Y236299D01*
X291835Y236222D01*
X292094Y236045D01*
X292233Y235918D01*
X292365Y235760D01*
X292491Y235561D01*
X292612Y235309D01*
X292723Y234997D01*
X292817Y234622D01*
X292889Y234183D01*
X292915Y233905D01*
Y226818D01*
X292889Y226527D01*
X292820Y226112D01*
X292739Y225813D01*
X292681Y225670D01*
X290892D01*
Y215110D01*
X302452D01*
Y225670D01*
X300663D01*
X300605Y225813D01*
X300524Y226112D01*
X300455Y226527D01*
X300429Y226818D01*
Y233905D01*
X300455Y234182D01*
X300527Y234622D01*
X300621Y234997D01*
X300732Y235309D01*
X300852Y235561D01*
X300979Y235760D01*
X301110Y235918D01*
X301250Y236045D01*
X301508Y236222D01*
X301584Y236299D01*
X302370Y236753D01*
X304098Y238481D01*
X305319Y240597D01*
X305952Y242957D01*
Y245401D01*
X305319Y247761D01*
X304098Y249877D01*
X302370Y251605D01*
X301583Y252059D01*
X301508Y252136D01*
X301250Y252313D01*
X301110Y252441D01*
X300979Y252598D01*
X300852Y252798D01*
X300732Y253050D01*
X300621Y253361D01*
X300527Y253736D01*
X300455Y254176D01*
X300429Y254454D01*
Y256794D01*
X300143Y258232D01*
X299329Y259451D01*
X292725Y266055D01*
X291506Y266869D01*
X290068Y267155D01*
X232994D01*
X232794Y267529D01*
X232605Y268425D01*
X233760Y269580D01*
X234488Y271337D01*
Y273239D01*
X233760Y274996D01*
X233488Y275268D01*
X233465Y275606D01*
Y281784D01*
X233491Y282080D01*
X233561Y282500D01*
X233642Y282805D01*
X233690Y282924D01*
X236238D01*
Y285222D01*
X236357Y285270D01*
X236662Y285351D01*
X237082Y285421D01*
X237379Y285447D01*
X238658D01*
X240096Y285733D01*
X241315Y286547D01*
X244465Y289697D01*
X245279Y290916D01*
X245565Y292354D01*
Y302630D01*
X245847Y302819D01*
X247014Y303068D01*
Y303068D01*
X266574D01*
Y314628D01*
X266574D01*
Y315568D01*
X266574D01*
Y326798D01*
X266574Y327128D01*
Y328068D01*
X266574Y328398D01*
Y339628D01*
X266574D01*
Y340568D01*
X266574D01*
Y351798D01*
X266574Y352128D01*
Y353068D01*
X266574Y353398D01*
Y364298D01*
X266574Y364628D01*
Y365568D01*
X266574Y365898D01*
Y366749D01*
X266918Y366832D01*
X267422Y366911D01*
X268414Y366984D01*
X279730D01*
X280735Y366568D01*
X282637D01*
X284394Y367296D01*
X285738Y368640D01*
X286466Y370397D01*
Y372299D01*
X285738Y374056D01*
X284394Y375400D01*
X282637Y376128D01*
X280735D01*
X279730Y375712D01*
X268293D01*
X268082Y375719D01*
X267721Y375754D01*
X267331Y376343D01*
X267176Y377109D01*
X267334Y377308D01*
X267334Y378083D01*
Y382578D01*
X256794D01*
X246254D01*
Y378083D01*
X246254Y377308D01*
X247014Y376353D01*
Y376038D01*
Y365898D01*
X247014Y365568D01*
Y364628D01*
X247014Y364177D01*
X245364Y364068D01*
X238280D01*
X237848Y364106D01*
X237250Y364206D01*
X236791Y364328D01*
X236477Y364456D01*
X236303Y364562D01*
X236240Y364620D01*
X236238Y364623D01*
Y367317D01*
X230865D01*
X230842Y367322D01*
X230821Y367317D01*
X228579D01*
X228577Y367318D01*
X227882Y367806D01*
X226431Y369043D01*
X225763Y370170D01*
X227218Y371626D01*
X228155Y372495D01*
X228938Y373123D01*
X229636Y373608D01*
X229897Y373757D01*
X232037D01*
X232059Y373753D01*
X232082Y373757D01*
X236238D01*
Y386317D01*
X223178D01*
Y382661D01*
X223174Y382639D01*
X223178Y382617D01*
Y380477D01*
X223028Y380215D01*
X222558Y379538D01*
X221292Y378043D01*
X218361Y375112D01*
X217743D01*
X215986Y374384D01*
X214642Y373040D01*
X213914Y371283D01*
Y369381D01*
X214642Y367624D01*
X215986Y366280D01*
X217434Y365680D01*
X219877Y363237D01*
X221599Y361278D01*
X222300Y360354D01*
X222834Y359542D01*
X223178Y358900D01*
Y357305D01*
X223175Y357292D01*
X223178Y357272D01*
Y354757D01*
X234407D01*
X234429Y354753D01*
X234432Y354753D01*
X234434Y354753D01*
X234456Y354757D01*
X236238D01*
Y355225D01*
X237919Y355341D01*
X245013D01*
X245411Y355308D01*
X246014Y355215D01*
X246479Y355098D01*
X246799Y354977D01*
X246973Y354878D01*
X247001Y354853D01*
X247014Y354737D01*
Y353398D01*
X247014Y353068D01*
Y352128D01*
X247014Y351798D01*
Y350339D01*
X246871Y350281D01*
X246572Y350200D01*
X246157Y350131D01*
X245866Y350105D01*
X236409D01*
X236238Y350113D01*
Y350401D01*
X234458D01*
X234437Y350405D01*
X234414Y350401D01*
X223178D01*
Y348112D01*
X223035Y348053D01*
X222736Y347973D01*
X222320Y347904D01*
X222029Y347878D01*
X195785D01*
X194347Y347592D01*
X193128Y346777D01*
X182001Y335651D01*
X181187Y334432D01*
X180901Y332994D01*
Y285496D01*
X181187Y284058D01*
X182001Y282839D01*
X181099Y281952D01*
X173673Y289378D01*
Y380366D01*
X173673Y380366D01*
X173427Y381606D01*
X172724Y382657D01*
X150609Y404772D01*
X150423Y405005D01*
X150207Y405322D01*
X150023Y405645D01*
X149869Y405978D01*
X149743Y406323D01*
X149644Y406682D01*
X149572Y407058D01*
X149539Y407354D01*
Y426470D01*
X149293Y427710D01*
X148590Y428760D01*
X148590Y428760D01*
X131521Y445830D01*
X130470Y446533D01*
X129230Y446779D01*
X129230Y446779D01*
X71438D01*
X71268Y446795D01*
X70988Y446841D01*
X70772Y446896D01*
X70622Y446951D01*
X70533Y446997D01*
X70531Y446998D01*
X70498Y447122D01*
X69276Y449238D01*
X67548Y450966D01*
X65432Y452188D01*
X63072Y452820D01*
X60628D01*
X58268Y452188D01*
X56152Y450966D01*
X54424Y449238D01*
X53202Y447122D01*
X52570Y444762D01*
Y442318D01*
X53202Y439958D01*
X54424Y437842D01*
X56152Y436114D01*
X58268Y434892D01*
X60628Y434260D01*
X63072D01*
X65432Y434892D01*
X67548Y436114D01*
X69276Y437842D01*
X70498Y439958D01*
X70531Y440081D01*
X70533Y440083D01*
X70622Y440129D01*
X70772Y440184D01*
X70988Y440239D01*
X71268Y440285D01*
X71438Y440301D01*
X127888D01*
X143061Y425128D01*
Y408322D01*
X143027Y408132D01*
X142979Y407989D01*
X142941Y407917D01*
X142915Y407885D01*
X142883Y407859D01*
X142811Y407821D01*
X142668Y407773D01*
X142478Y407739D01*
X113907D01*
X113655Y409009D01*
X114057Y409176D01*
X115824Y410943D01*
X116780Y413251D01*
Y415749D01*
X115824Y418057D01*
X114057Y419824D01*
X111749Y420780D01*
X109251D01*
X106943Y419824D01*
X105176Y418057D01*
X104220Y415749D01*
Y413251D01*
X104778Y411903D01*
X103770Y411018D01*
X103310Y411284D01*
X101458Y411780D01*
X99542D01*
X97690Y411284D01*
X97230Y411018D01*
X96222Y411903D01*
X96780Y413251D01*
Y415749D01*
X95824Y418057D01*
X94057Y419824D01*
X91749Y420780D01*
X89251D01*
X86943Y419824D01*
X86206Y419087D01*
X86119Y419039D01*
X86101Y419025D01*
X86090Y419020D01*
X85979Y418984D01*
X85799Y418942D01*
X85595Y418907D01*
X85036Y418864D01*
X35865D01*
X35297Y418964D01*
X34822Y419122D01*
X34464Y419315D01*
X34190Y419540D01*
X33965Y419814D01*
X33772Y420173D01*
X33614Y420647D01*
X33514Y421215D01*
Y432464D01*
X33551Y432851D01*
X33654Y433467D01*
X33794Y434035D01*
X33970Y434557D01*
X34179Y435035D01*
X34421Y435474D01*
X34698Y435877D01*
X35010Y436250D01*
X35423Y436656D01*
X35427Y436662D01*
X35433Y436666D01*
X35499Y436766D01*
X36576Y437842D01*
X37798Y439958D01*
X38430Y442318D01*
Y444762D01*
X37798Y447122D01*
X36576Y449238D01*
X35499Y450314D01*
X35433Y450414D01*
X35427Y450418D01*
X35423Y450424D01*
X35010Y450830D01*
X34698Y451203D01*
X34421Y451607D01*
X34179Y452045D01*
X33970Y452523D01*
X33794Y453045D01*
X33654Y453613D01*
X33551Y454229D01*
X33514Y454616D01*
Y462864D01*
X33930Y463869D01*
Y465771D01*
X33202Y467528D01*
X31858Y468872D01*
X30101Y469600D01*
D02*
G37*
G36*
X211998Y369267D02*
X205978D01*
Y363497D01*
X211998D01*
Y369267D01*
D02*
G37*
G36*
X203438D02*
X197418D01*
Y363497D01*
X203438D01*
Y369267D01*
D02*
G37*
G36*
X303334Y296388D02*
X287064D01*
Y284618D01*
X303334D01*
Y296388D01*
D02*
G37*
G36*
X284524D02*
X268254D01*
Y284618D01*
X284524D01*
Y296388D01*
D02*
G37*
G36*
X303334Y282078D02*
X287064D01*
Y270308D01*
X303334D01*
Y282078D01*
D02*
G37*
G36*
X284524D02*
X268254D01*
Y270308D01*
X284524D01*
Y282078D01*
D02*
G37*
G36*
X281236Y169236D02*
X275966D01*
Y164466D01*
X281236D01*
Y169236D01*
D02*
G37*
G36*
Y161926D02*
X275966D01*
Y157156D01*
X281236D01*
Y161926D01*
D02*
G37*
G36*
X267147Y130536D02*
Y127816D01*
X272265D01*
X272214Y128073D01*
X271349Y129367D01*
X270055Y130232D01*
X268528Y130536D01*
X267147D01*
D02*
G37*
G36*
X226559D02*
X225178D01*
X223651Y130232D01*
X222357Y129367D01*
X221492Y128073D01*
X221441Y127816D01*
X226559D01*
Y130536D01*
D02*
G37*
%LPD*%
G36*
X232230Y424473D02*
X232297Y423623D01*
X232408Y422873D01*
X232563Y422223D01*
X232763Y421673D01*
X233007Y421223D01*
X233295Y420873D01*
X233629Y420623D01*
X234006Y420473D01*
X234428Y420423D01*
X224988D01*
X225410Y420473D01*
X225788Y420623D01*
X226120Y420873D01*
X226409Y421223D01*
X226653Y421673D01*
X226853Y422223D01*
X227008Y422873D01*
X227119Y423623D01*
X227186Y424473D01*
X227208Y425423D01*
X232208D01*
X232230Y424473D01*
D02*
G37*
G36*
X234006Y411434D02*
X233629Y411284D01*
X233295Y411034D01*
X233007Y410684D01*
X232763Y410234D01*
X232563Y409684D01*
X232408Y409034D01*
X232297Y408284D01*
X232230Y407434D01*
X232208Y406484D01*
X227208D01*
X227186Y407434D01*
X227119Y408284D01*
X227008Y409034D01*
X226853Y409684D01*
X226653Y410234D01*
X226409Y410684D01*
X226120Y411034D01*
X225788Y411284D01*
X225410Y411434D01*
X224988Y411484D01*
X234428D01*
X234006Y411434D01*
D02*
G37*
G36*
X232230Y405473D02*
X232297Y404623D01*
X232408Y403873D01*
X232563Y403223D01*
X232763Y402673D01*
X233007Y402223D01*
X233295Y401873D01*
X233629Y401623D01*
X234006Y401473D01*
X234428Y401423D01*
X224988D01*
X225410Y401473D01*
X225788Y401623D01*
X226120Y401873D01*
X226409Y402223D01*
X226653Y402673D01*
X226853Y403223D01*
X227008Y403873D01*
X227119Y404623D01*
X227186Y405473D01*
X227208Y406423D01*
X232208D01*
X232230Y405473D01*
D02*
G37*
G36*
X234478Y400992D02*
X234627Y400605D01*
X234877Y400265D01*
X235228Y399969D01*
X235678Y399719D01*
X236227Y399515D01*
X236877Y399356D01*
X237628Y399242D01*
X238477Y399174D01*
X239428Y399151D01*
Y394151D01*
X238477Y394134D01*
X236877Y394001D01*
X236227Y393884D01*
X235678Y393734D01*
X235228Y393551D01*
X234877Y393334D01*
X234627Y393084D01*
X234478Y392801D01*
X234428Y392484D01*
Y401423D01*
X234478Y400992D01*
D02*
G37*
G36*
X248825Y392379D02*
X248775Y392715D01*
X248624Y393017D01*
X248375Y393282D01*
X248025Y393513D01*
X247575Y393708D01*
X247024Y393867D01*
X246374Y393991D01*
X245625Y394080D01*
X244774Y394133D01*
X243825Y394151D01*
Y399151D01*
X244774Y399163D01*
X247024Y399338D01*
X247575Y399443D01*
X248025Y399571D01*
X248375Y399723D01*
X248624Y399897D01*
X248775Y400096D01*
X248825Y400317D01*
Y392379D01*
D02*
G37*
G36*
X31675Y454782D02*
X31750Y453993D01*
X31875Y453245D01*
X32050Y452537D01*
X32275Y451868D01*
X32550Y451240D01*
X32875Y450653D01*
X33250Y450105D01*
X33675Y449598D01*
X34150Y449130D01*
X24150D01*
X24625Y449598D01*
X25050Y450105D01*
X25425Y450653D01*
X25750Y451240D01*
X26025Y451868D01*
X26250Y452537D01*
X26425Y453245D01*
X26550Y453993D01*
X26625Y454782D01*
X26650Y455611D01*
X31650D01*
X31675Y454782D01*
D02*
G37*
G36*
X68943Y446069D02*
X69118Y445831D01*
X69334Y445621D01*
X69592Y445440D01*
X69891Y445286D01*
X70232Y445160D01*
X70615Y445063D01*
X71039Y444993D01*
X71505Y444951D01*
X72013Y444937D01*
Y442143D01*
X71505Y442129D01*
X71039Y442087D01*
X70615Y442017D01*
X70232Y441920D01*
X69891Y441794D01*
X69592Y441640D01*
X69334Y441459D01*
X69118Y441249D01*
X68943Y441011D01*
X68810Y440746D01*
Y446334D01*
X68943Y446069D01*
D02*
G37*
G36*
X33675Y437482D02*
X33250Y436975D01*
X32875Y436427D01*
X32550Y435840D01*
X32275Y435212D01*
X32050Y434543D01*
X31875Y433835D01*
X31750Y433087D01*
X31675Y432298D01*
X31650Y431469D01*
X26650D01*
X26625Y432298D01*
X26550Y433087D01*
X26425Y433835D01*
X26250Y434543D01*
X26025Y435212D01*
X25750Y435840D01*
X25425Y436427D01*
X25050Y436975D01*
X24625Y437482D01*
X24150Y437950D01*
X34150D01*
X33675Y437482D01*
D02*
G37*
G36*
X87286Y411350D02*
X87139Y411474D01*
X86953Y411584D01*
X86728Y411682D01*
X86464Y411766D01*
X86161Y411838D01*
X85818Y411896D01*
X85016Y411974D01*
X84557Y411993D01*
X84058Y412000D01*
Y417000D01*
X84557Y417006D01*
X85818Y417104D01*
X86161Y417163D01*
X86464Y417234D01*
X86728Y417318D01*
X86953Y417416D01*
X87139Y417527D01*
X87286Y417650D01*
Y411350D01*
D02*
G37*
G36*
X31700Y421050D02*
X31850Y420200D01*
X32100Y419450D01*
X32450Y418800D01*
X32900Y418250D01*
X33450Y417800D01*
X34100Y417450D01*
X34850Y417200D01*
X35700Y417050D01*
X36650Y417000D01*
Y412000D01*
X35700Y411950D01*
X34850Y411800D01*
X34100Y411550D01*
X33450Y411200D01*
X32900Y410750D01*
X32450Y410200D01*
X32100Y409550D01*
X32056Y409418D01*
X32155Y409119D01*
X32377Y408670D01*
X32640Y408320D01*
X32943Y408069D01*
X33286Y407920D01*
X33670Y407869D01*
X31696D01*
X31650Y407000D01*
X31070Y407869D01*
X24630D01*
X25014Y407920D01*
X25357Y408069D01*
X25661Y408320D01*
X25923Y408670D01*
X26145Y409119D01*
X26327Y409669D01*
X26468Y410320D01*
X26569Y411069D01*
X26630Y411920D01*
X26650Y412869D01*
X27737D01*
X26650Y414500D01*
X31650Y422000D01*
X31700Y421050D01*
D02*
G37*
G36*
X104908Y407884D02*
X105385Y407467D01*
X105860Y407099D01*
X106333Y406780D01*
X106803Y406510D01*
X107271Y406289D01*
X107737Y406118D01*
X108200Y405995D01*
X108661Y405922D01*
X109096Y405898D01*
X109155Y405897D01*
Y403103D01*
X109115Y403103D01*
X108661Y403078D01*
X108200Y403005D01*
X107737Y402882D01*
X107271Y402710D01*
X106803Y402490D01*
X106333Y402220D01*
X105860Y401901D01*
X105385Y401533D01*
X104908Y401116D01*
X104428Y400650D01*
Y402868D01*
X104014Y402842D01*
X103513Y402747D01*
X103114Y402639D01*
X102816Y402515D01*
X102620Y402377D01*
Y406623D01*
X102816Y406485D01*
X103114Y406361D01*
X103513Y406253D01*
X104014Y406158D01*
X104428Y406104D01*
Y408350D01*
X104908Y407884D01*
D02*
G37*
G36*
X65538Y403512D02*
X65435Y403396D01*
X65339Y403260D01*
X65250Y403103D01*
X65169Y402928D01*
X65094Y402732D01*
X65027Y402517D01*
X64967Y402282D01*
X64869Y401753D01*
X64830Y401458D01*
X61508Y404781D01*
X61803Y404819D01*
X62332Y404917D01*
X62567Y404977D01*
X62782Y405045D01*
X62978Y405119D01*
X63154Y405200D01*
X63309Y405289D01*
X63446Y405385D01*
X63562Y405488D01*
X65538Y403512D01*
D02*
G37*
G36*
X147697Y407873D02*
X147717Y407322D01*
X147776Y406788D01*
X147875Y406270D01*
X148013Y405768D01*
X148191Y405283D01*
X148408Y404814D01*
X148665Y404362D01*
X148961Y403926D01*
X149297Y403506D01*
X149673Y403103D01*
X147697Y401127D01*
X147294Y401503D01*
X146874Y401839D01*
X146438Y402135D01*
X145986Y402392D01*
X145517Y402609D01*
X145032Y402787D01*
X144530Y402925D01*
X144012Y403024D01*
X143478Y403083D01*
X142927Y403103D01*
X142109Y405897D01*
X142640Y405925D01*
X143115Y406009D01*
X143534Y406148D01*
X143897Y406344D01*
X144205Y406595D01*
X144456Y406903D01*
X144652Y407266D01*
X144791Y407685D01*
X144875Y408160D01*
X144903Y408691D01*
X147697Y407873D01*
D02*
G37*
G36*
X96572Y400650D02*
X96382Y400812D01*
X96146Y400956D01*
X95864Y401083D01*
X95535Y401194D01*
X95160Y401287D01*
X94739Y401364D01*
X94271Y401423D01*
X93197Y401492D01*
X92590Y401500D01*
Y407500D01*
X93197Y407509D01*
X94739Y407636D01*
X95160Y407713D01*
X95535Y407806D01*
X95864Y407916D01*
X96146Y408044D01*
X96382Y408189D01*
X96572Y408350D01*
Y400650D01*
D02*
G37*
G36*
X66399Y407230D02*
X66580Y406720D01*
X66882Y406270D01*
X67304Y405880D01*
X67847Y405550D01*
X68510Y405280D01*
X69294Y405070D01*
X70199Y404920D01*
X71224Y404830D01*
X72369Y404800D01*
Y398800D01*
X71224Y398770D01*
X70199Y398680D01*
X69294Y398530D01*
X68510Y398320D01*
X67847Y398050D01*
X67304Y397720D01*
X66882Y397330D01*
X66580Y396880D01*
X66399Y396370D01*
X66339Y395800D01*
Y407800D01*
X66399Y407230D01*
D02*
G37*
G36*
X33286Y395681D02*
X32943Y395531D01*
X32640Y395280D01*
X32377Y394930D01*
X32155Y394481D01*
X31973Y393931D01*
X31832Y393280D01*
X31731Y392531D01*
X31670Y391680D01*
X31650Y390731D01*
X26650D01*
X26630Y391680D01*
X26468Y393280D01*
X26327Y393931D01*
X26145Y394481D01*
X25923Y394930D01*
X25661Y395280D01*
X25357Y395531D01*
X25014Y395681D01*
X24630Y395731D01*
X33670D01*
X33286Y395681D01*
D02*
G37*
G36*
X232059Y375568D02*
X231671Y375851D01*
X231211Y375992D01*
X230681D01*
X230080Y375851D01*
X229408Y375568D01*
X228665Y375144D01*
X227852Y374578D01*
X226968Y373871D01*
X224988Y372032D01*
X221453Y375568D01*
X222443Y376593D01*
X223999Y378432D01*
X224564Y379245D01*
X224988Y379987D01*
X225271Y380659D01*
X225413Y381260D01*
Y381790D01*
X225271Y382250D01*
X224988Y382639D01*
X232059Y375568D01*
D02*
G37*
G36*
X264813Y375038D02*
X264963Y374789D01*
X265214Y374568D01*
X265564Y374377D01*
X266014Y374215D01*
X266563Y374083D01*
X267213Y373980D01*
X267964Y373907D01*
X269764Y373848D01*
Y368848D01*
X268813Y368833D01*
X267213Y368716D01*
X266563Y368613D01*
X266014Y368481D01*
X265564Y368319D01*
X265214Y368128D01*
X264963Y367907D01*
X264813Y367658D01*
X264764Y367379D01*
Y375317D01*
X264813Y375038D01*
D02*
G37*
G36*
X133086Y366650D02*
X132939Y366773D01*
X132753Y366884D01*
X132528Y366982D01*
X132264Y367066D01*
X131961Y367137D01*
X131618Y367196D01*
X130817Y367274D01*
X130357Y367294D01*
X129858Y367300D01*
Y372300D01*
X130357Y372307D01*
X131618Y372404D01*
X131961Y372463D01*
X132264Y372534D01*
X132528Y372618D01*
X132753Y372716D01*
X132939Y372826D01*
X133086Y372950D01*
Y366650D01*
D02*
G37*
G36*
X55520Y409680D02*
Y393920D01*
X68180D01*
Y395951D01*
X68182Y395966D01*
X68215Y396059D01*
X68271Y396142D01*
X68402Y396264D01*
X68665Y396424D01*
X69089Y396596D01*
X69678Y396754D01*
X70427Y396878D01*
X70975Y396926D01*
X81252D01*
X83117Y397297D01*
X84698Y398354D01*
X85971Y399626D01*
X93934D01*
X94099Y399616D01*
X94462Y399570D01*
X94778Y399512D01*
X95026Y399451D01*
X95200Y399392D01*
X95296Y399349D01*
X95314Y399338D01*
X95396Y399268D01*
X95488Y399216D01*
X96030Y398675D01*
X97690Y397716D01*
X99542Y397220D01*
X101458D01*
X103310Y397716D01*
X104970Y398675D01*
X105554Y399259D01*
X105692Y399348D01*
X106138Y399781D01*
X106539Y400131D01*
X106924Y400430D01*
X107293Y400679D01*
X107643Y400879D01*
X107973Y401035D01*
X108284Y401150D01*
X108576Y401227D01*
X108787Y401261D01*
X143446D01*
X143742Y401228D01*
X144118Y401156D01*
X144477Y401057D01*
X144822Y400931D01*
X145155Y400777D01*
X145478Y400593D01*
X145795Y400378D01*
X146027Y400192D01*
X167195Y379024D01*
Y288036D01*
X167195Y288036D01*
X167441Y286796D01*
X167568Y286607D01*
X166581Y285798D01*
X149539Y302840D01*
Y351513D01*
X149573Y351724D01*
X149650Y352016D01*
X149765Y352327D01*
X149921Y352657D01*
X150121Y353007D01*
X150370Y353376D01*
X150669Y353761D01*
X151019Y354162D01*
X151452Y354608D01*
X151541Y354746D01*
X152126Y355330D01*
X153084Y356990D01*
X153580Y358842D01*
Y360758D01*
X153084Y362610D01*
X152818Y363070D01*
X153702Y364078D01*
X155051Y363520D01*
X157549D01*
X159857Y364476D01*
X161624Y366243D01*
X162580Y368551D01*
Y371049D01*
X161624Y373357D01*
X159857Y375124D01*
X157549Y376080D01*
X155051D01*
X152743Y375124D01*
X150976Y373357D01*
X150020Y371049D01*
Y368551D01*
X150578Y367202D01*
X149570Y366318D01*
X149110Y366584D01*
X147258Y367080D01*
X145342D01*
X143490Y366584D01*
X143030Y366318D01*
X142022Y367202D01*
X142580Y368551D01*
Y371049D01*
X141624Y373357D01*
X139857Y375124D01*
X137549Y376080D01*
X135051D01*
X132743Y375124D01*
X132006Y374388D01*
X131919Y374339D01*
X131901Y374325D01*
X131890Y374320D01*
X131779Y374284D01*
X131599Y374242D01*
X131395Y374207D01*
X130836Y374164D01*
X77879D01*
X76209Y373832D01*
X74793Y372886D01*
X71864Y369957D01*
X70918Y368541D01*
X70586Y366871D01*
Y365616D01*
X70544Y365220D01*
X70502Y364980D01*
X68620D01*
Y361919D01*
X68598Y361710D01*
X68595Y361700D01*
X68589Y361692D01*
X68529Y361636D01*
X68358Y361532D01*
X68049Y361405D01*
X67594Y361283D01*
X67001Y361184D01*
X66572Y361146D01*
X35865D01*
X35297Y361246D01*
X34822Y361404D01*
X34464Y361597D01*
X34190Y361822D01*
X33965Y362096D01*
X33772Y362455D01*
X33614Y362929D01*
X33514Y363497D01*
Y392020D01*
X33537Y392345D01*
X33621Y392966D01*
X33726Y393452D01*
X33838Y393791D01*
X33902Y393920D01*
X35480D01*
Y395708D01*
X35484Y395731D01*
X35480Y395753D01*
Y407847D01*
X35484Y407869D01*
X35480Y407892D01*
Y409680D01*
X36561Y410136D01*
X54439D01*
X55520Y409680D01*
D02*
G37*
G36*
X77462Y366162D02*
X77558Y364968D01*
X77642Y364483D01*
X77750Y364072D01*
X77882Y363736D01*
X78039Y363475D01*
X78219Y363288D01*
X78423Y363176D01*
X78651Y363139D01*
X71248D01*
X71477Y363176D01*
X71681Y363288D01*
X71861Y363475D01*
X72017Y363736D01*
X72150Y364072D01*
X72258Y364483D01*
X72342Y364968D01*
X72402Y365527D01*
X72450Y366871D01*
X77450D01*
X77462Y366162D01*
D02*
G37*
G36*
X224859Y367998D02*
X226770Y366370D01*
X227601Y365786D01*
X228350Y365356D01*
X229015Y365079D01*
X229598Y364955D01*
X230098Y364986D01*
X230515Y365169D01*
X230850Y365507D01*
X224988Y357226D01*
X225199Y357687D01*
X225245Y358242D01*
X225127Y358891D01*
X224843Y359634D01*
X224395Y360471D01*
X223783Y361402D01*
X223005Y362427D01*
X220956Y364758D01*
X219685Y366065D01*
X223779Y369042D01*
X224859Y367998D01*
D02*
G37*
G36*
X234449Y364230D02*
X234601Y363805D01*
X234854Y363430D01*
X235206Y363105D01*
X235659Y362830D01*
X236213Y362605D01*
X236866Y362430D01*
X237619Y362305D01*
X238473Y362230D01*
X239428Y362205D01*
Y357205D01*
X238477Y357198D01*
X235228Y356975D01*
X234877Y356893D01*
X234627Y356797D01*
X234478Y356689D01*
X234428Y356568D01*
X234397Y364705D01*
X234449Y364230D01*
D02*
G37*
G36*
X142372Y355950D02*
X142182Y356111D01*
X141946Y356256D01*
X141664Y356384D01*
X141335Y356494D01*
X140960Y356587D01*
X140539Y356664D01*
X140071Y356724D01*
X138997Y356791D01*
X138390Y356800D01*
Y362800D01*
X138997Y362808D01*
X140539Y362936D01*
X140960Y363013D01*
X141335Y363106D01*
X141664Y363217D01*
X141946Y363344D01*
X142182Y363489D01*
X142372Y363650D01*
Y355950D01*
D02*
G37*
G36*
X248825Y354879D02*
X248775Y355320D01*
X248624Y355716D01*
X248375Y356065D01*
X248025Y356367D01*
X247575Y356623D01*
X247024Y356832D01*
X246374Y356995D01*
X245625Y357112D01*
X244774Y357181D01*
X243825Y357205D01*
Y362205D01*
X244774Y362211D01*
X248025Y362425D01*
X248375Y362505D01*
X248624Y362597D01*
X248775Y362701D01*
X248825Y362817D01*
Y354879D01*
D02*
G37*
G36*
X70430Y351782D02*
X70381Y352257D01*
X70230Y352682D01*
X69981Y353057D01*
X69630Y353382D01*
X69180Y353657D01*
X68630Y353882D01*
X67980Y354057D01*
X67231Y354182D01*
X66381Y354257D01*
X65430Y354282D01*
Y359282D01*
X66381Y359307D01*
X67231Y359382D01*
X67980Y359507D01*
X68630Y359682D01*
X69180Y359907D01*
X69630Y360182D01*
X69981Y360507D01*
X70230Y360882D01*
X70381Y361307D01*
X70430Y361782D01*
Y351782D01*
D02*
G37*
G36*
X149684Y355392D02*
X149267Y354915D01*
X148899Y354440D01*
X148580Y353967D01*
X148310Y353497D01*
X148090Y353029D01*
X147918Y352563D01*
X147795Y352100D01*
X147722Y351639D01*
X147697Y351180D01*
X144903D01*
X144879Y351639D01*
X144805Y352100D01*
X144682Y352563D01*
X144510Y353029D01*
X144290Y353497D01*
X144020Y353967D01*
X143701Y354440D01*
X143333Y354915D01*
X142916Y355392D01*
X142450Y355872D01*
X150150D01*
X149684Y355392D01*
D02*
G37*
G36*
X112199Y362554D02*
X112380Y362044D01*
X112682Y361594D01*
X113104Y361204D01*
X113647Y360874D01*
X114310Y360604D01*
X115094Y360394D01*
X115998Y360244D01*
X117024Y360154D01*
X118169Y360124D01*
Y354124D01*
X117024Y354094D01*
X115998Y354004D01*
X115094Y353854D01*
X114310Y353644D01*
X113647Y353374D01*
X113104Y353044D01*
X112682Y352654D01*
X112380Y352204D01*
X112199Y351694D01*
X112139Y351124D01*
Y363124D01*
X112199Y362554D01*
D02*
G37*
G36*
X31700Y363332D02*
X31850Y362482D01*
X32100Y361732D01*
X32450Y361082D01*
X32900Y360532D01*
X33450Y360082D01*
X34100Y359732D01*
X34850Y359482D01*
X35700Y359332D01*
X36650Y359282D01*
Y354282D01*
X35700Y354232D01*
X34850Y354082D01*
X34100Y353832D01*
X33450Y353482D01*
X32900Y353032D01*
X32450Y352482D01*
X32100Y351832D01*
X31850Y351082D01*
X31700Y350232D01*
X31650Y349282D01*
X26650Y356782D01*
X31650Y364282D01*
X31700Y363332D01*
D02*
G37*
G36*
X101320Y364980D02*
Y349220D01*
X113980D01*
Y351275D01*
X113982Y351290D01*
X114015Y351383D01*
X114071Y351466D01*
X114202Y351588D01*
X114465Y351748D01*
X114889Y351920D01*
X115478Y352078D01*
X116227Y352202D01*
X116775Y352250D01*
X126238D01*
X128103Y352621D01*
X129684Y353678D01*
X130933Y354926D01*
X139734D01*
X139899Y354916D01*
X140262Y354870D01*
X140578Y354812D01*
X140826Y354751D01*
X141000Y354692D01*
X141096Y354649D01*
X141114Y354637D01*
X141147Y354609D01*
X141148Y354608D01*
X141581Y354162D01*
X141931Y353761D01*
X142230Y353376D01*
X142479Y353007D01*
X142679Y352657D01*
X142835Y352327D01*
X142950Y352016D01*
X143027Y351724D01*
X143061Y351513D01*
Y301498D01*
X143061Y301498D01*
X143307Y300258D01*
X144010Y299207D01*
X180953Y262264D01*
X180917Y262086D01*
X179539Y261668D01*
X144417Y296791D01*
X143366Y297493D01*
X142126Y297739D01*
X142126Y297739D01*
X113907D01*
X113655Y299009D01*
X114057Y299176D01*
X115824Y300943D01*
X116780Y303251D01*
Y305749D01*
X115824Y308057D01*
X114057Y309824D01*
X111749Y310780D01*
X109251D01*
X106943Y309824D01*
X105176Y308057D01*
X104220Y305749D01*
Y303251D01*
X104778Y301903D01*
X103770Y301018D01*
X103310Y301284D01*
X101458Y301780D01*
X99542D01*
X97690Y301284D01*
X97230Y301018D01*
X96222Y301903D01*
X96780Y303251D01*
Y305749D01*
X95824Y308057D01*
X94057Y309824D01*
X91749Y310780D01*
X89251D01*
X86943Y309824D01*
X86206Y309088D01*
X86119Y309039D01*
X86101Y309025D01*
X86090Y309020D01*
X85979Y308984D01*
X85799Y308942D01*
X85595Y308907D01*
X85036Y308864D01*
X35865D01*
X35297Y308964D01*
X34822Y309122D01*
X34464Y309315D01*
X34190Y309540D01*
X33965Y309814D01*
X33772Y310173D01*
X33614Y310647D01*
X33514Y311215D01*
Y350067D01*
X33614Y350635D01*
X33772Y351110D01*
X33965Y351468D01*
X34190Y351743D01*
X34464Y351967D01*
X34822Y352160D01*
X35297Y352318D01*
X35865Y352418D01*
X66572D01*
X67001Y352380D01*
X67594Y352282D01*
X68049Y352159D01*
X68358Y352033D01*
X68529Y351928D01*
X68589Y351873D01*
X68595Y351864D01*
X68598Y351855D01*
X68620Y351645D01*
Y349220D01*
X81280D01*
Y364980D01*
X82361Y365436D01*
X100239D01*
X101320Y364980D01*
D02*
G37*
G36*
X248825Y342538D02*
X248786Y342900D01*
X248672Y343224D01*
X248482Y343509D01*
X248215Y343757D01*
X247872Y343967D01*
X247453Y344138D01*
X246958Y344272D01*
X246386Y344367D01*
X245738Y344424D01*
X245014Y344443D01*
Y348253D01*
X245738Y348272D01*
X246386Y348329D01*
X246958Y348424D01*
X247453Y348558D01*
X247872Y348729D01*
X248215Y348939D01*
X248482Y349186D01*
X248672Y349472D01*
X248786Y349796D01*
X248825Y350158D01*
Y342538D01*
D02*
G37*
G36*
X234466Y348526D02*
X234580Y348469D01*
X234770Y348418D01*
X235037Y348374D01*
X235380Y348337D01*
X236866Y348266D01*
X238237Y348253D01*
Y344443D01*
X237509Y344424D01*
X236858Y344367D01*
X236283Y344272D01*
X235784Y344138D01*
X235362Y343967D01*
X235016Y343757D01*
X234747Y343509D01*
X234554Y343224D01*
X234437Y342900D01*
X234397Y342538D01*
X234428Y348590D01*
X234466Y348526D01*
D02*
G37*
G36*
X224988Y340311D02*
X224950Y340673D01*
X224836Y340996D01*
X224646Y341282D01*
X224379Y341530D01*
X224036Y341739D01*
X223617Y341911D01*
X223121Y342044D01*
X222550Y342139D01*
X221902Y342197D01*
X221178Y342216D01*
Y346026D01*
X221902Y346045D01*
X222550Y346102D01*
X223121Y346197D01*
X223617Y346330D01*
X224036Y346502D01*
X224379Y346711D01*
X224646Y346959D01*
X224836Y347245D01*
X224950Y347569D01*
X224988Y347931D01*
Y340311D01*
D02*
G37*
G36*
X248825Y330189D02*
X248789Y330495D01*
X248684Y330768D01*
X248508Y331010D01*
X248262Y331219D01*
X247946Y331396D01*
X247560Y331540D01*
X247103Y331653D01*
X246576Y331734D01*
X245978Y331782D01*
X245311Y331798D01*
Y335608D01*
X245978Y335624D01*
X246576Y335672D01*
X247103Y335753D01*
X247560Y335865D01*
X247946Y336010D01*
X248262Y336187D01*
X248508Y336396D01*
X248684Y336637D01*
X248789Y336911D01*
X248825Y337216D01*
Y330189D01*
D02*
G37*
G36*
X209487Y338811D02*
X209667Y338561D01*
X209967Y338341D01*
X210387Y338150D01*
X210928Y337988D01*
X211588Y337856D01*
X212367Y337753D01*
X214287Y337635D01*
X215427Y337621D01*
Y331621D01*
X214287Y331606D01*
X211588Y331385D01*
X210928Y331253D01*
X210387Y331092D01*
X209967Y330901D01*
X209667Y330680D01*
X209487Y330430D01*
X209428Y330151D01*
Y339090D01*
X209487Y338811D01*
D02*
G37*
G36*
X234463Y329333D02*
X234568Y329103D01*
X234744Y328901D01*
X234990Y328725D01*
X235306Y328576D01*
X235692Y328454D01*
X236149Y328360D01*
X236676Y328292D01*
X237274Y328252D01*
X237941Y328238D01*
Y324428D01*
X237269Y324412D01*
X236667Y324364D01*
X236137Y324283D01*
X235676Y324171D01*
X235287Y324026D01*
X234967Y323849D01*
X234719Y323640D01*
X234541Y323399D01*
X234434Y323125D01*
X234397Y322820D01*
X234428Y329590D01*
X234463Y329333D01*
D02*
G37*
G36*
X224988Y321311D02*
X224950Y321673D01*
X224836Y321996D01*
X224646Y322282D01*
X224379Y322530D01*
X224036Y322739D01*
X223617Y322911D01*
X223121Y323044D01*
X222550Y323139D01*
X221902Y323197D01*
X221178Y323216D01*
Y327026D01*
X221902Y327045D01*
X222550Y327102D01*
X223121Y327197D01*
X223617Y327330D01*
X224036Y327502D01*
X224379Y327711D01*
X224646Y327959D01*
X224836Y328245D01*
X224950Y328569D01*
X224988Y328931D01*
Y321311D01*
D02*
G37*
G36*
X248825Y317379D02*
X248796Y317452D01*
X248712Y317518D01*
X248571Y317575D01*
X248374Y317626D01*
X248121Y317668D01*
X247811Y317703D01*
X247023Y317749D01*
X246010Y317765D01*
Y321575D01*
X246545Y321584D01*
X247445Y321657D01*
X247811Y321720D01*
X248121Y321802D01*
X248374Y321902D01*
X248571Y322021D01*
X248712Y322157D01*
X248796Y322312D01*
X248825Y322485D01*
Y317379D01*
D02*
G37*
G36*
X224988Y304394D02*
X224950Y304756D01*
X224836Y305080D01*
X224646Y305366D01*
X224379Y305613D01*
X224036Y305823D01*
X223617Y305994D01*
X223121Y306127D01*
X222550Y306223D01*
X221902Y306280D01*
X221289Y306296D01*
X219926Y306203D01*
X219809Y306174D01*
X219723Y306141D01*
X219668Y306104D01*
Y310304D01*
X219723Y310267D01*
X219809Y310234D01*
X219926Y310205D01*
X220076Y310179D01*
X220471Y310140D01*
X220994Y310117D01*
X221324Y310113D01*
X221902Y310128D01*
X222550Y310185D01*
X223121Y310280D01*
X223617Y310414D01*
X224036Y310585D01*
X224379Y310795D01*
X224646Y311042D01*
X224836Y311328D01*
X224950Y311652D01*
X224988Y312014D01*
Y304394D01*
D02*
G37*
G36*
X234453Y312649D02*
X234530Y312628D01*
X234657Y312609D01*
X234836Y312593D01*
X236062Y312552D01*
X236982Y312547D01*
Y308737D01*
X236492Y308731D01*
X235330Y308633D01*
X235045Y308575D01*
X234813Y308503D01*
X234632Y308419D01*
X234502Y308321D01*
X234424Y308211D01*
X234397Y308088D01*
X234428Y312673D01*
X234453Y312649D01*
D02*
G37*
G36*
X248825Y305297D02*
X248789Y305603D01*
X248684Y305876D01*
X248508Y306118D01*
X248262Y306327D01*
X247946Y306504D01*
X247560Y306649D01*
X247103Y306761D01*
X246576Y306842D01*
X245978Y306890D01*
X245311Y306906D01*
Y310716D01*
X245978Y310732D01*
X246576Y310780D01*
X247103Y310861D01*
X247560Y310973D01*
X247946Y311118D01*
X248262Y311295D01*
X248508Y311504D01*
X248684Y311745D01*
X248789Y312019D01*
X248825Y312325D01*
Y305297D01*
D02*
G37*
G36*
X207725Y308034D02*
X207863Y306113D01*
X207983Y305333D01*
X208138Y304674D01*
X208327Y304133D01*
X208550Y303713D01*
X208808Y303414D01*
X209101Y303234D01*
X209428Y303174D01*
X199988D01*
X200315Y303234D01*
X200607Y303414D01*
X200865Y303713D01*
X201089Y304133D01*
X201278Y304674D01*
X201433Y305333D01*
X201553Y306113D01*
X201639Y307013D01*
X201708Y309174D01*
X207708D01*
X207725Y308034D01*
D02*
G37*
G36*
X87286Y301350D02*
X87139Y301474D01*
X86953Y301584D01*
X86728Y301681D01*
X86464Y301766D01*
X86161Y301838D01*
X85818Y301896D01*
X85016Y301974D01*
X84557Y301994D01*
X84058Y302000D01*
Y307000D01*
X84557Y307006D01*
X85818Y307104D01*
X86161Y307162D01*
X86464Y307234D01*
X86728Y307318D01*
X86953Y307416D01*
X87139Y307526D01*
X87286Y307650D01*
Y301350D01*
D02*
G37*
G36*
X31700Y311050D02*
X31850Y310200D01*
X32100Y309450D01*
X32450Y308800D01*
X32900Y308250D01*
X33450Y307800D01*
X34100Y307450D01*
X34850Y307200D01*
X35700Y307050D01*
X36650Y307000D01*
Y302000D01*
X35700Y301950D01*
X34850Y301800D01*
X34100Y301550D01*
X33450Y301200D01*
X32900Y300750D01*
X32450Y300200D01*
X32100Y299550D01*
X32056Y299418D01*
X32155Y299119D01*
X32377Y298669D01*
X32640Y298319D01*
X32943Y298069D01*
X33286Y297920D01*
X33670Y297869D01*
X31696D01*
X31650Y297000D01*
X31070Y297869D01*
X24630D01*
X25014Y297920D01*
X25357Y298069D01*
X25661Y298319D01*
X25923Y298669D01*
X26145Y299119D01*
X26327Y299669D01*
X26468Y300319D01*
X26569Y301070D01*
X26630Y301919D01*
X26650Y302869D01*
X27737D01*
X26650Y304500D01*
X31650Y312000D01*
X31700Y311050D01*
D02*
G37*
G36*
X104908Y297884D02*
X105385Y297467D01*
X105860Y297099D01*
X106333Y296780D01*
X106803Y296510D01*
X107271Y296290D01*
X107737Y296118D01*
X108200Y295995D01*
X108661Y295921D01*
X109096Y295898D01*
X109155Y295897D01*
Y293103D01*
X109115Y293103D01*
X108661Y293078D01*
X108200Y293005D01*
X107737Y292882D01*
X107271Y292710D01*
X106803Y292490D01*
X106333Y292220D01*
X105860Y291901D01*
X105385Y291533D01*
X104908Y291116D01*
X104428Y290650D01*
Y292868D01*
X104014Y292842D01*
X103513Y292747D01*
X103114Y292639D01*
X102816Y292515D01*
X102620Y292377D01*
Y296623D01*
X102816Y296485D01*
X103114Y296361D01*
X103513Y296252D01*
X104014Y296158D01*
X104428Y296103D01*
Y298350D01*
X104908Y297884D01*
D02*
G37*
G36*
X65538Y293512D02*
X65483Y293445D01*
X65431Y293355D01*
X65383Y293244D01*
X65338Y293111D01*
X65297Y292955D01*
X65224Y292579D01*
X65164Y292115D01*
X65139Y291849D01*
X61899Y295089D01*
X62165Y295114D01*
X63005Y295247D01*
X63161Y295288D01*
X63294Y295333D01*
X63405Y295382D01*
X63495Y295433D01*
X63562Y295488D01*
X65538Y293512D01*
D02*
G37*
G36*
X96572Y290650D02*
X96382Y290812D01*
X96146Y290956D01*
X95864Y291084D01*
X95535Y291194D01*
X95160Y291287D01*
X94739Y291364D01*
X94271Y291423D01*
X93197Y291492D01*
X92590Y291500D01*
Y297500D01*
X93197Y297509D01*
X94739Y297636D01*
X95160Y297712D01*
X95535Y297806D01*
X95864Y297917D01*
X96146Y298044D01*
X96382Y298188D01*
X96572Y298350D01*
Y290650D01*
D02*
G37*
G36*
X66430Y297343D02*
X66610Y296873D01*
X66909Y296457D01*
X67330Y296097D01*
X67870Y295792D01*
X68530Y295543D01*
X69310Y295349D01*
X70209Y295211D01*
X71230Y295128D01*
X72369Y295100D01*
Y289100D01*
X71225Y289070D01*
X70201Y288980D01*
X69297Y288830D01*
X68514Y288620D01*
X67851Y288350D01*
X67308Y288020D01*
X66885Y287630D01*
X66583Y287180D01*
X66401Y286670D01*
X66339Y286100D01*
X66370Y297869D01*
X66430Y297343D01*
D02*
G37*
G36*
X234435Y292652D02*
X234551Y292328D01*
X234743Y292042D01*
X235012Y291795D01*
X235357Y291585D01*
X235780Y291414D01*
X236279Y291280D01*
X236855Y291185D01*
X237508Y291128D01*
X238237Y291109D01*
Y287299D01*
X237508Y287280D01*
X236855Y287223D01*
X236279Y287127D01*
X235780Y286994D01*
X235357Y286823D01*
X235012Y286613D01*
X234743Y286366D01*
X234551Y286080D01*
X234435Y285756D01*
X234397Y285394D01*
Y293014D01*
X234435Y292652D01*
D02*
G37*
G36*
X233156Y284727D02*
X232832Y284611D01*
X232546Y284419D01*
X232299Y284151D01*
X232089Y283805D01*
X231918Y283382D01*
X231784Y282883D01*
X231689Y282307D01*
X231632Y281654D01*
X231613Y280924D01*
X227803D01*
X227784Y281654D01*
X227727Y282307D01*
X227631Y282883D01*
X227498Y283382D01*
X227327Y283805D01*
X227117Y284151D01*
X226870Y284419D01*
X226584Y284611D01*
X226260Y284727D01*
X225898Y284765D01*
X233518D01*
X233156Y284727D01*
D02*
G37*
G36*
X33286Y285681D02*
X32943Y285530D01*
X32640Y285280D01*
X32377Y284930D01*
X32155Y284480D01*
X31973Y283930D01*
X31832Y283281D01*
X31731Y282530D01*
X31670Y281681D01*
X31650Y280730D01*
X26650D01*
X26630Y281681D01*
X26468Y283281D01*
X26327Y283930D01*
X26145Y284480D01*
X25923Y284930D01*
X25661Y285280D01*
X25357Y285530D01*
X25014Y285681D01*
X24630Y285730D01*
X33670D01*
X33286Y285681D01*
D02*
G37*
G36*
X231615Y276065D02*
X231709Y274688D01*
X231738Y274571D01*
X231771Y274485D01*
X231808Y274430D01*
X227608D01*
X227645Y274485D01*
X227678Y274571D01*
X227707Y274688D01*
X227733Y274838D01*
X227772Y275233D01*
X227795Y275756D01*
X227803Y276406D01*
X231613D01*
X231615Y276065D01*
D02*
G37*
G36*
X133086Y256650D02*
X132939Y256773D01*
X132753Y256884D01*
X132528Y256982D01*
X132264Y257066D01*
X131961Y257138D01*
X131618Y257196D01*
X130817Y257274D01*
X130357Y257293D01*
X129858Y257300D01*
Y262300D01*
X130357Y262306D01*
X131618Y262404D01*
X131961Y262463D01*
X132264Y262534D01*
X132528Y262619D01*
X132753Y262716D01*
X132939Y262826D01*
X133086Y262950D01*
Y256650D01*
D02*
G37*
G36*
X55520Y299680D02*
Y283920D01*
X68180D01*
Y286243D01*
X68182Y286262D01*
X68216Y286356D01*
X68273Y286441D01*
X68405Y286563D01*
X68669Y286724D01*
X69093Y286896D01*
X69682Y287054D01*
X70429Y287178D01*
X70977Y287226D01*
X80772D01*
X82637Y287597D01*
X84218Y288654D01*
X85191Y289626D01*
X93934D01*
X94099Y289616D01*
X94462Y289570D01*
X94778Y289512D01*
X95026Y289451D01*
X95200Y289392D01*
X95296Y289349D01*
X95314Y289338D01*
X95396Y289268D01*
X95488Y289216D01*
X96030Y288675D01*
X97690Y287716D01*
X99542Y287220D01*
X101458D01*
X103310Y287716D01*
X104970Y288675D01*
X105554Y289259D01*
X105692Y289348D01*
X106138Y289781D01*
X106539Y290131D01*
X106924Y290430D01*
X107293Y290679D01*
X107643Y290879D01*
X107973Y291035D01*
X108284Y291150D01*
X108576Y291227D01*
X108787Y291261D01*
X140784D01*
X177103Y254942D01*
Y179086D01*
X175929Y178599D01*
X149539Y204990D01*
Y241513D01*
X149573Y241724D01*
X149650Y242016D01*
X149765Y242327D01*
X149921Y242657D01*
X150121Y243007D01*
X150370Y243376D01*
X150669Y243762D01*
X151019Y244162D01*
X151452Y244608D01*
X151541Y244746D01*
X152126Y245330D01*
X153084Y246990D01*
X153580Y248842D01*
Y250758D01*
X153084Y252610D01*
X152818Y253070D01*
X153702Y254079D01*
X155051Y253520D01*
X157549D01*
X159857Y254476D01*
X161624Y256243D01*
X162580Y258551D01*
Y261049D01*
X161624Y263357D01*
X159857Y265124D01*
X157549Y266080D01*
X155051D01*
X152743Y265124D01*
X150976Y263357D01*
X150020Y261049D01*
Y258551D01*
X150578Y257202D01*
X149570Y256318D01*
X149110Y256584D01*
X147258Y257080D01*
X145342D01*
X143490Y256584D01*
X143030Y256318D01*
X142022Y257202D01*
X142580Y258551D01*
Y261049D01*
X141624Y263357D01*
X139857Y265124D01*
X137549Y266080D01*
X135051D01*
X132743Y265124D01*
X132006Y264387D01*
X131919Y264340D01*
X131901Y264325D01*
X131890Y264320D01*
X131779Y264284D01*
X131599Y264242D01*
X131395Y264207D01*
X130836Y264164D01*
X77879D01*
X76209Y263832D01*
X74793Y262886D01*
X71864Y259957D01*
X70918Y258541D01*
X70586Y256871D01*
Y255616D01*
X70544Y255220D01*
X70502Y254980D01*
X68620D01*
Y252237D01*
X68598Y252027D01*
X68595Y252018D01*
X68589Y252010D01*
X68529Y251954D01*
X68358Y251849D01*
X68049Y251723D01*
X67594Y251601D01*
X67001Y251502D01*
X66572Y251464D01*
X35865D01*
X35297Y251564D01*
X34822Y251722D01*
X34464Y251915D01*
X34190Y252140D01*
X33965Y252414D01*
X33772Y252772D01*
X33614Y253247D01*
X33514Y253815D01*
Y282020D01*
X33537Y282345D01*
X33621Y282966D01*
X33726Y283452D01*
X33838Y283791D01*
X33902Y283920D01*
X35480D01*
Y285708D01*
X35484Y285730D01*
X35480Y285753D01*
Y297847D01*
X35484Y297869D01*
X35480Y297892D01*
Y299680D01*
X36561Y300136D01*
X54439D01*
X55520Y299680D01*
D02*
G37*
G36*
X77462Y256162D02*
X77558Y254968D01*
X77642Y254482D01*
X77750Y254072D01*
X77882Y253736D01*
X78039Y253475D01*
X78219Y253288D01*
X78423Y253176D01*
X78651Y253139D01*
X71248D01*
X71477Y253176D01*
X71681Y253288D01*
X71861Y253475D01*
X72017Y253736D01*
X72150Y254072D01*
X72258Y254482D01*
X72342Y254968D01*
X72402Y255527D01*
X72450Y256871D01*
X77450D01*
X77462Y256162D01*
D02*
G37*
G36*
X298596Y254571D02*
X298653Y253945D01*
X298748Y253367D01*
X298882Y252836D01*
X299053Y252352D01*
X299263Y251915D01*
X299510Y251526D01*
X299796Y251183D01*
X300120Y250888D01*
X300482Y250639D01*
X292862D01*
X293224Y250888D01*
X293548Y251183D01*
X293833Y251526D01*
X294081Y251915D01*
X294291Y252352D01*
X294462Y252836D01*
X294595Y253367D01*
X294691Y253945D01*
X294748Y254571D01*
X294767Y255243D01*
X298577D01*
X298596Y254571D01*
D02*
G37*
G36*
X261390Y252888D02*
X261873Y252486D01*
X262349Y252144D01*
X262819Y251863D01*
X263282Y251642D01*
X263739Y251481D01*
X264190Y251381D01*
X264634Y251341D01*
X265072Y251361D01*
X265503Y251441D01*
X260115Y246053D01*
X260196Y246485D01*
X260216Y246922D01*
X260175Y247367D01*
X260075Y247817D01*
X259914Y248274D01*
X259693Y248738D01*
X259412Y249208D01*
X259071Y249684D01*
X258669Y250167D01*
X258207Y250656D01*
X260901Y253350D01*
X261390Y252888D01*
D02*
G37*
G36*
X142372Y245950D02*
X142182Y246112D01*
X141946Y246256D01*
X141664Y246383D01*
X141335Y246494D01*
X140960Y246588D01*
X140539Y246664D01*
X140071Y246723D01*
X138997Y246791D01*
X138390Y246800D01*
Y252800D01*
X138997Y252808D01*
X140539Y252936D01*
X140960Y253013D01*
X141335Y253106D01*
X141664Y253216D01*
X141946Y253344D01*
X142182Y253489D01*
X142372Y253650D01*
Y245950D01*
D02*
G37*
G36*
X70430Y242100D02*
X70381Y242575D01*
X70230Y243000D01*
X69981Y243375D01*
X69630Y243700D01*
X69180Y243975D01*
X68630Y244200D01*
X67980Y244375D01*
X67231Y244500D01*
X66381Y244575D01*
X65430Y244600D01*
Y249600D01*
X66381Y249625D01*
X67231Y249700D01*
X67980Y249825D01*
X68630Y250000D01*
X69180Y250225D01*
X69630Y250500D01*
X69981Y250825D01*
X70230Y251200D01*
X70381Y251625D01*
X70430Y252100D01*
Y242100D01*
D02*
G37*
G36*
X240279Y246242D02*
X240365Y246209D01*
X240483Y246180D01*
X240633Y246154D01*
X241028Y246115D01*
X241550Y246092D01*
X242200Y246084D01*
Y242274D01*
X241859Y242272D01*
X240483Y242179D01*
X240365Y242149D01*
X240279Y242116D01*
X240225Y242079D01*
Y246279D01*
X240279Y246242D01*
D02*
G37*
G36*
X112229Y252642D02*
X112409Y252171D01*
X112710Y251755D01*
X113130Y251394D01*
X113670Y251089D01*
X114330Y250840D01*
X115110Y250646D01*
X116010Y250507D01*
X117029Y250424D01*
X118169Y250396D01*
Y244396D01*
X117025Y244366D01*
X116001Y244276D01*
X115097Y244126D01*
X114314Y243916D01*
X113651Y243646D01*
X113108Y243316D01*
X112685Y242926D01*
X112383Y242476D01*
X112201Y241966D01*
X112139Y241396D01*
X112170Y253169D01*
X112229Y252642D01*
D02*
G37*
G36*
X149684Y245392D02*
X149267Y244915D01*
X148899Y244440D01*
X148580Y243967D01*
X148310Y243497D01*
X148090Y243029D01*
X147918Y242563D01*
X147795Y242100D01*
X147722Y241639D01*
X147697Y241180D01*
X144903D01*
X144879Y241639D01*
X144805Y242100D01*
X144682Y242563D01*
X144510Y243029D01*
X144290Y243497D01*
X144020Y243967D01*
X143701Y244440D01*
X143333Y244915D01*
X142916Y245392D01*
X142450Y245872D01*
X150150D01*
X149684Y245392D01*
D02*
G37*
G36*
X244791Y247627D02*
X245086Y247303D01*
X245429Y247018D01*
X245819Y246770D01*
X246255Y246560D01*
X246740Y246389D01*
X247271Y246256D01*
X247849Y246160D01*
X248474Y246103D01*
X249147Y246084D01*
Y242274D01*
X248474Y242255D01*
X247849Y242198D01*
X247271Y242103D01*
X246740Y241969D01*
X246255Y241798D01*
X245819Y241588D01*
X245429Y241341D01*
X245086Y241055D01*
X244791Y240731D01*
X244543Y240369D01*
Y247989D01*
X244791Y247627D01*
D02*
G37*
G36*
X210851Y241983D02*
X210818Y241897D01*
X210789Y241779D01*
X210763Y241629D01*
X210724Y241234D01*
X210701Y240712D01*
X210693Y240062D01*
X206883D01*
X206881Y240403D01*
X206787Y241779D01*
X206758Y241897D01*
X206725Y241983D01*
X206688Y242037D01*
X210888D01*
X210851Y241983D01*
D02*
G37*
G36*
X31700Y253650D02*
X31850Y252800D01*
X32100Y252050D01*
X32450Y251400D01*
X32900Y250850D01*
X33450Y250400D01*
X34100Y250050D01*
X34850Y249800D01*
X35700Y249650D01*
X36650Y249600D01*
Y244600D01*
X35700Y244550D01*
X34850Y244400D01*
X34100Y244150D01*
X33450Y243800D01*
X32900Y243350D01*
X32450Y242800D01*
X32100Y242150D01*
X31850Y241400D01*
X31700Y240550D01*
X31650Y239600D01*
X26650Y247100D01*
X31650Y254600D01*
X31700Y253650D01*
D02*
G37*
G36*
X101320Y254980D02*
Y239220D01*
X113980D01*
Y241539D01*
X113982Y241558D01*
X114016Y241652D01*
X114073Y241737D01*
X114205Y241859D01*
X114469Y242020D01*
X114893Y242192D01*
X115482Y242350D01*
X116229Y242474D01*
X116777Y242522D01*
X127000D01*
X128865Y242893D01*
X130446Y243950D01*
X131423Y244926D01*
X139734D01*
X139899Y244916D01*
X140262Y244870D01*
X140578Y244812D01*
X140826Y244751D01*
X141000Y244692D01*
X141096Y244649D01*
X141114Y244638D01*
X141147Y244610D01*
X141148Y244608D01*
X141581Y244162D01*
X141931Y243761D01*
X142230Y243376D01*
X142479Y243007D01*
X142679Y242657D01*
X142835Y242327D01*
X142950Y242016D01*
X143027Y241724D01*
X143061Y241513D01*
Y203648D01*
X143061Y203648D01*
X143307Y202408D01*
X144010Y201357D01*
X172529Y172838D01*
Y166291D01*
X172031Y165977D01*
X171259Y165808D01*
X150276Y186791D01*
X149226Y187493D01*
X147986Y187739D01*
X147986Y187739D01*
X113907D01*
X113655Y189009D01*
X114057Y189176D01*
X115824Y190943D01*
X116780Y193251D01*
Y195749D01*
X115824Y198057D01*
X114057Y199824D01*
X111749Y200780D01*
X109251D01*
X106943Y199824D01*
X105176Y198057D01*
X104220Y195749D01*
Y193251D01*
X104778Y191903D01*
X103770Y191018D01*
X103310Y191284D01*
X101458Y191780D01*
X99542D01*
X97690Y191284D01*
X97230Y191018D01*
X96222Y191903D01*
X96780Y193251D01*
Y195749D01*
X95824Y198057D01*
X94057Y199824D01*
X91749Y200780D01*
X89251D01*
X86943Y199824D01*
X85935Y198816D01*
X85848Y198761D01*
X85836Y198750D01*
X85744Y198717D01*
X85579Y198673D01*
X85392Y198637D01*
X84789Y198585D01*
X35865D01*
X35297Y198685D01*
X34822Y198844D01*
X34464Y199037D01*
X34190Y199261D01*
X33965Y199536D01*
X33772Y199894D01*
X33614Y200368D01*
X33514Y200936D01*
Y240385D01*
X33614Y240953D01*
X33772Y241427D01*
X33965Y241786D01*
X34190Y242060D01*
X34464Y242285D01*
X34822Y242478D01*
X35297Y242636D01*
X35865Y242736D01*
X66572D01*
X67001Y242698D01*
X67594Y242599D01*
X68049Y242477D01*
X68358Y242350D01*
X68529Y242246D01*
X68589Y242190D01*
X68595Y242182D01*
X68598Y242173D01*
X68620Y241963D01*
Y239220D01*
X81280D01*
Y254980D01*
X82361Y255436D01*
X100239D01*
X101320Y254980D01*
D02*
G37*
G36*
X274235Y241056D02*
X274209Y240758D01*
X274240Y240441D01*
X274328Y240105D01*
X274473Y239751D01*
X274674Y239378D01*
X274933Y238986D01*
X275248Y238576D01*
X275619Y238147D01*
X276048Y237699D01*
X273354Y235005D01*
X272881Y235460D01*
X271997Y236200D01*
X271586Y236484D01*
X271195Y236712D01*
X270825Y236883D01*
X270476Y236998D01*
X270147Y237056D01*
X269838Y237057D01*
X269550Y237001D01*
X274317Y241336D01*
X274235Y241056D01*
D02*
G37*
G36*
X300120Y237471D02*
X299796Y237175D01*
X299510Y236833D01*
X299263Y236443D01*
X299053Y236006D01*
X298882Y235522D01*
X298748Y234991D01*
X298653Y234413D01*
X298596Y233788D01*
X298577Y233115D01*
X294767D01*
X294748Y233788D01*
X294691Y234413D01*
X294595Y234991D01*
X294462Y235522D01*
X294291Y236006D01*
X294081Y236443D01*
X293833Y236833D01*
X293548Y237175D01*
X293224Y237471D01*
X292862Y237719D01*
X300482D01*
X300120Y237471D01*
D02*
G37*
G36*
X212236D02*
X211912Y237175D01*
X211626Y236833D01*
X211379Y236443D01*
X211169Y236006D01*
X210998Y235522D01*
X210864Y234991D01*
X210769Y234413D01*
X210712Y233788D01*
X210693Y233115D01*
X206883D01*
X206864Y233788D01*
X206807Y234413D01*
X206712Y234991D01*
X206578Y235522D01*
X206407Y236006D01*
X206197Y236443D01*
X205949Y236833D01*
X205664Y237175D01*
X205340Y237471D01*
X204978Y237719D01*
X212598D01*
X212236Y237471D01*
D02*
G37*
G36*
X298596Y226946D02*
X298653Y226298D01*
X298748Y225726D01*
X298882Y225231D01*
X299053Y224812D01*
X299263Y224469D01*
X299510Y224202D01*
X299796Y224012D01*
X300120Y223898D01*
X300482Y223860D01*
X292862D01*
X293224Y223898D01*
X293548Y224012D01*
X293833Y224202D01*
X294081Y224469D01*
X294291Y224812D01*
X294462Y225231D01*
X294595Y225726D01*
X294691Y226298D01*
X294748Y226946D01*
X294767Y227670D01*
X298577D01*
X298596Y226946D01*
D02*
G37*
G36*
X276625D02*
X276682Y226298D01*
X276777Y225726D01*
X276911Y225231D01*
X277082Y224812D01*
X277292Y224469D01*
X277539Y224202D01*
X277825Y224012D01*
X278149Y223898D01*
X278511Y223860D01*
X270891D01*
X271253Y223898D01*
X271577Y224012D01*
X271863Y224202D01*
X272110Y224469D01*
X272320Y224812D01*
X272491Y225231D01*
X272624Y225726D01*
X272720Y226298D01*
X272777Y226946D01*
X272796Y227670D01*
X276606D01*
X276625Y226946D01*
D02*
G37*
G36*
X254654D02*
X254711Y226298D01*
X254806Y225726D01*
X254940Y225231D01*
X255111Y224812D01*
X255321Y224469D01*
X255568Y224202D01*
X255854Y224012D01*
X256178Y223898D01*
X256540Y223860D01*
X248920D01*
X249282Y223898D01*
X249606Y224012D01*
X249891Y224202D01*
X250139Y224469D01*
X250349Y224812D01*
X250520Y225231D01*
X250653Y225726D01*
X250749Y226298D01*
X250806Y226946D01*
X250825Y227670D01*
X254635D01*
X254654Y226946D01*
D02*
G37*
G36*
X210712D02*
X210769Y226298D01*
X210864Y225726D01*
X210998Y225231D01*
X211169Y224812D01*
X211379Y224469D01*
X211626Y224202D01*
X211912Y224012D01*
X212236Y223898D01*
X212598Y223860D01*
X204978D01*
X205340Y223898D01*
X205664Y224012D01*
X205949Y224202D01*
X206197Y224469D01*
X206407Y224812D01*
X206578Y225231D01*
X206712Y225726D01*
X206807Y226298D01*
X206864Y226946D01*
X206883Y227670D01*
X210693D01*
X210712Y226946D01*
D02*
G37*
G36*
X212796Y223561D02*
X212910Y223295D01*
X213100Y223059D01*
X213367Y222855D01*
X213710Y222682D01*
X214129Y222541D01*
X214624Y222431D01*
X215196Y222353D01*
X215844Y222306D01*
X216567Y222290D01*
Y218480D01*
X215844Y218464D01*
X214624Y218340D01*
X214129Y218230D01*
X213710Y218090D01*
X213367Y217918D01*
X213100Y217716D01*
X212910Y217482D01*
X212796Y217217D01*
X212757Y216921D01*
Y223860D01*
X212796Y223561D01*
D02*
G37*
G36*
X226779Y216910D02*
X226741Y217209D01*
X226627Y217475D01*
X226437Y217711D01*
X226170Y217915D01*
X225827Y218088D01*
X225408Y218229D01*
X224912Y218339D01*
X224341Y218417D01*
X223693Y218464D01*
X222969Y218480D01*
Y222290D01*
X223693Y222306D01*
X224912Y222430D01*
X225408Y222540D01*
X225827Y222680D01*
X226170Y222851D01*
X226437Y223054D01*
X226627Y223288D01*
X226741Y223553D01*
X226779Y223849D01*
Y216910D01*
D02*
G37*
G36*
X248791Y201596D02*
X248763Y201861D01*
X248678Y202099D01*
X248537Y202309D01*
X248339Y202490D01*
X248085Y202644D01*
X247774Y202770D01*
X247407Y202867D01*
X246983Y202937D01*
X246503Y202979D01*
X245966Y202993D01*
Y205787D01*
X246503Y205801D01*
X246983Y205843D01*
X247407Y205913D01*
X247774Y206010D01*
X248085Y206136D01*
X248339Y206290D01*
X248537Y206472D01*
X248678Y206681D01*
X248763Y206919D01*
X248791Y207184D01*
Y201596D01*
D02*
G37*
G36*
X299200Y200923D02*
X298963Y200838D01*
X298753Y200697D01*
X298572Y200499D01*
X298418Y200245D01*
X298292Y199934D01*
X298195Y199567D01*
X298125Y199143D01*
X298083Y198663D01*
X298069Y198127D01*
X295275D01*
X295261Y198663D01*
X295219Y199143D01*
X295149Y199567D01*
X295051Y199934D01*
X294926Y200245D01*
X294772Y200499D01*
X294590Y200697D01*
X294381Y200838D01*
X294143Y200923D01*
X293878Y200951D01*
X299466D01*
X299200Y200923D01*
D02*
G37*
G36*
X277229D02*
X276992Y200838D01*
X276782Y200697D01*
X276601Y200499D01*
X276447Y200245D01*
X276321Y199934D01*
X276224Y199567D01*
X276154Y199143D01*
X276112Y198663D01*
X276098Y198127D01*
X273304D01*
X273290Y198663D01*
X273248Y199143D01*
X273178Y199567D01*
X273080Y199934D01*
X272955Y200245D01*
X272801Y200499D01*
X272619Y200697D01*
X272410Y200838D01*
X272172Y200923D01*
X271907Y200951D01*
X277495D01*
X277229Y200923D01*
D02*
G37*
G36*
X211317D02*
X211079Y200838D01*
X210870Y200697D01*
X210688Y200499D01*
X210534Y200245D01*
X210408Y199934D01*
X210311Y199567D01*
X210241Y199143D01*
X210199Y198663D01*
X210185Y198127D01*
X207391D01*
X207377Y198663D01*
X207335Y199143D01*
X207265Y199567D01*
X207167Y199934D01*
X207042Y200245D01*
X206888Y200499D01*
X206707Y200697D01*
X206497Y200838D01*
X206259Y200923D01*
X205994Y200951D01*
X211582D01*
X211317Y200923D01*
D02*
G37*
G36*
X234440Y200860D02*
X234191Y200710D01*
X233972Y200460D01*
X233781Y200110D01*
X233620Y199660D01*
X233488Y199110D01*
X233386Y198460D01*
X233312Y197710D01*
X233254Y195910D01*
X228254D01*
X228239Y196860D01*
X228121Y198460D01*
X228018Y199110D01*
X227885Y199660D01*
X227723Y200110D01*
X227531Y200460D01*
X227310Y200710D01*
X227059Y200860D01*
X226779Y200910D01*
X234718D01*
X234440Y200860D01*
D02*
G37*
G36*
X87487Y191157D02*
X87343Y191264D01*
X87158Y191360D01*
X86934Y191445D01*
X86671Y191518D01*
X86368Y191580D01*
X86025Y191631D01*
X85222Y191699D01*
X84260Y191721D01*
X83886Y196721D01*
X84384Y196729D01*
X85641Y196837D01*
X85982Y196902D01*
X86283Y196982D01*
X86545Y197076D01*
X86769Y197185D01*
X86953Y197307D01*
X87098Y197445D01*
X87487Y191157D01*
D02*
G37*
G36*
X31700Y200771D02*
X31850Y199921D01*
X32100Y199171D01*
X32450Y198521D01*
X32900Y197971D01*
X33450Y197521D01*
X34100Y197171D01*
X34850Y196921D01*
X35700Y196771D01*
X36650Y196721D01*
Y191721D01*
X35700Y191671D01*
X34850Y191521D01*
X34100Y191271D01*
X33450Y190921D01*
X32900Y190471D01*
X32450Y189921D01*
X32103Y189277D01*
X32155Y189119D01*
X32377Y188669D01*
X32640Y188319D01*
X32943Y188069D01*
X33286Y187920D01*
X33670Y187869D01*
X31735D01*
X31700Y187672D01*
X31650Y186721D01*
X30885Y187869D01*
X24630D01*
X25014Y187920D01*
X25357Y188069D01*
X25661Y188319D01*
X25923Y188669D01*
X26145Y189119D01*
X26327Y189669D01*
X26468Y190319D01*
X26569Y191070D01*
X26630Y191919D01*
X26650Y192869D01*
X27551D01*
X26650Y194221D01*
X31650Y201721D01*
X31700Y200771D01*
D02*
G37*
G36*
X104908Y187884D02*
X105385Y187467D01*
X105860Y187099D01*
X106333Y186780D01*
X106803Y186510D01*
X107271Y186290D01*
X107737Y186118D01*
X108200Y185995D01*
X108661Y185921D01*
X109096Y185898D01*
X109155Y185897D01*
Y183103D01*
X109115Y183103D01*
X108661Y183078D01*
X108200Y183005D01*
X107737Y182882D01*
X107271Y182710D01*
X106803Y182490D01*
X106333Y182220D01*
X105860Y181901D01*
X105385Y181533D01*
X104908Y181116D01*
X104428Y180650D01*
Y182868D01*
X104014Y182842D01*
X103513Y182747D01*
X103114Y182639D01*
X102816Y182515D01*
X102620Y182377D01*
Y186623D01*
X102816Y186485D01*
X103114Y186361D01*
X103513Y186252D01*
X104014Y186158D01*
X104428Y186103D01*
Y188350D01*
X104908Y187884D01*
D02*
G37*
G36*
X233269Y186726D02*
X233387Y185126D01*
X233490Y184476D01*
X233622Y183926D01*
X233785Y183476D01*
X233976Y183126D01*
X234198Y182876D01*
X234448Y182726D01*
X234729Y182676D01*
X226789D01*
X227068Y182726D01*
X227317Y182876D01*
X227536Y183126D01*
X227727Y183476D01*
X227888Y183926D01*
X228020Y184476D01*
X228122Y185126D01*
X228195Y185876D01*
X228254Y187676D01*
X233254D01*
X233269Y186726D01*
D02*
G37*
G36*
X96572Y180650D02*
X96382Y180812D01*
X96146Y180956D01*
X95864Y181084D01*
X95535Y181194D01*
X95160Y181287D01*
X94739Y181364D01*
X94271Y181423D01*
X93197Y181492D01*
X92590Y181500D01*
Y187500D01*
X93197Y187509D01*
X94739Y187636D01*
X95160Y187712D01*
X95535Y187806D01*
X95864Y187917D01*
X96146Y188044D01*
X96382Y188188D01*
X96572Y188350D01*
Y180650D01*
D02*
G37*
G36*
X270757Y176407D02*
X270729Y176672D01*
X270644Y176910D01*
X270503Y177120D01*
X270305Y177301D01*
X270051Y177455D01*
X269740Y177581D01*
X269373Y177678D01*
X268949Y177748D01*
X268469Y177790D01*
X267932Y177804D01*
Y180598D01*
X268469Y180612D01*
X268949Y180654D01*
X269373Y180724D01*
X269740Y180822D01*
X270051Y180947D01*
X270305Y181101D01*
X270503Y181283D01*
X270644Y181492D01*
X270729Y181730D01*
X270757Y181995D01*
Y176407D01*
D02*
G37*
G36*
X256692Y181730D02*
X256777Y181492D01*
X256918Y181283D01*
X257116Y181101D01*
X257370Y180947D01*
X257681Y180822D01*
X258048Y180724D01*
X258472Y180654D01*
X258952Y180612D01*
X259488Y180598D01*
Y177804D01*
X258952Y177790D01*
X258472Y177748D01*
X258048Y177678D01*
X257681Y177581D01*
X257370Y177455D01*
X257116Y177301D01*
X256918Y177120D01*
X256777Y176910D01*
X256692Y176672D01*
X256664Y176407D01*
Y181995D01*
X256692Y181730D01*
D02*
G37*
G36*
X66401Y187120D02*
X66583Y186609D01*
X66885Y186159D01*
X67308Y185770D01*
X67850Y185439D01*
X68514Y185170D01*
X69297Y184960D01*
X70201Y184809D01*
X71225Y184720D01*
X72369Y184690D01*
Y178689D01*
X71230Y178660D01*
X70209Y178571D01*
X69310Y178423D01*
X68530Y178216D01*
X67870Y177950D01*
X67330Y177624D01*
X66909Y177240D01*
X66610Y176796D01*
X66430Y176293D01*
X66370Y175730D01*
X66339Y187689D01*
X66401Y187120D01*
D02*
G37*
G36*
X33286Y175681D02*
X32943Y175530D01*
X32640Y175280D01*
X32377Y174930D01*
X32155Y174480D01*
X31973Y173930D01*
X31832Y173281D01*
X31731Y172530D01*
X31670Y171681D01*
X31650Y170730D01*
X26650D01*
X26630Y171681D01*
X26468Y173281D01*
X26327Y173930D01*
X26145Y174480D01*
X25923Y174930D01*
X25661Y175280D01*
X25357Y175530D01*
X25014Y175681D01*
X24630Y175730D01*
X33670D01*
X33286Y175681D01*
D02*
G37*
G36*
X256692Y165735D02*
X256777Y165497D01*
X256918Y165288D01*
X257116Y165106D01*
X257370Y164952D01*
X257681Y164827D01*
X258048Y164729D01*
X258472Y164659D01*
X258952Y164617D01*
X259408Y164605D01*
X259628Y164610D01*
X260203Y164666D01*
X260462Y164715D01*
X260703Y164779D01*
X260925Y164856D01*
X261128Y164947D01*
X261313Y165053D01*
X261478Y165173D01*
X261625Y165306D01*
Y161106D01*
X261478Y161240D01*
X261313Y161359D01*
X261128Y161465D01*
X260925Y161556D01*
X260703Y161633D01*
X260462Y161697D01*
X260203Y161746D01*
X259925Y161781D01*
X259628Y161802D01*
X259408Y161807D01*
X258952Y161795D01*
X258472Y161753D01*
X258048Y161683D01*
X257681Y161586D01*
X257370Y161460D01*
X257116Y161306D01*
X256918Y161124D01*
X256777Y160915D01*
X256692Y160678D01*
X256664Y160412D01*
Y166000D01*
X256692Y165735D01*
D02*
G37*
G36*
X256694Y159737D02*
X256515Y159709D01*
X256354Y159625D01*
X256213Y159485D01*
X256090Y159290D01*
X255986Y159038D01*
X255901Y158731D01*
X255835Y158368D01*
X255788Y157948D01*
X255759Y157473D01*
X255750Y156943D01*
X252956D01*
X252942Y157478D01*
X252900Y157957D01*
X252830Y158380D01*
X252732Y158746D01*
X252607Y159057D01*
X252453Y159311D01*
X252271Y159509D01*
X252062Y159651D01*
X251824Y159737D01*
X251559Y159767D01*
X256694Y159737D01*
D02*
G37*
G36*
X233288Y159739D02*
X233050Y159654D01*
X232840Y159513D01*
X232659Y159315D01*
X232505Y159061D01*
X232379Y158750D01*
X232282Y158383D01*
X232212Y157959D01*
X232170Y157479D01*
X232156Y156943D01*
X229362D01*
X229348Y157479D01*
X229306Y157959D01*
X229236Y158383D01*
X229139Y158750D01*
X229013Y159061D01*
X228859Y159315D01*
X228677Y159513D01*
X228468Y159654D01*
X228230Y159739D01*
X227965Y159767D01*
X233553D01*
X233288Y159739D01*
D02*
G37*
G36*
X133086Y146650D02*
X132939Y146774D01*
X132753Y146884D01*
X132528Y146981D01*
X132264Y147066D01*
X131961Y147137D01*
X131618Y147196D01*
X130817Y147274D01*
X130357Y147294D01*
X129858Y147300D01*
Y152300D01*
X130357Y152306D01*
X131618Y152404D01*
X131961Y152463D01*
X132264Y152534D01*
X132528Y152619D01*
X132753Y152716D01*
X132939Y152826D01*
X133086Y152950D01*
Y146650D01*
D02*
G37*
G36*
X55520Y189680D02*
Y173920D01*
X66352D01*
X66374Y173916D01*
X66396Y173920D01*
X68180D01*
Y175593D01*
X68211Y175885D01*
X68241Y175969D01*
X68293Y176046D01*
X68422Y176164D01*
X68683Y176321D01*
X69104Y176491D01*
X69690Y176647D01*
X70436Y176769D01*
X70973Y176816D01*
X81360D01*
X83225Y177187D01*
X84806Y178243D01*
X86189Y179626D01*
X93934D01*
X94099Y179616D01*
X94462Y179570D01*
X94778Y179512D01*
X95026Y179451D01*
X95200Y179392D01*
X95296Y179349D01*
X95314Y179338D01*
X95396Y179268D01*
X95488Y179216D01*
X96030Y178675D01*
X97690Y177716D01*
X99542Y177220D01*
X101458D01*
X103310Y177716D01*
X104970Y178675D01*
X105554Y179259D01*
X105692Y179348D01*
X106138Y179781D01*
X106539Y180131D01*
X106924Y180430D01*
X107293Y180679D01*
X107643Y180879D01*
X107973Y181035D01*
X108284Y181150D01*
X108576Y181227D01*
X108787Y181261D01*
X146644D01*
X165925Y161980D01*
Y83566D01*
X165925Y83566D01*
X166171Y82326D01*
X166873Y81276D01*
X184594Y63555D01*
X184266Y62107D01*
X183969Y62166D01*
X149539Y96596D01*
Y131513D01*
X149573Y131724D01*
X149650Y132016D01*
X149765Y132327D01*
X149921Y132657D01*
X150121Y133007D01*
X150370Y133376D01*
X150669Y133762D01*
X151019Y134162D01*
X151452Y134608D01*
X151541Y134746D01*
X152126Y135330D01*
X153084Y136990D01*
X153580Y138842D01*
Y140758D01*
X153084Y142610D01*
X152818Y143070D01*
X153702Y144079D01*
X155051Y143520D01*
X157549D01*
X159857Y144476D01*
X161624Y146243D01*
X162580Y148551D01*
Y151049D01*
X161624Y153357D01*
X159857Y155124D01*
X157549Y156080D01*
X155051D01*
X152743Y155124D01*
X150976Y153357D01*
X150020Y151049D01*
Y148551D01*
X150578Y147203D01*
X149570Y146318D01*
X149110Y146584D01*
X147258Y147080D01*
X145342D01*
X143490Y146584D01*
X143030Y146318D01*
X142022Y147203D01*
X142580Y148551D01*
Y151049D01*
X141624Y153357D01*
X139857Y155124D01*
X137549Y156080D01*
X135051D01*
X132743Y155124D01*
X132006Y154388D01*
X131919Y154340D01*
X131901Y154325D01*
X131890Y154320D01*
X131779Y154284D01*
X131599Y154242D01*
X131395Y154207D01*
X130836Y154164D01*
X77879D01*
X76209Y153832D01*
X74793Y152886D01*
X71864Y149957D01*
X70918Y148541D01*
X70586Y146871D01*
Y145616D01*
X70544Y145220D01*
X70502Y144980D01*
X68620D01*
Y142237D01*
X68598Y142028D01*
X68595Y142018D01*
X68589Y142009D01*
X68529Y141954D01*
X68358Y141849D01*
X68049Y141723D01*
X67594Y141601D01*
X67001Y141502D01*
X66572Y141464D01*
X35865D01*
X35297Y141564D01*
X34822Y141722D01*
X34464Y141915D01*
X34190Y142140D01*
X33965Y142414D01*
X33772Y142773D01*
X33614Y143247D01*
X33514Y143815D01*
Y172020D01*
X33537Y172345D01*
X33621Y172966D01*
X33726Y173452D01*
X33838Y173791D01*
X33902Y173920D01*
X35480D01*
Y175708D01*
X35484Y175730D01*
X35480Y175753D01*
Y187847D01*
X35484Y187869D01*
X35480Y187892D01*
Y189680D01*
X36676Y189858D01*
X54324D01*
X55520Y189680D01*
D02*
G37*
G36*
X77462Y146162D02*
X77558Y144968D01*
X77642Y144483D01*
X77750Y144072D01*
X77882Y143736D01*
X78039Y143475D01*
X78219Y143288D01*
X78423Y143176D01*
X78651Y143139D01*
X71248D01*
X71477Y143176D01*
X71681Y143288D01*
X71861Y143475D01*
X72017Y143736D01*
X72150Y144072D01*
X72258Y144483D01*
X72342Y144968D01*
X72402Y145527D01*
X72450Y146871D01*
X77450D01*
X77462Y146162D01*
D02*
G37*
G36*
X70430Y132100D02*
X70381Y132575D01*
X70230Y133000D01*
X69981Y133375D01*
X69630Y133700D01*
X69180Y133975D01*
X68630Y134200D01*
X67980Y134375D01*
X67231Y134500D01*
X66381Y134575D01*
X65430Y134600D01*
Y139600D01*
X66381Y139625D01*
X67231Y139700D01*
X67980Y139825D01*
X68630Y140000D01*
X69180Y140225D01*
X69630Y140500D01*
X69981Y140825D01*
X70230Y141200D01*
X70381Y141625D01*
X70430Y142100D01*
Y132100D01*
D02*
G37*
G36*
X112229Y142624D02*
X112409Y142136D01*
X112710Y141705D01*
X113130Y141332D01*
X113670Y141016D01*
X114330Y140758D01*
X115110Y140556D01*
X116010Y140413D01*
X117029Y140327D01*
X118169Y140298D01*
Y134298D01*
X117025Y134268D01*
X116001Y134178D01*
X115097Y134028D01*
X114314Y133818D01*
X113651Y133548D01*
X113108Y133218D01*
X112685Y132828D01*
X112383Y132378D01*
X112201Y131868D01*
X112139Y131298D01*
X112170Y143169D01*
X112229Y142624D01*
D02*
G37*
G36*
X142579Y135872D02*
X150150D01*
X149684Y135393D01*
X149267Y134915D01*
X148899Y134440D01*
X148580Y133967D01*
X148310Y133497D01*
X148090Y133029D01*
X147918Y132563D01*
X147795Y132100D01*
X147722Y131639D01*
X147697Y131180D01*
X144903D01*
X144879Y131639D01*
X144805Y132100D01*
X144682Y132563D01*
X144510Y133029D01*
X144290Y133497D01*
X144020Y133967D01*
X143701Y134440D01*
X143333Y134915D01*
X142916Y135393D01*
X142544Y135775D01*
X142397Y135887D01*
X142162Y136016D01*
X141879Y136130D01*
X141550Y136229D01*
X141175Y136312D01*
X140753Y136381D01*
X139769Y136472D01*
X138598Y136502D01*
X138210Y142502D01*
X138815Y142512D01*
X139886Y142586D01*
X140352Y142651D01*
X140771Y142735D01*
X141144Y142837D01*
X141470Y142958D01*
X141750Y143097D01*
X141983Y143255D01*
X142170Y143432D01*
X142579Y135872D01*
D02*
G37*
G36*
X31700Y143650D02*
X31850Y142800D01*
X32100Y142050D01*
X32450Y141400D01*
X32900Y140850D01*
X33450Y140400D01*
X34100Y140050D01*
X34850Y139800D01*
X35700Y139650D01*
X36650Y139600D01*
Y134600D01*
X35700Y134550D01*
X34850Y134400D01*
X34100Y134150D01*
X33450Y133800D01*
X32900Y133350D01*
X32450Y132800D01*
X32100Y132150D01*
X31850Y131400D01*
X31700Y130550D01*
X31650Y129600D01*
X26650Y137100D01*
X31650Y144600D01*
X31700Y143650D01*
D02*
G37*
G36*
X101320Y144980D02*
Y129220D01*
X113980D01*
Y131441D01*
X113982Y131460D01*
X114016Y131554D01*
X114073Y131639D01*
X114205Y131761D01*
X114469Y131922D01*
X114893Y132094D01*
X115482Y132252D01*
X116229Y132376D01*
X116777Y132424D01*
X129932D01*
X131797Y132795D01*
X133378Y133852D01*
X134155Y134628D01*
X139991D01*
X140524Y134579D01*
X140833Y134529D01*
X141092Y134472D01*
X141278Y134416D01*
X141371Y134378D01*
X141581Y134162D01*
X141931Y133761D01*
X142230Y133376D01*
X142479Y133007D01*
X142679Y132657D01*
X142835Y132327D01*
X142950Y132016D01*
X143027Y131724D01*
X143061Y131513D01*
Y95254D01*
X143061Y95254D01*
X143307Y94014D01*
X144010Y92963D01*
X181098Y55876D01*
X181098Y55876D01*
X182148Y55173D01*
X182742Y55055D01*
X182617Y53785D01*
X179650D01*
X159280Y74155D01*
X158229Y74858D01*
X156989Y75104D01*
X156989Y75104D01*
X127343D01*
X125656Y76790D01*
X124606Y77493D01*
X123366Y77739D01*
X123366Y77739D01*
X113907D01*
X113655Y79009D01*
X114057Y79176D01*
X115824Y80943D01*
X116780Y83251D01*
Y85749D01*
X115824Y88057D01*
X114057Y89824D01*
X111749Y90780D01*
X109251D01*
X106943Y89824D01*
X105176Y88057D01*
X104220Y85749D01*
Y83251D01*
X104778Y81903D01*
X103770Y81018D01*
X103310Y81284D01*
X101458Y81780D01*
X99542D01*
X97690Y81284D01*
X97230Y81018D01*
X96222Y81903D01*
X96780Y83251D01*
Y85749D01*
X95824Y88057D01*
X94057Y89824D01*
X91749Y90780D01*
X89251D01*
X86943Y89824D01*
X86435Y89316D01*
X86412Y89305D01*
X86397Y89294D01*
X86372Y89285D01*
X86248Y89250D01*
X86056Y89211D01*
X85834Y89178D01*
X85352Y89146D01*
X35865D01*
X35297Y89246D01*
X34822Y89404D01*
X34464Y89597D01*
X34190Y89822D01*
X33965Y90096D01*
X33772Y90455D01*
X33614Y90929D01*
X33514Y91497D01*
Y130385D01*
X33614Y130953D01*
X33772Y131427D01*
X33965Y131786D01*
X34190Y132060D01*
X34464Y132285D01*
X34822Y132478D01*
X35297Y132636D01*
X35865Y132736D01*
X66572D01*
X67001Y132698D01*
X67594Y132599D01*
X68049Y132477D01*
X68358Y132351D01*
X68529Y132246D01*
X68589Y132191D01*
X68595Y132182D01*
X68598Y132172D01*
X68620Y131963D01*
Y129220D01*
X81280D01*
Y144980D01*
X82361Y145436D01*
X100239D01*
X101320Y144980D01*
D02*
G37*
G36*
X200807Y128477D02*
X200840Y128276D01*
X200895Y128071D01*
X200975Y127862D01*
X201077Y127651D01*
X201202Y127436D01*
X201351Y127218D01*
X201522Y126996D01*
X201717Y126772D01*
X201935Y126544D01*
X199960Y124568D01*
X199732Y124786D01*
X199286Y125153D01*
X199067Y125301D01*
X198853Y125427D01*
X198641Y125529D01*
X198433Y125608D01*
X198228Y125664D01*
X198026Y125696D01*
X197827Y125706D01*
X200797Y128676D01*
X200807Y128477D01*
D02*
G37*
G36*
X285931Y117324D02*
X286337Y116983D01*
X286524Y116852D01*
X286702Y116748D01*
X286869Y116669D01*
X287026Y116617D01*
X287173Y116591D01*
X287310Y116592D01*
X287436Y116618D01*
X285385Y113484D01*
X285364Y113586D01*
X285319Y113703D01*
X285251Y113836D01*
X285158Y113984D01*
X285042Y114147D01*
X284738Y114520D01*
X284338Y114954D01*
X284102Y115194D01*
X285714Y117534D01*
X285931Y117324D01*
D02*
G37*
G36*
X277436Y106594D02*
X277662Y106403D01*
X277883Y106241D01*
X278102Y106105D01*
X278316Y105997D01*
X278526Y105916D01*
X278733Y105863D01*
X278936Y105837D01*
X279135Y105838D01*
X279330Y105867D01*
X277031Y102353D01*
X276987Y102526D01*
X276923Y102706D01*
X276840Y102892D01*
X276737Y103083D01*
X276614Y103281D01*
X276472Y103485D01*
X276127Y103912D01*
X275926Y104134D01*
X275704Y104362D01*
X277207Y106811D01*
X277436Y106594D01*
D02*
G37*
G36*
X250341Y84422D02*
X249485Y83481D01*
X247118Y85030D01*
X248279Y86311D01*
X250341Y84422D01*
D02*
G37*
G36*
X246588Y85030D02*
X244221Y83481D01*
X244218Y83500D01*
X244196Y83536D01*
X244156Y83589D01*
X244022Y83744D01*
X243365Y84422D01*
X245427Y86311D01*
X246588Y85030D01*
D02*
G37*
G36*
X262137Y86008D02*
X262582Y85637D01*
X262799Y85485D01*
X263012Y85356D01*
X263222Y85248D01*
X263429Y85163D01*
X263631Y85099D01*
X263830Y85058D01*
X264026Y85040D01*
X260911Y82222D01*
X260911Y82422D01*
X260887Y82625D01*
X260838Y82831D01*
X260766Y83040D01*
X260669Y83253D01*
X260548Y83468D01*
X260403Y83687D01*
X260233Y83909D01*
X260040Y84134D01*
X259822Y84362D01*
X261909Y86226D01*
X262137Y86008D01*
D02*
G37*
G36*
X87095Y81558D02*
X86950Y81695D01*
X86766Y81819D01*
X86543Y81927D01*
X86281Y82022D01*
X85979Y82101D01*
X85639Y82166D01*
X85259Y82217D01*
X84382Y82275D01*
X83884Y82282D01*
X84263Y87282D01*
X84764Y87288D01*
X86028Y87372D01*
X86370Y87423D01*
X86673Y87485D01*
X86937Y87558D01*
X87161Y87643D01*
X87345Y87738D01*
X87490Y87845D01*
X87095Y81558D01*
D02*
G37*
G36*
X228311Y83828D02*
X228455Y83714D01*
X228622Y83614D01*
X228811Y83526D01*
X229021Y83453D01*
X229254Y83392D01*
X229510Y83346D01*
X229787Y83312D01*
X230087Y83292D01*
X230409Y83285D01*
X230247Y80491D01*
X229924Y80485D01*
X229343Y80438D01*
X229084Y80397D01*
X228847Y80344D01*
X228631Y80279D01*
X228437Y80203D01*
X228264Y80114D01*
X228112Y80014D01*
X227981Y79902D01*
X228189Y83955D01*
X228311Y83828D01*
D02*
G37*
G36*
X31700Y91332D02*
X31850Y90482D01*
X32100Y89732D01*
X32450Y89082D01*
X32900Y88532D01*
X33450Y88082D01*
X34100Y87732D01*
X34850Y87482D01*
X35700Y87332D01*
X36650Y87282D01*
Y82282D01*
X35700Y82232D01*
X34850Y82082D01*
X34100Y81832D01*
X33450Y81482D01*
X32900Y81032D01*
X32450Y80482D01*
X32100Y79832D01*
X32009Y79560D01*
X32155Y79120D01*
X32377Y78670D01*
X32640Y78320D01*
X32943Y78070D01*
X33286Y77920D01*
X33670Y77870D01*
X31681D01*
X31650Y77282D01*
X31258Y77870D01*
X24630D01*
X25014Y77920D01*
X25357Y78070D01*
X25661Y78320D01*
X25923Y78670D01*
X26145Y79120D01*
X26327Y79669D01*
X26468Y80319D01*
X26569Y81069D01*
X26630Y81919D01*
X26650Y82870D01*
X27925D01*
X26650Y84782D01*
X31650Y92282D01*
X31700Y91332D01*
D02*
G37*
G36*
X104908Y77884D02*
X105385Y77467D01*
X105860Y77099D01*
X106333Y76780D01*
X106803Y76510D01*
X107271Y76290D01*
X107737Y76118D01*
X108200Y75995D01*
X108661Y75922D01*
X109096Y75898D01*
X109155Y75897D01*
Y73103D01*
X109115Y73103D01*
X108661Y73078D01*
X108200Y73005D01*
X107737Y72882D01*
X107271Y72710D01*
X106803Y72490D01*
X106333Y72220D01*
X105860Y71901D01*
X105385Y71533D01*
X104908Y71116D01*
X104428Y70650D01*
Y72868D01*
X104014Y72842D01*
X103513Y72748D01*
X103114Y72639D01*
X102816Y72515D01*
X102620Y72377D01*
Y76623D01*
X102816Y76485D01*
X103114Y76361D01*
X103513Y76253D01*
X104014Y76158D01*
X104428Y76104D01*
Y78350D01*
X104908Y77884D01*
D02*
G37*
G36*
X96572Y70650D02*
X96382Y70812D01*
X96146Y70956D01*
X95864Y71083D01*
X95535Y71194D01*
X95160Y71287D01*
X94739Y71364D01*
X94271Y71424D01*
X93197Y71491D01*
X92590Y71500D01*
Y77500D01*
X93197Y77509D01*
X94739Y77636D01*
X95160Y77712D01*
X95535Y77806D01*
X95864Y77916D01*
X96146Y78044D01*
X96382Y78189D01*
X96572Y78350D01*
Y70650D01*
D02*
G37*
G36*
X66399Y77230D02*
X66580Y76720D01*
X66882Y76270D01*
X67304Y75880D01*
X67847Y75550D01*
X68510Y75280D01*
X69294Y75070D01*
X70199Y74920D01*
X71224Y74830D01*
X72369Y74800D01*
Y68800D01*
X71224Y68770D01*
X70199Y68680D01*
X69294Y68530D01*
X68510Y68320D01*
X67847Y68050D01*
X67304Y67720D01*
X66882Y67330D01*
X66580Y66880D01*
X66399Y66370D01*
X66339Y65800D01*
Y77800D01*
X66399Y77230D01*
D02*
G37*
G36*
X33286Y65680D02*
X32943Y65531D01*
X32640Y65280D01*
X32377Y64931D01*
X32155Y64481D01*
X31973Y63931D01*
X31832Y63281D01*
X31731Y62530D01*
X31670Y61680D01*
X31650Y60731D01*
X26650D01*
X26630Y61680D01*
X26468Y63281D01*
X26327Y63931D01*
X26145Y64481D01*
X25923Y64931D01*
X25661Y65280D01*
X25357Y65531D01*
X25014Y65680D01*
X24630Y65731D01*
X33670D01*
X33286Y65680D01*
D02*
G37*
G36*
X133086Y36650D02*
X132939Y36774D01*
X132753Y36884D01*
X132528Y36981D01*
X132264Y37066D01*
X131961Y37137D01*
X131618Y37196D01*
X130817Y37274D01*
X130357Y37294D01*
X129858Y37300D01*
Y42300D01*
X130357Y42306D01*
X131618Y42404D01*
X131961Y42463D01*
X132264Y42534D01*
X132528Y42618D01*
X132753Y42716D01*
X132939Y42826D01*
X133086Y42950D01*
Y36650D01*
D02*
G37*
G36*
X55520Y79680D02*
Y63920D01*
X68180D01*
Y65951D01*
X68182Y65966D01*
X68215Y66059D01*
X68271Y66142D01*
X68402Y66264D01*
X68665Y66424D01*
X69089Y66596D01*
X69678Y66754D01*
X70427Y66878D01*
X70975Y66926D01*
X77896D01*
X79761Y67297D01*
X81342Y68354D01*
X82615Y69626D01*
X93934D01*
X94099Y69616D01*
X94462Y69570D01*
X94778Y69512D01*
X95026Y69451D01*
X95200Y69392D01*
X95296Y69349D01*
X95314Y69338D01*
X95396Y69268D01*
X95488Y69216D01*
X96030Y68675D01*
X97690Y67716D01*
X99542Y67220D01*
X101458D01*
X103310Y67716D01*
X104970Y68675D01*
X105554Y69259D01*
X105692Y69348D01*
X106138Y69781D01*
X106539Y70131D01*
X106924Y70430D01*
X107293Y70679D01*
X107643Y70879D01*
X107973Y71035D01*
X108284Y71150D01*
X108576Y71227D01*
X108787Y71261D01*
X122024D01*
X123711Y69574D01*
X124761Y68872D01*
X126001Y68626D01*
X126001Y68626D01*
X155647D01*
X176017Y48256D01*
X176017Y48256D01*
X177068Y47553D01*
X178308Y47307D01*
X178308Y47307D01*
X245790D01*
X246276Y46133D01*
X230482Y30339D01*
X154601D01*
X154415Y30372D01*
X154232Y30431D01*
X154088Y30501D01*
X153964Y30588D01*
X153845Y30701D01*
X153724Y30856D01*
X153600Y31068D01*
X153478Y31348D01*
X153341Y31777D01*
X153275Y31897D01*
X153084Y32610D01*
X152818Y33070D01*
X153702Y34079D01*
X155051Y33520D01*
X157549D01*
X159857Y34476D01*
X161624Y36243D01*
X162580Y38551D01*
Y41049D01*
X161624Y43357D01*
X159857Y45124D01*
X157549Y46080D01*
X155051D01*
X152743Y45124D01*
X150976Y43357D01*
X150020Y41049D01*
Y38551D01*
X150578Y37202D01*
X149570Y36318D01*
X149110Y36584D01*
X147258Y37080D01*
X145342D01*
X143490Y36584D01*
X143030Y36318D01*
X142022Y37202D01*
X142580Y38551D01*
Y41049D01*
X141624Y43357D01*
X139857Y45124D01*
X137549Y46080D01*
X135051D01*
X132743Y45124D01*
X132006Y44387D01*
X131919Y44339D01*
X131901Y44325D01*
X131890Y44320D01*
X131779Y44284D01*
X131599Y44242D01*
X131395Y44207D01*
X130836Y44164D01*
X77879D01*
X76209Y43832D01*
X74793Y42886D01*
X71864Y39957D01*
X70918Y38541D01*
X70586Y36871D01*
Y35616D01*
X70544Y35220D01*
X70502Y34980D01*
X68620D01*
Y32237D01*
X68598Y32027D01*
X68595Y32018D01*
X68589Y32009D01*
X68529Y31954D01*
X68358Y31850D01*
X68049Y31723D01*
X67594Y31601D01*
X67001Y31502D01*
X66572Y31464D01*
X37446D01*
X33514Y35396D01*
Y62020D01*
X33537Y62345D01*
X33621Y62966D01*
X33726Y63452D01*
X33838Y63791D01*
X33902Y63920D01*
X35480D01*
Y65708D01*
X35484Y65731D01*
X35480Y65753D01*
Y77847D01*
X35484Y77870D01*
X35480Y77892D01*
Y79680D01*
X36444Y80418D01*
X54556D01*
X55520Y79680D01*
D02*
G37*
G36*
X77462Y36162D02*
X77558Y34968D01*
X77642Y34483D01*
X77750Y34072D01*
X77882Y33736D01*
X78039Y33475D01*
X78219Y33288D01*
X78423Y33176D01*
X78651Y33139D01*
X71248D01*
X71477Y33176D01*
X71681Y33288D01*
X71861Y33475D01*
X72017Y33736D01*
X72150Y34072D01*
X72258Y34483D01*
X72342Y34968D01*
X72402Y35528D01*
X72450Y36871D01*
X77450D01*
X77462Y36162D01*
D02*
G37*
G36*
X112210Y32909D02*
X112330Y32676D01*
X112529Y32471D01*
X112809Y32293D01*
X113169Y32142D01*
X113610Y32019D01*
X114129Y31923D01*
X114729Y31855D01*
X115409Y31814D01*
X116170Y31800D01*
Y27800D01*
X115405Y27780D01*
X114721Y27720D01*
X114117Y27620D01*
X113594Y27480D01*
X113151Y27300D01*
X112788Y27080D01*
X112505Y26820D01*
X112303Y26520D01*
X112181Y26180D01*
X112139Y25800D01*
X112144Y27055D01*
X112139Y27006D01*
Y28387D01*
X111763Y28385D01*
Y31215D01*
X111807Y31212D01*
X111930Y31209D01*
X112139Y31208D01*
Y32594D01*
X112166Y32340D01*
X112170Y33170D01*
X112210Y32909D01*
D02*
G37*
G36*
X142372Y25950D02*
X142001Y26302D01*
X141612Y26616D01*
X141206Y26893D01*
X140782Y27134D01*
X140342Y27338D01*
X139883Y27504D01*
X139408Y27634D01*
X138915Y27726D01*
X138404Y27782D01*
X137877Y27800D01*
Y28393D01*
X137680Y28403D01*
Y31197D01*
X137877Y31207D01*
Y31800D01*
X138404Y31818D01*
X138915Y31874D01*
X139408Y31967D01*
X139883Y32096D01*
X140342Y32262D01*
X140782Y32466D01*
X141206Y32706D01*
X141612Y32984D01*
X142001Y33298D01*
X142372Y33650D01*
Y25950D01*
D02*
G37*
G36*
X151777Y30707D02*
X151980Y30244D01*
X152219Y29834D01*
X152497Y29479D01*
X152811Y29179D01*
X153163Y28934D01*
X153552Y28743D01*
X153979Y28606D01*
X154442Y28524D01*
X154943Y28497D01*
X153269Y25703D01*
X152878Y25692D01*
X152007Y25602D01*
X151529Y25524D01*
X149919Y25155D01*
X148700Y24797D01*
X148048Y24585D01*
X151612Y31226D01*
X151777Y30707D01*
D02*
G37*
G36*
X70430Y22100D02*
X70381Y22575D01*
X70230Y23000D01*
X69981Y23375D01*
X69630Y23700D01*
X69180Y23975D01*
X68630Y24200D01*
X67980Y24375D01*
X67231Y24500D01*
X66381Y24575D01*
X65430Y24600D01*
Y29600D01*
X66381Y29625D01*
X67231Y29700D01*
X67980Y29825D01*
X68630Y30000D01*
X69180Y30225D01*
X69630Y30500D01*
X69981Y30825D01*
X70230Y31200D01*
X70381Y31625D01*
X70430Y32100D01*
Y22100D01*
D02*
G37*
D11*
X334968Y446445D02*
X332468Y446221D01*
X330045Y445568D01*
X327771Y444505D01*
X325715Y443065D01*
X323940Y441290D01*
X322499Y439235D01*
X321435Y436962D01*
X320781Y434538D01*
X320556Y432038D01*
X320555Y92000D02*
X320774Y89492D01*
X321426Y87059D01*
X322490Y84777D01*
X323935Y82715D01*
X325715Y80934D01*
X327777Y79490D01*
X330060Y78426D01*
X332492Y77775D01*
X335000Y77555D01*
X12000Y530555D02*
X9665Y530185D01*
X7559Y529112D01*
X5888Y527441D01*
X4815Y525335D01*
X4445Y523000D01*
X340554Y452520D02*
X340523Y451758D01*
X335010Y446445D02*
X337621Y447102D01*
X339617Y448909D01*
X340528Y451443D01*
X333000Y4445D02*
X335758Y4966D01*
X338135Y6458D01*
X339803Y8714D01*
X340533Y11424D01*
Y72491D02*
X339638Y75057D01*
X337634Y76891D01*
X335000Y77555D01*
X4445Y12000D02*
X4815Y9665D01*
X5888Y7559D01*
X7559Y5888D01*
X9665Y4815D01*
X12000Y4445D01*
X340533Y523583D02*
X339801Y526290D01*
X338132Y528545D01*
X335756Y530034D01*
X333000Y530555D01*
X12000Y4445D02*
X333000D01*
X320555Y92000D02*
Y431903D01*
X12000Y530555D02*
X333000D01*
X340533Y11424D02*
Y72491D01*
X340554Y452520D02*
Y523163D01*
X4445Y12000D02*
Y523000D01*
D21*
X250498Y244179D02*
X252730Y241947D01*
Y220390D02*
Y241947D01*
X238083Y244179D02*
X250498D01*
X214122Y256032D02*
X255525D01*
X267377Y244179D01*
Y243676D02*
Y244179D01*
X274701Y219885D02*
Y236352D01*
X267377Y243676D02*
X274701Y236352D01*
X208788Y220390D02*
Y244179D01*
X184658Y332994D02*
X195785Y344121D01*
X184658Y285496D02*
Y332994D01*
X195785Y344121D02*
X229708D01*
X231935Y346348D01*
X256794D01*
X245311Y333703D02*
X256649D01*
X256794Y333848D01*
X237941Y326333D02*
X245311Y333703D01*
X230920Y326333D02*
X237941D01*
X229708Y325121D02*
X230920Y326333D01*
X245311Y308811D02*
X256757D01*
X241808Y292354D02*
Y305308D01*
X256757Y308811D02*
X256794Y308848D01*
X241808Y305308D02*
X245311Y308811D01*
X232146Y310642D02*
X236982D01*
X246010Y319670D02*
X255116D01*
X229708Y308204D02*
X232146Y310642D01*
X255116Y319670D02*
X256794Y321348D01*
X236982Y310642D02*
X246010Y319670D01*
X217526Y308204D02*
X229958D01*
X238658Y289204D02*
X241808Y292354D01*
X229708Y289204D02*
X238658D01*
X290068Y263398D02*
X296672Y256794D01*
X220726Y263398D02*
X290068D01*
X296672Y240171D02*
Y256794D01*
Y220390D02*
Y240171D01*
X230744Y220385D02*
X230749Y220380D01*
X208793Y220385D02*
X230744D01*
X208788Y220390D02*
X208793Y220385D01*
X229708Y272288D02*
Y289204D01*
X184658Y285496D02*
X214122Y256032D01*
X193802Y290322D02*
X220726Y263398D01*
X193802Y290322D02*
Y313690D01*
X205233Y325121D01*
X229708D01*
D22*
X29150Y137100D02*
Y181800D01*
Y84782D02*
Y137100D01*
X74950D01*
Y135550D02*
Y146871D01*
X29150Y194221D02*
Y247100D01*
X74950D01*
X29150D02*
Y291800D01*
X74950Y250700D02*
Y256871D01*
X29150Y356782D02*
Y401800D01*
Y304500D02*
Y356782D01*
X74632D01*
X29150Y443540D02*
Y464820D01*
Y414500D02*
Y443540D01*
X256794Y371348D02*
X281686D01*
X29150Y414500D02*
X87733D01*
X29150Y401800D02*
Y414500D01*
Y84782D02*
X87518D01*
X29150Y71800D02*
Y84782D01*
Y194221D02*
X87521D01*
X29150Y181800D02*
Y194221D01*
Y304500D02*
X87497D01*
X29150Y291800D02*
Y304500D01*
X35638Y27100D02*
X74950D01*
X29150Y33588D02*
X35638Y27100D01*
X29150Y33588D02*
Y71800D01*
X77879Y369800D02*
X133600D01*
X74950Y366871D02*
X77879Y369800D01*
X74950Y357100D02*
Y366871D01*
X77879Y259800D02*
X133600D01*
X74950Y256871D02*
X77879Y259800D01*
Y149800D02*
X133600D01*
X74950Y146871D02*
X77879Y149800D01*
Y39800D02*
X133600D01*
X74950Y36871D02*
X77879Y39800D01*
X74950Y27100D02*
Y36871D01*
X230754Y192457D02*
Y204375D01*
X229708Y415954D02*
Y441998D01*
Y396954D02*
Y415954D01*
Y396954D02*
X230011Y396651D01*
X256491D01*
X256794Y396348D01*
X227708Y363037D02*
X231041Y359705D01*
X229458Y380037D02*
X229708D01*
X218885Y370523D02*
X219944D01*
X218954Y370332D02*
X226248Y363037D01*
X219944Y370523D02*
X229458Y380037D01*
X218694Y370332D02*
X218885Y370523D01*
X226248Y363037D02*
X227708D01*
X218694Y370332D02*
X218954D01*
X231041Y359705D02*
X255937D01*
X256794Y358848D01*
X230754Y179211D02*
X230759Y179206D01*
X230754Y179211D02*
Y192457D01*
X230749Y204380D02*
X230754Y204375D01*
D24*
X324777Y476680D02*
D03*
D25*
X308902Y514777D02*
D03*
D27*
X324767Y36099D02*
D03*
D28*
X100500Y404500D02*
D03*
X146300Y359800D02*
D03*
X100500Y294500D02*
D03*
X146300Y249800D02*
D03*
X100500Y184500D02*
D03*
X146300Y139800D02*
D03*
X100500Y74500D02*
D03*
X146300Y29800D02*
D03*
D29*
X110500Y414500D02*
D03*
X90500D02*
D03*
X156300Y369800D02*
D03*
X136300D02*
D03*
X110500Y304500D02*
D03*
X90500D02*
D03*
X156300Y259800D02*
D03*
X136300D02*
D03*
X110500Y194500D02*
D03*
X90500D02*
D03*
X156300Y149800D02*
D03*
X136300D02*
D03*
X110500Y84500D02*
D03*
X90500D02*
D03*
X156300Y39800D02*
D03*
X136300D02*
D03*
D30*
X338328Y7114D02*
D03*
X340335Y15778D02*
D03*
Y31779D02*
D03*
Y47779D02*
D03*
X328845Y4644D02*
D03*
X312845D02*
D03*
X296845D02*
D03*
X333114Y530371D02*
D03*
X317114Y530356D02*
D03*
X301114D02*
D03*
X285114D02*
D03*
X269114D02*
D03*
X253114D02*
D03*
X237114D02*
D03*
X221114D02*
D03*
X205114D02*
D03*
X189114D02*
D03*
X173114D02*
D03*
X157114D02*
D03*
X141114D02*
D03*
X125114D02*
D03*
X109114D02*
D03*
X93114D02*
D03*
X77114D02*
D03*
X61114D02*
D03*
X45114D02*
D03*
X29114D02*
D03*
X13114D02*
D03*
X4644Y516782D02*
D03*
Y500782D02*
D03*
Y484782D02*
D03*
Y468782D02*
D03*
Y452782D02*
D03*
Y436782D02*
D03*
Y420782D02*
D03*
Y404782D02*
D03*
Y388782D02*
D03*
Y372782D02*
D03*
Y356782D02*
D03*
Y340782D02*
D03*
Y324782D02*
D03*
Y308782D02*
D03*
Y292782D02*
D03*
Y276782D02*
D03*
Y260782D02*
D03*
Y244782D02*
D03*
Y228782D02*
D03*
Y212782D02*
D03*
Y196782D02*
D03*
Y180782D02*
D03*
Y164782D02*
D03*
Y148782D02*
D03*
Y132782D02*
D03*
Y116782D02*
D03*
Y100782D02*
D03*
Y84782D02*
D03*
Y68782D02*
D03*
Y52782D02*
D03*
Y36782D02*
D03*
Y20782D02*
D03*
X8860Y5348D02*
D03*
X24845Y4644D02*
D03*
X40845D02*
D03*
X56845D02*
D03*
X72845D02*
D03*
X88845D02*
D03*
X104845D02*
D03*
X120845D02*
D03*
X136845D02*
D03*
X152845D02*
D03*
X168845D02*
D03*
X184845D02*
D03*
X200845D02*
D03*
X216845D02*
D03*
X232845D02*
D03*
X248845D02*
D03*
X264845D02*
D03*
X280845D02*
D03*
X340335Y63779D02*
D03*
X332650Y77812D02*
D03*
X321004Y88783D02*
D03*
X320356Y104770D02*
D03*
Y120770D02*
D03*
Y136770D02*
D03*
Y152770D02*
D03*
Y168770D02*
D03*
Y184770D02*
D03*
Y200770D02*
D03*
Y216770D02*
D03*
Y232770D02*
D03*
Y248770D02*
D03*
Y264770D02*
D03*
Y280770D02*
D03*
Y296770D02*
D03*
Y312770D02*
D03*
Y328770D02*
D03*
Y344770D02*
D03*
Y360770D02*
D03*
Y376770D02*
D03*
Y392770D02*
D03*
Y408770D02*
D03*
Y424770D02*
D03*
X323615Y440435D02*
D03*
X337961Y447520D02*
D03*
X340355Y463340D02*
D03*
Y511339D02*
D03*
X320300Y456800D02*
D03*
X291300D02*
D03*
Y398800D02*
D03*
Y369800D02*
D03*
Y340800D02*
D03*
Y311800D02*
D03*
Y137800D02*
D03*
X262300Y514800D02*
D03*
Y485800D02*
D03*
X233300Y514800D02*
D03*
Y485800D02*
D03*
Y456800D02*
D03*
X204300Y514800D02*
D03*
Y485800D02*
D03*
Y456800D02*
D03*
Y427800D02*
D03*
X175300Y514800D02*
D03*
Y485800D02*
D03*
Y456800D02*
D03*
Y427800D02*
D03*
Y398800D02*
D03*
X146300Y514800D02*
D03*
Y485800D02*
D03*
Y456800D02*
D03*
Y166800D02*
D03*
Y79800D02*
D03*
Y50800D02*
D03*
X117300Y514800D02*
D03*
Y485800D02*
D03*
Y456800D02*
D03*
Y427800D02*
D03*
Y340800D02*
D03*
Y311800D02*
D03*
Y282800D02*
D03*
Y224800D02*
D03*
Y166800D02*
D03*
Y108800D02*
D03*
Y50800D02*
D03*
X88300Y514800D02*
D03*
Y485800D02*
D03*
Y456800D02*
D03*
Y427800D02*
D03*
Y340800D02*
D03*
Y282800D02*
D03*
Y224800D02*
D03*
Y166800D02*
D03*
Y137800D02*
D03*
Y108800D02*
D03*
Y50800D02*
D03*
X59300Y514800D02*
D03*
Y485800D02*
D03*
Y456800D02*
D03*
Y427800D02*
D03*
Y369800D02*
D03*
Y340800D02*
D03*
Y224800D02*
D03*
Y166800D02*
D03*
Y108800D02*
D03*
Y50800D02*
D03*
X216662Y135750D02*
D03*
X238083Y244179D02*
D03*
X208788D02*
D03*
X200406Y256032D02*
D03*
X281178Y253238D02*
D03*
X254353Y121546D02*
D03*
Y106546D02*
D03*
X239353D02*
D03*
Y121546D02*
D03*
X246853Y114046D02*
D03*
X217526Y334621D02*
D03*
X210058Y316738D02*
D03*
X29150Y464820D02*
D03*
X281686Y371348D02*
D03*
X197797Y128706D02*
D03*
Y108831D02*
D03*
X225878Y82042D02*
D03*
X246853D02*
D03*
X263906D02*
D03*
X279973Y102937D02*
D03*
X288371Y113768D02*
D03*
X229708Y441998D02*
D03*
X263768Y163206D02*
D03*
X230754Y192457D02*
D03*
X218694Y370332D02*
D03*
X217526Y308204D02*
D03*
X229708Y272288D02*
D03*
D31*
X309000Y49000D02*
D03*
Y499000D02*
D03*
D32*
X325164Y482836D02*
D03*
X292836D02*
D03*
Y515164D02*
D03*
X325164D02*
D03*
X331860Y499000D02*
D03*
X309000Y476140D02*
D03*
X286140Y499000D02*
D03*
X309000Y521860D02*
D03*
X325164Y32836D02*
D03*
X292836D02*
D03*
Y65164D02*
D03*
X325164D02*
D03*
X331860Y49000D02*
D03*
X309000Y26140D02*
D03*
X286140Y49000D02*
D03*
X309000Y71860D02*
D03*
D33*
X29150Y71800D02*
D03*
X74950Y137100D02*
D03*
X29150Y401800D02*
D03*
Y181800D02*
D03*
X74950Y357100D02*
D03*
Y247100D02*
D03*
X29150Y291800D02*
D03*
X74950Y27100D02*
D03*
D34*
X61850Y71800D02*
D03*
X107650Y137100D02*
D03*
X61850Y401800D02*
D03*
Y181800D02*
D03*
X107650Y357100D02*
D03*
Y247100D02*
D03*
X61850Y291800D02*
D03*
X107650Y27100D02*
D03*
D35*
X274696Y163196D02*
D03*
Y179196D02*
D03*
X208788Y204390D02*
D03*
Y220390D02*
D03*
X252725Y179206D02*
D03*
Y163206D02*
D03*
X230759D02*
D03*
Y179206D02*
D03*
X252730Y204390D02*
D03*
Y220390D02*
D03*
X230749Y220380D02*
D03*
Y204380D02*
D03*
X274701Y220390D02*
D03*
Y204390D02*
D03*
X296672Y220390D02*
D03*
Y204390D02*
D03*
D36*
Y244179D02*
D03*
X208788D02*
D03*
X267377D02*
D03*
X238083D02*
D03*
X61850Y443540D02*
D03*
X29150D02*
D03*
X162560D02*
D03*
D37*
X229708Y396954D02*
D03*
X204708Y406454D02*
D03*
X229708Y415954D02*
D03*
X229708Y361037D02*
D03*
X204708Y370537D02*
D03*
X229708Y380037D02*
D03*
Y325121D02*
D03*
X204708Y334621D02*
D03*
X229708Y344121D02*
D03*
Y289204D02*
D03*
X204708Y298704D02*
D03*
X229708Y308204D02*
D03*
D38*
X246853Y114046D02*
D03*
D39*
X259353Y133070D02*
D03*
X254353D02*
D03*
X249353D02*
D03*
X244353D02*
D03*
X239353D02*
D03*
X234353D02*
D03*
Y95022D02*
D03*
X239353D02*
D03*
X244353D02*
D03*
X249353D02*
D03*
X254353D02*
D03*
X259353D02*
D03*
D40*
X227829Y126546D02*
D03*
Y121546D02*
D03*
Y116546D02*
D03*
Y111546D02*
D03*
Y106546D02*
D03*
Y101546D02*
D03*
X265877D02*
D03*
Y106546D02*
D03*
Y111546D02*
D03*
Y116546D02*
D03*
Y121546D02*
D03*
Y126546D02*
D03*
D41*
X256794Y308848D02*
D03*
Y321348D02*
D03*
Y333848D02*
D03*
Y346348D02*
D03*
Y396348D02*
D03*
Y383848D02*
D03*
Y358848D02*
D03*
Y371348D02*
D03*
D42*
X285794Y283348D02*
D03*
Y421848D02*
D03*
D43*
X107650Y27250D02*
X110200Y29800D01*
X107650Y27100D02*
Y27250D01*
X110200Y29800D02*
X146300D01*
D44*
X61850Y401800D02*
X81252D01*
X83952Y404500D01*
X100500D01*
X107650Y357100D02*
X107674Y357124D01*
X126238D01*
X128914Y359800D02*
X146300D01*
X126238Y357124D02*
X128914Y359800D01*
X83172Y294500D02*
X100500D01*
X62150Y292100D02*
X80772D01*
X83172Y294500D01*
X107946Y247396D02*
X127000D01*
X107650Y247100D02*
X107946Y247396D01*
X127000D02*
X129404Y249800D01*
X146300D01*
X81360Y181689D02*
X84170Y184500D01*
X61961Y181689D02*
X81360D01*
X84170Y184500D02*
X100500D01*
X107848Y137298D02*
X129932D01*
X132136Y139502D02*
X146002D01*
X129932Y137298D02*
X132136Y139502D01*
X77896Y71800D02*
X80596Y74500D01*
X61850Y71800D02*
X77896D01*
X80596Y74500D02*
X100500D01*
X107650Y358250D02*
X109200Y359800D01*
X107650Y357100D02*
Y358250D01*
X204708Y311388D02*
X210058Y316738D01*
X204708Y298704D02*
Y311388D01*
Y334621D02*
X217526D01*
D45*
X170434Y288036D02*
Y380366D01*
X146300Y404500D02*
X170434Y380366D01*
X100500Y404500D02*
X146300D01*
Y426470D01*
X62150Y292100D02*
X64550Y294500D01*
X61850Y291800D02*
X62150Y292100D01*
X100500Y294500D02*
X142126D01*
X180342Y256284D01*
X61850Y181800D02*
X62676Y182626D01*
X100500Y184500D02*
X147986D01*
X169164Y163322D01*
X107650Y137100D02*
X108726Y138176D01*
X123366Y74500D02*
X126001Y71865D01*
X156989D02*
X178308Y50546D01*
X126001Y71865D02*
X156989D01*
X100500Y74500D02*
X123366D01*
X146300Y27100D02*
X231824D01*
X110350Y29800D02*
X146300D01*
X61850Y401800D02*
X64550Y404500D01*
X231824Y27100D02*
X296786Y92062D01*
Y114808D01*
X178308Y50546D02*
X248666D01*
X287782Y89662D01*
Y104140D01*
X275590Y84328D02*
Y97536D01*
X183388Y58166D02*
X249428D01*
X275590Y84328D01*
X129230Y443540D02*
X146300Y426470D01*
X61850Y443540D02*
X129230D01*
X198665Y108831D02*
X200950Y106546D01*
X197797Y108831D02*
X198665D01*
X200950Y106546D02*
X227829D01*
X209957Y116546D02*
X227829D01*
X197797Y128706D02*
X209957Y116546D01*
X279105Y102937D02*
X279973D01*
X275496Y106546D02*
X279105Y102937D01*
X265877Y106546D02*
X275496D01*
X287504Y113768D02*
X288371D01*
X284726Y116546D02*
X287504Y113768D01*
X265877Y116546D02*
X284726D01*
X239353Y80095D02*
Y95022D01*
X194818Y72898D02*
X232156D01*
X239353Y80095D01*
X225878Y82042D02*
X226032Y81888D01*
X230614D01*
X234353Y85628D01*
Y95022D01*
X263906Y82042D02*
Y82254D01*
X259353Y86807D02*
X263906Y82254D01*
X259353Y86807D02*
Y95022D01*
X246853Y82042D02*
Y82909D01*
X249353Y85409D01*
Y95022D01*
X244353Y85409D02*
X246853Y82909D01*
X244353Y85409D02*
Y95022D01*
X191516Y146558D02*
Y266954D01*
X216528Y121546D02*
X227829D01*
X191516Y146558D02*
X216528Y121546D01*
X180342Y109218D02*
Y256284D01*
X188014Y101546D02*
X227829D01*
X180342Y109218D02*
X188014Y101546D01*
X175768Y91948D02*
Y174180D01*
Y91948D02*
X194818Y72898D01*
X169164Y83566D02*
Y163322D01*
X187960Y64770D02*
X241300D01*
X169164Y83566D02*
X187960Y64770D01*
X146300Y95254D02*
Y137100D01*
Y95254D02*
X183388Y58166D01*
X241300Y64770D02*
X254353Y77823D01*
Y95022D01*
X280376Y111546D02*
X287782Y104140D01*
X252725Y163206D02*
X263768D01*
X274691Y179201D02*
X274696Y179196D01*
X252730Y179201D02*
X274691D01*
X252725Y179206D02*
X252730Y179201D01*
X259353Y143256D02*
X265957Y149860D01*
X289052D02*
X296672Y157480D01*
X265957Y149860D02*
X289052D01*
X296672Y157480D02*
Y204390D01*
X259353Y133070D02*
Y143256D01*
X254353Y133070D02*
Y161578D01*
X252725Y163206D02*
X254353Y161578D01*
X274701Y195961D02*
Y204390D01*
X271018Y192278D02*
X274701Y195961D01*
X250444Y192278D02*
X271018D01*
X243842Y185676D02*
X250444Y192278D01*
X243842Y153922D02*
Y185676D01*
Y153922D02*
X249353Y148411D01*
Y133070D02*
Y148411D01*
X245792Y204390D02*
X252730D01*
X239268Y197866D02*
X245792Y204390D01*
X239268Y149979D02*
Y197866D01*
Y149979D02*
X243927Y145320D01*
Y145201D02*
Y145320D01*
Y145201D02*
X244353Y144775D01*
Y133070D02*
Y144775D01*
X208788Y166624D02*
Y204390D01*
X234353Y133070D02*
Y141059D01*
X208788Y166624D02*
X234353Y141059D01*
X230759Y152019D02*
Y163206D01*
Y152019D02*
X239353Y143425D01*
X205192Y111546D02*
X227829D01*
X184916Y131822D02*
X205192Y111546D01*
X184916Y131822D02*
Y262882D01*
X146300Y203648D02*
Y247100D01*
Y203648D02*
X175768Y174180D01*
X170434Y288036D02*
X191516Y266954D01*
X146300Y301498D02*
X184916Y262882D01*
X146300Y301498D02*
Y357100D01*
X265877Y101546D02*
X271580D01*
X275590Y97536D01*
X265877Y111546D02*
X280376D01*
X290048Y121546D02*
X296786Y114808D01*
X265877Y121546D02*
X290048D01*
X239353Y133070D02*
Y143425D01*
D46*
X323156Y62298D02*
D03*
D47*
X293125Y28131D02*
D03*
M02*
