G04*
G04 #@! TF.GenerationSoftware,Altium Limited,Altium Designer,24.1.2 (44)*
G04*
G04 Layer_Color=255*
%FSLAX44Y44*%
%MOMM*%
G71*
G04*
G04 #@! TF.SameCoordinates,1B47F422-010E-43AE-BF46-818BA779A623*
G04*
G04*
G04 #@! TF.FilePolarity,Positive*
G04*
G01*
G75*
%ADD28C,1.0000*%
%ADD29C,6.3500*%
%ADD30C,0.6000*%
D28*
X100500Y71800D02*
D03*
X87800Y84500D02*
D03*
X113200D02*
D03*
X100500Y97200D02*
D03*
X146300Y27100D02*
D03*
X133600Y39800D02*
D03*
X159000D02*
D03*
X146300Y52500D02*
D03*
X100500Y427200D02*
D03*
X113200Y414500D02*
D03*
X87800D02*
D03*
X100500Y401800D02*
D03*
X146300Y382500D02*
D03*
X159000Y369800D02*
D03*
X133600D02*
D03*
X146300Y357100D02*
D03*
X100500Y317200D02*
D03*
X113200Y304500D02*
D03*
X87800D02*
D03*
X100500Y291800D02*
D03*
X146300Y272500D02*
D03*
X159000Y259800D02*
D03*
X133600D02*
D03*
X146300Y247100D02*
D03*
X100500Y207200D02*
D03*
X113200Y194500D02*
D03*
X87800D02*
D03*
X100500Y181800D02*
D03*
X146300Y162500D02*
D03*
X159000Y149800D02*
D03*
X133600D02*
D03*
X146300Y137100D02*
D03*
X325164Y469836D02*
D03*
X292836D02*
D03*
Y502164D02*
D03*
X325164D02*
D03*
X331860Y486000D02*
D03*
X309000Y463140D02*
D03*
X286140Y486000D02*
D03*
X309000Y508860D02*
D03*
X325164Y19835D02*
D03*
X292836D02*
D03*
Y52165D02*
D03*
X325164D02*
D03*
X331860Y36000D02*
D03*
X309000Y13140D02*
D03*
X286140Y36000D02*
D03*
X309000Y58860D02*
D03*
D29*
Y486000D02*
D03*
Y36000D02*
D03*
D30*
X333114Y530371D02*
D03*
X317114Y530356D02*
D03*
X301114D02*
D03*
X285114D02*
D03*
X269114D02*
D03*
X253114D02*
D03*
X237114D02*
D03*
X221114D02*
D03*
X205114D02*
D03*
X189114D02*
D03*
X173114D02*
D03*
X157114D02*
D03*
X141114D02*
D03*
X125114D02*
D03*
X109114D02*
D03*
X93114D02*
D03*
X77114D02*
D03*
X61114D02*
D03*
X45114D02*
D03*
X29114D02*
D03*
X13114D02*
D03*
X4644Y516782D02*
D03*
Y500782D02*
D03*
Y484782D02*
D03*
Y468782D02*
D03*
Y452782D02*
D03*
Y436782D02*
D03*
Y420782D02*
D03*
Y404782D02*
D03*
Y388782D02*
D03*
Y372782D02*
D03*
Y356782D02*
D03*
Y340782D02*
D03*
Y324782D02*
D03*
Y308782D02*
D03*
Y292782D02*
D03*
Y276782D02*
D03*
Y260782D02*
D03*
Y244782D02*
D03*
Y228782D02*
D03*
Y212782D02*
D03*
Y196782D02*
D03*
Y180782D02*
D03*
Y164782D02*
D03*
Y148782D02*
D03*
Y132782D02*
D03*
Y116782D02*
D03*
Y100782D02*
D03*
Y84782D02*
D03*
Y68782D02*
D03*
Y52782D02*
D03*
Y36782D02*
D03*
Y20782D02*
D03*
X8860Y5348D02*
D03*
X24845Y4644D02*
D03*
X40845D02*
D03*
X56845D02*
D03*
X72845D02*
D03*
X88845D02*
D03*
X104845D02*
D03*
X120845D02*
D03*
X136845D02*
D03*
X152845D02*
D03*
X168845D02*
D03*
X184845D02*
D03*
X200845D02*
D03*
X216845D02*
D03*
X232845D02*
D03*
X248845D02*
D03*
X264845D02*
D03*
X280845D02*
D03*
X340335Y63779D02*
D03*
X332650Y77812D02*
D03*
X321004Y88783D02*
D03*
X320356Y104770D02*
D03*
Y120770D02*
D03*
Y136770D02*
D03*
Y152770D02*
D03*
Y168770D02*
D03*
Y184770D02*
D03*
Y200770D02*
D03*
Y216770D02*
D03*
Y232770D02*
D03*
Y248770D02*
D03*
Y264770D02*
D03*
Y280770D02*
D03*
Y296770D02*
D03*
Y312770D02*
D03*
Y328770D02*
D03*
Y344770D02*
D03*
Y360770D02*
D03*
Y376770D02*
D03*
Y392770D02*
D03*
Y408770D02*
D03*
Y424770D02*
D03*
X323615Y440435D02*
D03*
X337961Y447520D02*
D03*
X340355Y463340D02*
D03*
Y511339D02*
D03*
M02*
