G04*
G04 #@! TF.GenerationSoftware,Altium Limited,Altium Designer,25.3.2 (17)*
G04*
G04 Layer_Physical_Order=2*
G04 Layer_Color=16711680*
%FSLAX44Y44*%
%MOMM*%
G71*
G04*
G04 #@! TF.SameCoordinates,D9C597C5-9DFD-42FE-9E8E-5E5B82B02BC8*
G04*
G04*
G04 #@! TF.FilePolarity,Positive*
G04*
G01*
G75*
%ADD11C,0.4000*%
%ADD21C,0.8890*%
%ADD22C,0.3810*%
%ADD23C,0.5000*%
%ADD24R,3.1554X3.1594*%
%ADD25R,6.3304X4.4555*%
%ADD26R,3.1750X3.1555*%
%ADD27R,3.1533X6.3308*%
%ADD28C,1.0000*%
%ADD29C,6.3500*%
%ADD30C,0.6000*%
%ADD31R,0.8000X0.7000*%
%ADD32C,1.5000*%
%ADD33R,0.9100X1.2200*%
%ADD34R,0.9100X1.2200*%
%ADD35R,0.9500X0.9000*%
%ADD36R,2.5000X2.5000*%
G04:AMPARAMS|DCode=37|XSize=0.2746mm|YSize=0.8048mm|CornerRadius=0.1373mm|HoleSize=0mm|Usage=FLASHONLY|Rotation=180.000|XOffset=0mm|YOffset=0mm|HoleType=Round|Shape=RoundedRectangle|*
%AMROUNDEDRECTD37*
21,1,0.2746,0.5302,0,0,180.0*
21,1,0.0000,0.8048,0,0,180.0*
1,1,0.2746,0.0000,0.2651*
1,1,0.2746,0.0000,0.2651*
1,1,0.2746,0.0000,-0.2651*
1,1,0.2746,0.0000,-0.2651*
%
%ADD37ROUNDEDRECTD37*%
G04:AMPARAMS|DCode=38|XSize=0.2746mm|YSize=0.8048mm|CornerRadius=0.1373mm|HoleSize=0mm|Usage=FLASHONLY|Rotation=270.000|XOffset=0mm|YOffset=0mm|HoleType=Round|Shape=RoundedRectangle|*
%AMROUNDEDRECTD38*
21,1,0.2746,0.5302,0,0,270.0*
21,1,0.0000,0.8048,0,0,270.0*
1,1,0.2746,-0.2651,0.0000*
1,1,0.2746,-0.2651,0.0000*
1,1,0.2746,0.2651,0.0000*
1,1,0.2746,0.2651,0.0000*
%
%ADD38ROUNDEDRECTD38*%
%ADD39R,1.6000X0.8000*%
%ADD40R,3.0000X2.1000*%
%ADD41C,0.2794*%
G36*
X344999Y508576D02*
X344945Y506199D01*
X344513Y500960D01*
X343650Y495077D01*
X341547Y485045D01*
X339605Y477552D01*
X329065Y510606D01*
X336109Y521578D01*
X344999Y508576D01*
D02*
G37*
G36*
X275435Y486000D02*
X275470Y485825D01*
Y483361D01*
X276296Y478148D01*
X277927Y473129D01*
X280323Y468426D01*
X283425Y464157D01*
X287157Y460425D01*
X291426Y457323D01*
X296129Y454926D01*
X301148Y453296D01*
X306361Y452470D01*
X311639D01*
X312404Y452591D01*
X325904D01*
X326349Y450813D01*
X323462Y449270D01*
X320314Y446687D01*
X317731Y443539D01*
X315812Y439948D01*
X314630Y436052D01*
X314236Y432055D01*
X314212Y432055D01*
X314209Y432038D01*
X314212Y432026D01*
X314208Y431903D01*
X314208Y430277D01*
Y92000D01*
X314251Y91782D01*
X314629Y87948D01*
X315811Y84052D01*
X317730Y80461D01*
X320313Y77313D01*
X323461Y74730D01*
X327052Y72811D01*
X330948Y71629D01*
X333819Y71346D01*
X333732Y69568D01*
X309000D01*
X308808Y69530D01*
X306361D01*
X301148Y68704D01*
X296129Y67073D01*
X291426Y64677D01*
X287157Y61575D01*
X283425Y57843D01*
X280323Y53574D01*
X277927Y48871D01*
X276296Y43852D01*
X275470Y38639D01*
Y36175D01*
X275435Y36000D01*
Y10792D01*
X12032D01*
X11404Y11404D01*
X10792Y12032D01*
Y522968D01*
X11404Y523596D01*
X12032Y524208D01*
X275435D01*
Y486000D01*
D02*
G37*
G36*
X341558Y36818D02*
X343642Y26756D01*
X344497Y20863D01*
X344925Y15622D01*
X344978Y13247D01*
X336088Y11424D01*
X336017Y12436D01*
X335802Y13220D01*
X335444Y13776D01*
X334943Y14104D01*
X334298Y14204D01*
X333510Y14076D01*
X332579Y13720D01*
X331628Y13202D01*
X331133Y12337D01*
X330746Y11422D01*
X330578Y10649D01*
X330627Y10016D01*
X330894Y9523D01*
X331378Y9171D01*
X332080Y8960D01*
X333000Y8890D01*
X331563Y0D01*
X329185Y54D01*
X323947Y486D01*
X318065Y1349D01*
X308035Y3454D01*
X300544Y5397D01*
X330066Y14800D01*
X339635Y44342D01*
X341558Y36818D01*
D02*
G37*
%LPC*%
G36*
X163882Y453580D02*
X163830D01*
Y444810D01*
X172600D01*
Y444862D01*
X171916Y447415D01*
X170594Y449705D01*
X168725Y451574D01*
X166435Y452896D01*
X163882Y453580D01*
D02*
G37*
G36*
X161290D02*
X161238D01*
X158685Y452896D01*
X156395Y451574D01*
X154526Y449705D01*
X153204Y447415D01*
X152520Y444862D01*
Y444810D01*
X161290D01*
Y453580D01*
D02*
G37*
G36*
X172600Y442270D02*
X163830D01*
Y433500D01*
X163882D01*
X166435Y434184D01*
X168725Y435506D01*
X170594Y437375D01*
X171916Y439665D01*
X172600Y442218D01*
Y442270D01*
D02*
G37*
G36*
X161290D02*
X152520D01*
Y442218D01*
X153204Y439665D01*
X154526Y437375D01*
X156395Y435506D01*
X158685Y434184D01*
X161238Y433500D01*
X161290D01*
Y442270D01*
D02*
G37*
G36*
X303334Y434888D02*
X287064D01*
Y423118D01*
X303334D01*
Y434888D01*
D02*
G37*
G36*
X284524D02*
X268254D01*
Y423118D01*
X284524D01*
Y434888D01*
D02*
G37*
G36*
X101393Y433980D02*
X99607D01*
X97883Y433518D01*
X96337Y432625D01*
X95075Y431363D01*
X94182Y429817D01*
X93720Y428093D01*
Y426307D01*
X94182Y424583D01*
X95075Y423037D01*
X96337Y421775D01*
X97883Y420882D01*
X99607Y420420D01*
X101393D01*
X103117Y420882D01*
X104663Y421775D01*
X105925Y423037D01*
X106818Y424583D01*
X107280Y426307D01*
Y428093D01*
X106818Y429817D01*
X105925Y431363D01*
X104663Y432625D01*
X103117Y433518D01*
X101393Y433980D01*
D02*
G37*
G36*
X303334Y420578D02*
X287064D01*
Y408808D01*
X303334D01*
Y420578D01*
D02*
G37*
G36*
X284524D02*
X268254D01*
Y408808D01*
X284524D01*
Y420578D01*
D02*
G37*
G36*
X211998Y413494D02*
X205978D01*
Y407724D01*
X211998D01*
Y413494D01*
D02*
G37*
G36*
X203438D02*
X197418D01*
Y407724D01*
X203438D01*
Y413494D01*
D02*
G37*
G36*
X114093Y421280D02*
X112307D01*
X110583Y420818D01*
X109037Y419925D01*
X107775Y418663D01*
X106882Y417117D01*
X106420Y415393D01*
Y413607D01*
X106882Y411883D01*
X107775Y410337D01*
X109037Y409075D01*
X110583Y408182D01*
X112307Y407720D01*
X114093D01*
X115817Y408182D01*
X117363Y409075D01*
X118625Y410337D01*
X119518Y411883D01*
X119980Y413607D01*
Y415393D01*
X119518Y417117D01*
X118625Y418663D01*
X117363Y419925D01*
X115817Y420818D01*
X114093Y421280D01*
D02*
G37*
G36*
X211998Y405184D02*
X205978D01*
Y399414D01*
X211998D01*
Y405184D01*
D02*
G37*
G36*
X203438D02*
X197418D01*
Y399414D01*
X203438D01*
Y405184D01*
D02*
G37*
G36*
X230659Y446778D02*
X228757D01*
X227000Y446051D01*
X225656Y444706D01*
X224928Y442949D01*
Y441048D01*
X225344Y440043D01*
Y424203D01*
X225315Y423827D01*
X225225Y423218D01*
X225112Y422746D01*
X224993Y422420D01*
X224897Y422243D01*
X224895Y422240D01*
X224844Y422234D01*
X223178D01*
Y420446D01*
X223174Y420423D01*
X223178Y420401D01*
Y411507D01*
X223174Y411484D01*
X223178Y411462D01*
Y411461D01*
X223174Y411439D01*
X223178Y411422D01*
Y409674D01*
X223806D01*
X225344Y406210D01*
Y405203D01*
X225315Y404827D01*
X225225Y404218D01*
X225112Y403746D01*
X224993Y403420D01*
X224897Y403243D01*
X224895Y403240D01*
X224844Y403234D01*
X223178D01*
Y401446D01*
X223174Y401423D01*
X223178Y401401D01*
Y390674D01*
X234405D01*
X234428Y390670D01*
X234450Y390674D01*
X236238D01*
Y392003D01*
X236261Y392012D01*
X236628Y392112D01*
X237114Y392200D01*
X238165Y392287D01*
X243650D01*
X245211Y391734D01*
X246254Y390388D01*
X246254Y389105D01*
Y385118D01*
X256794D01*
X267334D01*
Y389105D01*
X267334Y390388D01*
X266574Y391851D01*
Y402128D01*
X248847D01*
X248825Y402132D01*
X248802Y402128D01*
X247014D01*
Y401759D01*
X243825Y401015D01*
X238223D01*
X237836Y401046D01*
X237230Y401138D01*
X236761Y401252D01*
X236439Y401372D01*
X236263Y401470D01*
X236248Y401483D01*
X236238Y401566D01*
Y403234D01*
X234572D01*
X234521Y403240D01*
X234519Y403243D01*
X234423Y403420D01*
X234304Y403746D01*
X234191Y404218D01*
X234101Y404827D01*
X234072Y405203D01*
Y406210D01*
X235609Y409674D01*
X236238D01*
Y411422D01*
X236242Y411439D01*
X236238Y411461D01*
Y411462D01*
X236242Y411484D01*
X236238Y411507D01*
Y420401D01*
X236242Y420423D01*
X236238Y420446D01*
Y422234D01*
X234572D01*
X234521Y422240D01*
X234519Y422243D01*
X234423Y422420D01*
X234304Y422746D01*
X234191Y423218D01*
X234101Y423827D01*
X234072Y424203D01*
Y440043D01*
X234488Y441048D01*
Y442949D01*
X233760Y444706D01*
X232416Y446051D01*
X230659Y446778D01*
D02*
G37*
G36*
X211998Y377577D02*
X205978D01*
Y371807D01*
X211998D01*
Y377577D01*
D02*
G37*
G36*
X203438D02*
X197418D01*
Y371807D01*
X203438D01*
Y377577D01*
D02*
G37*
G36*
X30101Y469600D02*
X28199D01*
X26442Y468872D01*
X25098Y467528D01*
X24370Y465771D01*
Y463869D01*
X24786Y462864D01*
Y454616D01*
X24749Y454229D01*
X24646Y453613D01*
X24506Y453045D01*
X24330Y452523D01*
X24121Y452045D01*
X23879Y451606D01*
X23602Y451203D01*
X23290Y450830D01*
X22877Y450424D01*
X22873Y450418D01*
X22867Y450414D01*
X22801Y450314D01*
X21724Y449238D01*
X20502Y447122D01*
X19870Y444762D01*
Y442318D01*
X20502Y439958D01*
X21724Y437842D01*
X22801Y436766D01*
X22867Y436666D01*
X22873Y436662D01*
X22877Y436656D01*
X23290Y436250D01*
X23602Y435877D01*
X23879Y435473D01*
X24121Y435035D01*
X24330Y434557D01*
X24506Y434035D01*
X24646Y433467D01*
X24749Y432851D01*
X24786Y432464D01*
Y414500D01*
Y411580D01*
X24763Y411255D01*
X24679Y410634D01*
X24574Y410148D01*
X24462Y409809D01*
X24398Y409680D01*
X22820D01*
Y407892D01*
X22816Y407869D01*
X22820Y407847D01*
Y395767D01*
X22816Y395746D01*
X22817Y395738D01*
X22816Y395731D01*
X22820Y395708D01*
Y393920D01*
X23404D01*
X24786Y390499D01*
Y356782D01*
Y304500D01*
Y301580D01*
X24763Y301255D01*
X24679Y300634D01*
X24574Y300148D01*
X24462Y299809D01*
X24398Y299680D01*
X22820D01*
Y297892D01*
X22816Y297869D01*
X22820Y297847D01*
Y285767D01*
X22816Y285746D01*
X22817Y285739D01*
X22816Y285730D01*
X22820Y285708D01*
Y283920D01*
X23404D01*
X24786Y280499D01*
Y247100D01*
Y194221D01*
Y191580D01*
X24763Y191255D01*
X24679Y190634D01*
X24574Y190148D01*
X24462Y189809D01*
X24398Y189680D01*
X22820D01*
Y187892D01*
X22816Y187869D01*
X22820Y187847D01*
Y175767D01*
X22816Y175746D01*
X22817Y175739D01*
X22816Y175730D01*
X22820Y175708D01*
Y173920D01*
X23404D01*
X24786Y170499D01*
Y137100D01*
Y84782D01*
Y81580D01*
X24763Y81255D01*
X24679Y80634D01*
X24574Y80148D01*
X24462Y79809D01*
X24398Y79680D01*
X22820D01*
Y77892D01*
X22816Y77870D01*
X22820Y77847D01*
Y65767D01*
X22816Y65746D01*
X22817Y65739D01*
X22816Y65731D01*
X22820Y65708D01*
Y63920D01*
X23404D01*
X24786Y60499D01*
Y33588D01*
X25118Y31918D01*
X26064Y30502D01*
X32552Y24014D01*
X33968Y23068D01*
X35638Y22736D01*
X65100D01*
X68620Y20976D01*
Y19220D01*
X81280D01*
Y34980D01*
X82869Y35436D01*
X99731D01*
X101320Y34980D01*
X101320Y33658D01*
Y19220D01*
X113980D01*
Y22973D01*
X114184Y23056D01*
X114511Y23144D01*
X114957Y23218D01*
X115271Y23246D01*
X139385D01*
X139458Y23239D01*
X139784Y23185D01*
X140082Y23113D01*
X140354Y23024D01*
X140603Y22919D01*
X140832Y22798D01*
X141044Y22660D01*
X141243Y22505D01*
X141490Y22274D01*
X141615Y22197D01*
X142137Y21675D01*
X143683Y20782D01*
X145407Y20320D01*
X147193D01*
X148917Y20782D01*
X150463Y21675D01*
X150996Y22207D01*
X151132Y22295D01*
X151508Y22658D01*
X151840Y22944D01*
X152161Y23186D01*
X152470Y23388D01*
X152766Y23550D01*
X153050Y23677D01*
X153323Y23771D01*
X153586Y23836D01*
X153757Y23861D01*
X244778D01*
X244778Y23861D01*
X246018Y24107D01*
X247069Y24810D01*
X299076Y76817D01*
X299076Y76817D01*
X299778Y77868D01*
X300025Y79108D01*
Y114808D01*
X300025Y114808D01*
X299778Y116048D01*
X299076Y117099D01*
X292338Y123836D01*
X291287Y124539D01*
X290048Y124785D01*
X290047Y124785D01*
X273980D01*
X272518Y126546D01*
X272214Y128073D01*
X271349Y129367D01*
X270055Y130232D01*
X268528Y130536D01*
X267147D01*
Y126546D01*
X264607D01*
Y130536D01*
X264219D01*
X263226Y130536D01*
X262568Y132218D01*
Y132947D01*
X262592Y133070D01*
Y141914D01*
X267299Y146621D01*
X289052D01*
X289052Y146621D01*
X290292Y146867D01*
X291343Y147570D01*
X298962Y155189D01*
X298962Y155189D01*
X299665Y156240D01*
X299911Y157480D01*
Y198730D01*
X299927Y198905D01*
X299961Y199110D01*
X302452D01*
Y209670D01*
X290892D01*
Y199110D01*
X293383D01*
X293417Y198905D01*
X293433Y198730D01*
Y158822D01*
X287710Y153099D01*
X265957D01*
X265957Y153099D01*
X264717Y152853D01*
X263666Y152150D01*
X263666Y152150D01*
X259235Y147719D01*
X257592Y148399D01*
Y157720D01*
X257596Y157792D01*
X257612Y157926D01*
X258505D01*
Y158817D01*
X259145Y159331D01*
X259718Y159703D01*
X260173Y159896D01*
X260253Y159868D01*
X260304Y159845D01*
X260329Y159831D01*
X260334Y159827D01*
X260406Y159762D01*
X260521Y159693D01*
X261060Y159154D01*
X262817Y158426D01*
X264719D01*
X266476Y159154D01*
X268156Y158320D01*
Y157156D01*
X273426D01*
Y163196D01*
Y169236D01*
X268156D01*
Y168093D01*
X266476Y167258D01*
X264719Y167986D01*
X262817D01*
X261060Y167258D01*
X260521Y166719D01*
X260406Y166650D01*
X260334Y166585D01*
X260329Y166581D01*
X260304Y166567D01*
X260253Y166544D01*
X260173Y166516D01*
X259707Y166714D01*
X259400Y166911D01*
X258505Y167644D01*
Y168486D01*
X247081D01*
Y173926D01*
X258505D01*
Y175912D01*
X258710Y175946D01*
X258885Y175962D01*
X268536D01*
X268711Y175946D01*
X268916Y175912D01*
Y173916D01*
X280476D01*
Y184476D01*
X268916D01*
Y182490D01*
X268711Y182456D01*
X268536Y182440D01*
X258885D01*
X258710Y182456D01*
X258505Y182490D01*
Y184486D01*
X249556D01*
X248876Y186129D01*
X251786Y189039D01*
X271018D01*
X271018Y189039D01*
X272258Y189285D01*
X273309Y189988D01*
X276991Y193670D01*
X276991Y193670D01*
X277694Y194721D01*
X277940Y195961D01*
X277940Y195961D01*
Y198730D01*
X277956Y198905D01*
X277990Y199110D01*
X280481D01*
Y209670D01*
X268921D01*
Y199110D01*
X271412D01*
X271446Y198905D01*
X271462Y198730D01*
Y197303D01*
X269676Y195517D01*
X250444D01*
X250444Y195517D01*
X249204Y195271D01*
X248153Y194569D01*
X248153Y194568D01*
X244150Y190565D01*
X242507Y191245D01*
Y196524D01*
X245637Y199654D01*
X246950Y199110D01*
Y199110D01*
X258510D01*
Y209670D01*
X246950D01*
Y208831D01*
X245792Y207629D01*
X244552Y207383D01*
X243501Y206681D01*
X243501Y206680D01*
X238307Y201486D01*
X236529Y202222D01*
Y209660D01*
X224969D01*
Y200933D01*
X224965Y200910D01*
X224969Y200888D01*
Y199100D01*
X225421D01*
X226390Y195814D01*
Y194412D01*
X225974Y193408D01*
Y191506D01*
X226390Y190501D01*
Y186200D01*
X226383Y185993D01*
X226321Y185355D01*
X226238Y184829D01*
X226156Y184486D01*
X224979D01*
Y182698D01*
X224975Y182676D01*
X224979Y182654D01*
Y173926D01*
X236029D01*
Y168486D01*
X224979D01*
Y157926D01*
X227470D01*
X227504Y157721D01*
X227520Y157546D01*
Y154796D01*
X225877Y154116D01*
X212027Y167966D01*
Y198730D01*
X212043Y198905D01*
X212077Y199110D01*
X214568D01*
Y209670D01*
X203008D01*
Y199110D01*
X205499D01*
X205533Y198905D01*
X205549Y198730D01*
Y166624D01*
X205549Y166624D01*
X205795Y165384D01*
X206497Y164333D01*
X231114Y139717D01*
Y133070D01*
X231138Y132947D01*
Y132218D01*
X230480Y130536D01*
X229487Y130536D01*
X229099D01*
Y126546D01*
X226559D01*
Y130536D01*
X225178D01*
X223651Y130232D01*
X222357Y129367D01*
X221492Y128073D01*
X221188Y126546D01*
X219726Y124785D01*
X217870D01*
X194755Y147900D01*
Y266954D01*
X194602Y267724D01*
X196157Y268684D01*
X209603Y255237D01*
X208867Y253459D01*
X207566D01*
X205206Y252827D01*
X203090Y251605D01*
X201362Y249877D01*
X200140Y247761D01*
X199508Y245401D01*
Y242957D01*
X200140Y240597D01*
X201362Y238481D01*
X203090Y236753D01*
X203876Y236299D01*
X203951Y236222D01*
X204210Y236045D01*
X204349Y235918D01*
X204481Y235760D01*
X204608Y235561D01*
X204728Y235309D01*
X204839Y234997D01*
X204933Y234622D01*
X205005Y234183D01*
X205031Y233905D01*
Y226818D01*
X205005Y226527D01*
X204936Y226112D01*
X204855Y225813D01*
X204797Y225670D01*
X203008D01*
Y215110D01*
X212735D01*
X212757Y215106D01*
X212780Y215110D01*
X214568D01*
Y216464D01*
X214614Y216479D01*
X214913Y216545D01*
X215724Y216628D01*
X222701D01*
X224969Y215693D01*
Y215100D01*
X226757D01*
X226779Y215096D01*
X226781Y215096D01*
X226783Y215096D01*
X226805Y215100D01*
X236529D01*
Y225660D01*
X226808D01*
X226787Y225664D01*
X226783Y225664D01*
X226779Y225664D01*
X226757Y225660D01*
X224969D01*
Y225069D01*
X222703Y224142D01*
X215612D01*
X215385Y224159D01*
X214945Y224219D01*
X214617Y224292D01*
X214568Y224308D01*
Y225670D01*
X212780D01*
X212779Y225670D01*
X212721Y225813D01*
X212640Y226112D01*
X212571Y226527D01*
X212545Y226818D01*
Y233905D01*
X212571Y234182D01*
X212643Y234622D01*
X212737Y234997D01*
X212848Y235309D01*
X212968Y235561D01*
X213095Y235760D01*
X213227Y235918D01*
X213366Y236045D01*
X213624Y236222D01*
X213700Y236299D01*
X214486Y236753D01*
X216214Y238481D01*
X217436Y240597D01*
X218068Y242957D01*
Y245401D01*
X217436Y247761D01*
X216214Y249877D01*
X215594Y250497D01*
X216331Y252275D01*
X230540D01*
X231276Y250497D01*
X230657Y249877D01*
X229435Y247761D01*
X228803Y245401D01*
Y242957D01*
X229435Y240597D01*
X230657Y238481D01*
X232385Y236753D01*
X234501Y235532D01*
X236861Y234899D01*
X239304D01*
X241665Y235532D01*
X243781Y236753D01*
X245508Y238481D01*
X246629Y240422D01*
X248942D01*
X248973Y240391D01*
Y225670D01*
X246950D01*
Y215110D01*
X258510D01*
Y225670D01*
X256487D01*
Y241947D01*
X256201Y243385D01*
X255387Y244604D01*
X253155Y246836D01*
X251936Y247650D01*
X250498Y247936D01*
X246629D01*
X245508Y249877D01*
X244889Y250497D01*
X245625Y252275D01*
X253968D01*
X257455Y248788D01*
X257634Y248573D01*
X257894Y248211D01*
X258092Y247880D01*
X258234Y247581D01*
X258327Y247317D01*
X258379Y247087D01*
X258397Y246882D01*
X258388Y246693D01*
X258331Y246386D01*
X258332Y246278D01*
X258097Y245401D01*
Y242957D01*
X258730Y240597D01*
X259951Y238481D01*
X261679Y236753D01*
X263795Y235532D01*
X266155Y234899D01*
X268599D01*
X269322Y235093D01*
X270720Y234177D01*
X270944Y233895D01*
Y226818D01*
X270918Y226527D01*
X270849Y226112D01*
X270768Y225813D01*
X270710Y225670D01*
X268921D01*
Y215110D01*
X280481D01*
Y225670D01*
X278692D01*
X278634Y225813D01*
X278553Y226112D01*
X278484Y226527D01*
X278458Y226818D01*
Y236352D01*
X278172Y237790D01*
X277358Y239009D01*
X276729Y239637D01*
X276654Y239724D01*
X276412Y240040D01*
X276233Y240310D01*
X276116Y240527D01*
X276054Y240680D01*
X276050Y240693D01*
X276657Y242957D01*
Y245401D01*
X276025Y247761D01*
X274803Y249877D01*
X273075Y251605D01*
X270959Y252827D01*
X268599Y253459D01*
X266155D01*
X265278Y253224D01*
X265171Y253225D01*
X264863Y253168D01*
X264674Y253160D01*
X264470Y253178D01*
X264239Y253229D01*
X263976Y253322D01*
X263677Y253464D01*
X263345Y253663D01*
X262984Y253922D01*
X262769Y254101D01*
X259007Y257863D01*
X259744Y259641D01*
X288512D01*
X292915Y255238D01*
Y254454D01*
X292889Y254176D01*
X292817Y253736D01*
X292723Y253361D01*
X292612Y253050D01*
X292491Y252798D01*
X292365Y252598D01*
X292233Y252441D01*
X292094Y252313D01*
X291835Y252136D01*
X291760Y252059D01*
X290974Y251605D01*
X289246Y249877D01*
X288024Y247761D01*
X287392Y245401D01*
Y242957D01*
X288024Y240597D01*
X289246Y238481D01*
X290974Y236753D01*
X291760Y236299D01*
X291835Y236222D01*
X292094Y236045D01*
X292233Y235918D01*
X292365Y235760D01*
X292491Y235561D01*
X292612Y235309D01*
X292723Y234997D01*
X292817Y234622D01*
X292889Y234183D01*
X292915Y233905D01*
Y226818D01*
X292889Y226527D01*
X292820Y226112D01*
X292739Y225813D01*
X292681Y225670D01*
X290892D01*
Y215110D01*
X302452D01*
Y225670D01*
X300663D01*
X300605Y225813D01*
X300524Y226112D01*
X300455Y226527D01*
X300429Y226818D01*
Y233905D01*
X300455Y234182D01*
X300527Y234622D01*
X300621Y234997D01*
X300732Y235309D01*
X300852Y235561D01*
X300979Y235760D01*
X301110Y235918D01*
X301250Y236045D01*
X301508Y236222D01*
X301584Y236299D01*
X302370Y236753D01*
X304098Y238481D01*
X305319Y240597D01*
X305952Y242957D01*
Y245401D01*
X305319Y247761D01*
X304098Y249877D01*
X302370Y251605D01*
X301583Y252059D01*
X301508Y252136D01*
X301250Y252313D01*
X301110Y252441D01*
X300979Y252598D01*
X300852Y252798D01*
X300732Y253050D01*
X300621Y253361D01*
X300527Y253736D01*
X300455Y254176D01*
X300429Y254454D01*
Y256794D01*
X300143Y258232D01*
X299329Y259451D01*
X292725Y266055D01*
X291506Y266869D01*
X290068Y267155D01*
X233850D01*
X233113Y268933D01*
X233760Y269580D01*
X234488Y271337D01*
Y273239D01*
X233760Y274996D01*
X233488Y275268D01*
X233465Y275606D01*
Y281776D01*
X233491Y282068D01*
X233560Y282486D01*
X233641Y282789D01*
X233696Y282924D01*
X236238D01*
Y285215D01*
X236373Y285270D01*
X236676Y285352D01*
X237094Y285421D01*
X237386Y285447D01*
X238658D01*
X240096Y285733D01*
X241315Y286547D01*
X244465Y289697D01*
X245279Y290916D01*
X245565Y292354D01*
Y302273D01*
X247014Y303068D01*
X266574D01*
Y314628D01*
X266574D01*
Y315568D01*
X266574D01*
Y326290D01*
X266574Y327598D01*
X266574Y328906D01*
Y339628D01*
X266574D01*
Y340568D01*
X266574D01*
Y351290D01*
X266574Y352598D01*
X266574Y353906D01*
Y363790D01*
X266574Y364628D01*
X266574Y366749D01*
X266918Y366832D01*
X267422Y366911D01*
X268414Y366984D01*
X279730D01*
X280735Y366568D01*
X282637D01*
X284394Y367296D01*
X285738Y368640D01*
X286466Y370397D01*
Y372299D01*
X285738Y374056D01*
X284394Y375400D01*
X282637Y376128D01*
X280735D01*
X279730Y375712D01*
X268293D01*
X268082Y375719D01*
X267846Y375742D01*
X267347Y377269D01*
X267334Y377464D01*
X267334Y378591D01*
Y382578D01*
X256794D01*
X246254D01*
Y378591D01*
X246254Y377308D01*
X247014Y375845D01*
Y366406D01*
X247014Y365568D01*
X245833Y364279D01*
X244113Y364068D01*
X238285D01*
X237855Y364106D01*
X237260Y364205D01*
X236802Y364328D01*
X236488Y364456D01*
X236312Y364563D01*
X236245Y364624D01*
X236238Y364635D01*
Y367317D01*
X230949D01*
X230941Y367319D01*
X230323Y367350D01*
X229791Y367430D01*
X229250Y367565D01*
X228695Y367760D01*
X228126Y368016D01*
X227540Y368338D01*
X226940Y368728D01*
X226880Y368773D01*
X226527Y370463D01*
X226615Y371023D01*
X227153Y371561D01*
X227536Y371886D01*
X228150Y372347D01*
X228750Y372737D01*
X229335Y373059D01*
X229904Y373315D01*
X230459Y373509D01*
X231001Y373644D01*
X231533Y373724D01*
X232150Y373755D01*
X232159Y373757D01*
X236238D01*
Y386317D01*
X223178D01*
Y382738D01*
X223176Y382729D01*
X223145Y382112D01*
X223065Y381580D01*
X222930Y381038D01*
X222736Y380484D01*
X222479Y379914D01*
X222158Y379329D01*
X221768Y378729D01*
X221307Y378115D01*
X220981Y377732D01*
X218361Y375112D01*
X217743D01*
X215986Y374384D01*
X214642Y373040D01*
X213914Y371283D01*
Y369381D01*
X214642Y367624D01*
X215986Y366280D01*
X217434Y365680D01*
X219563Y363551D01*
X220968Y361912D01*
X221585Y361073D01*
X222104Y360272D01*
X222514Y359528D01*
X222818Y358848D01*
X223021Y358237D01*
X223134Y357698D01*
X223178Y357100D01*
Y354757D01*
X234407D01*
X234429Y354753D01*
X234432Y354753D01*
X234434Y354753D01*
X234456Y354757D01*
X236238D01*
Y355225D01*
X237919Y355341D01*
X243528D01*
X246801Y353818D01*
X247014Y352128D01*
X247014Y351282D01*
X244661Y350105D01*
X236409D01*
X236238Y350113D01*
Y350401D01*
X234458D01*
X234437Y350405D01*
X234414Y350401D01*
X223178D01*
Y349054D01*
X220825Y347878D01*
X195785D01*
X194347Y347592D01*
X193128Y346777D01*
X182001Y335651D01*
X181187Y334432D01*
X180901Y332994D01*
Y285496D01*
X181107Y284458D01*
X179698Y283434D01*
X179641Y283410D01*
X173673Y289378D01*
Y377666D01*
X173673Y377666D01*
X173427Y378906D01*
X172724Y379957D01*
X150609Y402073D01*
X150423Y402305D01*
X150207Y402622D01*
X150023Y402945D01*
X149869Y403278D01*
X149743Y403623D01*
X149644Y403982D01*
X149572Y404358D01*
X149539Y404654D01*
Y426470D01*
X149293Y427710D01*
X148590Y428760D01*
X148590Y428760D01*
X131521Y445830D01*
X130470Y446533D01*
X129230Y446779D01*
X129230Y446779D01*
X71438D01*
X71268Y446795D01*
X70988Y446841D01*
X70772Y446896D01*
X70622Y446951D01*
X70533Y446997D01*
X70531Y446998D01*
X70498Y447122D01*
X69276Y449238D01*
X67548Y450966D01*
X65432Y452188D01*
X63072Y452820D01*
X60628D01*
X58268Y452188D01*
X56152Y450966D01*
X54424Y449238D01*
X53202Y447122D01*
X52570Y444762D01*
Y442318D01*
X53202Y439958D01*
X54424Y437842D01*
X56152Y436114D01*
X58268Y434892D01*
X60628Y434260D01*
X63072D01*
X65432Y434892D01*
X67548Y436114D01*
X69276Y437842D01*
X70498Y439958D01*
X70531Y440081D01*
X70533Y440083D01*
X70622Y440129D01*
X70772Y440184D01*
X70988Y440239D01*
X71268Y440285D01*
X71438Y440301D01*
X127888D01*
X143061Y425128D01*
Y405622D01*
X143027Y405432D01*
X142979Y405289D01*
X142941Y405217D01*
X142915Y405185D01*
X142883Y405159D01*
X142811Y405121D01*
X142668Y405073D01*
X142478Y405039D01*
X107957D01*
X107786Y405064D01*
X107523Y405129D01*
X107250Y405223D01*
X106966Y405350D01*
X106670Y405512D01*
X106361Y405714D01*
X106039Y405956D01*
X105708Y406242D01*
X105332Y406605D01*
X105196Y406693D01*
X104663Y407225D01*
X103117Y408118D01*
X101393Y408580D01*
X99607D01*
X97883Y408118D01*
X96337Y407225D01*
X95815Y406703D01*
X95690Y406626D01*
X95443Y406395D01*
X95244Y406240D01*
X95032Y406102D01*
X94803Y405981D01*
X94554Y405876D01*
X94282Y405787D01*
X93984Y405715D01*
X93658Y405661D01*
X93586Y405654D01*
X69845D01*
X68180Y406829D01*
X68180Y409680D01*
X69769Y410136D01*
X81496D01*
X81733Y410111D01*
X82057Y410058D01*
X82330Y409996D01*
X82550Y409928D01*
X82716Y409861D01*
X82830Y409801D01*
X82898Y409755D01*
X83025Y409643D01*
X83132Y409580D01*
X83637Y409075D01*
X85183Y408182D01*
X86907Y407720D01*
X88693D01*
X90417Y408182D01*
X91963Y409075D01*
X93225Y410337D01*
X94118Y411883D01*
X94580Y413607D01*
Y415393D01*
X94118Y417117D01*
X93225Y418663D01*
X91963Y419925D01*
X90417Y420818D01*
X88693Y421280D01*
X86907D01*
X85183Y420818D01*
X83637Y419925D01*
X83132Y419420D01*
X83025Y419357D01*
X82898Y419245D01*
X82830Y419199D01*
X82716Y419139D01*
X82550Y419072D01*
X82330Y419005D01*
X82057Y418942D01*
X81755Y418893D01*
X81404Y418864D01*
X35865D01*
X35297Y418964D01*
X34822Y419122D01*
X34464Y419315D01*
X34190Y419540D01*
X33965Y419814D01*
X33772Y420173D01*
X33614Y420647D01*
X33514Y421215D01*
Y432464D01*
X33551Y432851D01*
X33654Y433467D01*
X33794Y434035D01*
X33970Y434557D01*
X34179Y435035D01*
X34421Y435474D01*
X34698Y435877D01*
X35010Y436250D01*
X35423Y436656D01*
X35427Y436662D01*
X35433Y436666D01*
X35499Y436766D01*
X36576Y437842D01*
X37798Y439958D01*
X38430Y442318D01*
Y444762D01*
X37798Y447122D01*
X36576Y449238D01*
X35499Y450314D01*
X35433Y450414D01*
X35427Y450418D01*
X35423Y450424D01*
X35010Y450830D01*
X34698Y451203D01*
X34421Y451607D01*
X34179Y452045D01*
X33970Y452523D01*
X33794Y453045D01*
X33654Y453613D01*
X33551Y454229D01*
X33514Y454616D01*
Y462864D01*
X33930Y463869D01*
Y465771D01*
X33202Y467528D01*
X31858Y468872D01*
X30101Y469600D01*
D02*
G37*
G36*
X211998Y369267D02*
X205978D01*
Y363497D01*
X211998D01*
Y369267D01*
D02*
G37*
G36*
X203438D02*
X197418D01*
Y363497D01*
X203438D01*
Y369267D01*
D02*
G37*
G36*
X303334Y296388D02*
X287064D01*
Y284618D01*
X303334D01*
Y296388D01*
D02*
G37*
G36*
X284524D02*
X268254D01*
Y284618D01*
X284524D01*
Y296388D01*
D02*
G37*
G36*
X303334Y282078D02*
X287064D01*
Y270308D01*
X303334D01*
Y282078D01*
D02*
G37*
G36*
X284524D02*
X268254D01*
Y270308D01*
X284524D01*
Y282078D01*
D02*
G37*
G36*
X281236Y169236D02*
X275966D01*
Y164466D01*
X281236D01*
Y169236D01*
D02*
G37*
G36*
Y161926D02*
X275966D01*
Y157156D01*
X281236D01*
Y161926D01*
D02*
G37*
%LPD*%
G36*
X232230Y424473D02*
X232297Y423623D01*
X232408Y422873D01*
X232563Y422223D01*
X232763Y421673D01*
X233007Y421223D01*
X233295Y420873D01*
X233629Y420623D01*
X234006Y420473D01*
X234428Y420423D01*
X224988D01*
X225410Y420473D01*
X225788Y420623D01*
X226120Y420873D01*
X226409Y421223D01*
X226653Y421673D01*
X226853Y422223D01*
X227008Y422873D01*
X227119Y423623D01*
X227186Y424473D01*
X227208Y425423D01*
X232208D01*
X232230Y424473D01*
D02*
G37*
G36*
X232208Y406484D02*
X227208D01*
X224988Y411484D01*
X234428D01*
X232208Y406484D01*
D02*
G37*
G36*
X232230Y405473D02*
X232297Y404623D01*
X232408Y403873D01*
X232563Y403223D01*
X232763Y402673D01*
X233007Y402223D01*
X233295Y401873D01*
X233629Y401623D01*
X234006Y401473D01*
X234428Y401423D01*
X224988D01*
X225410Y401473D01*
X225788Y401623D01*
X226120Y401873D01*
X226409Y402223D01*
X226653Y402673D01*
X226853Y403223D01*
X227008Y403873D01*
X227119Y404623D01*
X227186Y405473D01*
X227208Y406423D01*
X232208D01*
X232230Y405473D01*
D02*
G37*
G36*
X234478Y400992D02*
X234627Y400605D01*
X234877Y400265D01*
X235228Y399969D01*
X235678Y399719D01*
X236227Y399515D01*
X236877Y399356D01*
X237628Y399242D01*
X238477Y399174D01*
X239428Y399151D01*
Y394151D01*
X238477Y394134D01*
X236877Y394001D01*
X236227Y393884D01*
X235678Y393734D01*
X235228Y393551D01*
X234877Y393334D01*
X234627Y393084D01*
X234478Y392801D01*
X234428Y392484D01*
Y401423D01*
X234478Y400992D01*
D02*
G37*
G36*
X248825Y392379D02*
X243825Y394151D01*
Y399151D01*
X248825Y400317D01*
Y392379D01*
D02*
G37*
G36*
X31675Y454782D02*
X31750Y453993D01*
X31875Y453245D01*
X32050Y452537D01*
X32275Y451868D01*
X32550Y451240D01*
X32875Y450653D01*
X33250Y450105D01*
X33675Y449598D01*
X34150Y449130D01*
X24150D01*
X24625Y449598D01*
X25050Y450105D01*
X25425Y450653D01*
X25750Y451240D01*
X26025Y451868D01*
X26250Y452537D01*
X26425Y453245D01*
X26550Y453993D01*
X26625Y454782D01*
X26650Y455611D01*
X31650D01*
X31675Y454782D01*
D02*
G37*
G36*
X68943Y446069D02*
X69118Y445831D01*
X69334Y445621D01*
X69592Y445440D01*
X69891Y445286D01*
X70232Y445160D01*
X70615Y445063D01*
X71039Y444993D01*
X71505Y444951D01*
X72013Y444937D01*
Y442143D01*
X71505Y442129D01*
X71039Y442087D01*
X70615Y442017D01*
X70232Y441920D01*
X69891Y441794D01*
X69592Y441640D01*
X69334Y441459D01*
X69118Y441249D01*
X68943Y441011D01*
X68810Y440746D01*
Y446334D01*
X68943Y446069D01*
D02*
G37*
G36*
X33675Y437482D02*
X33250Y436975D01*
X32875Y436427D01*
X32550Y435840D01*
X32275Y435212D01*
X32050Y434543D01*
X31875Y433835D01*
X31750Y433087D01*
X31675Y432298D01*
X31650Y431469D01*
X26650D01*
X26625Y432298D01*
X26550Y433087D01*
X26425Y433835D01*
X26250Y434543D01*
X26025Y435212D01*
X25750Y435840D01*
X25425Y436427D01*
X25050Y436975D01*
X24625Y437482D01*
X24150Y437950D01*
X34150D01*
X33675Y437482D01*
D02*
G37*
G36*
X84229Y411000D02*
X84015Y411190D01*
X83765Y411360D01*
X83479Y411510D01*
X83157Y411640D01*
X82799Y411750D01*
X82405Y411840D01*
X81975Y411910D01*
X81510Y411960D01*
X80470Y412000D01*
Y417000D01*
X81008Y417010D01*
X81975Y417090D01*
X82405Y417160D01*
X82799Y417250D01*
X83157Y417360D01*
X83479Y417490D01*
X83765Y417640D01*
X84015Y417810D01*
X84229Y418000D01*
Y411000D01*
D02*
G37*
G36*
X31700Y421050D02*
X31850Y420200D01*
X32100Y419450D01*
X32450Y418800D01*
X32900Y418250D01*
X33450Y417800D01*
X34100Y417450D01*
X34850Y417200D01*
X35700Y417050D01*
X36650Y417000D01*
Y412000D01*
X35700Y411950D01*
X34850Y411800D01*
X34100Y411550D01*
X33450Y411200D01*
X32900Y410750D01*
X32450Y410200D01*
X32100Y409550D01*
X32056Y409418D01*
X32155Y409119D01*
X32377Y408670D01*
X32640Y408320D01*
X32943Y408069D01*
X33286Y407920D01*
X33670Y407869D01*
X31696D01*
X31650Y407000D01*
X31070Y407869D01*
X24630D01*
X25014Y407920D01*
X25357Y408069D01*
X25661Y408320D01*
X25923Y408670D01*
X26145Y409119D01*
X26327Y409669D01*
X26468Y410320D01*
X26569Y411069D01*
X26630Y411920D01*
X26650Y412869D01*
X27737D01*
X26650Y414500D01*
X31650Y422000D01*
X31700Y421050D01*
D02*
G37*
G36*
X104484Y404900D02*
X104900Y404543D01*
X105317Y404227D01*
X105737Y403954D01*
X106159Y403723D01*
X106583Y403534D01*
X107009Y403386D01*
X107438Y403281D01*
X107868Y403218D01*
X108301Y403197D01*
Y400403D01*
X107868Y400382D01*
X107438Y400319D01*
X107009Y400214D01*
X106583Y400066D01*
X106159Y399877D01*
X105737Y399646D01*
X105317Y399372D01*
X104900Y399057D01*
X104484Y398700D01*
X104071Y398300D01*
Y400395D01*
X101913Y400385D01*
Y403215D01*
X101957Y403212D01*
X102080Y403209D01*
X104071Y403203D01*
Y405300D01*
X104484Y404900D01*
D02*
G37*
G36*
X147697Y405173D02*
X147717Y404622D01*
X147776Y404088D01*
X147875Y403570D01*
X148013Y403068D01*
X148191Y402583D01*
X148408Y402114D01*
X148665Y401662D01*
X148961Y401226D01*
X149297Y400806D01*
X149673Y400403D01*
X147697Y398427D01*
X147294Y398803D01*
X146874Y399139D01*
X146438Y399435D01*
X145986Y399692D01*
X145517Y399909D01*
X145032Y400087D01*
X144530Y400225D01*
X144012Y400324D01*
X143478Y400383D01*
X142927Y400403D01*
X142109Y403197D01*
X142640Y403225D01*
X143115Y403309D01*
X143534Y403448D01*
X143897Y403644D01*
X144205Y403895D01*
X144456Y404203D01*
X144652Y404566D01*
X144791Y404985D01*
X144875Y405460D01*
X144903Y405991D01*
X147697Y405173D01*
D02*
G37*
G36*
X96929Y398300D02*
X96624Y398585D01*
X96298Y398840D01*
X95951Y399065D01*
X95582Y399260D01*
X95191Y399425D01*
X94779Y399560D01*
X94346Y399665D01*
X93891Y399740D01*
X93415Y399785D01*
X92917Y399800D01*
Y403800D01*
X93415Y403815D01*
X93891Y403860D01*
X94346Y403935D01*
X94779Y404040D01*
X95191Y404175D01*
X95582Y404340D01*
X95951Y404535D01*
X96298Y404760D01*
X96624Y405015D01*
X96929Y405300D01*
Y398300D01*
D02*
G37*
G36*
X66385Y405420D02*
X66510Y405080D01*
X66715Y404780D01*
X66999Y404520D01*
X67362Y404300D01*
X67805Y404120D01*
X68327Y403980D01*
X68928Y403880D01*
X69609Y403820D01*
X70370Y403800D01*
Y399800D01*
X69609Y399780D01*
X68928Y399720D01*
X68327Y399620D01*
X67805Y399480D01*
X67362Y399300D01*
X66999Y399080D01*
X66715Y398820D01*
X66510Y398520D01*
X66385Y398180D01*
X66339Y397800D01*
Y405800D01*
X66385Y405420D01*
D02*
G37*
G36*
X31650Y390731D02*
X26650D01*
X24630Y395731D01*
X33670D01*
X31650Y390731D01*
D02*
G37*
G36*
X55520Y409680D02*
X55520Y408358D01*
Y393920D01*
X68180D01*
Y397673D01*
X68383Y397756D01*
X68712Y397844D01*
X69157Y397918D01*
X69471Y397946D01*
X93586D01*
X93658Y397939D01*
X93984Y397885D01*
X94282Y397813D01*
X94554Y397724D01*
X94803Y397619D01*
X95032Y397498D01*
X95244Y397360D01*
X95443Y397205D01*
X95690Y396974D01*
X95815Y396897D01*
X96337Y396375D01*
X97883Y395482D01*
X99607Y395020D01*
X101393D01*
X103117Y395482D01*
X104663Y396375D01*
X105196Y396907D01*
X105332Y396995D01*
X105708Y397358D01*
X106039Y397644D01*
X106361Y397886D01*
X106670Y398088D01*
X106966Y398250D01*
X107250Y398377D01*
X107523Y398471D01*
X107786Y398536D01*
X107957Y398561D01*
X143446D01*
X143742Y398528D01*
X144118Y398456D01*
X144477Y398357D01*
X144822Y398231D01*
X145155Y398077D01*
X145478Y397893D01*
X145795Y397677D01*
X146027Y397492D01*
X167195Y376324D01*
Y372282D01*
X165417Y372048D01*
X165318Y372417D01*
X164425Y373963D01*
X163163Y375225D01*
X161617Y376118D01*
X159893Y376580D01*
X158107D01*
X156383Y376118D01*
X154837Y375225D01*
X153575Y373963D01*
X152682Y372417D01*
X152220Y370693D01*
Y368907D01*
X152682Y367183D01*
X153575Y365637D01*
X154837Y364375D01*
X156383Y363482D01*
X158107Y363020D01*
X159893D01*
X161617Y363482D01*
X163163Y364375D01*
X164425Y365637D01*
X165318Y367183D01*
X165417Y367552D01*
X167195Y367318D01*
Y288036D01*
X167195Y288036D01*
X167278Y287615D01*
X165640Y286739D01*
X149539Y302840D01*
Y349643D01*
X149564Y349814D01*
X149629Y350077D01*
X149723Y350350D01*
X149850Y350634D01*
X150012Y350930D01*
X150214Y351239D01*
X150456Y351561D01*
X150742Y351892D01*
X151105Y352268D01*
X151193Y352405D01*
X151725Y352937D01*
X152618Y354483D01*
X153080Y356207D01*
Y357993D01*
X152618Y359717D01*
X151725Y361263D01*
X150463Y362525D01*
X148917Y363418D01*
X147193Y363880D01*
X145407D01*
X143683Y363418D01*
X142137Y362525D01*
X141615Y362003D01*
X141490Y361926D01*
X141243Y361695D01*
X141044Y361540D01*
X140832Y361402D01*
X140603Y361281D01*
X140354Y361176D01*
X140082Y361087D01*
X139784Y361015D01*
X139458Y360961D01*
X139385Y360954D01*
X115645D01*
X113980Y362129D01*
X113980Y364980D01*
X115569Y365436D01*
X127296D01*
X127533Y365411D01*
X127857Y365358D01*
X128130Y365296D01*
X128350Y365228D01*
X128516Y365161D01*
X128631Y365101D01*
X128698Y365055D01*
X128825Y364943D01*
X128932Y364880D01*
X129437Y364375D01*
X130983Y363482D01*
X132707Y363020D01*
X134493D01*
X136217Y363482D01*
X137763Y364375D01*
X139025Y365637D01*
X139918Y367183D01*
X140380Y368907D01*
Y370693D01*
X139918Y372417D01*
X139025Y373963D01*
X137763Y375225D01*
X136217Y376118D01*
X134493Y376580D01*
X132707D01*
X130983Y376118D01*
X129437Y375225D01*
X128932Y374720D01*
X128825Y374657D01*
X128698Y374545D01*
X128631Y374499D01*
X128516Y374439D01*
X128350Y374372D01*
X128130Y374305D01*
X127857Y374242D01*
X127555Y374193D01*
X127204Y374164D01*
X77879D01*
X76209Y373832D01*
X74793Y372886D01*
X71864Y369957D01*
X70918Y368541D01*
X70586Y366871D01*
Y365626D01*
X70544Y365234D01*
X70500Y364980D01*
X68620D01*
Y362906D01*
X65100Y361146D01*
X35865D01*
X35297Y361246D01*
X34822Y361404D01*
X34464Y361597D01*
X34190Y361822D01*
X33965Y362096D01*
X33772Y362455D01*
X33614Y362929D01*
X33514Y363497D01*
Y390499D01*
X34896Y393920D01*
X35480D01*
Y395708D01*
X35484Y395731D01*
X35483Y395738D01*
X35484Y395746D01*
X35480Y395767D01*
Y407847D01*
X35484Y407869D01*
X35480Y407892D01*
Y409680D01*
X37069Y410136D01*
X53931D01*
X55520Y409680D01*
D02*
G37*
G36*
X232059Y375568D02*
X231352Y375532D01*
X230645Y375426D01*
X229938Y375250D01*
X229231Y375002D01*
X228524Y374684D01*
X227817Y374295D01*
X227110Y373835D01*
X226403Y373305D01*
X225695Y372704D01*
X224988Y372032D01*
X221453Y375568D01*
X222125Y376275D01*
X222726Y376982D01*
X223256Y377689D01*
X223716Y378396D01*
X224105Y379103D01*
X224423Y379810D01*
X224670Y380518D01*
X224847Y381225D01*
X224953Y381932D01*
X224988Y382639D01*
X232059Y375568D01*
D02*
G37*
G36*
X264813Y375038D02*
X264963Y374789D01*
X265214Y374568D01*
X265564Y374377D01*
X266014Y374215D01*
X266563Y374083D01*
X267213Y373980D01*
X267964Y373907D01*
X269764Y373848D01*
Y368848D01*
X268813Y368833D01*
X267213Y368716D01*
X266563Y368613D01*
X266014Y368481D01*
X265564Y368319D01*
X265214Y368128D01*
X264963Y367907D01*
X264813Y367658D01*
X264764Y367379D01*
Y375317D01*
X264813Y375038D01*
D02*
G37*
G36*
X130029Y366300D02*
X129815Y366490D01*
X129565Y366660D01*
X129279Y366810D01*
X128957Y366940D01*
X128599Y367050D01*
X128205Y367140D01*
X127775Y367210D01*
X127310Y367260D01*
X126270Y367300D01*
Y372300D01*
X126808Y372310D01*
X127775Y372390D01*
X128205Y372460D01*
X128599Y372550D01*
X128957Y372660D01*
X129279Y372790D01*
X129565Y372940D01*
X129815Y373110D01*
X130029Y373300D01*
Y366300D01*
D02*
G37*
G36*
X77462Y366167D02*
X77558Y364981D01*
X77642Y364497D01*
X77750Y364087D01*
X77882Y363751D01*
X78039Y363488D01*
X78219Y363298D01*
X78423Y363182D01*
X78651Y363139D01*
X71248D01*
X71477Y363182D01*
X71681Y363298D01*
X71861Y363488D01*
X72017Y363751D01*
X72150Y364087D01*
X72258Y364497D01*
X72342Y364981D01*
X72402Y365537D01*
X72450Y366871D01*
X77450D01*
X77462Y366167D01*
D02*
G37*
G36*
X224486Y368371D02*
X225193Y367770D01*
X225900Y367239D01*
X226607Y366780D01*
X227314Y366391D01*
X228022Y366072D01*
X228729Y365825D01*
X229436Y365648D01*
X230143Y365542D01*
X230850Y365507D01*
X224988Y357226D01*
X224935Y357951D01*
X224776Y358711D01*
X224511Y359507D01*
X224140Y360337D01*
X223663Y361204D01*
X223079Y362105D01*
X222390Y363042D01*
X220693Y365022D01*
X219685Y366065D01*
X223779Y369042D01*
X224486Y368371D01*
D02*
G37*
G36*
X234453Y364230D02*
X234608Y363805D01*
X234862Y363430D01*
X235217Y363105D01*
X235670Y362830D01*
X236223Y362605D01*
X236875Y362430D01*
X237626Y362305D01*
X238477Y362230D01*
X239428Y362205D01*
Y357205D01*
X238477Y357198D01*
X235228Y356975D01*
X234877Y356893D01*
X234627Y356797D01*
X234478Y356689D01*
X234428Y356568D01*
X234397Y364705D01*
X234453Y364230D01*
D02*
G37*
G36*
X248825Y354879D02*
X243825Y357205D01*
Y362205D01*
X248825Y362817D01*
Y354879D01*
D02*
G37*
G36*
X142729Y353600D02*
X142424Y353885D01*
X142098Y354140D01*
X141751Y354365D01*
X141382Y354560D01*
X140991Y354725D01*
X140579Y354860D01*
X140146Y354965D01*
X139691Y355040D01*
X139215Y355085D01*
X138717Y355100D01*
Y359100D01*
X139215Y359115D01*
X139691Y359160D01*
X140146Y359235D01*
X140579Y359340D01*
X140991Y359475D01*
X141382Y359640D01*
X141751Y359835D01*
X142098Y360060D01*
X142424Y360315D01*
X142729Y360600D01*
Y353600D01*
D02*
G37*
G36*
X112185Y360720D02*
X112310Y360380D01*
X112515Y360080D01*
X112799Y359820D01*
X113162Y359600D01*
X113605Y359420D01*
X114127Y359280D01*
X114728Y359180D01*
X115409Y359120D01*
X116170Y359100D01*
Y355100D01*
X115409Y355080D01*
X114728Y355020D01*
X114127Y354920D01*
X113605Y354780D01*
X113162Y354600D01*
X112799Y354380D01*
X112515Y354120D01*
X112310Y353820D01*
X112185Y353480D01*
X112139Y353100D01*
Y361100D01*
X112185Y360720D01*
D02*
G37*
G36*
X70430Y351782D02*
X65430Y354282D01*
Y359282D01*
X70430Y361782D01*
Y351782D01*
D02*
G37*
G36*
X147712Y355643D02*
X147709Y355520D01*
X147703Y353529D01*
X149800D01*
X149400Y353116D01*
X149043Y352700D01*
X148728Y352283D01*
X148454Y351863D01*
X148223Y351441D01*
X148034Y351017D01*
X147886Y350591D01*
X147781Y350162D01*
X147718Y349732D01*
X147697Y349299D01*
X144903D01*
X144882Y349732D01*
X144819Y350162D01*
X144714Y350591D01*
X144566Y351017D01*
X144377Y351441D01*
X144146Y351863D01*
X143872Y352283D01*
X143557Y352700D01*
X143200Y353116D01*
X142800Y353529D01*
X144895D01*
X144885Y355687D01*
X147715D01*
X147712Y355643D01*
D02*
G37*
G36*
X31700Y363332D02*
X31850Y362482D01*
X32100Y361732D01*
X32450Y361082D01*
X32900Y360532D01*
X33450Y360082D01*
X34100Y359732D01*
X34850Y359482D01*
X35700Y359332D01*
X36650Y359282D01*
Y354282D01*
X35700Y354232D01*
X34850Y354082D01*
X34100Y353832D01*
X33450Y353482D01*
X32900Y353032D01*
X32450Y352482D01*
X32100Y351832D01*
X31850Y351082D01*
X31700Y350232D01*
X31650Y349282D01*
X26650Y356782D01*
X31650Y364282D01*
X31700Y363332D01*
D02*
G37*
G36*
X101320Y364980D02*
X101320Y363658D01*
Y349220D01*
X113980D01*
Y352974D01*
X114184Y353056D01*
X114511Y353144D01*
X114957Y353218D01*
X115271Y353246D01*
X139385D01*
X139458Y353239D01*
X139784Y353185D01*
X140082Y353113D01*
X140354Y353024D01*
X140603Y352919D01*
X140832Y352798D01*
X141044Y352660D01*
X141243Y352505D01*
X141490Y352274D01*
X141492Y352273D01*
X141495Y352268D01*
X141858Y351892D01*
X142144Y351561D01*
X142386Y351239D01*
X142588Y350930D01*
X142750Y350634D01*
X142877Y350350D01*
X142971Y350077D01*
X143036Y349814D01*
X143061Y349643D01*
Y301498D01*
X143061Y301498D01*
X143307Y300258D01*
X144010Y299207D01*
X146291Y296926D01*
X146233Y296565D01*
X144826Y295039D01*
X144826Y295039D01*
X107957D01*
X107786Y295064D01*
X107523Y295129D01*
X107250Y295223D01*
X106966Y295350D01*
X106670Y295512D01*
X106361Y295714D01*
X106039Y295956D01*
X105708Y296242D01*
X105332Y296605D01*
X105196Y296693D01*
X104663Y297225D01*
X103117Y298118D01*
X101393Y298580D01*
X99607D01*
X97883Y298118D01*
X96337Y297225D01*
X95815Y296703D01*
X95690Y296626D01*
X95443Y296395D01*
X95244Y296240D01*
X95032Y296102D01*
X94803Y295981D01*
X94554Y295876D01*
X94282Y295787D01*
X93984Y295715D01*
X93658Y295661D01*
X93586Y295654D01*
X69845D01*
X68180Y296829D01*
X68180Y299680D01*
X69769Y300136D01*
X81496D01*
X81733Y300111D01*
X82057Y300058D01*
X82330Y299996D01*
X82550Y299928D01*
X82716Y299861D01*
X82830Y299801D01*
X82898Y299755D01*
X83025Y299643D01*
X83132Y299580D01*
X83637Y299075D01*
X85183Y298182D01*
X86907Y297720D01*
X88693D01*
X90417Y298182D01*
X91963Y299075D01*
X93225Y300337D01*
X94118Y301883D01*
X94580Y303607D01*
Y305393D01*
X94118Y307117D01*
X93225Y308663D01*
X91963Y309925D01*
X90417Y310818D01*
X88693Y311280D01*
X86907D01*
X85183Y310818D01*
X83637Y309925D01*
X83132Y309420D01*
X83025Y309357D01*
X82898Y309245D01*
X82830Y309199D01*
X82716Y309139D01*
X82550Y309072D01*
X82330Y309004D01*
X82057Y308942D01*
X81755Y308893D01*
X81404Y308864D01*
X35865D01*
X35297Y308964D01*
X34822Y309122D01*
X34464Y309315D01*
X34190Y309540D01*
X33965Y309814D01*
X33772Y310173D01*
X33614Y310647D01*
X33514Y311215D01*
Y350067D01*
X33614Y350635D01*
X33772Y351110D01*
X33965Y351468D01*
X34190Y351743D01*
X34464Y351967D01*
X34822Y352160D01*
X35297Y352318D01*
X35865Y352418D01*
X65100D01*
X68620Y350658D01*
Y349220D01*
X81280D01*
Y364980D01*
X82869Y365436D01*
X99731D01*
X101320Y364980D01*
D02*
G37*
G36*
X248825Y342538D02*
X245014Y344443D01*
Y348253D01*
X248825Y350158D01*
Y342538D01*
D02*
G37*
G36*
X234466Y348526D02*
X234580Y348469D01*
X234770Y348418D01*
X235037Y348374D01*
X235380Y348337D01*
X236866Y348266D01*
X238237Y348253D01*
Y344443D01*
X237513Y344424D01*
X236865Y344367D01*
X236292Y344272D01*
X235794Y344138D01*
X235372Y343967D01*
X235026Y343757D01*
X234755Y343509D01*
X234560Y343224D01*
X234441Y342900D01*
X234397Y342538D01*
X234428Y348590D01*
X234466Y348526D01*
D02*
G37*
G36*
X224988Y340311D02*
X221178Y342216D01*
Y346026D01*
X224988Y347931D01*
Y340311D01*
D02*
G37*
G36*
X245995Y341924D02*
X247014Y340568D01*
Y339628D01*
X246402Y338103D01*
X244755Y337350D01*
X243873Y337174D01*
X242654Y336360D01*
X237922Y331628D01*
X236238Y331401D01*
Y331401D01*
X234457D01*
X234436Y331405D01*
X234413Y331401D01*
X223178D01*
Y330055D01*
X220825Y328878D01*
X211998D01*
Y333351D01*
X204708D01*
X197418D01*
Y327581D01*
X200056D01*
X200737Y325938D01*
X191145Y316347D01*
X190331Y315128D01*
X190193Y314436D01*
X188415Y314611D01*
Y331438D01*
X195640Y338662D01*
X197418Y337926D01*
Y335891D01*
X204708D01*
X211998D01*
Y340363D01*
X220825D01*
X223178Y339187D01*
Y337841D01*
X236238D01*
Y342360D01*
X236373Y342414D01*
X236676Y342496D01*
X237094Y342565D01*
X237386Y342591D01*
X244661D01*
X245995Y341924D01*
D02*
G37*
G36*
X248825Y330189D02*
X245311Y331798D01*
Y335608D01*
X248825Y337216D01*
Y330189D01*
D02*
G37*
G36*
X234463Y329333D02*
X234568Y329103D01*
X234744Y328901D01*
X234990Y328725D01*
X235306Y328576D01*
X235692Y328454D01*
X236149Y328360D01*
X236676Y328292D01*
X237274Y328252D01*
X237941Y328238D01*
Y324428D01*
X237273Y324412D01*
X236675Y324364D01*
X236146Y324283D01*
X235688Y324171D01*
X235298Y324026D01*
X234979Y323849D01*
X234729Y323640D01*
X234548Y323399D01*
X234438Y323125D01*
X234397Y322820D01*
X234428Y329590D01*
X234463Y329333D01*
D02*
G37*
G36*
X224988Y321311D02*
X221178Y323216D01*
Y327026D01*
X224988Y328931D01*
Y321311D01*
D02*
G37*
G36*
X247014Y328068D02*
X247014Y326290D01*
Y323807D01*
X245566Y323339D01*
X244572Y323141D01*
X243353Y322327D01*
X235511Y314484D01*
X234461D01*
X234440Y314488D01*
X234417Y314484D01*
X234392D01*
X234371Y314487D01*
X234356Y314484D01*
X223178D01*
Y313138D01*
X220825Y311961D01*
X220529D01*
X220234Y312256D01*
X218477Y312984D01*
X216575D01*
X214818Y312256D01*
X213474Y310912D01*
X212746Y309155D01*
Y307253D01*
X212766Y307204D01*
X211447Y305744D01*
X205978D01*
Y299974D01*
X211998D01*
Y304649D01*
X212350Y304851D01*
X213776Y305194D01*
X214818Y304152D01*
X216575Y303424D01*
X218477D01*
X220234Y304152D01*
X220506Y304424D01*
X220827Y304446D01*
X223178Y303270D01*
Y301924D01*
X236238D01*
Y304814D01*
X236273Y304824D01*
X238051Y303510D01*
Y295786D01*
X237926Y295702D01*
X236238Y295484D01*
Y295484D01*
X223178D01*
Y282924D01*
X225720D01*
X225774Y282789D01*
X225856Y282486D01*
X225925Y282068D01*
X225951Y281776D01*
Y275291D01*
X225656Y274996D01*
X224928Y273239D01*
Y271337D01*
X225656Y269580D01*
X226303Y268933D01*
X225566Y267155D01*
X222282D01*
X199416Y290021D01*
X200097Y291664D01*
X203438D01*
Y298704D01*
Y305744D01*
X197559D01*
Y312134D01*
X206789Y321363D01*
X220825D01*
X223178Y320187D01*
Y318841D01*
X236238D01*
Y322437D01*
X236500Y322501D01*
X236885Y322560D01*
X237083Y322576D01*
X237941D01*
X239379Y322862D01*
X240598Y323676D01*
X245236Y328315D01*
X247014Y328068D01*
D02*
G37*
G36*
X248825Y317379D02*
X246010Y317765D01*
Y321575D01*
X248825Y322485D01*
Y317379D01*
D02*
G37*
G36*
X224988Y304394D02*
X221197Y306290D01*
X219926Y306203D01*
X219809Y306174D01*
X219723Y306141D01*
X219668Y306104D01*
Y310304D01*
X219723Y310267D01*
X219809Y310234D01*
X219926Y310205D01*
X220076Y310179D01*
X220471Y310140D01*
X220994Y310117D01*
X221189Y310114D01*
X224988Y312014D01*
Y304394D01*
D02*
G37*
G36*
X234453Y312649D02*
X234530Y312628D01*
X234657Y312609D01*
X234836Y312593D01*
X236062Y312552D01*
X236982Y312547D01*
Y308737D01*
X236496Y308731D01*
X235342Y308633D01*
X235058Y308575D01*
X234825Y308503D01*
X234643Y308419D01*
X234510Y308321D01*
X234428Y308211D01*
X234397Y308088D01*
X234428Y312673D01*
X234453Y312649D01*
D02*
G37*
G36*
X248825Y305297D02*
X245311Y306906D01*
Y310716D01*
X248825Y312325D01*
Y305297D01*
D02*
G37*
G36*
X84229Y301000D02*
X84015Y301190D01*
X83765Y301360D01*
X83479Y301510D01*
X83157Y301640D01*
X82799Y301750D01*
X82405Y301840D01*
X81975Y301910D01*
X81510Y301960D01*
X80470Y302000D01*
Y307000D01*
X81008Y307010D01*
X81975Y307090D01*
X82405Y307160D01*
X82799Y307250D01*
X83157Y307360D01*
X83479Y307490D01*
X83765Y307640D01*
X84015Y307810D01*
X84229Y308000D01*
Y301000D01*
D02*
G37*
G36*
X31700Y311050D02*
X31850Y310200D01*
X32100Y309450D01*
X32450Y308800D01*
X32900Y308250D01*
X33450Y307800D01*
X34100Y307450D01*
X34850Y307200D01*
X35700Y307050D01*
X36650Y307000D01*
Y302000D01*
X35700Y301950D01*
X34850Y301800D01*
X34100Y301550D01*
X33450Y301200D01*
X32900Y300750D01*
X32450Y300200D01*
X32100Y299550D01*
X32056Y299418D01*
X32155Y299119D01*
X32377Y298669D01*
X32640Y298319D01*
X32943Y298069D01*
X33286Y297920D01*
X33670Y297869D01*
X31696D01*
X31650Y297000D01*
X31070Y297869D01*
X24630D01*
X25014Y297920D01*
X25357Y298069D01*
X25661Y298319D01*
X25923Y298669D01*
X26145Y299119D01*
X26327Y299669D01*
X26468Y300319D01*
X26569Y301070D01*
X26630Y301919D01*
X26650Y302869D01*
X27737D01*
X26650Y304500D01*
X31650Y312000D01*
X31700Y311050D01*
D02*
G37*
G36*
X104484Y294900D02*
X104900Y294543D01*
X105317Y294228D01*
X105737Y293954D01*
X106159Y293723D01*
X106583Y293533D01*
X107009Y293386D01*
X107438Y293281D01*
X107868Y293218D01*
X108301Y293197D01*
Y290403D01*
X107868Y290382D01*
X107438Y290319D01*
X107009Y290214D01*
X106583Y290067D01*
X106159Y289877D01*
X105737Y289646D01*
X105317Y289373D01*
X104900Y289057D01*
X104484Y288700D01*
X104071Y288300D01*
Y290395D01*
X101913Y290385D01*
Y293215D01*
X101957Y293212D01*
X102080Y293209D01*
X104071Y293203D01*
Y295300D01*
X104484Y294900D01*
D02*
G37*
G36*
X96929Y288300D02*
X96624Y288585D01*
X96298Y288840D01*
X95951Y289065D01*
X95582Y289260D01*
X95191Y289425D01*
X94779Y289560D01*
X94346Y289665D01*
X93891Y289740D01*
X93415Y289785D01*
X92917Y289800D01*
Y293800D01*
X93415Y293815D01*
X93891Y293860D01*
X94346Y293935D01*
X94779Y294040D01*
X95191Y294175D01*
X95582Y294340D01*
X95951Y294535D01*
X96298Y294760D01*
X96624Y295015D01*
X96929Y295300D01*
Y288300D01*
D02*
G37*
G36*
X66385Y295420D02*
X66510Y295080D01*
X66715Y294780D01*
X66999Y294520D01*
X67362Y294300D01*
X67805Y294120D01*
X68327Y293980D01*
X68928Y293880D01*
X69609Y293820D01*
X70370Y293800D01*
Y289800D01*
X69609Y289780D01*
X68928Y289720D01*
X68327Y289620D01*
X67805Y289480D01*
X67362Y289300D01*
X66999Y289080D01*
X66715Y288820D01*
X66510Y288520D01*
X66385Y288180D01*
X66339Y287800D01*
Y295800D01*
X66385Y295420D01*
D02*
G37*
G36*
X234441Y292652D02*
X234560Y292328D01*
X234755Y292042D01*
X235026Y291795D01*
X235372Y291585D01*
X235794Y291414D01*
X236292Y291280D01*
X236865Y291185D01*
X237513Y291128D01*
X238237Y291109D01*
Y287299D01*
X237513Y287280D01*
X236865Y287223D01*
X236292Y287127D01*
X235794Y286994D01*
X235372Y286823D01*
X235026Y286613D01*
X234755Y286366D01*
X234560Y286080D01*
X234441Y285756D01*
X234397Y285394D01*
Y293014D01*
X234441Y292652D01*
D02*
G37*
G36*
X233156Y284721D02*
X232832Y284602D01*
X232546Y284407D01*
X232299Y284136D01*
X232089Y283790D01*
X231918Y283368D01*
X231784Y282870D01*
X231689Y282297D01*
X231632Y281649D01*
X231613Y280924D01*
X227803D01*
X227784Y281649D01*
X227727Y282297D01*
X227631Y282870D01*
X227498Y283368D01*
X227327Y283790D01*
X227117Y284136D01*
X226870Y284407D01*
X226584Y284602D01*
X226260Y284721D01*
X225898Y284765D01*
X233518D01*
X233156Y284721D01*
D02*
G37*
G36*
X31650Y280730D02*
X26650D01*
X24630Y285730D01*
X33670D01*
X31650Y280730D01*
D02*
G37*
G36*
X231615Y276065D02*
X231709Y274688D01*
X231738Y274571D01*
X231771Y274485D01*
X231808Y274430D01*
X227608D01*
X227645Y274485D01*
X227678Y274571D01*
X227707Y274688D01*
X227733Y274838D01*
X227772Y275233D01*
X227795Y275756D01*
X227803Y276406D01*
X231613D01*
X231615Y276065D01*
D02*
G37*
G36*
X130029Y256300D02*
X129815Y256490D01*
X129565Y256660D01*
X129279Y256810D01*
X128957Y256940D01*
X128599Y257050D01*
X128205Y257140D01*
X127775Y257210D01*
X127310Y257260D01*
X126270Y257300D01*
Y262300D01*
X126808Y262310D01*
X127775Y262390D01*
X128205Y262460D01*
X128599Y262550D01*
X128957Y262660D01*
X129279Y262790D01*
X129565Y262940D01*
X129815Y263110D01*
X130029Y263300D01*
Y256300D01*
D02*
G37*
G36*
X77462Y256167D02*
X77558Y254981D01*
X77642Y254497D01*
X77750Y254087D01*
X77882Y253751D01*
X78039Y253488D01*
X78219Y253298D01*
X78423Y253182D01*
X78651Y253139D01*
X71248D01*
X71477Y253182D01*
X71681Y253298D01*
X71861Y253488D01*
X72017Y253751D01*
X72150Y254087D01*
X72258Y254497D01*
X72342Y254981D01*
X72402Y255537D01*
X72450Y256871D01*
X77450D01*
X77462Y256167D01*
D02*
G37*
G36*
X55520Y299680D02*
X55520Y298358D01*
Y283920D01*
X68180D01*
Y287673D01*
X68383Y287756D01*
X68712Y287844D01*
X69157Y287918D01*
X69471Y287946D01*
X93586D01*
X93658Y287939D01*
X93984Y287885D01*
X94282Y287813D01*
X94554Y287724D01*
X94803Y287619D01*
X95032Y287498D01*
X95244Y287360D01*
X95443Y287205D01*
X95690Y286974D01*
X95815Y286897D01*
X96337Y286375D01*
X97883Y285482D01*
X99607Y285020D01*
X101393D01*
X103117Y285482D01*
X104663Y286375D01*
X105196Y286907D01*
X105332Y286995D01*
X105708Y287358D01*
X106039Y287644D01*
X106361Y287886D01*
X106670Y288088D01*
X106966Y288250D01*
X107250Y288377D01*
X107523Y288471D01*
X107786Y288536D01*
X107957Y288561D01*
X143484D01*
X177103Y254942D01*
Y179749D01*
X175460Y179069D01*
X149539Y204990D01*
Y239643D01*
X149564Y239814D01*
X149629Y240077D01*
X149723Y240350D01*
X149850Y240634D01*
X150012Y240930D01*
X150214Y241239D01*
X150456Y241560D01*
X150742Y241892D01*
X151105Y242268D01*
X151193Y242404D01*
X151725Y242937D01*
X152618Y244483D01*
X153080Y246207D01*
Y247993D01*
X152618Y249717D01*
X151725Y251263D01*
X150463Y252525D01*
X148917Y253418D01*
X147193Y253880D01*
X145407D01*
X143683Y253418D01*
X142137Y252525D01*
X141615Y252003D01*
X141490Y251926D01*
X141243Y251695D01*
X141044Y251540D01*
X140832Y251402D01*
X140603Y251281D01*
X140354Y251176D01*
X140082Y251087D01*
X139784Y251015D01*
X139458Y250961D01*
X139385Y250954D01*
X115645D01*
X113980Y252129D01*
X113980Y254980D01*
X115569Y255436D01*
X127296D01*
X127533Y255411D01*
X127857Y255358D01*
X128130Y255296D01*
X128350Y255228D01*
X128516Y255161D01*
X128631Y255101D01*
X128698Y255055D01*
X128825Y254943D01*
X128932Y254880D01*
X129437Y254375D01*
X130983Y253482D01*
X132707Y253020D01*
X134493D01*
X136217Y253482D01*
X137763Y254375D01*
X139025Y255637D01*
X139918Y257183D01*
X140380Y258907D01*
Y260693D01*
X139918Y262417D01*
X139025Y263963D01*
X137763Y265225D01*
X136217Y266118D01*
X134493Y266580D01*
X132707D01*
X130983Y266118D01*
X129437Y265225D01*
X128932Y264720D01*
X128825Y264657D01*
X128698Y264545D01*
X128631Y264499D01*
X128516Y264439D01*
X128350Y264372D01*
X128130Y264304D01*
X127857Y264242D01*
X127555Y264193D01*
X127204Y264164D01*
X77879D01*
X76209Y263832D01*
X74793Y262886D01*
X71864Y259957D01*
X70918Y258541D01*
X70586Y256871D01*
Y255627D01*
X70544Y255234D01*
X70500Y254980D01*
X68620D01*
Y253224D01*
X65100Y251464D01*
X35865D01*
X35297Y251564D01*
X34822Y251722D01*
X34464Y251915D01*
X34190Y252140D01*
X33965Y252414D01*
X33772Y252772D01*
X33614Y253247D01*
X33514Y253815D01*
Y280499D01*
X34896Y283920D01*
X35480D01*
Y285708D01*
X35484Y285730D01*
X35483Y285739D01*
X35484Y285746D01*
X35480Y285767D01*
Y297847D01*
X35484Y297869D01*
X35480Y297892D01*
Y299680D01*
X37069Y300136D01*
X53931D01*
X55520Y299680D01*
D02*
G37*
G36*
X298596Y254571D02*
X298653Y253945D01*
X298748Y253367D01*
X298882Y252836D01*
X299053Y252352D01*
X299263Y251915D01*
X299510Y251526D01*
X299796Y251183D01*
X300120Y250888D01*
X300482Y250639D01*
X292862D01*
X293224Y250888D01*
X293548Y251183D01*
X293833Y251526D01*
X294081Y251915D01*
X294291Y252352D01*
X294462Y252836D01*
X294595Y253367D01*
X294691Y253945D01*
X294748Y254571D01*
X294767Y255243D01*
X298577D01*
X298596Y254571D01*
D02*
G37*
G36*
X261390Y252888D02*
X261873Y252486D01*
X262349Y252144D01*
X262819Y251863D01*
X263282Y251642D01*
X263739Y251481D01*
X264190Y251381D01*
X264634Y251341D01*
X265072Y251361D01*
X265503Y251441D01*
X260115Y246053D01*
X260196Y246485D01*
X260216Y246922D01*
X260175Y247367D01*
X260075Y247817D01*
X259914Y248274D01*
X259693Y248738D01*
X259412Y249208D01*
X259071Y249684D01*
X258669Y250167D01*
X258207Y250656D01*
X260901Y253350D01*
X261390Y252888D01*
D02*
G37*
G36*
X142729Y243600D02*
X142424Y243885D01*
X142098Y244140D01*
X141751Y244365D01*
X141382Y244560D01*
X140991Y244725D01*
X140579Y244860D01*
X140146Y244965D01*
X139691Y245040D01*
X139215Y245085D01*
X138717Y245100D01*
Y249100D01*
X139215Y249115D01*
X139691Y249160D01*
X140146Y249235D01*
X140579Y249340D01*
X140991Y249475D01*
X141382Y249640D01*
X141751Y249835D01*
X142098Y250060D01*
X142424Y250315D01*
X142729Y250600D01*
Y243600D01*
D02*
G37*
G36*
X112185Y250720D02*
X112310Y250380D01*
X112515Y250080D01*
X112799Y249820D01*
X113162Y249600D01*
X113605Y249420D01*
X114127Y249280D01*
X114728Y249180D01*
X115409Y249120D01*
X116170Y249100D01*
Y245100D01*
X115409Y245080D01*
X114728Y245020D01*
X114127Y244920D01*
X113605Y244780D01*
X113162Y244600D01*
X112799Y244380D01*
X112515Y244120D01*
X112310Y243820D01*
X112185Y243480D01*
X112139Y243100D01*
Y251100D01*
X112185Y250720D01*
D02*
G37*
G36*
X70430Y242100D02*
X65430Y244600D01*
Y249600D01*
X70430Y252100D01*
Y242100D01*
D02*
G37*
G36*
X210851Y241983D02*
X210818Y241897D01*
X210789Y241779D01*
X210763Y241629D01*
X210724Y241234D01*
X210701Y240712D01*
X210693Y240062D01*
X206883D01*
X206881Y240403D01*
X206787Y241779D01*
X206758Y241897D01*
X206725Y241983D01*
X206688Y242037D01*
X210888D01*
X210851Y241983D01*
D02*
G37*
G36*
X31700Y253650D02*
X31850Y252800D01*
X32100Y252050D01*
X32450Y251400D01*
X32900Y250850D01*
X33450Y250400D01*
X34100Y250050D01*
X34850Y249800D01*
X35700Y249650D01*
X36650Y249600D01*
Y244600D01*
X35700Y244550D01*
X34850Y244400D01*
X34100Y244150D01*
X33450Y243800D01*
X32900Y243350D01*
X32450Y242800D01*
X32100Y242150D01*
X31850Y241400D01*
X31700Y240550D01*
X31650Y239600D01*
X26650Y247100D01*
X31650Y254600D01*
X31700Y253650D01*
D02*
G37*
G36*
X147712Y245643D02*
X147709Y245520D01*
X147703Y243529D01*
X149800D01*
X149400Y243116D01*
X149043Y242700D01*
X148728Y242283D01*
X148454Y241863D01*
X148223Y241441D01*
X148034Y241017D01*
X147886Y240591D01*
X147781Y240162D01*
X147718Y239732D01*
X147697Y239299D01*
X144903D01*
X144882Y239732D01*
X144819Y240162D01*
X144714Y240591D01*
X144566Y241017D01*
X144377Y241441D01*
X144146Y241863D01*
X143872Y242283D01*
X143557Y242700D01*
X143200Y243116D01*
X142800Y243529D01*
X144895D01*
X144885Y245687D01*
X147715D01*
X147712Y245643D01*
D02*
G37*
G36*
X101320Y254980D02*
X101320Y253658D01*
Y239220D01*
X113980D01*
Y242973D01*
X114184Y243056D01*
X114511Y243144D01*
X114957Y243218D01*
X115271Y243246D01*
X139385D01*
X139458Y243239D01*
X139784Y243185D01*
X140082Y243113D01*
X140354Y243024D01*
X140603Y242919D01*
X140832Y242798D01*
X141044Y242660D01*
X141243Y242505D01*
X141490Y242274D01*
X141492Y242273D01*
X141495Y242268D01*
X141858Y241892D01*
X142144Y241560D01*
X142386Y241239D01*
X142588Y240930D01*
X142750Y240634D01*
X142877Y240350D01*
X142971Y240077D01*
X143036Y239814D01*
X143061Y239643D01*
Y203648D01*
X143061Y203648D01*
X143307Y202408D01*
X144010Y201357D01*
X172529Y172838D01*
Y167053D01*
X170751Y166316D01*
X152977Y184090D01*
X151926Y184793D01*
X150686Y185039D01*
X150686Y185039D01*
X107957D01*
X107786Y185064D01*
X107523Y185129D01*
X107250Y185223D01*
X106966Y185350D01*
X106670Y185512D01*
X106361Y185714D01*
X106039Y185956D01*
X105708Y186242D01*
X105332Y186605D01*
X105196Y186693D01*
X104663Y187225D01*
X103117Y188118D01*
X101393Y188580D01*
X99607D01*
X97883Y188118D01*
X96337Y187225D01*
X95815Y186703D01*
X95690Y186626D01*
X95443Y186395D01*
X95244Y186240D01*
X95032Y186102D01*
X94803Y185981D01*
X94554Y185876D01*
X94282Y185787D01*
X93984Y185715D01*
X93658Y185661D01*
X93586Y185654D01*
X69845D01*
X68180Y186829D01*
X68180Y189680D01*
X69885Y189858D01*
X81642D01*
X81952Y189834D01*
X82268Y189788D01*
X82553Y189728D01*
X82786Y189663D01*
X82966Y189597D01*
X83092Y189537D01*
X83168Y189491D01*
X83300Y189387D01*
X83352Y189359D01*
X83637Y189075D01*
X85183Y188182D01*
X86907Y187720D01*
X88693D01*
X90417Y188182D01*
X91963Y189075D01*
X93225Y190337D01*
X94118Y191883D01*
X94580Y193607D01*
Y195393D01*
X94118Y197117D01*
X93225Y198663D01*
X91963Y199925D01*
X90417Y200818D01*
X88693Y201280D01*
X86907D01*
X85183Y200818D01*
X83637Y199925D01*
X82864Y199153D01*
X82765Y199087D01*
X82646Y198969D01*
X82589Y198927D01*
X82489Y198869D01*
X82338Y198803D01*
X82133Y198734D01*
X81873Y198670D01*
X81584Y198619D01*
X81206Y198585D01*
X35865D01*
X35297Y198685D01*
X34822Y198844D01*
X34464Y199037D01*
X34190Y199261D01*
X33965Y199536D01*
X33772Y199894D01*
X33614Y200368D01*
X33514Y200936D01*
Y240385D01*
X33614Y240953D01*
X33772Y241427D01*
X33965Y241786D01*
X34190Y242060D01*
X34464Y242285D01*
X34822Y242478D01*
X35297Y242636D01*
X35865Y242736D01*
X65100D01*
X68620Y240976D01*
Y239220D01*
X81280D01*
Y254980D01*
X82869Y255436D01*
X99731D01*
X101320Y254980D01*
D02*
G37*
G36*
X274235Y241056D02*
X274209Y240758D01*
X274240Y240441D01*
X274328Y240105D01*
X274473Y239751D01*
X274674Y239378D01*
X274933Y238986D01*
X275248Y238576D01*
X275619Y238147D01*
X276048Y237699D01*
X273354Y235005D01*
X272881Y235460D01*
X271997Y236200D01*
X271586Y236484D01*
X271195Y236712D01*
X270825Y236883D01*
X270476Y236998D01*
X270147Y237056D01*
X269838Y237057D01*
X269550Y237001D01*
X274317Y241336D01*
X274235Y241056D01*
D02*
G37*
G36*
X300120Y237471D02*
X299796Y237175D01*
X299510Y236833D01*
X299263Y236443D01*
X299053Y236006D01*
X298882Y235522D01*
X298748Y234991D01*
X298653Y234413D01*
X298596Y233788D01*
X298577Y233115D01*
X294767D01*
X294748Y233788D01*
X294691Y234413D01*
X294595Y234991D01*
X294462Y235522D01*
X294291Y236006D01*
X294081Y236443D01*
X293833Y236833D01*
X293548Y237175D01*
X293224Y237471D01*
X292862Y237719D01*
X300482D01*
X300120Y237471D01*
D02*
G37*
G36*
X212236D02*
X211912Y237175D01*
X211626Y236833D01*
X211379Y236443D01*
X211169Y236006D01*
X210998Y235522D01*
X210864Y234991D01*
X210769Y234413D01*
X210712Y233788D01*
X210693Y233115D01*
X206883D01*
X206864Y233788D01*
X206807Y234413D01*
X206712Y234991D01*
X206578Y235522D01*
X206407Y236006D01*
X206197Y236443D01*
X205949Y236833D01*
X205664Y237175D01*
X205340Y237471D01*
X204978Y237719D01*
X212598D01*
X212236Y237471D01*
D02*
G37*
G36*
X298596Y226946D02*
X298653Y226298D01*
X298748Y225726D01*
X298882Y225231D01*
X299053Y224812D01*
X299263Y224469D01*
X299510Y224202D01*
X299796Y224012D01*
X300120Y223898D01*
X300482Y223860D01*
X292862D01*
X293224Y223898D01*
X293548Y224012D01*
X293833Y224202D01*
X294081Y224469D01*
X294291Y224812D01*
X294462Y225231D01*
X294595Y225726D01*
X294691Y226298D01*
X294748Y226946D01*
X294767Y227670D01*
X298577D01*
X298596Y226946D01*
D02*
G37*
G36*
X276625D02*
X276682Y226298D01*
X276777Y225726D01*
X276911Y225231D01*
X277082Y224812D01*
X277292Y224469D01*
X277539Y224202D01*
X277825Y224012D01*
X278149Y223898D01*
X278511Y223860D01*
X270891D01*
X271253Y223898D01*
X271577Y224012D01*
X271863Y224202D01*
X272110Y224469D01*
X272320Y224812D01*
X272491Y225231D01*
X272624Y225726D01*
X272720Y226298D01*
X272777Y226946D01*
X272796Y227670D01*
X276606D01*
X276625Y226946D01*
D02*
G37*
G36*
X210712D02*
X210769Y226298D01*
X210864Y225726D01*
X210998Y225231D01*
X211169Y224812D01*
X211379Y224469D01*
X211626Y224202D01*
X211912Y224012D01*
X212236Y223898D01*
X212598Y223860D01*
X204978D01*
X205340Y223898D01*
X205664Y224012D01*
X205949Y224202D01*
X206197Y224469D01*
X206407Y224812D01*
X206578Y225231D01*
X206712Y225726D01*
X206807Y226298D01*
X206864Y226946D01*
X206883Y227670D01*
X210693D01*
X210712Y226946D01*
D02*
G37*
G36*
X212796Y223561D02*
X212910Y223295D01*
X213100Y223059D01*
X213367Y222855D01*
X213710Y222682D01*
X214129Y222541D01*
X214624Y222431D01*
X215196Y222353D01*
X215844Y222306D01*
X216567Y222290D01*
Y218480D01*
X215844Y218464D01*
X214624Y218340D01*
X214129Y218230D01*
X213710Y218090D01*
X213367Y217918D01*
X213100Y217716D01*
X212910Y217482D01*
X212796Y217217D01*
X212757Y216921D01*
Y223860D01*
X212796Y223561D01*
D02*
G37*
G36*
X226779Y216910D02*
X222969Y218480D01*
Y222290D01*
X226779Y223849D01*
Y216910D01*
D02*
G37*
G36*
X248791Y201596D02*
X248757Y201861D01*
X248668Y202099D01*
X248524Y202309D01*
X248324Y202490D01*
X248070Y202644D01*
X247759Y202770D01*
X247394Y202867D01*
X246973Y202937D01*
X246498Y202979D01*
X245966Y202993D01*
Y205787D01*
X246498Y205801D01*
X246973Y205843D01*
X247394Y205913D01*
X247759Y206010D01*
X248070Y206136D01*
X248324Y206290D01*
X248524Y206472D01*
X248668Y206681D01*
X248757Y206919D01*
X248791Y207184D01*
Y201596D01*
D02*
G37*
G36*
X299200Y200917D02*
X298963Y200828D01*
X298753Y200684D01*
X298572Y200484D01*
X298418Y200230D01*
X298292Y199919D01*
X298195Y199554D01*
X298125Y199133D01*
X298083Y198658D01*
X298069Y198127D01*
X295275D01*
X295261Y198658D01*
X295219Y199133D01*
X295149Y199554D01*
X295051Y199919D01*
X294926Y200230D01*
X294772Y200484D01*
X294590Y200684D01*
X294381Y200828D01*
X294143Y200917D01*
X293878Y200951D01*
X299466D01*
X299200Y200917D01*
D02*
G37*
G36*
X277229D02*
X276992Y200828D01*
X276782Y200684D01*
X276601Y200484D01*
X276447Y200230D01*
X276321Y199919D01*
X276224Y199554D01*
X276154Y199133D01*
X276112Y198658D01*
X276098Y198127D01*
X273304D01*
X273290Y198658D01*
X273248Y199133D01*
X273178Y199554D01*
X273080Y199919D01*
X272955Y200230D01*
X272801Y200484D01*
X272619Y200684D01*
X272410Y200828D01*
X272172Y200917D01*
X271907Y200951D01*
X277495D01*
X277229Y200917D01*
D02*
G37*
G36*
X211317D02*
X211079Y200828D01*
X210870Y200684D01*
X210688Y200484D01*
X210534Y200230D01*
X210408Y199919D01*
X210311Y199554D01*
X210241Y199133D01*
X210199Y198658D01*
X210185Y198127D01*
X207391D01*
X207377Y198658D01*
X207335Y199133D01*
X207265Y199554D01*
X207167Y199919D01*
X207042Y200230D01*
X206888Y200484D01*
X206707Y200684D01*
X206497Y200828D01*
X206259Y200917D01*
X205994Y200951D01*
X211582D01*
X211317Y200917D01*
D02*
G37*
G36*
X233254Y195910D02*
X228254D01*
X226779Y200910D01*
X234718D01*
X233254Y195910D01*
D02*
G37*
G36*
X84430Y190807D02*
X84212Y190980D01*
X83958Y191136D01*
X83668Y191273D01*
X83343Y191392D01*
X82982Y191493D01*
X82585Y191575D01*
X82153Y191639D01*
X81182Y191712D01*
X80643Y191721D01*
X80321Y196721D01*
X80858Y196732D01*
X81822Y196818D01*
X82249Y196893D01*
X82639Y196990D01*
X82993Y197108D01*
X83310Y197248D01*
X83590Y197409D01*
X83833Y197591D01*
X84040Y197796D01*
X84430Y190807D01*
D02*
G37*
G36*
X31700Y200771D02*
X31850Y199921D01*
X32100Y199171D01*
X32450Y198521D01*
X32900Y197971D01*
X33450Y197521D01*
X34100Y197171D01*
X34850Y196921D01*
X35700Y196771D01*
X36650Y196721D01*
Y191721D01*
X35700Y191671D01*
X34850Y191521D01*
X34100Y191271D01*
X33450Y190921D01*
X32900Y190471D01*
X32450Y189921D01*
X32103Y189277D01*
X32155Y189119D01*
X32377Y188669D01*
X32640Y188319D01*
X32943Y188069D01*
X33286Y187920D01*
X33670Y187869D01*
X31735D01*
X31700Y187672D01*
X31650Y186721D01*
X30885Y187869D01*
X24630D01*
X25014Y187920D01*
X25357Y188069D01*
X25661Y188319D01*
X25923Y188669D01*
X26145Y189119D01*
X26327Y189669D01*
X26468Y190319D01*
X26569Y191070D01*
X26630Y191919D01*
X26650Y192869D01*
X27551D01*
X26650Y194221D01*
X31650Y201721D01*
X31700Y200771D01*
D02*
G37*
G36*
X104484Y184900D02*
X104900Y184543D01*
X105317Y184228D01*
X105737Y183954D01*
X106159Y183723D01*
X106583Y183533D01*
X107009Y183386D01*
X107438Y183281D01*
X107868Y183218D01*
X108301Y183197D01*
Y180403D01*
X107868Y180382D01*
X107438Y180319D01*
X107009Y180214D01*
X106583Y180067D01*
X106159Y179877D01*
X105737Y179646D01*
X105317Y179373D01*
X104900Y179057D01*
X104484Y178700D01*
X104071Y178300D01*
Y180395D01*
X101913Y180385D01*
Y183215D01*
X101957Y183212D01*
X102080Y183209D01*
X104071Y183203D01*
Y185300D01*
X104484Y184900D01*
D02*
G37*
G36*
X233269Y186726D02*
X233387Y185126D01*
X233490Y184476D01*
X233622Y183926D01*
X233785Y183476D01*
X233976Y183126D01*
X234198Y182876D01*
X234448Y182726D01*
X234729Y182676D01*
X226789D01*
X227068Y182726D01*
X227317Y182876D01*
X227536Y183126D01*
X227727Y183476D01*
X227888Y183926D01*
X228020Y184476D01*
X228122Y185126D01*
X228195Y185876D01*
X228254Y187676D01*
X233254D01*
X233269Y186726D01*
D02*
G37*
G36*
X96929Y178300D02*
X96624Y178585D01*
X96298Y178840D01*
X95951Y179065D01*
X95582Y179260D01*
X95191Y179425D01*
X94779Y179560D01*
X94346Y179665D01*
X93891Y179740D01*
X93415Y179785D01*
X92917Y179800D01*
Y183800D01*
X93415Y183815D01*
X93891Y183860D01*
X94346Y183935D01*
X94779Y184040D01*
X95191Y184175D01*
X95582Y184340D01*
X95951Y184535D01*
X96298Y184760D01*
X96624Y185015D01*
X96929Y185300D01*
Y178300D01*
D02*
G37*
G36*
X66385Y185420D02*
X66510Y185080D01*
X66715Y184780D01*
X66999Y184520D01*
X67362Y184300D01*
X67805Y184120D01*
X68327Y183980D01*
X68928Y183880D01*
X69609Y183820D01*
X70370Y183800D01*
Y179800D01*
X69609Y179780D01*
X68928Y179720D01*
X68327Y179620D01*
X67805Y179480D01*
X67362Y179300D01*
X66999Y179080D01*
X66715Y178820D01*
X66510Y178520D01*
X66385Y178180D01*
X66339Y177800D01*
Y185800D01*
X66385Y185420D01*
D02*
G37*
G36*
X270757Y176407D02*
X270723Y176672D01*
X270634Y176910D01*
X270490Y177120D01*
X270290Y177301D01*
X270035Y177455D01*
X269725Y177581D01*
X269360Y177678D01*
X268939Y177748D01*
X268463Y177790D01*
X267932Y177804D01*
Y180598D01*
X268463Y180612D01*
X268939Y180654D01*
X269360Y180724D01*
X269725Y180822D01*
X270035Y180947D01*
X270290Y181101D01*
X270490Y181283D01*
X270634Y181492D01*
X270723Y181730D01*
X270757Y181995D01*
Y176407D01*
D02*
G37*
G36*
X256698Y181730D02*
X256787Y181492D01*
X256931Y181283D01*
X257130Y181101D01*
X257385Y180947D01*
X257695Y180822D01*
X258061Y180724D01*
X258481Y180654D01*
X258957Y180612D01*
X259488Y180598D01*
Y177804D01*
X258957Y177790D01*
X258481Y177748D01*
X258061Y177678D01*
X257695Y177581D01*
X257385Y177455D01*
X257130Y177301D01*
X256931Y177120D01*
X256787Y176910D01*
X256698Y176672D01*
X256664Y176407D01*
Y181995D01*
X256698Y181730D01*
D02*
G37*
G36*
X31650Y170730D02*
X26650D01*
X24630Y175730D01*
X33670D01*
X31650Y170730D01*
D02*
G37*
G36*
X256698Y165735D02*
X256787Y165497D01*
X256931Y165288D01*
X257130Y165106D01*
X257385Y164952D01*
X257695Y164827D01*
X258061Y164729D01*
X258481Y164659D01*
X258957Y164617D01*
X259408Y164605D01*
X259628Y164610D01*
X260203Y164666D01*
X260462Y164715D01*
X260703Y164779D01*
X260925Y164856D01*
X261128Y164947D01*
X261313Y165053D01*
X261478Y165173D01*
X261625Y165306D01*
Y161106D01*
X261478Y161240D01*
X261313Y161359D01*
X261128Y161465D01*
X260925Y161556D01*
X260703Y161633D01*
X260462Y161697D01*
X260203Y161746D01*
X259925Y161781D01*
X259628Y161802D01*
X259408Y161807D01*
X258957Y161795D01*
X258481Y161753D01*
X258061Y161683D01*
X257695Y161586D01*
X257385Y161460D01*
X257130Y161306D01*
X256931Y161124D01*
X256787Y160915D01*
X256698Y160678D01*
X256664Y160412D01*
Y166000D01*
X256698Y165735D01*
D02*
G37*
G36*
X256694Y159737D02*
X256515Y159709D01*
X256354Y159625D01*
X256213Y159485D01*
X256090Y159290D01*
X255986Y159038D01*
X255901Y158731D01*
X255835Y158368D01*
X255788Y157948D01*
X255759Y157473D01*
X255750Y156943D01*
X252956D01*
X252942Y157474D01*
X252900Y157950D01*
X252830Y158370D01*
X252732Y158736D01*
X252607Y159046D01*
X252453Y159300D01*
X252271Y159500D01*
X252062Y159644D01*
X251824Y159733D01*
X251559Y159767D01*
X256694Y159737D01*
D02*
G37*
G36*
X233288Y159733D02*
X233050Y159644D01*
X232840Y159500D01*
X232659Y159300D01*
X232505Y159046D01*
X232379Y158736D01*
X232282Y158370D01*
X232212Y157950D01*
X232170Y157474D01*
X232156Y156943D01*
X229362D01*
X229348Y157474D01*
X229306Y157950D01*
X229236Y158370D01*
X229139Y158736D01*
X229013Y159046D01*
X228859Y159300D01*
X228677Y159500D01*
X228468Y159644D01*
X228230Y159733D01*
X227965Y159767D01*
X233553D01*
X233288Y159733D01*
D02*
G37*
G36*
X55520Y189680D02*
X55520Y188080D01*
Y173920D01*
X68180D01*
Y177673D01*
X68383Y177756D01*
X68712Y177844D01*
X69157Y177918D01*
X69471Y177946D01*
X93586D01*
X93658Y177939D01*
X93984Y177885D01*
X94282Y177813D01*
X94554Y177724D01*
X94803Y177619D01*
X95032Y177498D01*
X95244Y177360D01*
X95443Y177205D01*
X95690Y176974D01*
X95815Y176897D01*
X96337Y176375D01*
X97883Y175482D01*
X99607Y175020D01*
X101393D01*
X103117Y175482D01*
X104663Y176375D01*
X105196Y176907D01*
X105332Y176995D01*
X105708Y177358D01*
X106039Y177644D01*
X106361Y177886D01*
X106670Y178088D01*
X106966Y178250D01*
X107250Y178377D01*
X107523Y178471D01*
X107786Y178536D01*
X107957Y178561D01*
X149344D01*
X165925Y161980D01*
Y154883D01*
X165294Y154496D01*
X164147Y154242D01*
X163163Y155225D01*
X161617Y156118D01*
X159893Y156580D01*
X158107D01*
X156383Y156118D01*
X154837Y155225D01*
X153575Y153963D01*
X152682Y152417D01*
X152220Y150693D01*
Y148907D01*
X152682Y147183D01*
X153575Y145637D01*
X154837Y144375D01*
X156383Y143482D01*
X158107Y143020D01*
X159893D01*
X161617Y143482D01*
X163163Y144375D01*
X164147Y145358D01*
X165294Y145104D01*
X165925Y144717D01*
Y83566D01*
X165925Y83566D01*
X164405Y82145D01*
X164049Y82086D01*
X149539Y96596D01*
Y129643D01*
X149564Y129814D01*
X149629Y130077D01*
X149723Y130350D01*
X149850Y130634D01*
X150012Y130930D01*
X150214Y131239D01*
X150456Y131560D01*
X150742Y131892D01*
X151105Y132268D01*
X151193Y132404D01*
X151725Y132937D01*
X152618Y134483D01*
X153080Y136207D01*
Y137993D01*
X152618Y139717D01*
X151725Y141263D01*
X150463Y142525D01*
X148917Y143418D01*
X147193Y143880D01*
X145407D01*
X143683Y143418D01*
X142137Y142525D01*
X141615Y142003D01*
X141490Y141926D01*
X141243Y141695D01*
X141044Y141540D01*
X140832Y141402D01*
X140603Y141281D01*
X140354Y141176D01*
X140082Y141087D01*
X139784Y141015D01*
X139458Y140961D01*
X139385Y140954D01*
X115645D01*
X113980Y142129D01*
X113980Y144980D01*
X115569Y145436D01*
X127296D01*
X127533Y145411D01*
X127857Y145358D01*
X128130Y145296D01*
X128350Y145228D01*
X128516Y145161D01*
X128631Y145101D01*
X128698Y145055D01*
X128825Y144943D01*
X128932Y144880D01*
X129437Y144375D01*
X130983Y143482D01*
X132707Y143020D01*
X134493D01*
X136217Y143482D01*
X137763Y144375D01*
X139025Y145637D01*
X139918Y147183D01*
X140380Y148907D01*
Y150693D01*
X139918Y152417D01*
X139025Y153963D01*
X137763Y155225D01*
X136217Y156118D01*
X134493Y156580D01*
X132707D01*
X130983Y156118D01*
X129437Y155225D01*
X128932Y154720D01*
X128825Y154657D01*
X128698Y154545D01*
X128631Y154499D01*
X128516Y154439D01*
X128350Y154372D01*
X128130Y154305D01*
X127857Y154242D01*
X127555Y154193D01*
X127204Y154164D01*
X77879D01*
X76209Y153832D01*
X74793Y152886D01*
X71864Y149957D01*
X70918Y148541D01*
X70586Y146871D01*
Y145626D01*
X70544Y145234D01*
X70500Y144980D01*
X68620D01*
Y143224D01*
X65100Y141464D01*
X35865D01*
X35297Y141564D01*
X34822Y141722D01*
X34464Y141915D01*
X34190Y142140D01*
X33965Y142414D01*
X33772Y142773D01*
X33614Y143247D01*
X33514Y143815D01*
Y170499D01*
X34896Y173920D01*
X35480D01*
Y175708D01*
X35484Y175730D01*
X35483Y175739D01*
X35484Y175746D01*
X35480Y175767D01*
Y187847D01*
X35484Y187869D01*
X35480Y187892D01*
Y189680D01*
X37185Y189858D01*
X53816D01*
X55520Y189680D01*
D02*
G37*
G36*
X130029Y146300D02*
X129815Y146490D01*
X129565Y146660D01*
X129279Y146810D01*
X128957Y146940D01*
X128599Y147050D01*
X128205Y147140D01*
X127775Y147210D01*
X127310Y147260D01*
X126270Y147300D01*
Y152300D01*
X126808Y152310D01*
X127775Y152390D01*
X128205Y152460D01*
X128599Y152550D01*
X128957Y152660D01*
X129279Y152790D01*
X129565Y152940D01*
X129815Y153110D01*
X130029Y153300D01*
Y146300D01*
D02*
G37*
G36*
X77462Y146167D02*
X77558Y144980D01*
X77642Y144497D01*
X77750Y144087D01*
X77882Y143751D01*
X78039Y143488D01*
X78219Y143298D01*
X78423Y143182D01*
X78651Y143139D01*
X71248D01*
X71477Y143182D01*
X71681Y143298D01*
X71861Y143488D01*
X72017Y143751D01*
X72150Y144087D01*
X72258Y144497D01*
X72342Y144980D01*
X72402Y145537D01*
X72450Y146871D01*
X77450D01*
X77462Y146167D01*
D02*
G37*
G36*
X142729Y133600D02*
X142424Y133885D01*
X142098Y134140D01*
X141751Y134365D01*
X141382Y134560D01*
X140991Y134725D01*
X140579Y134860D01*
X140146Y134965D01*
X139691Y135040D01*
X139215Y135085D01*
X138717Y135100D01*
Y139100D01*
X139215Y139115D01*
X139691Y139160D01*
X140146Y139235D01*
X140579Y139340D01*
X140991Y139475D01*
X141382Y139640D01*
X141751Y139835D01*
X142098Y140060D01*
X142424Y140315D01*
X142729Y140600D01*
Y133600D01*
D02*
G37*
G36*
X112185Y140720D02*
X112310Y140380D01*
X112515Y140080D01*
X112799Y139820D01*
X113162Y139600D01*
X113605Y139420D01*
X114127Y139280D01*
X114728Y139180D01*
X115409Y139120D01*
X116170Y139100D01*
Y135100D01*
X115409Y135080D01*
X114728Y135020D01*
X114127Y134920D01*
X113605Y134780D01*
X113162Y134600D01*
X112799Y134380D01*
X112515Y134120D01*
X112310Y133820D01*
X112185Y133480D01*
X112139Y133100D01*
Y141100D01*
X112185Y140720D01*
D02*
G37*
G36*
X70430Y132100D02*
X65430Y134600D01*
Y139600D01*
X70430Y142100D01*
Y132100D01*
D02*
G37*
G36*
X31700Y143650D02*
X31850Y142800D01*
X32100Y142050D01*
X32450Y141400D01*
X32900Y140850D01*
X33450Y140400D01*
X34100Y140050D01*
X34850Y139800D01*
X35700Y139650D01*
X36650Y139600D01*
Y134600D01*
X35700Y134550D01*
X34850Y134400D01*
X34100Y134150D01*
X33450Y133800D01*
X32900Y133350D01*
X32450Y132800D01*
X32100Y132150D01*
X31850Y131400D01*
X31700Y130550D01*
X31650Y129600D01*
X26650Y137100D01*
X31650Y144600D01*
X31700Y143650D01*
D02*
G37*
G36*
X147712Y135643D02*
X147709Y135520D01*
X147703Y133529D01*
X149800D01*
X149400Y133116D01*
X149043Y132700D01*
X148728Y132283D01*
X148454Y131863D01*
X148223Y131441D01*
X148034Y131017D01*
X147886Y130591D01*
X147781Y130162D01*
X147718Y129732D01*
X147697Y129299D01*
X144903D01*
X144882Y129732D01*
X144819Y130162D01*
X144714Y130591D01*
X144566Y131017D01*
X144377Y131441D01*
X144146Y131863D01*
X143872Y132283D01*
X143557Y132700D01*
X143200Y133116D01*
X142800Y133529D01*
X144895D01*
X144885Y135687D01*
X147715D01*
X147712Y135643D01*
D02*
G37*
G36*
X101320Y144980D02*
X101320Y143658D01*
Y129220D01*
X113980D01*
Y132973D01*
X114184Y133056D01*
X114511Y133144D01*
X114957Y133218D01*
X115271Y133246D01*
X139385D01*
X139458Y133239D01*
X139784Y133185D01*
X140082Y133113D01*
X140354Y133024D01*
X140603Y132919D01*
X140832Y132798D01*
X141044Y132660D01*
X141243Y132505D01*
X141490Y132274D01*
X141492Y132273D01*
X141495Y132268D01*
X141858Y131892D01*
X142144Y131560D01*
X142386Y131239D01*
X142588Y130930D01*
X142750Y130634D01*
X142877Y130350D01*
X142971Y130077D01*
X143036Y129814D01*
X143061Y129643D01*
Y95254D01*
X143061Y95254D01*
X143307Y94014D01*
X144010Y92963D01*
X180877Y56097D01*
X180770Y55146D01*
X180359Y54230D01*
X179345Y54090D01*
X159345Y74090D01*
X158294Y74793D01*
X157054Y75039D01*
X157054Y75039D01*
X107957D01*
X107786Y75064D01*
X107523Y75129D01*
X107250Y75223D01*
X106966Y75350D01*
X106670Y75512D01*
X106361Y75714D01*
X106039Y75956D01*
X105708Y76242D01*
X105332Y76605D01*
X105196Y76693D01*
X104663Y77225D01*
X103117Y78118D01*
X101393Y78580D01*
X99607D01*
X97883Y78118D01*
X96337Y77225D01*
X95815Y76703D01*
X95690Y76626D01*
X95443Y76395D01*
X95244Y76240D01*
X95032Y76102D01*
X94803Y75981D01*
X94554Y75876D01*
X94282Y75787D01*
X93984Y75715D01*
X93658Y75661D01*
X93586Y75654D01*
X69845D01*
X68180Y76829D01*
X68180Y79680D01*
X69652Y80418D01*
X81303D01*
X81558Y80389D01*
X81870Y80334D01*
X82130Y80269D01*
X82335Y80201D01*
X82486Y80134D01*
X82586Y80077D01*
X82642Y80034D01*
X82761Y79917D01*
X82860Y79851D01*
X83637Y79075D01*
X85183Y78182D01*
X86907Y77720D01*
X88693D01*
X90417Y78182D01*
X91963Y79075D01*
X93225Y80337D01*
X94118Y81883D01*
X94580Y83607D01*
Y85393D01*
X94118Y87117D01*
X93225Y88663D01*
X91963Y89925D01*
X90417Y90818D01*
X88693Y91280D01*
X86907D01*
X85183Y90818D01*
X83637Y89925D01*
X83355Y89643D01*
X83303Y89617D01*
X83172Y89512D01*
X83096Y89466D01*
X82970Y89406D01*
X82789Y89340D01*
X82556Y89275D01*
X82270Y89216D01*
X81954Y89169D01*
X81646Y89146D01*
X35865D01*
X35297Y89246D01*
X34822Y89404D01*
X34464Y89597D01*
X34190Y89822D01*
X33965Y90096D01*
X33772Y90455D01*
X33614Y90929D01*
X33514Y91497D01*
Y130385D01*
X33614Y130953D01*
X33772Y131427D01*
X33965Y131786D01*
X34190Y132060D01*
X34464Y132285D01*
X34822Y132478D01*
X35297Y132636D01*
X35865Y132736D01*
X65100D01*
X68620Y130976D01*
Y129220D01*
X81280D01*
Y144980D01*
X82869Y145436D01*
X99731D01*
X101320Y144980D01*
D02*
G37*
G36*
X200807Y128477D02*
X200840Y128276D01*
X200895Y128071D01*
X200975Y127862D01*
X201077Y127651D01*
X201202Y127436D01*
X201351Y127218D01*
X201522Y126996D01*
X201717Y126772D01*
X201935Y126544D01*
X199960Y124568D01*
X199732Y124786D01*
X199286Y125153D01*
X199067Y125301D01*
X198853Y125427D01*
X198641Y125529D01*
X198433Y125608D01*
X198228Y125664D01*
X198026Y125696D01*
X197827Y125706D01*
X200797Y128676D01*
X200807Y128477D01*
D02*
G37*
G36*
X285931Y117324D02*
X286337Y116983D01*
X286524Y116852D01*
X286702Y116748D01*
X286869Y116669D01*
X287026Y116617D01*
X287173Y116591D01*
X287310Y116592D01*
X287436Y116618D01*
X285385Y113484D01*
X285364Y113586D01*
X285319Y113703D01*
X285251Y113836D01*
X285158Y113984D01*
X285042Y114147D01*
X284738Y114520D01*
X284338Y114954D01*
X284102Y115194D01*
X285714Y117534D01*
X285931Y117324D01*
D02*
G37*
G36*
X196903Y115254D02*
X196270Y113372D01*
X195090Y112883D01*
X193745Y111539D01*
X193017Y109782D01*
Y107880D01*
X193563Y106563D01*
X192760Y104785D01*
X189356D01*
X183581Y110560D01*
Y126253D01*
X185224Y126933D01*
X196903Y115254D01*
D02*
G37*
G36*
X277436Y106594D02*
X277662Y106403D01*
X277883Y106241D01*
X278102Y106105D01*
X278316Y105997D01*
X278526Y105916D01*
X278733Y105863D01*
X278936Y105837D01*
X279135Y105838D01*
X279330Y105867D01*
X277031Y102353D01*
X276987Y102526D01*
X276923Y102706D01*
X276840Y102892D01*
X276737Y103083D01*
X276614Y103281D01*
X276472Y103485D01*
X276127Y103912D01*
X275926Y104134D01*
X275704Y104362D01*
X277207Y106811D01*
X277436Y106594D01*
D02*
G37*
G36*
X185723Y99256D02*
X186774Y98553D01*
X188014Y98307D01*
X188014Y98307D01*
X227829D01*
X227952Y98331D01*
X229456D01*
X230665Y97858D01*
X231138Y96649D01*
Y95145D01*
X231114Y95022D01*
Y86969D01*
X230664Y86520D01*
X228586Y86094D01*
X226829Y86822D01*
X224928D01*
X223171Y86094D01*
X221826Y84750D01*
X221098Y82993D01*
Y81091D01*
X221826Y79334D01*
X223171Y77990D01*
X223351Y77915D01*
X222997Y76137D01*
X196160D01*
X179007Y93290D01*
Y103649D01*
X180650Y104329D01*
X185723Y99256D01*
D02*
G37*
G36*
X250341Y84422D02*
X249485Y83481D01*
X247118Y85030D01*
X248279Y86311D01*
X250341Y84422D01*
D02*
G37*
G36*
X246588Y85030D02*
X244221Y83481D01*
X244218Y83500D01*
X244196Y83536D01*
X244156Y83589D01*
X244022Y83744D01*
X243365Y84422D01*
X245427Y86311D01*
X246588Y85030D01*
D02*
G37*
G36*
X262137Y86008D02*
X262582Y85637D01*
X262799Y85485D01*
X263012Y85356D01*
X263222Y85248D01*
X263429Y85163D01*
X263631Y85099D01*
X263830Y85058D01*
X264026Y85040D01*
X260911Y82222D01*
X260911Y82422D01*
X260887Y82625D01*
X260838Y82831D01*
X260766Y83040D01*
X260669Y83253D01*
X260548Y83468D01*
X260403Y83687D01*
X260233Y83909D01*
X260040Y84134D01*
X259822Y84362D01*
X261909Y86226D01*
X262137Y86008D01*
D02*
G37*
G36*
X84037Y81207D02*
X83831Y81411D01*
X83588Y81594D01*
X83308Y81756D01*
X82991Y81895D01*
X82637Y82014D01*
X82247Y82110D01*
X81820Y82185D01*
X81356Y82239D01*
X80319Y82282D01*
X80646Y87282D01*
X81185Y87291D01*
X82156Y87365D01*
X82588Y87429D01*
X82984Y87511D01*
X83345Y87611D01*
X83671Y87730D01*
X83960Y87867D01*
X84214Y88022D01*
X84432Y88196D01*
X84037Y81207D01*
D02*
G37*
G36*
X228311Y83828D02*
X228455Y83714D01*
X228622Y83614D01*
X228811Y83526D01*
X229021Y83453D01*
X229254Y83392D01*
X229510Y83346D01*
X229787Y83312D01*
X230087Y83292D01*
X230409Y83285D01*
X230247Y80491D01*
X229924Y80485D01*
X229343Y80438D01*
X229084Y80397D01*
X228847Y80344D01*
X228631Y80279D01*
X228437Y80203D01*
X228264Y80114D01*
X228112Y80014D01*
X227981Y79902D01*
X228189Y83955D01*
X228311Y83828D01*
D02*
G37*
G36*
X31700Y91332D02*
X31850Y90482D01*
X32100Y89732D01*
X32450Y89082D01*
X32900Y88532D01*
X33450Y88082D01*
X34100Y87732D01*
X34850Y87482D01*
X35700Y87332D01*
X36650Y87282D01*
Y82282D01*
X35700Y82232D01*
X34850Y82082D01*
X34100Y81832D01*
X33450Y81482D01*
X32900Y81032D01*
X32450Y80482D01*
X32100Y79832D01*
X32009Y79560D01*
X32155Y79120D01*
X32377Y78670D01*
X32640Y78320D01*
X32943Y78070D01*
X33286Y77920D01*
X33670Y77870D01*
X31681D01*
X31650Y77282D01*
X31258Y77870D01*
X24630D01*
X25014Y77920D01*
X25357Y78070D01*
X25661Y78320D01*
X25923Y78670D01*
X26145Y79120D01*
X26327Y79669D01*
X26468Y80319D01*
X26569Y81069D01*
X26630Y81919D01*
X26650Y82870D01*
X27925D01*
X26650Y84782D01*
X31650Y92282D01*
X31700Y91332D01*
D02*
G37*
G36*
X104484Y74900D02*
X104900Y74543D01*
X105317Y74227D01*
X105737Y73954D01*
X106159Y73723D01*
X106583Y73534D01*
X107009Y73386D01*
X107438Y73281D01*
X107868Y73218D01*
X108301Y73197D01*
Y70403D01*
X107868Y70382D01*
X107438Y70319D01*
X107009Y70214D01*
X106583Y70066D01*
X106159Y69877D01*
X105737Y69646D01*
X105317Y69373D01*
X104900Y69057D01*
X104484Y68700D01*
X104071Y68300D01*
Y70395D01*
X101913Y70385D01*
Y73215D01*
X101957Y73212D01*
X102080Y73209D01*
X104071Y73203D01*
Y75300D01*
X104484Y74900D01*
D02*
G37*
G36*
X96929Y68300D02*
X96624Y68585D01*
X96298Y68840D01*
X95951Y69065D01*
X95582Y69260D01*
X95191Y69425D01*
X94779Y69560D01*
X94346Y69665D01*
X93891Y69740D01*
X93415Y69785D01*
X92917Y69800D01*
Y73800D01*
X93415Y73815D01*
X93891Y73860D01*
X94346Y73935D01*
X94779Y74040D01*
X95191Y74175D01*
X95582Y74340D01*
X95951Y74535D01*
X96298Y74760D01*
X96624Y75015D01*
X96929Y75300D01*
Y68300D01*
D02*
G37*
G36*
X66385Y75420D02*
X66510Y75080D01*
X66715Y74780D01*
X66999Y74520D01*
X67362Y74300D01*
X67805Y74120D01*
X68327Y73980D01*
X68928Y73880D01*
X69609Y73820D01*
X70370Y73800D01*
Y69800D01*
X69609Y69780D01*
X68928Y69720D01*
X68327Y69620D01*
X67805Y69480D01*
X67362Y69300D01*
X66999Y69080D01*
X66715Y68820D01*
X66510Y68520D01*
X66385Y68180D01*
X66339Y67800D01*
Y75800D01*
X66385Y75420D01*
D02*
G37*
G36*
X31650Y60731D02*
X26650D01*
X24630Y65731D01*
X33670D01*
X31650Y60731D01*
D02*
G37*
G36*
X293546Y109669D02*
Y80449D01*
X243436Y30339D01*
X153757D01*
X153586Y30364D01*
X153323Y30429D01*
X153050Y30523D01*
X152766Y30650D01*
X152470Y30812D01*
X152161Y31014D01*
X151840Y31256D01*
X151508Y31542D01*
X151132Y31905D01*
X150996Y31993D01*
X150463Y32525D01*
X148917Y33418D01*
X147193Y33880D01*
X145407D01*
X143683Y33418D01*
X142137Y32525D01*
X141615Y32003D01*
X141490Y31926D01*
X141243Y31695D01*
X141044Y31540D01*
X140832Y31402D01*
X140603Y31281D01*
X140354Y31176D01*
X140082Y31087D01*
X139784Y31015D01*
X139458Y30961D01*
X139385Y30954D01*
X115645D01*
X113980Y32129D01*
X113980Y34980D01*
X115569Y35436D01*
X127296D01*
X127533Y35411D01*
X127857Y35358D01*
X128130Y35296D01*
X128350Y35228D01*
X128516Y35161D01*
X128631Y35101D01*
X128698Y35055D01*
X128825Y34943D01*
X128932Y34880D01*
X129437Y34375D01*
X130983Y33482D01*
X132707Y33020D01*
X134493D01*
X136217Y33482D01*
X137763Y34375D01*
X139025Y35637D01*
X139918Y37183D01*
X140380Y38907D01*
Y40693D01*
X139918Y42417D01*
X139025Y43963D01*
X137763Y45225D01*
X136217Y46118D01*
X134493Y46580D01*
X132707D01*
X130983Y46118D01*
X129437Y45225D01*
X128932Y44720D01*
X128825Y44657D01*
X128698Y44545D01*
X128631Y44499D01*
X128516Y44439D01*
X128350Y44372D01*
X128130Y44304D01*
X127857Y44242D01*
X127555Y44193D01*
X127204Y44164D01*
X77879D01*
X76209Y43832D01*
X74793Y42886D01*
X71864Y39957D01*
X70918Y38541D01*
X70586Y36871D01*
Y35626D01*
X70544Y35234D01*
X70500Y34980D01*
X68620D01*
Y33224D01*
X65100Y31464D01*
X37446D01*
X33514Y35396D01*
Y60499D01*
X34896Y63920D01*
X35480D01*
Y65708D01*
X35484Y65731D01*
X35483Y65739D01*
X35484Y65746D01*
X35480Y65767D01*
Y77847D01*
X35484Y77870D01*
X35480Y77892D01*
Y79680D01*
X36952Y80418D01*
X54048D01*
X55520Y79680D01*
X55520Y78640D01*
Y63920D01*
X68180D01*
Y67674D01*
X68383Y67756D01*
X68712Y67844D01*
X69157Y67918D01*
X69471Y67946D01*
X93586D01*
X93658Y67939D01*
X93984Y67885D01*
X94282Y67813D01*
X94554Y67724D01*
X94803Y67619D01*
X95032Y67498D01*
X95244Y67360D01*
X95443Y67205D01*
X95690Y66974D01*
X95815Y66897D01*
X96337Y66375D01*
X97883Y65482D01*
X99607Y65020D01*
X101393D01*
X103117Y65482D01*
X104663Y66375D01*
X105196Y66907D01*
X105332Y66995D01*
X105708Y67358D01*
X106039Y67644D01*
X106361Y67886D01*
X106670Y68088D01*
X106966Y68250D01*
X107250Y68377D01*
X107523Y68471D01*
X107786Y68536D01*
X107957Y68561D01*
X155712D01*
X176017Y48256D01*
X176017Y48256D01*
X177068Y47553D01*
X178308Y47307D01*
X256032D01*
X256032Y47307D01*
X257272Y47553D01*
X258323Y48256D01*
X290072Y80006D01*
X290775Y81056D01*
X291021Y82296D01*
X291021Y82296D01*
Y104140D01*
X290775Y105380D01*
X290072Y106431D01*
X290072Y106431D01*
X289158Y107345D01*
X289822Y109195D01*
X291079Y109716D01*
X291768Y110405D01*
X293546Y109669D01*
D02*
G37*
G36*
X130029Y36300D02*
X129815Y36490D01*
X129565Y36660D01*
X129279Y36810D01*
X128957Y36940D01*
X128599Y37050D01*
X128205Y37140D01*
X127775Y37210D01*
X127310Y37260D01*
X126270Y37300D01*
Y42300D01*
X126808Y42310D01*
X127775Y42390D01*
X128205Y42460D01*
X128599Y42550D01*
X128957Y42660D01*
X129279Y42790D01*
X129565Y42940D01*
X129815Y43110D01*
X130029Y43300D01*
Y36300D01*
D02*
G37*
G36*
X77462Y36167D02*
X77558Y34980D01*
X77642Y34497D01*
X77750Y34087D01*
X77882Y33751D01*
X78039Y33488D01*
X78219Y33298D01*
X78423Y33182D01*
X78651Y33139D01*
X71248D01*
X71477Y33182D01*
X71681Y33298D01*
X71861Y33488D01*
X72017Y33751D01*
X72150Y34087D01*
X72258Y34497D01*
X72342Y34980D01*
X72402Y35537D01*
X72450Y36871D01*
X77450D01*
X77462Y36167D01*
D02*
G37*
G36*
X150284Y30200D02*
X150700Y29843D01*
X151117Y29527D01*
X151537Y29254D01*
X151959Y29023D01*
X152383Y28833D01*
X152809Y28686D01*
X153238Y28581D01*
X153668Y28518D01*
X154101Y28497D01*
Y25703D01*
X153668Y25682D01*
X153238Y25619D01*
X152809Y25514D01*
X152383Y25366D01*
X151959Y25177D01*
X151537Y24946D01*
X151117Y24673D01*
X150700Y24357D01*
X150284Y24000D01*
X149871Y23600D01*
Y25695D01*
X147713Y25685D01*
Y28515D01*
X147757Y28512D01*
X147880Y28509D01*
X149871Y28503D01*
Y30600D01*
X150284Y30200D01*
D02*
G37*
G36*
X142729Y23600D02*
X142424Y23885D01*
X142098Y24140D01*
X141751Y24365D01*
X141382Y24560D01*
X140991Y24725D01*
X140579Y24860D01*
X140146Y24965D01*
X139691Y25040D01*
X139215Y25085D01*
X138717Y25100D01*
Y29100D01*
X139215Y29115D01*
X139691Y29160D01*
X140146Y29235D01*
X140579Y29340D01*
X140991Y29475D01*
X141382Y29640D01*
X141751Y29835D01*
X142098Y30060D01*
X142424Y30315D01*
X142729Y30600D01*
Y23600D01*
D02*
G37*
G36*
X112185Y30720D02*
X112310Y30380D01*
X112515Y30080D01*
X112799Y29820D01*
X113162Y29600D01*
X113605Y29420D01*
X114127Y29280D01*
X114728Y29180D01*
X115409Y29120D01*
X116170Y29100D01*
Y25100D01*
X115409Y25080D01*
X114728Y25020D01*
X114127Y24920D01*
X113605Y24780D01*
X113162Y24600D01*
X112799Y24380D01*
X112515Y24120D01*
X112310Y23820D01*
X112185Y23480D01*
X112139Y23100D01*
Y31100D01*
X112185Y30720D01*
D02*
G37*
G36*
X70430Y22100D02*
X65430Y24600D01*
Y29600D01*
X70430Y32100D01*
Y22100D01*
D02*
G37*
%LPC*%
G36*
X147193Y389280D02*
X145407D01*
X143683Y388818D01*
X142137Y387925D01*
X140875Y386663D01*
X139982Y385117D01*
X139520Y383393D01*
Y381607D01*
X139982Y379883D01*
X140875Y378337D01*
X142137Y377075D01*
X143683Y376182D01*
X145407Y375720D01*
X147193D01*
X148917Y376182D01*
X150463Y377075D01*
X151725Y378337D01*
X152618Y379883D01*
X153080Y381607D01*
Y383393D01*
X152618Y385117D01*
X151725Y386663D01*
X150463Y387925D01*
X148917Y388818D01*
X147193Y389280D01*
D02*
G37*
G36*
X101393Y323980D02*
X99607D01*
X97883Y323518D01*
X96337Y322625D01*
X95075Y321363D01*
X94182Y319817D01*
X93720Y318093D01*
Y316307D01*
X94182Y314583D01*
X95075Y313037D01*
X96337Y311775D01*
X97883Y310882D01*
X99607Y310420D01*
X101393D01*
X103117Y310882D01*
X104663Y311775D01*
X105925Y313037D01*
X106818Y314583D01*
X107280Y316307D01*
Y318093D01*
X106818Y319817D01*
X105925Y321363D01*
X104663Y322625D01*
X103117Y323518D01*
X101393Y323980D01*
D02*
G37*
G36*
X114093Y311280D02*
X112307D01*
X110583Y310818D01*
X109037Y309925D01*
X107775Y308663D01*
X106882Y307117D01*
X106420Y305393D01*
Y303607D01*
X106882Y301883D01*
X107775Y300337D01*
X109037Y299075D01*
X110583Y298182D01*
X112307Y297720D01*
X114093D01*
X115817Y298182D01*
X117363Y299075D01*
X118625Y300337D01*
X119518Y301883D01*
X119980Y303607D01*
Y305393D01*
X119518Y307117D01*
X118625Y308663D01*
X117363Y309925D01*
X115817Y310818D01*
X114093Y311280D01*
D02*
G37*
G36*
X211998Y297434D02*
X205978D01*
Y291664D01*
X211998D01*
Y297434D01*
D02*
G37*
G36*
X147193Y279280D02*
X145407D01*
X143683Y278818D01*
X142137Y277925D01*
X140875Y276663D01*
X139982Y275117D01*
X139520Y273393D01*
Y271607D01*
X139982Y269883D01*
X140875Y268337D01*
X142137Y267075D01*
X143683Y266182D01*
X145407Y265720D01*
X147193D01*
X148917Y266182D01*
X150463Y267075D01*
X151725Y268337D01*
X152618Y269883D01*
X153080Y271607D01*
Y273393D01*
X152618Y275117D01*
X151725Y276663D01*
X150463Y277925D01*
X148917Y278818D01*
X147193Y279280D01*
D02*
G37*
G36*
X159893Y266580D02*
X158107D01*
X156383Y266118D01*
X154837Y265225D01*
X153575Y263963D01*
X152682Y262417D01*
X152220Y260693D01*
Y258907D01*
X152682Y257183D01*
X153575Y255637D01*
X154837Y254375D01*
X156383Y253482D01*
X158107Y253020D01*
X159893D01*
X161617Y253482D01*
X163163Y254375D01*
X164425Y255637D01*
X165318Y257183D01*
X165780Y258907D01*
Y260693D01*
X165318Y262417D01*
X164425Y263963D01*
X163163Y265225D01*
X161617Y266118D01*
X159893Y266580D01*
D02*
G37*
G36*
X101393Y213980D02*
X99607D01*
X97883Y213518D01*
X96337Y212625D01*
X95075Y211363D01*
X94182Y209817D01*
X93720Y208093D01*
Y206307D01*
X94182Y204583D01*
X95075Y203037D01*
X96337Y201775D01*
X97883Y200882D01*
X99607Y200420D01*
X101393D01*
X103117Y200882D01*
X104663Y201775D01*
X105925Y203037D01*
X106818Y204583D01*
X107280Y206307D01*
Y208093D01*
X106818Y209817D01*
X105925Y211363D01*
X104663Y212625D01*
X103117Y213518D01*
X101393Y213980D01*
D02*
G37*
G36*
X114093Y201280D02*
X112307D01*
X110583Y200818D01*
X109037Y199925D01*
X107775Y198663D01*
X106882Y197117D01*
X106420Y195393D01*
Y193607D01*
X106882Y191883D01*
X107775Y190337D01*
X109037Y189075D01*
X110583Y188182D01*
X112307Y187720D01*
X114093D01*
X115817Y188182D01*
X117363Y189075D01*
X118625Y190337D01*
X119518Y191883D01*
X119980Y193607D01*
Y195393D01*
X119518Y197117D01*
X118625Y198663D01*
X117363Y199925D01*
X115817Y200818D01*
X114093Y201280D01*
D02*
G37*
G36*
X147193Y169280D02*
X145407D01*
X143683Y168818D01*
X142137Y167925D01*
X140875Y166663D01*
X139982Y165117D01*
X139520Y163393D01*
Y161607D01*
X139982Y159883D01*
X140875Y158337D01*
X142137Y157075D01*
X143683Y156182D01*
X145407Y155720D01*
X147193D01*
X148917Y156182D01*
X150463Y157075D01*
X151725Y158337D01*
X152618Y159883D01*
X153080Y161607D01*
Y163393D01*
X152618Y165117D01*
X151725Y166663D01*
X150463Y167925D01*
X148917Y168818D01*
X147193Y169280D01*
D02*
G37*
G36*
X101393Y103980D02*
X99607D01*
X97883Y103518D01*
X96337Y102625D01*
X95075Y101363D01*
X94182Y99817D01*
X93720Y98093D01*
Y96307D01*
X94182Y94583D01*
X95075Y93037D01*
X96337Y91775D01*
X97883Y90882D01*
X99607Y90420D01*
X101393D01*
X103117Y90882D01*
X104663Y91775D01*
X105925Y93037D01*
X106818Y94583D01*
X107280Y96307D01*
Y98093D01*
X106818Y99817D01*
X105925Y101363D01*
X104663Y102625D01*
X103117Y103518D01*
X101393Y103980D01*
D02*
G37*
G36*
X114093Y91280D02*
X112307D01*
X110583Y90818D01*
X109037Y89925D01*
X107775Y88663D01*
X106882Y87117D01*
X106420Y85393D01*
Y83607D01*
X106882Y81883D01*
X107775Y80337D01*
X109037Y79075D01*
X110583Y78182D01*
X112307Y77720D01*
X114093D01*
X115817Y78182D01*
X117363Y79075D01*
X118625Y80337D01*
X119518Y81883D01*
X119980Y83607D01*
Y85393D01*
X119518Y87117D01*
X118625Y88663D01*
X117363Y89925D01*
X115817Y90818D01*
X114093Y91280D01*
D02*
G37*
G36*
X147193Y59280D02*
X145407D01*
X143683Y58818D01*
X142137Y57925D01*
X140875Y56663D01*
X139982Y55117D01*
X139520Y53393D01*
Y51607D01*
X139982Y49883D01*
X140875Y48337D01*
X142137Y47075D01*
X143683Y46182D01*
X145407Y45720D01*
X147193D01*
X148917Y46182D01*
X150463Y47075D01*
X151725Y48337D01*
X152618Y49883D01*
X153080Y51607D01*
Y53393D01*
X152618Y55117D01*
X151725Y56663D01*
X150463Y57925D01*
X148917Y58818D01*
X147193Y59280D01*
D02*
G37*
G36*
X159893Y46580D02*
X158107D01*
X156383Y46118D01*
X154837Y45225D01*
X153575Y43963D01*
X152682Y42417D01*
X152220Y40693D01*
Y38907D01*
X152682Y37183D01*
X153575Y35637D01*
X154837Y34375D01*
X156383Y33482D01*
X158107Y33020D01*
X159893D01*
X161617Y33482D01*
X163163Y34375D01*
X164425Y35637D01*
X165318Y37183D01*
X165780Y38907D01*
Y40693D01*
X165318Y42417D01*
X164425Y43963D01*
X163163Y45225D01*
X161617Y46118D01*
X159893Y46580D01*
D02*
G37*
%LPD*%
D11*
X107650Y27100D02*
X146300D01*
X61850Y71800D02*
X100500D01*
X107650Y137100D02*
X146300D01*
X61850Y181800D02*
X100500D01*
X107650Y247100D02*
X146300D01*
X61850Y291800D02*
X100500D01*
X107650Y357100D02*
X146300D01*
X61850Y401800D02*
X100500D01*
D21*
X334968Y446445D02*
G03*
X320556Y432038I33J-14445D01*
G01*
X320555Y92000D02*
G03*
X335000Y77555I14445J0D01*
G01*
X12000Y530555D02*
G03*
X4445Y523000I0J-7555D01*
G01*
X340554Y452520D02*
G03*
X340523Y451758I9414J-762D01*
G01*
X335010Y446445D02*
G03*
X340528Y451443I-9J5555D01*
G01*
X333000Y4445D02*
G03*
X340533Y11424I0J7555D01*
G01*
Y72491D02*
G03*
X335000Y77555I-5533J-492D01*
G01*
X4445Y12000D02*
G03*
X12000Y4445I7555J0D01*
G01*
X340533Y523583D02*
G03*
X333000Y530555I-7533J-583D01*
G01*
X12000Y4445D02*
X333000D01*
X320555Y92000D02*
Y431903D01*
X12000Y530555D02*
X333000D01*
X340533Y11424D02*
Y72491D01*
X340554Y452520D02*
Y523163D01*
X4445Y12000D02*
Y523000D01*
D22*
X250498Y244179D02*
X252730Y241947D01*
Y220390D02*
Y241947D01*
X238083Y244179D02*
X250498D01*
X214122Y256032D02*
X255525D01*
X267377Y244179D01*
Y243676D02*
Y244179D01*
X274701Y219885D02*
Y236352D01*
X267377Y243676D02*
X274701Y236352D01*
X208788Y220390D02*
Y244179D01*
X184658Y332994D02*
X195785Y344121D01*
X184658Y285496D02*
Y332994D01*
X195785Y344121D02*
X229708D01*
X231935Y346348D01*
X256794D01*
X245311Y333703D02*
X256649D01*
X256794Y333848D01*
X237941Y326333D02*
X245311Y333703D01*
X230920Y326333D02*
X237941D01*
X229708Y325121D02*
X230920Y326333D01*
X245311Y308811D02*
X256757D01*
X241808Y292354D02*
Y305308D01*
X256757Y308811D02*
X256794Y308848D01*
X241808Y305308D02*
X245311Y308811D01*
X232146Y310642D02*
X236982D01*
X246010Y319670D02*
X255116D01*
X229708Y308204D02*
X232146Y310642D01*
X255116Y319670D02*
X256794Y321348D01*
X236982Y310642D02*
X246010Y319670D01*
X217526Y308204D02*
X229958D01*
X238658Y289204D02*
X241808Y292354D01*
X229708Y289204D02*
X238658D01*
X290068Y263398D02*
X296672Y256794D01*
X220726Y263398D02*
X290068D01*
X296672Y240171D02*
Y256794D01*
Y220390D02*
Y240171D01*
X230744Y220385D02*
X230749Y220380D01*
X208793Y220385D02*
X230744D01*
X208788Y220390D02*
X208793Y220385D01*
X229708Y272288D02*
Y289204D01*
X184658Y285496D02*
X214122Y256032D01*
X193802Y290322D02*
X220726Y263398D01*
X193802Y290322D02*
Y313690D01*
X205233Y325121D01*
X229708D01*
D23*
X29150Y137100D02*
Y181800D01*
Y84782D02*
Y137100D01*
X74950D01*
Y135550D02*
Y146871D01*
X29150Y194221D02*
Y247100D01*
X74950D01*
X29150D02*
Y291800D01*
X74950Y250700D02*
Y256871D01*
X29150Y356782D02*
Y401800D01*
Y304500D02*
Y356782D01*
X74632D01*
X29150Y443540D02*
Y464820D01*
Y414500D02*
Y443540D01*
X256794Y371348D02*
X281686D01*
X29150Y414500D02*
X87733D01*
X29150Y401800D02*
Y414500D01*
Y84782D02*
X87518D01*
X29150Y71800D02*
Y84782D01*
Y194221D02*
X87521D01*
X29150Y181800D02*
Y194221D01*
Y304500D02*
X87497D01*
X29150Y291800D02*
Y304500D01*
X35638Y27100D02*
X74950D01*
X29150Y33588D02*
X35638Y27100D01*
X29150Y33588D02*
Y71800D01*
X77879Y369800D02*
X133600D01*
X74950Y366871D02*
X77879Y369800D01*
X74950Y357100D02*
Y366871D01*
X77879Y259800D02*
X133600D01*
X74950Y256871D02*
X77879Y259800D01*
Y149800D02*
X133600D01*
X74950Y146871D02*
X77879Y149800D01*
Y39800D02*
X133600D01*
X74950Y36871D02*
X77879Y39800D01*
X74950Y27100D02*
Y36871D01*
X230754Y192457D02*
Y204375D01*
X229708Y415954D02*
Y441998D01*
Y396954D02*
Y415954D01*
Y396954D02*
X230011Y396651D01*
X256491D01*
X256794Y396348D01*
X227708Y363037D02*
X231041Y359705D01*
X229458Y380037D02*
X229708D01*
X218885Y370523D02*
X219944D01*
X218954Y370332D02*
X226248Y363037D01*
X219944Y370523D02*
X229458Y380037D01*
X218694Y370332D02*
X218885Y370523D01*
X226248Y363037D02*
X227708D01*
X218694Y370332D02*
X218954D01*
X231041Y359705D02*
X255937D01*
X256794Y358848D01*
X230754Y179211D02*
X230759Y179206D01*
X230754Y179211D02*
Y192457D01*
X230749Y204380D02*
X230754Y204375D01*
D24*
X324777Y470203D02*
D03*
D25*
X308902Y508278D02*
D03*
D26*
X293125Y20222D02*
D03*
D27*
X324767Y36099D02*
D03*
D28*
X100500Y71800D02*
D03*
X87800Y84500D02*
D03*
X113200D02*
D03*
X100500Y97200D02*
D03*
X146300Y27100D02*
D03*
X133600Y39800D02*
D03*
X159000D02*
D03*
X146300Y52500D02*
D03*
X100500Y427200D02*
D03*
X113200Y414500D02*
D03*
X87800D02*
D03*
X100500Y401800D02*
D03*
X146300Y382500D02*
D03*
X159000Y369800D02*
D03*
X133600D02*
D03*
X146300Y357100D02*
D03*
X100500Y317200D02*
D03*
X113200Y304500D02*
D03*
X87800D02*
D03*
X100500Y291800D02*
D03*
X146300Y272500D02*
D03*
X159000Y259800D02*
D03*
X133600D02*
D03*
X146300Y247100D02*
D03*
X100500Y207200D02*
D03*
X113200Y194500D02*
D03*
X87800D02*
D03*
X100500Y181800D02*
D03*
X146300Y162500D02*
D03*
X159000Y149800D02*
D03*
X133600D02*
D03*
X146300Y137100D02*
D03*
X325164Y469836D02*
D03*
X292836D02*
D03*
Y502164D02*
D03*
X325164D02*
D03*
X331860Y486000D02*
D03*
X309000Y463140D02*
D03*
X286140Y486000D02*
D03*
X309000Y508860D02*
D03*
X325164Y19835D02*
D03*
X292836D02*
D03*
Y52165D02*
D03*
X325164D02*
D03*
X331860Y36000D02*
D03*
X309000Y13140D02*
D03*
X286140Y36000D02*
D03*
X309000Y58860D02*
D03*
D29*
Y486000D02*
D03*
Y36000D02*
D03*
D30*
X333114Y530371D02*
D03*
X317114Y530356D02*
D03*
X301114D02*
D03*
X285114D02*
D03*
X269114D02*
D03*
X253114D02*
D03*
X237114D02*
D03*
X221114D02*
D03*
X205114D02*
D03*
X189114D02*
D03*
X173114D02*
D03*
X157114D02*
D03*
X141114D02*
D03*
X125114D02*
D03*
X109114D02*
D03*
X93114D02*
D03*
X77114D02*
D03*
X61114D02*
D03*
X45114D02*
D03*
X29114D02*
D03*
X13114D02*
D03*
X4644Y516782D02*
D03*
Y500782D02*
D03*
Y484782D02*
D03*
Y468782D02*
D03*
Y452782D02*
D03*
Y436782D02*
D03*
Y420782D02*
D03*
Y404782D02*
D03*
Y388782D02*
D03*
Y372782D02*
D03*
Y356782D02*
D03*
Y340782D02*
D03*
Y324782D02*
D03*
Y308782D02*
D03*
Y292782D02*
D03*
Y276782D02*
D03*
Y260782D02*
D03*
Y244782D02*
D03*
Y228782D02*
D03*
Y212782D02*
D03*
Y196782D02*
D03*
Y180782D02*
D03*
Y164782D02*
D03*
Y148782D02*
D03*
Y132782D02*
D03*
Y116782D02*
D03*
Y100782D02*
D03*
Y84782D02*
D03*
Y68782D02*
D03*
Y52782D02*
D03*
Y36782D02*
D03*
Y20782D02*
D03*
X8860Y5348D02*
D03*
X24845Y4644D02*
D03*
X40845D02*
D03*
X56845D02*
D03*
X72845D02*
D03*
X88845D02*
D03*
X104845D02*
D03*
X120845D02*
D03*
X136845D02*
D03*
X152845D02*
D03*
X168845D02*
D03*
X184845D02*
D03*
X200845D02*
D03*
X216845D02*
D03*
X232845D02*
D03*
X248845D02*
D03*
X264845D02*
D03*
X280845D02*
D03*
X340335Y63779D02*
D03*
X332650Y77812D02*
D03*
X321004Y88783D02*
D03*
X320356Y104770D02*
D03*
Y120770D02*
D03*
Y136770D02*
D03*
Y152770D02*
D03*
Y168770D02*
D03*
Y184770D02*
D03*
Y200770D02*
D03*
Y216770D02*
D03*
Y232770D02*
D03*
Y248770D02*
D03*
Y264770D02*
D03*
Y280770D02*
D03*
Y296770D02*
D03*
Y312770D02*
D03*
Y328770D02*
D03*
Y344770D02*
D03*
Y360770D02*
D03*
Y376770D02*
D03*
Y392770D02*
D03*
Y408770D02*
D03*
Y424770D02*
D03*
X323615Y440435D02*
D03*
X337961Y447520D02*
D03*
X340355Y463340D02*
D03*
Y511339D02*
D03*
X309000Y251546D02*
D03*
Y222546D02*
D03*
Y106546D02*
D03*
Y135546D02*
D03*
Y164546D02*
D03*
Y193546D02*
D03*
X187198Y351037D02*
D03*
Y380037D02*
D03*
X29250Y483750D02*
D03*
Y512750D02*
D03*
X290250Y396750D02*
D03*
Y367750D02*
D03*
Y338750D02*
D03*
Y309750D02*
D03*
Y193750D02*
D03*
Y164750D02*
D03*
Y135750D02*
D03*
X261250Y512750D02*
D03*
Y483750D02*
D03*
X232250Y512750D02*
D03*
Y483750D02*
D03*
Y454750D02*
D03*
X203250Y512750D02*
D03*
Y483750D02*
D03*
Y454750D02*
D03*
Y425750D02*
D03*
Y309750D02*
D03*
X174250Y512750D02*
D03*
Y483750D02*
D03*
Y454750D02*
D03*
Y425750D02*
D03*
Y396750D02*
D03*
X145250Y512750D02*
D03*
Y483750D02*
D03*
Y454750D02*
D03*
Y367750D02*
D03*
Y193750D02*
D03*
X116250Y512750D02*
D03*
Y483750D02*
D03*
Y454750D02*
D03*
Y425750D02*
D03*
Y338750D02*
D03*
Y280750D02*
D03*
Y222750D02*
D03*
Y164750D02*
D03*
Y106750D02*
D03*
Y48750D02*
D03*
X87250Y512750D02*
D03*
Y483750D02*
D03*
Y454750D02*
D03*
Y425750D02*
D03*
Y338750D02*
D03*
Y280750D02*
D03*
Y251750D02*
D03*
Y222750D02*
D03*
Y164750D02*
D03*
Y135750D02*
D03*
Y106750D02*
D03*
Y48750D02*
D03*
X58250Y512750D02*
D03*
Y483750D02*
D03*
Y425750D02*
D03*
Y367750D02*
D03*
Y338750D02*
D03*
Y280750D02*
D03*
Y222750D02*
D03*
Y164750D02*
D03*
Y106750D02*
D03*
Y48750D02*
D03*
X238083Y244179D02*
D03*
X208788D02*
D03*
X200406Y256032D02*
D03*
X281178Y253238D02*
D03*
X254353Y121546D02*
D03*
Y106546D02*
D03*
X239353D02*
D03*
Y121546D02*
D03*
X246853Y114046D02*
D03*
X217526Y334621D02*
D03*
X210058Y316738D02*
D03*
X29150Y464820D02*
D03*
X281686Y371348D02*
D03*
X197797Y128706D02*
D03*
Y108831D02*
D03*
X225878Y82042D02*
D03*
X246853D02*
D03*
X263906D02*
D03*
X279973Y102937D02*
D03*
X288371Y113768D02*
D03*
X229708Y441998D02*
D03*
X263768Y163206D02*
D03*
X230754Y192457D02*
D03*
X218694Y370332D02*
D03*
X217526Y308204D02*
D03*
X229708Y272288D02*
D03*
D31*
X274696Y163196D02*
D03*
Y179196D02*
D03*
X208788Y204390D02*
D03*
Y220390D02*
D03*
X252725Y179206D02*
D03*
Y163206D02*
D03*
X230759D02*
D03*
Y179206D02*
D03*
X252730Y204390D02*
D03*
Y220390D02*
D03*
X230749Y220380D02*
D03*
Y204380D02*
D03*
X274701Y220390D02*
D03*
Y204390D02*
D03*
X296672Y220390D02*
D03*
Y204390D02*
D03*
D32*
Y244179D02*
D03*
X208788D02*
D03*
X267377D02*
D03*
X238083D02*
D03*
X61850Y443540D02*
D03*
X29150D02*
D03*
X162560D02*
D03*
D33*
X61850Y71800D02*
D03*
X107650Y137100D02*
D03*
X61850Y401800D02*
D03*
Y181800D02*
D03*
X107650Y357100D02*
D03*
Y247100D02*
D03*
X61850Y291800D02*
D03*
X107650Y27100D02*
D03*
D34*
X29150Y71800D02*
D03*
X74950Y137100D02*
D03*
X29150Y401800D02*
D03*
Y181800D02*
D03*
X74950Y357100D02*
D03*
Y247100D02*
D03*
X29150Y291800D02*
D03*
X74950Y27100D02*
D03*
D35*
X229708Y396954D02*
D03*
X204708Y406454D02*
D03*
X229708Y415954D02*
D03*
X229708Y361037D02*
D03*
X204708Y370537D02*
D03*
X229708Y380037D02*
D03*
Y325121D02*
D03*
X204708Y334621D02*
D03*
X229708Y344121D02*
D03*
Y289204D02*
D03*
X204708Y298704D02*
D03*
X229708Y308204D02*
D03*
D36*
X246853Y114046D02*
D03*
D37*
X259353Y133070D02*
D03*
X254353D02*
D03*
X249353D02*
D03*
X244353D02*
D03*
X239353D02*
D03*
X234353D02*
D03*
Y95022D02*
D03*
X239353D02*
D03*
X244353D02*
D03*
X249353D02*
D03*
X254353D02*
D03*
X259353D02*
D03*
D38*
X227829Y126546D02*
D03*
Y121546D02*
D03*
Y116546D02*
D03*
Y111546D02*
D03*
Y106546D02*
D03*
Y101546D02*
D03*
X265877D02*
D03*
Y106546D02*
D03*
Y111546D02*
D03*
Y116546D02*
D03*
Y121546D02*
D03*
Y126546D02*
D03*
D39*
X256794Y308848D02*
D03*
Y321348D02*
D03*
Y333848D02*
D03*
Y346348D02*
D03*
Y396348D02*
D03*
Y383848D02*
D03*
Y358848D02*
D03*
Y371348D02*
D03*
D40*
X285794Y283348D02*
D03*
Y421848D02*
D03*
D41*
X170434Y288036D02*
Y377666D01*
X146300Y401800D02*
X170434Y377666D01*
X146300Y401800D02*
Y426470D01*
X129230Y443540D02*
X146300Y426470D01*
X61850Y443540D02*
X129230D01*
X198665Y108831D02*
X200950Y106546D01*
X197797Y108831D02*
X198665D01*
X200950Y106546D02*
X227829D01*
X209957Y116546D02*
X227829D01*
X197797Y128706D02*
X209957Y116546D01*
X279105Y102937D02*
X279973D01*
X275496Y106546D02*
X279105Y102937D01*
X265877Y106546D02*
X275496D01*
X287504Y113768D02*
X288371D01*
X284726Y116546D02*
X287504Y113768D01*
X265877Y116546D02*
X284726D01*
X239353Y80095D02*
Y95022D01*
X194818Y72898D02*
X232156D01*
X239353Y80095D01*
X225878Y82042D02*
X226032Y81888D01*
X230614D01*
X234353Y85628D01*
Y95022D01*
X263906Y82042D02*
Y82254D01*
X259353Y86807D02*
X263906Y82254D01*
X259353Y86807D02*
Y95022D01*
X246853Y82042D02*
Y82909D01*
X249353Y85409D01*
Y95022D01*
X244353Y85409D02*
X246853Y82909D01*
X244353Y85409D02*
Y95022D01*
X191516Y146558D02*
Y266954D01*
X216528Y121546D02*
X227829D01*
X191516Y146558D02*
X216528Y121546D01*
X180342Y109218D02*
Y256284D01*
X188014Y101546D02*
X227829D01*
X180342Y109218D02*
X188014Y101546D01*
X175768Y91948D02*
Y174180D01*
Y91948D02*
X194818Y72898D01*
X169164Y83566D02*
Y163322D01*
X187960Y64770D02*
X241300D01*
X169164Y83566D02*
X187960Y64770D01*
X183388Y58166D02*
X252984D01*
X146300Y95254D02*
Y137100D01*
Y95254D02*
X183388Y58166D01*
X100500Y71800D02*
X157054D01*
X178308Y50546D02*
X256032D01*
X157054Y71800D02*
X178308Y50546D01*
X241300Y64770D02*
X254353Y77823D01*
X252984Y58166D02*
X275590Y80772D01*
X256032Y50546D02*
X287782Y82296D01*
X254353Y77823D02*
Y95022D01*
X280376Y111546D02*
X287782Y104140D01*
Y82296D02*
Y104140D01*
X252725Y163206D02*
X263768D01*
X274691Y179201D02*
X274696Y179196D01*
X252730Y179201D02*
X274691D01*
X252725Y179206D02*
X252730Y179201D01*
X259353Y143256D02*
X265957Y149860D01*
X289052D02*
X296672Y157480D01*
X265957Y149860D02*
X289052D01*
X296672Y157480D02*
Y204390D01*
X259353Y133070D02*
Y143256D01*
X254353Y133070D02*
Y161578D01*
X252725Y163206D02*
X254353Y161578D01*
X274701Y195961D02*
Y204390D01*
X271018Y192278D02*
X274701Y195961D01*
X250444Y192278D02*
X271018D01*
X243842Y185676D02*
X250444Y192278D01*
X243842Y153922D02*
Y185676D01*
Y153922D02*
X249353Y148411D01*
Y133070D02*
Y148411D01*
X245792Y204390D02*
X252730D01*
X239268Y197866D02*
X245792Y204390D01*
X239268Y149979D02*
Y197866D01*
Y149979D02*
X243927Y145320D01*
Y145201D02*
Y145320D01*
Y145201D02*
X244353Y144775D01*
Y133070D02*
Y144775D01*
X208788Y166624D02*
Y204390D01*
X234353Y133070D02*
Y141059D01*
X208788Y166624D02*
X234353Y141059D01*
X230759Y152019D02*
Y163206D01*
Y152019D02*
X239353Y143425D01*
X205192Y111546D02*
X227829D01*
X184916Y131822D02*
X205192Y111546D01*
X184916Y131822D02*
Y262882D01*
X146300Y203648D02*
Y247100D01*
Y203648D02*
X175768Y174180D01*
X170434Y288036D02*
X191516Y266954D01*
X100500Y401800D02*
X146300D01*
X144826Y291800D02*
X180342Y256284D01*
X146300Y301498D02*
X184916Y262882D01*
X146300Y301498D02*
Y357100D01*
X100500Y291800D02*
X144826D01*
X100500Y181800D02*
X150686D01*
X169164Y163322D01*
X275590Y80772D02*
Y97536D01*
X265877Y101546D02*
X271580D01*
X275590Y97536D01*
X146300Y27100D02*
X244778D01*
X296786Y79108D01*
Y114808D01*
X265877Y111546D02*
X280376D01*
X290048Y121546D02*
X296786Y114808D01*
X265877Y121546D02*
X290048D01*
X239353Y133070D02*
Y143425D01*
M02*
