M48
;Layer_Color=9474304
;FILE_FORMAT=4:2
METRIC,TZ
;TYPE=PLATED
T01F00S00C0.30
T02F00S00C0.50
T03F00S00C0.70
T04F00S00C3.20
%
T01
X89Y53
X248Y46
X408
X568
X728
X888
X1048
X1208
X1368
X1528
X1688
X1848
X2008
X2168
X2328
X2488
X2648
X2808
X2639Y820
X2469
X2259
X2394Y1065
X2544
Y1215
X2394
X2469Y1140
X2800Y1029
X2638Y1632
X2308Y1925
X2381Y2442
X2297Y2723
X2004Y2560
X2812Y2532
X2167Y1357
X1978Y1287
Y1088
X1463Y798
Y508
X1173
X883
X593
X46Y528
Y688
Y848
Y1008
Y1168
Y1328
Y1488
Y1648
Y1808
Y1968
Y2128
Y2288
Y2448
Y2608
Y2768
Y2928
X883Y2828
X1173
Y2248
X883
X593
Y1668
X883
X1173
X1463
X1173Y1088
X883
Y1378
X593Y1088
X46Y368
Y208
X2968Y46
X3128
X3288
X3383Y71
X3403Y158
Y318
Y478
Y638
X3326Y778
X3210Y888
X3204Y1048
Y1208
Y1368
Y1528
Y1688
Y1848
Y2008
Y2168
Y2328
Y2488
Y2648
Y2808
Y2968
X2913Y1378
X2884Y1138
X2913Y3118
Y3408
Y3698
Y3988
X3204Y3928
Y3768
Y3608
Y3448
Y3288
Y3128
Y4088
Y4248
X3236Y4404
X3203Y4568
X3404Y4633
X3380Y4475
X2913Y4568
X3011Y5304
X3171
X3331Y5304
X3404Y5113
X2851Y5304
X2691
X2531
X2371
X2211
X2051
X1891
X1731
X1571
X1411
X1251
X1091
X931
X771
X611
X451
X291
X131
X46Y5168
Y5008
Y4848
Y4688
Y4528
Y4368
Y4208
Y4048
Y3888
Y3728
Y3568
Y3408
Y3248
Y3088
X593Y3408
X883
X1173
Y3118
X2101Y3167
X2175Y3346
X2187Y3703
X2817Y3713
X2297Y4420
X2333Y4568
Y4858
X2623
Y5148
X2333
X2043
Y4858
Y4568
Y4278
X1753
Y4568
Y4858
Y5148
X1463
Y4858
Y4568
X1173
Y4858
Y5148
X883
Y4858
Y4568
Y4278
X1173
X593
Y4568
Y4858
Y5148
X291Y4648
X593Y3698
X1753Y3988
T02
X905Y845
X1105
X1363Y398
X1563
Y1498
X1363
X1105Y1945
X905
Y3045
X1105
X1363Y2598
X1563
Y3698
X1363
X1105Y4145
X905
T03
X1005Y745
X1463Y298
Y1398
X1005Y1845
Y2945
X1463Y2498
X2861Y490
X2928Y328
X3090Y261
X3252Y328
X3319Y490
X3252Y652
X3090Y719
X2928Y652
Y4828
X3090Y4761
X3252Y4828
X3319Y4990
X3252Y5152
X3090Y5219
X2928Y5152
X2861Y4990
X1463Y3598
X1005Y4045
T04
X3090Y490
Y4990
M30
