G04*
G04 #@! TF.GenerationSoftware,Altium Limited,Altium Designer,25.3.2 (17)*
G04*
G04 Layer_Color=65535*
%FSLAX44Y44*%
%MOMM*%
G71*
G04*
G04 #@! TF.SameCoordinates,CF072A1D-2444-4887-8E58-701309957870*
G04*
G04*
G04 #@! TF.FilePolarity,Positive*
G04*
G01*
G75*
%ADD10C,0.2540*%
%ADD11C,0.4000*%
%ADD12C,0.1500*%
G36*
X235370Y336120D02*
X235522D01*
Y335512D01*
X235675D01*
Y334904D01*
X235827D01*
Y334295D01*
X235979D01*
Y333839D01*
X235827D01*
Y333687D01*
X235370D01*
Y333535D01*
X235066D01*
Y333383D01*
X234914D01*
Y333231D01*
X234762D01*
Y333079D01*
X234458D01*
Y332774D01*
X234306D01*
Y332622D01*
X234154D01*
Y332470D01*
X234002D01*
Y332166D01*
X233849D01*
Y331558D01*
X233697D01*
Y329733D01*
X233849D01*
Y329124D01*
X234002D01*
Y328820D01*
X234154D01*
Y328668D01*
X234306D01*
Y328516D01*
X234458D01*
Y328364D01*
X234610D01*
Y328212D01*
X235218D01*
Y328060D01*
X235522D01*
Y328212D01*
X235979D01*
Y328364D01*
X236283D01*
Y328516D01*
X236435D01*
Y328668D01*
X236587D01*
Y328820D01*
X236739D01*
Y328972D01*
X236891D01*
Y329124D01*
X237043D01*
Y329428D01*
X237195D01*
Y329733D01*
X237348D01*
Y330037D01*
X237500D01*
Y330493D01*
X237652D01*
Y330949D01*
X237804D01*
Y331254D01*
X237956D01*
Y331710D01*
X238108D01*
Y332166D01*
X238260D01*
Y332622D01*
X238412D01*
Y332926D01*
X238564D01*
Y333231D01*
X238716D01*
Y333535D01*
X238869D01*
Y333839D01*
X239021D01*
Y334143D01*
X239173D01*
Y334295D01*
X239325D01*
Y334447D01*
X239477D01*
Y334752D01*
X239629D01*
Y334904D01*
X239781D01*
Y335056D01*
X239933D01*
Y335208D01*
X240085D01*
Y335360D01*
X240389D01*
Y335512D01*
X240542D01*
Y335664D01*
X240846D01*
Y335816D01*
X241150D01*
Y335968D01*
X241454D01*
Y336120D01*
X242215D01*
Y336273D01*
X243431D01*
Y336120D01*
X244192D01*
Y335968D01*
X244496D01*
Y335816D01*
X244800D01*
Y335664D01*
X245104D01*
Y335512D01*
X245257D01*
Y335360D01*
X245561D01*
Y335208D01*
X245713D01*
Y335056D01*
X245865D01*
Y334904D01*
X246017D01*
Y334752D01*
X246169D01*
Y334447D01*
X246321D01*
Y334295D01*
X246473D01*
Y333991D01*
X246625D01*
Y333839D01*
X246777D01*
Y333535D01*
X246929D01*
Y333079D01*
X247082D01*
Y332622D01*
X247234D01*
Y331862D01*
X247386D01*
Y329885D01*
X247234D01*
Y328972D01*
X247082D01*
Y328516D01*
X246929D01*
Y328212D01*
X246777D01*
Y327907D01*
X246625D01*
Y327603D01*
X246473D01*
Y327299D01*
X246321D01*
Y327147D01*
X246169D01*
Y326995D01*
X246017D01*
Y326843D01*
X245865D01*
Y326691D01*
X245713D01*
Y326539D01*
X245561D01*
Y326386D01*
X245409D01*
Y326234D01*
X245257D01*
Y326082D01*
X244952D01*
Y325930D01*
X244648D01*
Y325778D01*
X244496D01*
Y325626D01*
X244040D01*
Y325474D01*
X243736D01*
Y325322D01*
X243127D01*
Y325626D01*
X242975D01*
Y326234D01*
X242823D01*
Y326691D01*
X242671D01*
Y327299D01*
X242519D01*
Y327907D01*
X242367D01*
Y328212D01*
X242519D01*
Y328364D01*
X242823D01*
Y328516D01*
X243127D01*
Y328668D01*
X243431D01*
Y328820D01*
X243584D01*
Y328972D01*
X243736D01*
Y329124D01*
X243888D01*
Y329276D01*
X244040D01*
Y329428D01*
X244192D01*
Y329885D01*
X244344D01*
Y330645D01*
X244496D01*
Y331101D01*
X244344D01*
Y332014D01*
X244192D01*
Y332318D01*
X244040D01*
Y332622D01*
X243888D01*
Y332774D01*
X243736D01*
Y332926D01*
X243431D01*
Y333079D01*
X242367D01*
Y332926D01*
X242062D01*
Y332774D01*
X241910D01*
Y332622D01*
X241758D01*
Y332470D01*
X241606D01*
Y332318D01*
X241454D01*
Y332014D01*
X241302D01*
Y331710D01*
X241150D01*
Y331406D01*
X240998D01*
Y330949D01*
X240846D01*
Y330645D01*
X240694D01*
Y330189D01*
X240542D01*
Y329733D01*
X240389D01*
Y329580D01*
Y329276D01*
X240237D01*
Y328820D01*
X240085D01*
Y328364D01*
X239933D01*
Y328060D01*
X239781D01*
Y327755D01*
X239629D01*
Y327451D01*
X239477D01*
Y327147D01*
X239325D01*
Y326995D01*
X239173D01*
Y326691D01*
X239021D01*
Y326539D01*
X238869D01*
Y326386D01*
X238716D01*
Y326234D01*
X238564D01*
Y326082D01*
X238412D01*
Y325930D01*
X238260D01*
Y325778D01*
X237956D01*
Y325626D01*
X237804D01*
Y325474D01*
X237500D01*
Y325322D01*
X237043D01*
Y325170D01*
X236435D01*
Y325018D01*
X234458D01*
Y325170D01*
X233849D01*
Y325322D01*
X233545D01*
Y325474D01*
X233241D01*
Y325626D01*
X232937D01*
Y325778D01*
X232785D01*
Y325930D01*
X232633D01*
Y326082D01*
X232481D01*
Y326234D01*
X232328D01*
Y326386D01*
X232176D01*
Y326539D01*
X232024D01*
Y326691D01*
X231872D01*
Y326843D01*
X231720D01*
Y327147D01*
X231568D01*
Y327451D01*
X231416D01*
Y327755D01*
X231264D01*
Y328060D01*
X231112D01*
Y328516D01*
X230960D01*
Y329124D01*
X230807D01*
Y332166D01*
X230960D01*
Y332926D01*
X231112D01*
Y333231D01*
X231264D01*
Y333687D01*
X231416D01*
Y333991D01*
X231568D01*
Y334143D01*
X231720D01*
Y334447D01*
X231872D01*
Y334599D01*
X232024D01*
Y334752D01*
X232176D01*
Y335056D01*
X232328D01*
Y335208D01*
X232481D01*
Y335360D01*
X232785D01*
Y335512D01*
X232937D01*
Y335664D01*
X233089D01*
Y335816D01*
X233393D01*
Y335968D01*
X233545D01*
Y336120D01*
X233849D01*
Y336273D01*
X234154D01*
Y336425D01*
X234610D01*
Y336577D01*
X235370D01*
Y336120D01*
D02*
G37*
G36*
X242367Y321367D02*
X241606D01*
Y321215D01*
X240998D01*
Y321063D01*
X241302D01*
Y320911D01*
X241454D01*
Y320607D01*
X241606D01*
Y320455D01*
X241758D01*
Y320303D01*
X241910D01*
Y319998D01*
X242062D01*
Y319694D01*
X242215D01*
Y319390D01*
X242367D01*
Y318934D01*
X242519D01*
Y316196D01*
X242367D01*
Y315740D01*
X242215D01*
Y315284D01*
X242062D01*
Y314979D01*
X241910D01*
Y314827D01*
X241758D01*
Y314523D01*
X241606D01*
Y314371D01*
X241454D01*
Y314219D01*
X241302D01*
Y314067D01*
X241150D01*
Y313915D01*
X240998D01*
Y313763D01*
X240846D01*
Y313610D01*
X240694D01*
Y313458D01*
X240542D01*
Y313306D01*
X240237D01*
Y313154D01*
X239933D01*
Y313002D01*
X239781D01*
Y312850D01*
X239325D01*
Y312698D01*
X238869D01*
Y312546D01*
X238260D01*
Y312394D01*
X235066D01*
Y312546D01*
X234458D01*
Y312698D01*
X234002D01*
Y312850D01*
X233697D01*
Y313002D01*
X233393D01*
Y313154D01*
X233089D01*
Y313306D01*
X232937D01*
Y313458D01*
X232785D01*
Y313610D01*
X232481D01*
Y313763D01*
X232328D01*
Y313915D01*
X232176D01*
Y314067D01*
X232024D01*
Y314219D01*
X231872D01*
Y314523D01*
X231720D01*
Y314675D01*
X231568D01*
Y314979D01*
X231416D01*
Y315284D01*
X231264D01*
Y315588D01*
X231112D01*
Y316044D01*
X230960D01*
Y316805D01*
X230807D01*
Y318477D01*
X230960D01*
Y319086D01*
X231112D01*
Y319542D01*
X231264D01*
Y319846D01*
X231416D01*
Y320151D01*
X231568D01*
Y320303D01*
X231720D01*
Y320607D01*
X231872D01*
Y320759D01*
X232024D01*
Y320911D01*
X232176D01*
Y321063D01*
X226549D01*
Y321215D01*
X226397D01*
Y321367D01*
X226245D01*
Y323801D01*
X226397D01*
Y323953D01*
X242367D01*
Y321367D01*
D02*
G37*
G36*
X238260Y311481D02*
X238869D01*
Y311329D01*
X239325D01*
Y311177D01*
X239629D01*
Y311025D01*
X239933D01*
Y310873D01*
X240237D01*
Y310721D01*
X240542D01*
Y310569D01*
X240694D01*
Y310417D01*
X240846D01*
Y310264D01*
X240998D01*
Y310112D01*
X241150D01*
Y309960D01*
X241302D01*
Y309808D01*
X241454D01*
Y309656D01*
X241606D01*
Y309504D01*
X241758D01*
Y309200D01*
X241910D01*
Y309048D01*
X242062D01*
Y308743D01*
X242215D01*
Y308287D01*
X242367D01*
Y307831D01*
X242519D01*
Y305093D01*
X242367D01*
Y304637D01*
X242215D01*
Y304333D01*
X242062D01*
Y304029D01*
X241910D01*
Y303724D01*
X241758D01*
Y303572D01*
X241606D01*
Y303268D01*
X241454D01*
Y303116D01*
X241302D01*
Y302964D01*
X240998D01*
Y302812D01*
X241454D01*
Y302660D01*
X242367D01*
Y300074D01*
X231112D01*
Y302660D01*
X231872D01*
Y302812D01*
X232328D01*
Y302964D01*
X232176D01*
Y303116D01*
X232024D01*
Y303268D01*
X231872D01*
Y303420D01*
X231720D01*
Y303724D01*
X231568D01*
Y303876D01*
X231416D01*
Y304181D01*
X231264D01*
Y304485D01*
X231112D01*
Y304941D01*
X230960D01*
Y305550D01*
X230807D01*
Y307223D01*
X230960D01*
Y307983D01*
X231112D01*
Y308439D01*
X231264D01*
Y308743D01*
X231416D01*
Y309048D01*
X231568D01*
Y309352D01*
X231720D01*
Y309504D01*
X231872D01*
Y309808D01*
X232024D01*
Y309960D01*
X232176D01*
Y310112D01*
X232328D01*
Y310264D01*
X232481D01*
Y310417D01*
X232785D01*
Y310569D01*
X232937D01*
Y310721D01*
X233241D01*
Y310873D01*
X233393D01*
Y311025D01*
X233697D01*
Y311177D01*
X234154D01*
Y311329D01*
X234610D01*
Y311481D01*
X235218D01*
Y311633D01*
X238260D01*
Y311481D01*
D02*
G37*
G36*
X237956Y298553D02*
X238716D01*
Y298401D01*
X239173D01*
Y298249D01*
X239477D01*
Y298097D01*
X239781D01*
Y297945D01*
X240085D01*
Y297793D01*
X240237D01*
Y297641D01*
X240542D01*
Y297488D01*
X240694D01*
Y297336D01*
X240846D01*
Y297184D01*
X240998D01*
Y297032D01*
X241150D01*
Y296880D01*
X241302D01*
Y296728D01*
X241454D01*
Y296576D01*
X241606D01*
Y296272D01*
X241758D01*
Y295968D01*
X241910D01*
Y295816D01*
X242062D01*
Y295359D01*
X242215D01*
Y295055D01*
X242367D01*
Y294447D01*
X242519D01*
Y291405D01*
X242367D01*
Y290796D01*
X242215D01*
Y290340D01*
X242062D01*
Y290036D01*
X241910D01*
Y289732D01*
X241758D01*
Y289580D01*
X241606D01*
Y289275D01*
X241454D01*
Y289123D01*
X241302D01*
Y288971D01*
X241150D01*
Y288819D01*
X240998D01*
Y288667D01*
X240846D01*
Y288515D01*
X240542D01*
Y288363D01*
X240389D01*
Y288211D01*
X240085D01*
Y288059D01*
X239781D01*
Y287907D01*
X239477D01*
Y287754D01*
X239021D01*
Y287907D01*
X238869D01*
Y288363D01*
X238716D01*
Y288819D01*
X238564D01*
Y289428D01*
X238412D01*
Y290188D01*
X238564D01*
Y290340D01*
X238716D01*
Y290492D01*
X239021D01*
Y290644D01*
X239173D01*
Y290796D01*
X239325D01*
Y290949D01*
X239477D01*
Y291253D01*
X239629D01*
Y291557D01*
X239781D01*
Y292013D01*
X239933D01*
Y293534D01*
X239781D01*
Y293990D01*
X239629D01*
Y294294D01*
X239477D01*
Y294599D01*
X239325D01*
Y294751D01*
X239173D01*
Y294903D01*
X239021D01*
Y295055D01*
X238869D01*
Y295207D01*
X238564D01*
Y295359D01*
X238260D01*
Y295511D01*
X237804D01*
Y295663D01*
X236891D01*
Y295816D01*
X236587D01*
Y295663D01*
X235522D01*
Y295511D01*
X235218D01*
Y295359D01*
X234914D01*
Y295207D01*
X234610D01*
Y295055D01*
X234458D01*
Y294903D01*
X234306D01*
Y294751D01*
X234154D01*
Y294599D01*
X234002D01*
Y294447D01*
X233849D01*
Y294142D01*
X233697D01*
Y293838D01*
X233545D01*
Y291709D01*
X233697D01*
Y291405D01*
X233849D01*
Y291101D01*
X234002D01*
Y290949D01*
X234154D01*
Y290796D01*
X234306D01*
Y290644D01*
X234458D01*
Y290492D01*
X234762D01*
Y290340D01*
X234914D01*
Y290188D01*
X235066D01*
Y290036D01*
X235218D01*
Y289884D01*
X235066D01*
Y289275D01*
X234914D01*
Y288515D01*
X234762D01*
Y287907D01*
X234610D01*
Y287602D01*
X234002D01*
Y287754D01*
X233697D01*
Y287907D01*
X233393D01*
Y288059D01*
X233089D01*
Y288211D01*
X232937D01*
Y288363D01*
X232785D01*
Y288515D01*
X232481D01*
Y288667D01*
X232328D01*
Y288819D01*
X232176D01*
Y288971D01*
X232024D01*
Y289275D01*
X231872D01*
Y289428D01*
X231720D01*
Y289732D01*
X231568D01*
Y289884D01*
X231416D01*
Y290188D01*
X231264D01*
Y290644D01*
X231112D01*
Y291101D01*
X230960D01*
Y291861D01*
X230807D01*
Y293838D01*
X230960D01*
Y294599D01*
X231112D01*
Y295207D01*
X231264D01*
Y295511D01*
X231416D01*
Y295816D01*
X231568D01*
Y296120D01*
X231720D01*
Y296424D01*
X231872D01*
Y296576D01*
X232024D01*
Y296728D01*
X232176D01*
Y297032D01*
X232328D01*
Y297184D01*
X232481D01*
Y297336D01*
X232785D01*
Y297488D01*
X232937D01*
Y297641D01*
X233089D01*
Y297793D01*
X233393D01*
Y297945D01*
X233697D01*
Y298097D01*
X233849D01*
Y298249D01*
X234306D01*
Y298401D01*
X234762D01*
Y298553D01*
X235370D01*
Y298705D01*
X237956D01*
Y298553D01*
D02*
G37*
G36*
X237652Y286994D02*
X238564D01*
Y286842D01*
X239021D01*
Y286690D01*
X239477D01*
Y286538D01*
X239781D01*
Y286386D01*
X239933D01*
Y286234D01*
X240237D01*
Y286081D01*
X240389D01*
Y285929D01*
X240694D01*
Y285777D01*
X240846D01*
Y285625D01*
X240998D01*
Y285473D01*
X241150D01*
Y285321D01*
X241302D01*
Y285169D01*
X241454D01*
Y284865D01*
X241606D01*
Y284713D01*
X241758D01*
Y284408D01*
X241910D01*
Y284256D01*
X242062D01*
Y283800D01*
X242215D01*
Y283496D01*
X242367D01*
Y282887D01*
X242519D01*
Y279998D01*
X242367D01*
Y279389D01*
X242215D01*
Y279085D01*
X242062D01*
Y278781D01*
X241910D01*
Y278477D01*
X241758D01*
Y278325D01*
X241606D01*
Y278020D01*
X241454D01*
Y277868D01*
X241302D01*
Y277716D01*
X241150D01*
Y277564D01*
X240998D01*
Y277412D01*
X240846D01*
Y277260D01*
X240542D01*
Y277108D01*
X240389D01*
Y276956D01*
X240085D01*
Y276804D01*
X239781D01*
Y276652D01*
X239477D01*
Y276500D01*
X239021D01*
Y276347D01*
X238564D01*
Y276195D01*
X237804D01*
Y276043D01*
X235827D01*
Y284104D01*
X235675D01*
Y283952D01*
X235218D01*
Y283800D01*
X234762D01*
Y283648D01*
X234610D01*
Y283496D01*
X234306D01*
Y283344D01*
X234154D01*
Y283192D01*
X234002D01*
Y283040D01*
X233849D01*
Y282735D01*
X233697D01*
Y282431D01*
X233545D01*
Y281975D01*
X233393D01*
Y280758D01*
X233545D01*
Y280150D01*
X233697D01*
Y279846D01*
X233849D01*
Y279541D01*
X234002D01*
Y279389D01*
X234154D01*
Y279237D01*
X234306D01*
Y279085D01*
X234610D01*
Y278933D01*
X234762D01*
Y278172D01*
X234610D01*
Y277716D01*
X234458D01*
Y277260D01*
X234306D01*
Y276804D01*
X234154D01*
Y276500D01*
X234002D01*
Y276347D01*
X233697D01*
Y276500D01*
X233393D01*
Y276652D01*
X233089D01*
Y276804D01*
X232937D01*
Y276956D01*
X232785D01*
Y277108D01*
X232481D01*
Y277260D01*
X232328D01*
Y277412D01*
X232176D01*
Y277716D01*
X232024D01*
Y277868D01*
X231872D01*
Y278020D01*
X231720D01*
Y278325D01*
X231568D01*
Y278477D01*
X231416D01*
Y278781D01*
X231264D01*
Y279237D01*
X231112D01*
Y279694D01*
X230960D01*
Y280454D01*
X230807D01*
Y282279D01*
X230960D01*
Y283192D01*
X231112D01*
Y283648D01*
X231264D01*
Y283952D01*
X231416D01*
Y284256D01*
X231568D01*
Y284561D01*
X231720D01*
Y284865D01*
X231872D01*
Y285017D01*
X232024D01*
Y285169D01*
X232176D01*
Y285321D01*
X232328D01*
Y285473D01*
X232481D01*
Y285625D01*
X232633D01*
Y285777D01*
X232785D01*
Y285929D01*
X232937D01*
Y286081D01*
X233241D01*
Y286234D01*
X233393D01*
Y286386D01*
X233697D01*
Y286538D01*
X234002D01*
Y286690D01*
X234458D01*
Y286842D01*
X234914D01*
Y286994D01*
X235675D01*
Y287146D01*
X237652D01*
Y286994D01*
D02*
G37*
G36*
X284193Y288515D02*
X285257D01*
Y288363D01*
X286018D01*
Y288211D01*
X286626D01*
Y288059D01*
X287234D01*
Y287907D01*
X287691D01*
Y287754D01*
X288147D01*
Y287602D01*
X288603D01*
Y287450D01*
X288908D01*
Y287298D01*
X289364D01*
Y287146D01*
X289668D01*
Y286994D01*
X290124D01*
Y286842D01*
X290429D01*
Y286690D01*
X290733D01*
Y286538D01*
X291037D01*
Y286386D01*
X291341D01*
Y286234D01*
X291645D01*
Y286081D01*
X291797D01*
Y285929D01*
X292101D01*
Y285777D01*
X292406D01*
Y285625D01*
X292710D01*
Y285473D01*
X292862D01*
Y285321D01*
X293166D01*
Y285169D01*
X293318D01*
Y285017D01*
X293622D01*
Y284865D01*
X293775D01*
Y284713D01*
X294079D01*
Y284561D01*
X294231D01*
Y284408D01*
X294535D01*
Y284256D01*
X294687D01*
Y284104D01*
X294839D01*
Y283952D01*
X295143D01*
Y283800D01*
X295296D01*
Y283648D01*
X295448D01*
Y283496D01*
X295752D01*
Y283344D01*
X295904D01*
Y283192D01*
X296056D01*
Y283040D01*
X296208D01*
Y282887D01*
X296512D01*
Y282735D01*
X296664D01*
Y282583D01*
X296816D01*
Y282431D01*
X296968D01*
Y282279D01*
X297121D01*
Y282127D01*
X297273D01*
Y281975D01*
X297425D01*
Y281823D01*
X297577D01*
Y281671D01*
X297729D01*
Y281519D01*
X297881D01*
Y281367D01*
X298033D01*
Y281214D01*
X298185D01*
Y281062D01*
X298337D01*
Y280910D01*
X298489D01*
Y280758D01*
X298642D01*
Y280606D01*
X298794D01*
Y280454D01*
X298946D01*
Y280302D01*
X299098D01*
Y280150D01*
X299250D01*
Y279998D01*
X299402D01*
Y279694D01*
X299554D01*
Y279541D01*
X299706D01*
Y279389D01*
X299858D01*
Y279237D01*
X300010D01*
Y279085D01*
X300163D01*
Y278781D01*
X300315D01*
Y278629D01*
X300467D01*
Y278477D01*
X300619D01*
Y278172D01*
X300771D01*
Y278020D01*
X300923D01*
Y277868D01*
X301075D01*
Y277564D01*
X301227D01*
Y277412D01*
X301379D01*
Y277108D01*
X301531D01*
Y276956D01*
X301684D01*
Y276652D01*
X301836D01*
Y276500D01*
X301988D01*
Y276195D01*
X302140D01*
Y275891D01*
X302292D01*
Y275739D01*
X302444D01*
Y275435D01*
X302596D01*
Y275131D01*
X302748D01*
Y274827D01*
X302900D01*
Y274370D01*
X303052D01*
Y274066D01*
X303204D01*
Y273458D01*
X303356D01*
Y273001D01*
X303509D01*
Y272241D01*
X303661D01*
Y269655D01*
X303509D01*
Y269199D01*
X303356D01*
Y268743D01*
X303204D01*
Y268438D01*
X303052D01*
Y268286D01*
X302900D01*
Y267982D01*
X302748D01*
Y267830D01*
X302596D01*
Y267678D01*
X302444D01*
Y267526D01*
X302140D01*
Y267374D01*
X301836D01*
Y267222D01*
X301531D01*
Y267070D01*
X300771D01*
Y266918D01*
X300315D01*
Y267070D01*
X299554D01*
Y267222D01*
X299250D01*
Y267374D01*
X298794D01*
Y267526D01*
X298489D01*
Y267678D01*
X298337D01*
Y267830D01*
X298033D01*
Y267982D01*
X297881D01*
Y268134D01*
X297577D01*
Y268286D01*
X297425D01*
Y268438D01*
X297273D01*
Y268591D01*
X297121D01*
Y268743D01*
X296968D01*
Y268895D01*
X296816D01*
Y269047D01*
X296664D01*
Y269199D01*
X296512D01*
Y269351D01*
X296360D01*
Y269503D01*
X296208D01*
Y269655D01*
X296056D01*
Y269807D01*
X295904D01*
Y269960D01*
X295752D01*
Y270112D01*
X295600D01*
Y270264D01*
X295448D01*
Y270416D01*
X295296D01*
Y270720D01*
X295143D01*
Y270872D01*
X294991D01*
Y271024D01*
X294839D01*
Y271176D01*
X294687D01*
Y271480D01*
X294535D01*
Y271632D01*
X294383D01*
Y271937D01*
X294231D01*
Y272089D01*
X294079D01*
Y272241D01*
X293927D01*
Y272545D01*
X293775D01*
Y272697D01*
X293622D01*
Y273001D01*
X293470D01*
Y273153D01*
X293318D01*
Y273458D01*
X293166D01*
Y273610D01*
X293014D01*
Y273762D01*
X292862D01*
Y274066D01*
X292710D01*
Y274218D01*
X292558D01*
Y274370D01*
X292406D01*
Y274522D01*
X292254D01*
Y274827D01*
X292101D01*
Y274979D01*
X291949D01*
Y275131D01*
X291797D01*
Y275283D01*
X291645D01*
Y275435D01*
X291493D01*
Y275739D01*
X291341D01*
Y275891D01*
X291189D01*
Y276043D01*
X291037D01*
Y276195D01*
X290885D01*
Y276347D01*
X290733D01*
Y276500D01*
X290581D01*
Y276652D01*
X290429D01*
Y276804D01*
X290276D01*
Y276956D01*
X290124D01*
Y277108D01*
X289972D01*
Y277260D01*
X289820D01*
Y277412D01*
X289668D01*
Y277564D01*
X289516D01*
Y277716D01*
X289364D01*
Y277868D01*
X289212D01*
Y278020D01*
X289060D01*
Y278172D01*
X288908D01*
Y278325D01*
X288755D01*
Y278477D01*
X288603D01*
Y278629D01*
X288299D01*
Y278781D01*
X288147D01*
Y278933D01*
X287995D01*
Y279085D01*
X287843D01*
Y279237D01*
X287691D01*
Y279389D01*
X287387D01*
Y279541D01*
X287234D01*
Y279694D01*
X287082D01*
Y279846D01*
X286930D01*
Y279998D01*
X286626D01*
Y280150D01*
X286474D01*
Y280302D01*
X286322D01*
Y280454D01*
X286018D01*
Y280606D01*
X285866D01*
Y280758D01*
X285562D01*
Y280910D01*
X285409D01*
Y281062D01*
X285105D01*
Y281214D01*
X284953D01*
Y281367D01*
X284649D01*
Y281519D01*
X284497D01*
Y281671D01*
X284193D01*
Y281823D01*
X283888D01*
Y281975D01*
X283736D01*
Y282127D01*
X283432D01*
Y282279D01*
X283128D01*
Y282431D01*
X282824D01*
Y282583D01*
X282520D01*
Y282735D01*
X282215D01*
Y282887D01*
X281911D01*
Y283040D01*
X281607D01*
Y283192D01*
X281303D01*
Y283344D01*
X280999D01*
Y283496D01*
X280542D01*
Y283648D01*
X280238D01*
Y283800D01*
X279782D01*
Y283952D01*
X279326D01*
Y284104D01*
X278869D01*
Y284256D01*
X278413D01*
Y284408D01*
X277805D01*
Y284561D01*
X277196D01*
Y284713D01*
X276436D01*
Y284865D01*
X275219D01*
Y285017D01*
X273850D01*
Y284713D01*
X273698D01*
Y284561D01*
X273546D01*
Y284408D01*
X273394D01*
Y284104D01*
X273242D01*
Y283952D01*
X273090D01*
Y283648D01*
X272938D01*
Y283344D01*
X272786D01*
Y283040D01*
X272633D01*
Y282735D01*
X272481D01*
Y282431D01*
X272329D01*
Y281975D01*
X272177D01*
Y281367D01*
X272025D01*
Y280910D01*
X271873D01*
Y279998D01*
X271721D01*
Y278477D01*
X271569D01*
Y277108D01*
X271721D01*
Y275283D01*
X271873D01*
Y274218D01*
X272025D01*
Y273305D01*
X272177D01*
Y272545D01*
X272329D01*
Y271785D01*
X272481D01*
Y271176D01*
X272633D01*
Y270568D01*
X272786D01*
Y269807D01*
X272938D01*
Y269047D01*
X273090D01*
Y268286D01*
X273242D01*
Y267374D01*
X273394D01*
Y264180D01*
X273242D01*
Y263724D01*
X273090D01*
Y263419D01*
X272938D01*
Y263267D01*
X272786D01*
Y263115D01*
X272633D01*
Y262963D01*
X272481D01*
Y262811D01*
X272329D01*
Y262659D01*
X272025D01*
Y262507D01*
X271417D01*
Y262355D01*
X270200D01*
Y262507D01*
X269440D01*
Y262659D01*
X268983D01*
Y262811D01*
X268679D01*
Y262963D01*
X268375D01*
Y263115D01*
X268071D01*
Y263267D01*
X267766D01*
Y263419D01*
X267614D01*
Y263571D01*
X267310D01*
Y263724D01*
X267158D01*
Y263876D01*
X267006D01*
Y264028D01*
X266854D01*
Y264180D01*
X266702D01*
Y264332D01*
X266550D01*
Y264484D01*
X266398D01*
Y264636D01*
X266245D01*
Y264788D01*
X266093D01*
Y264940D01*
X265941D01*
Y265092D01*
X265789D01*
Y265245D01*
X265637D01*
Y265549D01*
X265485D01*
Y265701D01*
X265333D01*
Y266005D01*
X265181D01*
Y266157D01*
X265029D01*
Y266461D01*
X264877D01*
Y266765D01*
X264725D01*
Y267070D01*
X264573D01*
Y267374D01*
X264420D01*
Y267678D01*
X264268D01*
Y267982D01*
X264116D01*
Y268438D01*
X263964D01*
Y268743D01*
X263812D01*
Y269351D01*
X263660D01*
Y269807D01*
X263508D01*
Y270568D01*
X263356D01*
Y271480D01*
X263204D01*
Y276043D01*
X263356D01*
Y276956D01*
X263508D01*
Y277564D01*
X263660D01*
Y278172D01*
X263812D01*
Y278629D01*
X263964D01*
Y278933D01*
X264116D01*
Y279237D01*
X264268D01*
Y279541D01*
X264420D01*
Y279846D01*
X264573D01*
Y280150D01*
X264725D01*
Y280454D01*
X264877D01*
Y280606D01*
X265029D01*
Y280910D01*
X265181D01*
Y281062D01*
X265333D01*
Y281214D01*
X265485D01*
Y281519D01*
X265637D01*
Y281671D01*
X265789D01*
Y281823D01*
X265941D01*
Y281975D01*
X266093D01*
Y282127D01*
X266245D01*
Y282279D01*
X266398D01*
Y282431D01*
X266550D01*
Y282583D01*
X266854D01*
Y282735D01*
X267006D01*
Y282887D01*
X267158D01*
Y283040D01*
X267462D01*
Y283192D01*
X267614D01*
Y283344D01*
X267918D01*
Y283496D01*
X268071D01*
Y283648D01*
X268375D01*
Y283800D01*
X268679D01*
Y283952D01*
X268983D01*
Y284104D01*
X269135D01*
Y284256D01*
X269440D01*
Y284408D01*
X269744D01*
Y284561D01*
X270048D01*
Y284713D01*
X270352D01*
Y284865D01*
X270656D01*
Y285017D01*
X271112D01*
Y285169D01*
X271417D01*
Y285321D01*
X271721D01*
Y285473D01*
X272025D01*
Y285625D01*
X272329D01*
Y285777D01*
X272786D01*
Y285929D01*
X273090D01*
Y286081D01*
X273394D01*
Y286234D01*
X273850D01*
Y286386D01*
X274154D01*
Y286538D01*
X274611D01*
Y286690D01*
X274915D01*
Y286842D01*
X275371D01*
Y286994D01*
X275675D01*
Y287146D01*
X276132D01*
Y287298D01*
X276588D01*
Y287450D01*
X277044D01*
Y287602D01*
X277348D01*
Y287754D01*
X277805D01*
Y287907D01*
X278109D01*
Y288059D01*
X278717D01*
Y288211D01*
X279174D01*
Y288363D01*
X279782D01*
Y288515D01*
X280695D01*
Y288667D01*
X284193D01*
Y288515D01*
D02*
G37*
G36*
X239325Y272089D02*
X240237D01*
Y271937D01*
X240846D01*
Y271785D01*
X241302D01*
Y271632D01*
X241758D01*
Y271480D01*
X242062D01*
Y271328D01*
X242367D01*
Y271176D01*
X242671D01*
Y271024D01*
X242975D01*
Y270872D01*
X243279D01*
Y270720D01*
X243431D01*
Y270568D01*
X243736D01*
Y270416D01*
X243888D01*
Y270264D01*
X244192D01*
Y270112D01*
X244344D01*
Y269960D01*
X244496D01*
Y269807D01*
X244648D01*
Y269655D01*
X244800D01*
Y269503D01*
X245104D01*
Y269351D01*
X245257D01*
Y269199D01*
X245409D01*
Y269047D01*
X245561D01*
Y268895D01*
X245713D01*
Y268743D01*
X245865D01*
Y268591D01*
X246017D01*
Y268286D01*
X246169D01*
Y268134D01*
X246321D01*
Y267982D01*
X246473D01*
Y267830D01*
X246625D01*
Y267678D01*
X246777D01*
Y267374D01*
X246929D01*
Y267222D01*
X247082D01*
Y266918D01*
X247234D01*
Y266765D01*
X247386D01*
Y266461D01*
X247538D01*
Y266157D01*
X247690D01*
Y265701D01*
X247842D01*
Y265092D01*
X247994D01*
Y263876D01*
X247842D01*
Y263419D01*
X247690D01*
Y263267D01*
X247538D01*
Y263115D01*
X247386D01*
Y262963D01*
X247234D01*
Y262811D01*
X245865D01*
Y262963D01*
X245561D01*
Y263115D01*
X245409D01*
Y263267D01*
X245257D01*
Y263419D01*
X244952D01*
Y263571D01*
X244800D01*
Y263724D01*
X244648D01*
Y263876D01*
X244496D01*
Y264180D01*
X244344D01*
Y264332D01*
X244192D01*
Y264484D01*
X244040D01*
Y264636D01*
X243888D01*
Y264940D01*
X243736D01*
Y265092D01*
X243584D01*
Y265397D01*
X243431D01*
Y265549D01*
X243279D01*
Y265701D01*
X243127D01*
Y266005D01*
X242975D01*
Y266157D01*
X242823D01*
Y266309D01*
X242671D01*
Y266461D01*
X242519D01*
Y266613D01*
X242367D01*
Y266765D01*
X242215D01*
Y267070D01*
X242062D01*
Y267222D01*
X241910D01*
Y267374D01*
X241606D01*
Y267526D01*
X241454D01*
Y267678D01*
X241302D01*
Y267830D01*
X241150D01*
Y267982D01*
X240998D01*
Y268134D01*
X240846D01*
Y268286D01*
X240694D01*
Y268438D01*
X240389D01*
Y268591D01*
X240237D01*
Y268743D01*
X239933D01*
Y268895D01*
X239781D01*
Y269047D01*
X239477D01*
Y269199D01*
X239173D01*
Y269351D01*
X239021D01*
Y269503D01*
X238716D01*
Y269655D01*
X238412D01*
Y269807D01*
X237956D01*
Y269960D01*
X237652D01*
Y270112D01*
X237195D01*
Y270264D01*
X236587D01*
Y270416D01*
X235675D01*
Y270568D01*
X235066D01*
Y270416D01*
X234914D01*
Y270112D01*
X234762D01*
Y269960D01*
X234610D01*
Y269655D01*
X234458D01*
Y269199D01*
X234306D01*
Y268591D01*
X234154D01*
Y266005D01*
X234306D01*
Y265092D01*
X234458D01*
Y264484D01*
X234610D01*
Y263724D01*
X234762D01*
Y262963D01*
X234914D01*
Y261594D01*
X234762D01*
Y261138D01*
X234610D01*
Y260986D01*
X234306D01*
Y260834D01*
X234002D01*
Y260682D01*
X233545D01*
Y260834D01*
X232937D01*
Y260986D01*
X232633D01*
Y261138D01*
X232328D01*
Y261290D01*
X232176D01*
Y261442D01*
X232024D01*
Y261594D01*
X231872D01*
Y261746D01*
X231720D01*
Y261898D01*
X231568D01*
Y262051D01*
X231416D01*
Y262203D01*
X231264D01*
Y262507D01*
X231112D01*
Y262811D01*
X230960D01*
Y263115D01*
X230807D01*
Y263419D01*
X230655D01*
Y264028D01*
X230503D01*
Y264788D01*
X230351D01*
Y266613D01*
X230503D01*
Y267374D01*
X230655D01*
Y267830D01*
X230807D01*
Y268286D01*
X230960D01*
Y268438D01*
X231112D01*
Y268743D01*
X231264D01*
Y268895D01*
X231416D01*
Y269199D01*
X231568D01*
Y269351D01*
X231720D01*
Y269503D01*
X232024D01*
Y269655D01*
X232176D01*
Y269807D01*
X232328D01*
Y269960D01*
X232633D01*
Y270112D01*
X232937D01*
Y270264D01*
X233241D01*
Y270416D01*
X233545D01*
Y270568D01*
X233849D01*
Y270720D01*
X234154D01*
Y270872D01*
X234458D01*
Y271024D01*
X234914D01*
Y271176D01*
X235218D01*
Y271328D01*
X235675D01*
Y271480D01*
X235979D01*
Y271632D01*
X236435D01*
Y271785D01*
X236891D01*
Y271937D01*
X237348D01*
Y272089D01*
X238260D01*
Y272241D01*
X239325D01*
Y272089D01*
D02*
G37*
G36*
X242215Y258704D02*
X242367D01*
Y255967D01*
X231112D01*
Y258857D01*
X242215D01*
Y258704D01*
D02*
G37*
G36*
X246625Y258857D02*
X246929D01*
Y258704D01*
X247082D01*
Y258552D01*
X247234D01*
Y258248D01*
X247386D01*
Y257792D01*
X247538D01*
Y257031D01*
X247386D01*
Y256575D01*
X247234D01*
Y256271D01*
X247082D01*
Y256119D01*
X246929D01*
Y255967D01*
X246625D01*
Y255815D01*
X246321D01*
Y255663D01*
X245561D01*
Y255815D01*
X245104D01*
Y255967D01*
X244952D01*
Y256119D01*
X244648D01*
Y256423D01*
X244496D01*
Y256727D01*
X244344D01*
Y258096D01*
X244496D01*
Y258400D01*
X244648D01*
Y258552D01*
X244800D01*
Y258704D01*
X244952D01*
Y258857D01*
X245104D01*
Y259009D01*
X246625D01*
Y258857D01*
D02*
G37*
G36*
X242367Y251252D02*
X242215D01*
Y251100D01*
X231264D01*
Y251252D01*
X231112D01*
Y253990D01*
X242367D01*
Y251252D01*
D02*
G37*
G36*
X246473Y254142D02*
X246777D01*
Y253990D01*
X246929D01*
Y253838D01*
X247082D01*
Y253685D01*
X247234D01*
Y253533D01*
X247386D01*
Y253077D01*
X247538D01*
Y252164D01*
X247386D01*
Y251708D01*
X247234D01*
Y251556D01*
X247082D01*
Y251404D01*
X246929D01*
Y251252D01*
X246777D01*
Y251100D01*
X246473D01*
Y250948D01*
X245257D01*
Y251100D01*
X244952D01*
Y251252D01*
X244800D01*
Y251404D01*
X244648D01*
Y251556D01*
X244496D01*
Y251708D01*
Y251860D01*
X244344D01*
Y253381D01*
X244496D01*
Y253533D01*
X244648D01*
Y253838D01*
X244800D01*
Y253990D01*
X245104D01*
Y254142D01*
X245257D01*
Y254294D01*
X246473D01*
Y254142D01*
D02*
G37*
G36*
X284345Y270568D02*
X284953D01*
Y270416D01*
X285409D01*
Y270264D01*
X285714D01*
Y270112D01*
X286018D01*
Y269960D01*
X286322D01*
Y269807D01*
X286626D01*
Y269655D01*
X286930D01*
Y269503D01*
X287082D01*
Y269351D01*
X287234D01*
Y269199D01*
X287387D01*
Y269047D01*
X287691D01*
Y268895D01*
X287843D01*
Y268743D01*
X287995D01*
Y268591D01*
X288147D01*
Y268438D01*
X288299D01*
Y268134D01*
X288451D01*
Y267982D01*
X288603D01*
Y267830D01*
X288755D01*
Y267678D01*
X288908D01*
Y267374D01*
X289060D01*
Y267222D01*
X289212D01*
Y266918D01*
X289364D01*
Y266765D01*
X289516D01*
Y266461D01*
X289668D01*
Y266157D01*
X289820D01*
Y265853D01*
X289972D01*
Y265549D01*
X290124D01*
Y265245D01*
X290276D01*
Y264788D01*
X290429D01*
Y264332D01*
X290581D01*
Y263876D01*
X290733D01*
Y263419D01*
X290885D01*
Y262811D01*
X291037D01*
Y262051D01*
X291189D01*
Y260682D01*
X291341D01*
Y258096D01*
X291189D01*
Y256575D01*
X291037D01*
Y255815D01*
X290885D01*
Y255206D01*
X290733D01*
Y254750D01*
X290581D01*
Y254294D01*
X290429D01*
Y253990D01*
X290276D01*
Y253685D01*
X290124D01*
Y253381D01*
X289972D01*
Y253077D01*
X289820D01*
Y252773D01*
X289668D01*
Y252469D01*
X289516D01*
Y252316D01*
X289364D01*
Y252164D01*
X289212D01*
Y251860D01*
X289060D01*
Y251708D01*
X288908D01*
Y251556D01*
X288755D01*
Y251404D01*
X288603D01*
Y251252D01*
X288451D01*
Y251100D01*
X288299D01*
Y250948D01*
X288147D01*
Y250796D01*
X287995D01*
Y250644D01*
X287843D01*
Y250491D01*
X287691D01*
Y250339D01*
X287539D01*
Y250187D01*
X287234D01*
Y250035D01*
X287082D01*
Y249883D01*
X286930D01*
Y249731D01*
X286626D01*
Y249579D01*
X286474D01*
Y249427D01*
X286170D01*
Y249275D01*
X285866D01*
Y249123D01*
X285562D01*
Y248970D01*
X285257D01*
Y248818D01*
X284953D01*
Y248666D01*
X284649D01*
Y248514D01*
X284345D01*
Y248362D01*
X284041D01*
Y248210D01*
X283736D01*
Y248058D01*
X283432D01*
Y247906D01*
X283128D01*
Y247754D01*
X282824D01*
Y247602D01*
X282367D01*
Y247449D01*
X282063D01*
Y247297D01*
X281759D01*
Y247145D01*
X281455D01*
Y246993D01*
X280999D01*
Y246841D01*
X280695D01*
Y246689D01*
X280238D01*
Y246537D01*
X279934D01*
Y246385D01*
X279478D01*
Y246233D01*
X279174D01*
Y246081D01*
X278717D01*
Y245929D01*
X278413D01*
Y245777D01*
X277957D01*
Y245624D01*
X277500D01*
Y245472D01*
X277044D01*
Y245320D01*
X276740D01*
Y245168D01*
X276132D01*
Y245016D01*
X275827D01*
Y244864D01*
X275219D01*
Y244712D01*
X274763D01*
Y244560D01*
X274002D01*
Y244408D01*
X269896D01*
Y244560D01*
X269135D01*
Y244712D01*
X268375D01*
Y244864D01*
X267766D01*
Y245016D01*
X267158D01*
Y245168D01*
X266702D01*
Y245320D01*
X266245D01*
Y245472D01*
X265789D01*
Y245624D01*
X265485D01*
Y245777D01*
X265029D01*
Y245929D01*
X264725D01*
Y246081D01*
X264420D01*
Y246233D01*
X263964D01*
Y246385D01*
X263660D01*
Y246537D01*
X263356D01*
Y246689D01*
X263051D01*
Y246841D01*
X262747D01*
Y246993D01*
X262595D01*
Y247145D01*
X262291D01*
Y247297D01*
X261987D01*
Y247449D01*
X261835D01*
Y247602D01*
X261531D01*
Y247754D01*
X261226D01*
Y247906D01*
X261074D01*
Y248058D01*
X260770D01*
Y248210D01*
X260618D01*
Y248362D01*
X260314D01*
Y248514D01*
X260162D01*
Y248666D01*
X259858D01*
Y248818D01*
X259705D01*
Y248970D01*
X259553D01*
Y249123D01*
X259249D01*
Y249275D01*
X259097D01*
Y249427D01*
X258945D01*
Y249579D01*
X258793D01*
Y249731D01*
X258489D01*
Y249883D01*
X258337D01*
Y250035D01*
X258185D01*
Y250187D01*
X258032D01*
Y250339D01*
X257880D01*
Y250491D01*
X257728D01*
Y250644D01*
X257424D01*
Y250796D01*
X257272D01*
Y250948D01*
X257120D01*
Y251100D01*
X256968D01*
Y251252D01*
X256816D01*
Y251404D01*
X256664D01*
Y251556D01*
X256511D01*
Y251708D01*
X256359D01*
Y251860D01*
X256207D01*
Y252012D01*
X256055D01*
Y252164D01*
X255903D01*
Y252316D01*
X255751D01*
Y252469D01*
X255599D01*
Y252621D01*
X255447D01*
Y252925D01*
X255295D01*
Y253077D01*
X255143D01*
Y253229D01*
X254991D01*
Y253381D01*
X254838D01*
Y253533D01*
X254686D01*
Y253685D01*
X254534D01*
Y253838D01*
X254382D01*
Y254142D01*
X254230D01*
Y254294D01*
X254078D01*
Y254446D01*
X253926D01*
Y254750D01*
X253774D01*
Y254902D01*
X253622D01*
Y255054D01*
X253470D01*
Y255358D01*
X253318D01*
Y255511D01*
X253165D01*
Y255815D01*
X253013D01*
Y255967D01*
X252861D01*
Y256271D01*
X252709D01*
Y256423D01*
X252557D01*
Y256727D01*
X252405D01*
Y256879D01*
X252253D01*
Y257183D01*
X252101D01*
Y257488D01*
X251949D01*
Y257792D01*
X251797D01*
Y258096D01*
X251644D01*
Y258400D01*
X251492D01*
Y258857D01*
X251340D01*
Y259161D01*
X251188D01*
Y259769D01*
X251036D01*
Y260378D01*
X250884D01*
Y263267D01*
Y263419D01*
Y263724D01*
X251036D01*
Y264180D01*
X251188D01*
Y264484D01*
X251340D01*
Y264788D01*
X251492D01*
Y264940D01*
X251644D01*
Y265092D01*
X251797D01*
Y265245D01*
X251949D01*
Y265397D01*
X252101D01*
Y265549D01*
X252253D01*
Y265701D01*
X252557D01*
Y265853D01*
X253013D01*
Y266005D01*
X254838D01*
Y265853D01*
X255295D01*
Y265701D01*
X255599D01*
Y265549D01*
X255903D01*
Y265397D01*
X256207D01*
Y265245D01*
X256359D01*
Y265092D01*
X256664D01*
Y264940D01*
X256816D01*
Y264788D01*
X256968D01*
Y264636D01*
X257120D01*
Y264484D01*
X257424D01*
Y264332D01*
X257576D01*
Y264180D01*
X257728D01*
Y264028D01*
X257880D01*
Y263876D01*
X258032D01*
Y263724D01*
X258185D01*
Y263571D01*
X258337D01*
Y263419D01*
X258489D01*
Y263115D01*
X258641D01*
Y262963D01*
X258793D01*
Y262811D01*
X258945D01*
Y262659D01*
X259097D01*
Y262507D01*
X259249D01*
Y262203D01*
X259401D01*
Y262051D01*
X259553D01*
Y261898D01*
X259705D01*
Y261746D01*
X259858D01*
Y261442D01*
X260010D01*
Y261290D01*
X260162D01*
Y261138D01*
X260314D01*
Y260834D01*
X260466D01*
Y260682D01*
X260618D01*
Y260378D01*
X260770D01*
Y260225D01*
X260922D01*
Y259921D01*
X261074D01*
Y259769D01*
X261226D01*
Y259617D01*
X261378D01*
Y259313D01*
X261531D01*
Y259161D01*
X261683D01*
Y259009D01*
X261835D01*
Y258704D01*
X261987D01*
Y258552D01*
X262139D01*
Y258400D01*
X262291D01*
Y258096D01*
X262443D01*
Y257944D01*
X262595D01*
Y257792D01*
X262747D01*
Y257640D01*
X262899D01*
Y257488D01*
X263051D01*
Y257336D01*
X263204D01*
Y257031D01*
X263356D01*
Y256879D01*
X263508D01*
Y256727D01*
X263660D01*
Y256575D01*
X263812D01*
Y256423D01*
X263964D01*
Y256271D01*
X264116D01*
Y256119D01*
X264268D01*
Y255967D01*
X264420D01*
Y255815D01*
X264573D01*
Y255663D01*
X264725D01*
Y255511D01*
X264877D01*
Y255358D01*
X265029D01*
Y255206D01*
X265181D01*
Y255054D01*
X265333D01*
Y254902D01*
X265485D01*
Y254750D01*
X265637D01*
Y254598D01*
X265941D01*
Y254446D01*
X266093D01*
Y254294D01*
X266245D01*
Y254142D01*
X266398D01*
Y253990D01*
X266550D01*
Y253838D01*
X266854D01*
Y253685D01*
X267006D01*
Y253533D01*
X267158D01*
Y253381D01*
X267310D01*
Y253229D01*
X267614D01*
Y253077D01*
X267766D01*
Y252925D01*
X267918D01*
Y252773D01*
X268223D01*
Y252621D01*
X268375D01*
Y252469D01*
X268527D01*
Y252316D01*
X268831D01*
Y252164D01*
X268983D01*
Y252012D01*
X269287D01*
Y251860D01*
X269440D01*
Y251708D01*
X269744D01*
Y251556D01*
X270048D01*
Y251404D01*
X270200D01*
Y251252D01*
X270504D01*
Y251100D01*
X270808D01*
Y250948D01*
X270960D01*
Y250796D01*
X271265D01*
Y250644D01*
X271569D01*
Y250491D01*
X271873D01*
Y250339D01*
X272177D01*
Y250187D01*
X272481D01*
Y250035D01*
X272786D01*
Y249883D01*
X273090D01*
Y249731D01*
X273394D01*
Y249579D01*
X273850D01*
Y249427D01*
X274154D01*
Y249275D01*
X274611D01*
Y249123D01*
X275067D01*
Y248970D01*
X275523D01*
Y248818D01*
X275979D01*
Y248666D01*
X276588D01*
Y248514D01*
X277196D01*
Y248362D01*
X278109D01*
Y248210D01*
X279174D01*
Y248058D01*
X280542D01*
Y248210D01*
X280695D01*
Y248362D01*
X280847D01*
Y248666D01*
X280999D01*
Y248818D01*
X281151D01*
Y249123D01*
X281303D01*
Y249275D01*
X281455D01*
Y249579D01*
X281607D01*
Y249883D01*
X281759D01*
Y250187D01*
X281911D01*
Y250644D01*
X282063D01*
Y250948D01*
X282215D01*
Y251404D01*
X282367D01*
Y252012D01*
X282520D01*
Y252773D01*
X282672D01*
Y254142D01*
X282824D01*
Y256423D01*
X282672D01*
Y257944D01*
X282520D01*
Y259009D01*
X282367D01*
Y259921D01*
X282215D01*
Y260682D01*
X282063D01*
Y261442D01*
X281911D01*
Y262051D01*
X281759D01*
Y262659D01*
X281607D01*
Y263419D01*
X281455D01*
Y264180D01*
X281303D01*
Y264940D01*
X281151D01*
Y266005D01*
X280999D01*
Y268591D01*
X281151D01*
Y269199D01*
X281303D01*
Y269503D01*
X281455D01*
Y269807D01*
X281607D01*
Y269960D01*
X281759D01*
Y270112D01*
X281911D01*
Y270264D01*
X282215D01*
Y270416D01*
X282520D01*
Y270568D01*
X282976D01*
Y270720D01*
X284345D01*
Y270568D01*
D02*
G37*
G36*
X242215Y249123D02*
X242367D01*
Y246689D01*
X242215D01*
Y246537D01*
X240998D01*
Y246385D01*
X241150D01*
Y246233D01*
X241302D01*
Y246081D01*
X241454D01*
Y245929D01*
X241606D01*
Y245777D01*
X241758D01*
Y245472D01*
X241910D01*
Y245320D01*
X242062D01*
Y245016D01*
X242215D01*
Y244560D01*
X242367D01*
Y244103D01*
X242519D01*
Y241518D01*
X242367D01*
Y241061D01*
X242215D01*
Y240605D01*
X242062D01*
Y240453D01*
X241910D01*
Y240149D01*
X241758D01*
Y239997D01*
X241606D01*
Y239845D01*
X241454D01*
Y239693D01*
X241302D01*
Y239541D01*
X241150D01*
Y239389D01*
X240846D01*
Y239236D01*
X240694D01*
Y239084D01*
X240237D01*
Y238932D01*
X239781D01*
Y238780D01*
X238869D01*
Y238628D01*
X231264D01*
Y238780D01*
X231112D01*
Y241518D01*
X231264D01*
Y241670D01*
X238564D01*
Y241822D01*
X238869D01*
Y241974D01*
X239173D01*
Y242126D01*
X239325D01*
Y242278D01*
X239477D01*
Y242430D01*
X239629D01*
Y242582D01*
X239781D01*
Y243039D01*
X239933D01*
Y244408D01*
X239781D01*
Y244712D01*
X239629D01*
Y245016D01*
X239477D01*
Y245320D01*
X239325D01*
Y245472D01*
X239173D01*
Y245624D01*
X239021D01*
Y245777D01*
X238716D01*
Y245929D01*
X238412D01*
Y246081D01*
X238108D01*
Y246233D01*
X237348D01*
Y246385D01*
X231112D01*
Y249123D01*
X231264D01*
Y249275D01*
X242215D01*
Y249123D01*
D02*
G37*
G36*
X246929Y240301D02*
X247082D01*
Y227069D01*
X244344D01*
Y227221D01*
X244192D01*
Y232240D01*
X231112D01*
Y235130D01*
X231264D01*
Y235282D01*
X244192D01*
Y240301D01*
X244344D01*
Y240453D01*
X246929D01*
Y240301D01*
D02*
G37*
G36*
X237804Y229655D02*
X238564D01*
Y229502D01*
X239021D01*
Y229350D01*
X239477D01*
Y229198D01*
X239781D01*
Y229046D01*
X240085D01*
Y228894D01*
X240237D01*
Y228742D01*
X240542D01*
Y228590D01*
X240694D01*
Y228438D01*
X240846D01*
Y228286D01*
X240998D01*
Y228134D01*
X241150D01*
Y227981D01*
X241302D01*
Y227829D01*
X241454D01*
Y227677D01*
X241606D01*
Y227373D01*
X241758D01*
Y227069D01*
X241910D01*
Y226917D01*
X242062D01*
Y226460D01*
X242215D01*
Y226156D01*
X242367D01*
Y225548D01*
X242519D01*
Y222658D01*
X242367D01*
Y222050D01*
X242215D01*
Y221746D01*
X242062D01*
Y221441D01*
X241910D01*
Y221137D01*
X241758D01*
Y220985D01*
X241606D01*
Y220681D01*
X241454D01*
Y220529D01*
X241302D01*
Y220377D01*
X241150D01*
Y220225D01*
X240998D01*
Y220072D01*
X240846D01*
Y219920D01*
X240542D01*
Y219768D01*
X240389D01*
Y219616D01*
X240085D01*
Y219464D01*
X239781D01*
Y219312D01*
X239477D01*
Y219160D01*
X239021D01*
Y219008D01*
X238564D01*
Y218856D01*
X237652D01*
Y218704D01*
X235979D01*
Y218856D01*
X235827D01*
Y226765D01*
X235675D01*
Y226613D01*
X235218D01*
Y226460D01*
X234762D01*
Y226308D01*
X234610D01*
Y226156D01*
X234306D01*
Y226004D01*
X234154D01*
Y225852D01*
X234002D01*
Y225700D01*
X233849D01*
Y225396D01*
X233697D01*
Y225092D01*
X233545D01*
Y224635D01*
X233393D01*
Y223419D01*
X233545D01*
Y222810D01*
X233697D01*
Y222506D01*
X233849D01*
Y222202D01*
X234002D01*
Y222050D01*
X234154D01*
Y221898D01*
X234306D01*
Y221746D01*
X234610D01*
Y221593D01*
X234762D01*
Y220833D01*
X234610D01*
Y220377D01*
X234458D01*
Y219920D01*
X234306D01*
Y219464D01*
X234154D01*
Y219160D01*
X234002D01*
Y219008D01*
X233697D01*
Y219160D01*
X233393D01*
Y219312D01*
X233241D01*
Y219464D01*
X232937D01*
Y219616D01*
X232785D01*
Y219768D01*
X232633D01*
Y219920D01*
X232328D01*
Y220072D01*
X232176D01*
Y220377D01*
X232024D01*
Y220529D01*
X231872D01*
Y220681D01*
X231720D01*
Y220985D01*
X231568D01*
Y221137D01*
X231416D01*
Y221441D01*
X231264D01*
Y221898D01*
X231112D01*
Y222354D01*
X230960D01*
Y223114D01*
X230807D01*
Y224940D01*
X230960D01*
Y225852D01*
X231112D01*
Y226308D01*
X231264D01*
Y226613D01*
X231416D01*
Y226917D01*
X231568D01*
Y227221D01*
X231720D01*
Y227525D01*
X231872D01*
Y227677D01*
X232024D01*
Y227829D01*
X232176D01*
Y227981D01*
X232328D01*
Y228286D01*
X232633D01*
Y228438D01*
X232785D01*
Y228590D01*
X232937D01*
Y228742D01*
X233241D01*
Y228894D01*
X233393D01*
Y229046D01*
X233697D01*
Y229198D01*
X234002D01*
Y229350D01*
X234458D01*
Y229502D01*
X234914D01*
Y229655D01*
X235675D01*
Y229807D01*
X237804D01*
Y229655D01*
D02*
G37*
G36*
X237956Y217943D02*
X238564D01*
Y217791D01*
X239021D01*
Y217639D01*
X239477D01*
Y217487D01*
X239781D01*
Y217335D01*
X240085D01*
Y217183D01*
X240237D01*
Y217031D01*
X240542D01*
Y216879D01*
X240694D01*
Y216726D01*
X240846D01*
Y216574D01*
X240998D01*
Y216422D01*
X241150D01*
Y216270D01*
X241302D01*
Y216118D01*
X241454D01*
Y215814D01*
X241606D01*
Y215662D01*
X241758D01*
Y215358D01*
X241910D01*
Y215205D01*
X242062D01*
Y214749D01*
X242215D01*
Y214445D01*
X242367D01*
Y213837D01*
X242519D01*
Y210795D01*
X242367D01*
Y210186D01*
X242215D01*
Y209730D01*
X242062D01*
Y209426D01*
X241910D01*
Y209122D01*
X241758D01*
Y208970D01*
X241606D01*
Y208666D01*
X241454D01*
Y208513D01*
X241302D01*
Y208361D01*
X241150D01*
Y208209D01*
X240998D01*
Y208057D01*
X240846D01*
Y207905D01*
X240542D01*
Y207753D01*
X240389D01*
Y207601D01*
X240085D01*
Y207449D01*
X239781D01*
Y207297D01*
X239477D01*
Y207145D01*
X239021D01*
Y207297D01*
X238869D01*
Y207753D01*
X238716D01*
Y208209D01*
X238564D01*
Y208666D01*
X238412D01*
Y209578D01*
X238564D01*
Y209730D01*
X238716D01*
Y209882D01*
X239021D01*
Y210034D01*
X239173D01*
Y210186D01*
X239325D01*
Y210338D01*
X239477D01*
Y210643D01*
X239629D01*
Y210947D01*
X239781D01*
Y211403D01*
X239933D01*
Y212924D01*
X239781D01*
Y213380D01*
X239629D01*
Y213685D01*
X239477D01*
Y213989D01*
X239325D01*
Y214141D01*
X239173D01*
Y214293D01*
X239021D01*
Y214445D01*
X238869D01*
Y214597D01*
X238564D01*
Y214749D01*
X238260D01*
Y214901D01*
X237804D01*
Y215053D01*
X235675D01*
Y214901D01*
X235218D01*
Y214749D01*
X234914D01*
Y214597D01*
X234610D01*
Y214445D01*
X234458D01*
Y214293D01*
X234306D01*
Y214141D01*
X234154D01*
Y213989D01*
X234002D01*
Y213837D01*
X233849D01*
Y213533D01*
X233697D01*
Y213076D01*
X233545D01*
Y211099D01*
X233697D01*
Y210795D01*
X233849D01*
Y210491D01*
X234002D01*
Y210338D01*
X234154D01*
Y210186D01*
X234306D01*
Y210034D01*
X234458D01*
Y209882D01*
X234610D01*
Y209730D01*
X234914D01*
Y209578D01*
X235066D01*
Y208513D01*
X234914D01*
Y207905D01*
X234762D01*
Y207297D01*
X234610D01*
Y206992D01*
X234002D01*
Y207145D01*
X233697D01*
Y207297D01*
X233393D01*
Y207449D01*
X233089D01*
Y207601D01*
X232937D01*
Y207753D01*
X232785D01*
Y207905D01*
X232481D01*
Y208057D01*
X232328D01*
Y208209D01*
X232176D01*
Y208361D01*
X232024D01*
Y208666D01*
X231872D01*
Y208818D01*
X231720D01*
Y209122D01*
X231568D01*
Y209274D01*
X231416D01*
Y209578D01*
X231264D01*
Y210034D01*
X231112D01*
Y210491D01*
X230960D01*
Y211251D01*
X230807D01*
Y213228D01*
X230960D01*
Y213989D01*
X231112D01*
Y214597D01*
X231264D01*
Y214901D01*
X231416D01*
Y215205D01*
X231568D01*
Y215510D01*
X231720D01*
Y215814D01*
X231872D01*
Y215966D01*
X232024D01*
Y216118D01*
X232176D01*
Y216270D01*
X232328D01*
Y216574D01*
X232633D01*
Y216726D01*
X232785D01*
Y216879D01*
X232937D01*
Y217031D01*
X233089D01*
Y217183D01*
X233393D01*
Y217335D01*
X233697D01*
Y217487D01*
X234002D01*
Y217639D01*
X234306D01*
Y217791D01*
X234762D01*
Y217943D01*
X235522D01*
Y218095D01*
X237956D01*
Y217943D01*
D02*
G37*
G36*
X247234Y205928D02*
X247386D01*
Y203190D01*
X241150D01*
Y203038D01*
X241302D01*
Y202886D01*
X241454D01*
Y202734D01*
X241606D01*
Y202582D01*
X241758D01*
Y202278D01*
X241910D01*
Y202125D01*
X242062D01*
Y201821D01*
X242215D01*
Y201365D01*
X242367D01*
Y200909D01*
X242519D01*
Y198323D01*
X242367D01*
Y197867D01*
X242215D01*
Y197411D01*
X242062D01*
Y197258D01*
X241910D01*
Y196954D01*
X241758D01*
Y196802D01*
X241606D01*
Y196650D01*
X241454D01*
Y196498D01*
X241302D01*
Y196346D01*
X241150D01*
Y196194D01*
X240846D01*
Y196042D01*
X240694D01*
Y195889D01*
X240237D01*
Y195737D01*
X239781D01*
Y195585D01*
X238716D01*
Y195433D01*
X231264D01*
Y195585D01*
X231112D01*
Y198323D01*
X231264D01*
Y198475D01*
X238564D01*
Y198627D01*
X238869D01*
Y198779D01*
X239173D01*
Y198931D01*
X239325D01*
Y199083D01*
X239477D01*
Y199236D01*
X239629D01*
Y199388D01*
X239781D01*
Y199844D01*
X239933D01*
Y201213D01*
X239781D01*
Y201669D01*
X239629D01*
Y201821D01*
X239477D01*
Y202125D01*
X239325D01*
Y202278D01*
X239173D01*
Y202430D01*
X239021D01*
Y202582D01*
X238716D01*
Y202734D01*
X238412D01*
Y202886D01*
X238108D01*
Y203038D01*
X237348D01*
Y203190D01*
X231112D01*
Y205928D01*
X231264D01*
Y206080D01*
X247234D01*
Y205928D01*
D02*
G37*
G36*
X205055Y350818D02*
Y349230D01*
X199497Y346977D01*
X205055Y345819D01*
Y344222D01*
X196750Y345956D01*
Y347545D01*
X202333Y349797D01*
X196750Y350964D01*
Y352552D01*
X205055Y350818D01*
D02*
G37*
G36*
Y340139D02*
Y338227D01*
X196750Y336890D01*
Y338502D01*
X198589Y338778D01*
Y342067D01*
X196750Y343072D01*
Y344822D01*
X205055Y340139D01*
D02*
G37*
G36*
Y334062D02*
Y332474D01*
X199497Y330221D01*
X205055Y329063D01*
Y327466D01*
X196750Y329200D01*
Y330788D01*
X202333Y333041D01*
X196750Y334208D01*
Y335796D01*
X205055Y334062D01*
D02*
G37*
G36*
X200194Y326915D02*
X200275D01*
X200372Y326907D01*
X200469Y326899D01*
X200583Y326883D01*
X200704Y326867D01*
X200963Y326834D01*
X201255Y326778D01*
X201555Y326705D01*
X201571D01*
X201603Y326688D01*
X201660Y326672D01*
X201741Y326648D01*
X201830Y326624D01*
X201944Y326583D01*
X202065Y326543D01*
X202203Y326486D01*
X202349Y326429D01*
X202495Y326364D01*
X202819Y326218D01*
X203143Y326040D01*
X203451Y325830D01*
X203459Y325821D01*
X203483Y325805D01*
X203532Y325765D01*
X203589Y325724D01*
X203653Y325659D01*
X203734Y325595D01*
X203824Y325514D01*
X203913Y325416D01*
X204018Y325311D01*
X204123Y325198D01*
X204229Y325076D01*
X204334Y324946D01*
X204439Y324801D01*
X204545Y324655D01*
X204731Y324331D01*
X204739Y324323D01*
X204755Y324290D01*
X204771Y324241D01*
X204804Y324169D01*
X204836Y324088D01*
X204877Y323982D01*
X204925Y323869D01*
X204966Y323739D01*
X205007Y323593D01*
X205055Y323431D01*
X205096Y323269D01*
X205128Y323083D01*
X205160Y322896D01*
X205185Y322702D01*
X205193Y322491D01*
X205201Y322281D01*
Y322216D01*
X205193Y322135D01*
X205185Y322021D01*
X205169Y321892D01*
X205152Y321746D01*
X205120Y321576D01*
X205079Y321389D01*
X205031Y321195D01*
X204966Y321001D01*
X204885Y320790D01*
X204796Y320579D01*
X204682Y320377D01*
X204553Y320174D01*
X204407Y319979D01*
X204237Y319793D01*
X204229Y319785D01*
X204196Y319753D01*
X204139Y319704D01*
X204067Y319647D01*
X203969Y319574D01*
X203848Y319493D01*
X203718Y319404D01*
X203564Y319315D01*
X203386Y319226D01*
X203200Y319137D01*
X202989Y319056D01*
X202762Y318983D01*
X202519Y318926D01*
X202260Y318878D01*
X201992Y318845D01*
X201701Y318837D01*
X201684D01*
X201644D01*
X201571D01*
X201474Y318845D01*
X201360Y318853D01*
X201215Y318869D01*
X201061Y318886D01*
X200890Y318918D01*
X200696Y318951D01*
X200493Y318991D01*
X200283Y319040D01*
X200064Y319096D01*
X199845Y319169D01*
X199610Y319258D01*
X199383Y319347D01*
X199148Y319461D01*
X199132Y319469D01*
X199092Y319485D01*
X199027Y319526D01*
X198946Y319574D01*
X198840Y319639D01*
X198727Y319712D01*
X198589Y319801D01*
X198451Y319898D01*
X198298Y320012D01*
X198144Y320142D01*
X197990Y320279D01*
X197828Y320425D01*
X197674Y320587D01*
X197528Y320757D01*
X197382Y320944D01*
X197252Y321138D01*
X197244Y321146D01*
X197228Y321187D01*
X197196Y321244D01*
X197147Y321325D01*
X197098Y321422D01*
X197042Y321543D01*
X196985Y321681D01*
X196928Y321835D01*
X196863Y322005D01*
X196807Y322192D01*
X196750Y322386D01*
X196701Y322597D01*
X196661Y322816D01*
X196628Y323050D01*
X196604Y323285D01*
X196596Y323537D01*
Y323650D01*
X196604Y323731D01*
X196612Y323828D01*
X196620Y323942D01*
X196637Y324071D01*
X196661Y324217D01*
X196693Y324363D01*
X196726Y324517D01*
X196766Y324679D01*
X196815Y324849D01*
X196880Y325011D01*
X196952Y325173D01*
X197034Y325327D01*
X197123Y325481D01*
X197131Y325489D01*
X197147Y325514D01*
X197179Y325554D01*
X197220Y325611D01*
X197269Y325676D01*
X197333Y325749D01*
X197406Y325830D01*
X197487Y325919D01*
X197576Y326008D01*
X197674Y326097D01*
X197779Y326194D01*
X197892Y326283D01*
X198152Y326454D01*
X198281Y326535D01*
X198427Y326599D01*
X198435D01*
X198460Y326616D01*
X198508Y326632D01*
X198565Y326648D01*
X198630Y326672D01*
X198719Y326705D01*
X198808Y326729D01*
X198913Y326761D01*
X199027Y326794D01*
X199156Y326818D01*
X199416Y326875D01*
X199707Y326907D01*
X199999Y326923D01*
X200007D01*
X200032D01*
X200072D01*
X200129D01*
X200194Y326915D01*
D02*
G37*
G36*
X205055Y316666D02*
Y312825D01*
X205047Y312744D01*
Y312655D01*
X205039Y312549D01*
X205031Y312436D01*
X205007Y312201D01*
X204966Y311958D01*
X204917Y311715D01*
X204885Y311610D01*
X204853Y311504D01*
Y311496D01*
X204844Y311480D01*
X204828Y311456D01*
X204812Y311415D01*
X204796Y311367D01*
X204763Y311318D01*
X204690Y311196D01*
X204593Y311059D01*
X204472Y310913D01*
X204318Y310775D01*
X204139Y310645D01*
X204131D01*
X204115Y310629D01*
X204091Y310613D01*
X204050Y310597D01*
X203994Y310564D01*
X203937Y310540D01*
X203864Y310508D01*
X203791Y310475D01*
X203702Y310451D01*
X203605Y310418D01*
X203386Y310362D01*
X203143Y310329D01*
X202875Y310313D01*
X202867D01*
X202827D01*
X202770D01*
X202697Y310321D01*
X202608Y310329D01*
X202503Y310346D01*
X202389Y310370D01*
X202260Y310394D01*
X202122Y310427D01*
X201984Y310467D01*
X201838Y310524D01*
X201693Y310581D01*
X201547Y310653D01*
X201401Y310743D01*
X201255Y310840D01*
X201125Y310953D01*
X201117Y310961D01*
X201093Y310986D01*
X201061Y311018D01*
X201012Y311075D01*
X200963Y311140D01*
X200898Y311221D01*
X200834Y311318D01*
X200761Y311431D01*
X200688Y311561D01*
X200615Y311699D01*
X200542Y311861D01*
X200477Y312031D01*
X200412Y312217D01*
X200356Y312420D01*
X200315Y312639D01*
X200275Y312874D01*
X200258Y312857D01*
X200218Y312817D01*
X200153Y312752D01*
X200072Y312671D01*
X199959Y312574D01*
X199821Y312477D01*
X199667Y312363D01*
X199497Y312258D01*
X199489Y312250D01*
X199448Y312234D01*
X199400Y312201D01*
X199319Y312160D01*
X199221Y312104D01*
X199100Y312039D01*
X198954Y311966D01*
X198792Y311885D01*
X198605Y311788D01*
X198403Y311691D01*
X198176Y311585D01*
X197925Y311472D01*
X197666Y311358D01*
X197374Y311237D01*
X197074Y311107D01*
X196750Y310978D01*
Y312817D01*
X196758D01*
X196782Y312825D01*
X196823Y312841D01*
X196880Y312866D01*
X196961Y312890D01*
X197050Y312922D01*
X197155Y312963D01*
X197285Y313011D01*
X197431Y313068D01*
X197593Y313125D01*
X197771Y313198D01*
X197965Y313279D01*
X198184Y313368D01*
X198419Y313465D01*
X198670Y313570D01*
X198938Y313684D01*
X198946D01*
X198970Y313700D01*
X199011Y313716D01*
X199067Y313749D01*
X199132Y313781D01*
X199205Y313813D01*
X199375Y313911D01*
X199562Y314024D01*
X199740Y314154D01*
X199821Y314219D01*
X199902Y314291D01*
X199967Y314364D01*
X200023Y314437D01*
X200032Y314445D01*
X200048Y314486D01*
X200080Y314543D01*
X200112Y314632D01*
X200137Y314753D01*
X200169Y314891D01*
X200186Y315069D01*
X200194Y315175D01*
Y315977D01*
X196750Y316698D01*
Y318400D01*
X205055Y316666D01*
D02*
G37*
G36*
Y305978D02*
Y304066D01*
X196750Y302729D01*
Y304342D01*
X198589Y304617D01*
Y307907D01*
X196750Y308911D01*
Y310662D01*
X205055Y305978D01*
D02*
G37*
G36*
X200420Y301044D02*
X200542Y301036D01*
X200688Y301019D01*
X200850Y301003D01*
X201036Y300979D01*
X201231Y300955D01*
X201433Y300914D01*
X201652Y300865D01*
X201871Y300809D01*
X202098Y300744D01*
X202325Y300671D01*
X202551Y300582D01*
X202770Y300485D01*
X202786Y300477D01*
X202819Y300460D01*
X202884Y300428D01*
X202965Y300379D01*
X203062Y300323D01*
X203175Y300250D01*
X203297Y300169D01*
X203435Y300072D01*
X203580Y299958D01*
X203726Y299845D01*
X203872Y299707D01*
X204026Y299569D01*
X204172Y299415D01*
X204310Y299253D01*
X204447Y299075D01*
X204569Y298888D01*
X204577Y298880D01*
X204593Y298840D01*
X204626Y298783D01*
X204666Y298710D01*
X204715Y298613D01*
X204771Y298500D01*
X204828Y298370D01*
X204885Y298224D01*
X204942Y298070D01*
X204998Y297900D01*
X205055Y297714D01*
X205104Y297519D01*
X205144Y297317D01*
X205177Y297106D01*
X205193Y296887D01*
X205201Y296668D01*
Y296612D01*
X205193Y296539D01*
Y296441D01*
X205177Y296328D01*
X205160Y296198D01*
X205136Y296053D01*
X205112Y295891D01*
X205071Y295720D01*
X205023Y295542D01*
X204966Y295364D01*
X204893Y295177D01*
X204812Y294999D01*
X204715Y294821D01*
X204601Y294651D01*
X204472Y294489D01*
X204464Y294481D01*
X204439Y294456D01*
X204399Y294408D01*
X204342Y294359D01*
X204269Y294286D01*
X204180Y294213D01*
X204075Y294132D01*
X203953Y294051D01*
X203824Y293962D01*
X203678Y293881D01*
X203516Y293800D01*
X203337Y293719D01*
X203151Y293646D01*
X202948Y293589D01*
X202730Y293533D01*
X202503Y293500D01*
X202349Y295137D01*
X202357D01*
X202381Y295145D01*
X202422Y295153D01*
X202470Y295161D01*
X202527Y295177D01*
X202592Y295202D01*
X202754Y295250D01*
X202924Y295323D01*
X203094Y295421D01*
X203256Y295526D01*
X203329Y295591D01*
X203394Y295664D01*
Y295672D01*
X203410Y295680D01*
X203426Y295704D01*
X203443Y295737D01*
X203475Y295777D01*
X203499Y295818D01*
X203564Y295939D01*
X203621Y296085D01*
X203678Y296263D01*
X203710Y296466D01*
X203726Y296701D01*
Y296766D01*
X203718Y296822D01*
X203710Y296879D01*
X203702Y296960D01*
X203694Y297041D01*
X203670Y297130D01*
X203621Y297333D01*
X203540Y297552D01*
X203491Y297673D01*
X203435Y297787D01*
X203370Y297908D01*
X203289Y298022D01*
X203281Y298030D01*
X203272Y298046D01*
X203240Y298078D01*
X203208Y298127D01*
X203159Y298176D01*
X203102Y298232D01*
X203038Y298305D01*
X202957Y298378D01*
X202867Y298451D01*
X202770Y298532D01*
X202657Y298613D01*
X202535Y298694D01*
X202406Y298775D01*
X202260Y298856D01*
X202106Y298929D01*
X201936Y299002D01*
X201928D01*
X201895Y299018D01*
X201847Y299034D01*
X201782Y299059D01*
X201693Y299083D01*
X201595Y299115D01*
X201490Y299148D01*
X201368Y299180D01*
X201231Y299221D01*
X201085Y299253D01*
X200777Y299310D01*
X200453Y299350D01*
X200283Y299358D01*
X200112Y299366D01*
X200104D01*
X200072D01*
X200015D01*
X199951Y299358D01*
X199861Y299350D01*
X199764Y299342D01*
X199659Y299326D01*
X199545Y299310D01*
X199294Y299253D01*
X199165Y299213D01*
X199035Y299164D01*
X198913Y299115D01*
X198784Y299051D01*
X198670Y298978D01*
X198565Y298897D01*
X198557Y298888D01*
X198541Y298872D01*
X198516Y298848D01*
X198484Y298808D01*
X198435Y298767D01*
X198395Y298710D01*
X198346Y298645D01*
X198298Y298564D01*
X198241Y298483D01*
X198192Y298394D01*
X198111Y298192D01*
X198071Y298078D01*
X198046Y297965D01*
X198030Y297835D01*
X198022Y297705D01*
Y297641D01*
X198030Y297592D01*
X198038Y297535D01*
X198046Y297462D01*
X198055Y297390D01*
X198079Y297300D01*
X198127Y297114D01*
X198200Y296911D01*
X198249Y296806D01*
X198314Y296701D01*
X198379Y296595D01*
X198451Y296490D01*
X198460Y296482D01*
X198476Y296466D01*
X198500Y296433D01*
X198533Y296401D01*
X198573Y296352D01*
X198630Y296304D01*
X198695Y296239D01*
X198776Y296182D01*
X198857Y296117D01*
X198954Y296045D01*
X199059Y295980D01*
X199173Y295907D01*
X199294Y295842D01*
X199424Y295777D01*
X199570Y295720D01*
X199724Y295664D01*
X199456Y293938D01*
X199440Y293946D01*
X199391Y293962D01*
X199327Y293995D01*
X199229Y294035D01*
X199108Y294084D01*
X198978Y294149D01*
X198824Y294230D01*
X198670Y294319D01*
X198500Y294424D01*
X198322Y294537D01*
X198144Y294659D01*
X197973Y294797D01*
X197795Y294942D01*
X197625Y295105D01*
X197471Y295275D01*
X197325Y295461D01*
X197317Y295469D01*
X197293Y295510D01*
X197260Y295566D01*
X197212Y295639D01*
X197155Y295737D01*
X197098Y295850D01*
X197025Y295980D01*
X196961Y296134D01*
X196896Y296296D01*
X196831Y296482D01*
X196766Y296668D01*
X196709Y296879D01*
X196661Y297098D01*
X196628Y297333D01*
X196604Y297568D01*
X196596Y297819D01*
Y297884D01*
X196604Y297965D01*
X196612Y298070D01*
X196620Y298200D01*
X196645Y298346D01*
X196669Y298508D01*
X196709Y298686D01*
X196758Y298872D01*
X196823Y299067D01*
X196896Y299269D01*
X196985Y299464D01*
X197090Y299658D01*
X197212Y299853D01*
X197349Y300031D01*
X197512Y300201D01*
X197520Y300209D01*
X197552Y300233D01*
X197609Y300282D01*
X197682Y300331D01*
X197779Y300396D01*
X197892Y300469D01*
X198030Y300550D01*
X198192Y300622D01*
X198370Y300704D01*
X198565Y300784D01*
X198784Y300857D01*
X199027Y300922D01*
X199278Y300971D01*
X199562Y301011D01*
X199861Y301044D01*
X200177Y301052D01*
X200186D01*
X200194D01*
X200242D01*
X200315D01*
X200420Y301044D01*
D02*
G37*
G36*
X205055Y291588D02*
Y289870D01*
X201530Y290599D01*
X205055Y286767D01*
Y284482D01*
X201790Y288209D01*
X196750Y285471D01*
Y287399D01*
X200704Y289457D01*
X199286Y291070D01*
X196750Y291604D01*
Y293314D01*
X205055Y291588D01*
D02*
G37*
G36*
Y279920D02*
Y278219D01*
X198136Y279661D01*
Y275423D01*
X196750Y275715D01*
Y281654D01*
X205055Y279920D01*
D02*
G37*
G36*
Y270529D02*
Y268617D01*
X196750Y267280D01*
Y268893D01*
X198589Y269168D01*
Y272458D01*
X196750Y273463D01*
Y275213D01*
X205055Y270529D01*
D02*
G37*
G36*
X199529Y264339D02*
X199521D01*
X199497D01*
X199456Y264331D01*
X199408D01*
X199343Y264323D01*
X199270Y264315D01*
X199108Y264290D01*
X198930Y264258D01*
X198759Y264217D01*
X198597Y264153D01*
X198533Y264120D01*
X198476Y264080D01*
X198468Y264072D01*
X198460Y264063D01*
X198435Y264039D01*
X198411Y264007D01*
X198379Y263958D01*
X198338Y263910D01*
X198298Y263845D01*
X198257Y263764D01*
X198216Y263675D01*
X198176Y263577D01*
X198144Y263464D01*
X198103Y263334D01*
X198079Y263197D01*
X198055Y263043D01*
X198046Y262872D01*
X198038Y262694D01*
Y262613D01*
X198046Y262556D01*
Y262492D01*
X198055Y262411D01*
X198063Y262321D01*
X198079Y262232D01*
X198111Y262030D01*
X198168Y261835D01*
X198241Y261649D01*
X198289Y261560D01*
X198338Y261487D01*
Y261479D01*
X198354Y261471D01*
X198395Y261430D01*
X198451Y261365D01*
X198541Y261292D01*
X198646Y261228D01*
X198768Y261163D01*
X198905Y261122D01*
X198978Y261106D01*
X199059D01*
X199067D01*
X199075D01*
X199124Y261114D01*
X199189Y261122D01*
X199278Y261147D01*
X199375Y261179D01*
X199480Y261236D01*
X199586Y261309D01*
X199683Y261414D01*
X199691Y261422D01*
X199699Y261438D01*
X199715Y261463D01*
X199740Y261495D01*
X199764Y261535D01*
X199797Y261584D01*
X199829Y261641D01*
X199869Y261714D01*
X199910Y261803D01*
X199967Y261900D01*
X200015Y262005D01*
X200080Y262135D01*
X200145Y262273D01*
X200218Y262435D01*
X200291Y262605D01*
X200299Y262613D01*
X200307Y262646D01*
X200331Y262694D01*
X200364Y262759D01*
X200396Y262840D01*
X200437Y262937D01*
X200485Y263034D01*
X200534Y263140D01*
X200647Y263375D01*
X200761Y263610D01*
X200882Y263829D01*
X200931Y263926D01*
X200988Y264015D01*
Y264023D01*
X201004Y264031D01*
X201020Y264055D01*
X201036Y264088D01*
X201101Y264169D01*
X201182Y264266D01*
X201287Y264380D01*
X201417Y264493D01*
X201555Y264606D01*
X201717Y264712D01*
X201725D01*
X201741Y264720D01*
X201765Y264736D01*
X201798Y264752D01*
X201838Y264768D01*
X201887Y264793D01*
X202017Y264833D01*
X202171Y264882D01*
X202349Y264922D01*
X202543Y264955D01*
X202762Y264963D01*
X202778D01*
X202811D01*
X202867Y264955D01*
X202940D01*
X203029Y264939D01*
X203135Y264922D01*
X203248Y264898D01*
X203378Y264866D01*
X203507Y264825D01*
X203653Y264776D01*
X203799Y264720D01*
X203945Y264647D01*
X204091Y264558D01*
X204229Y264461D01*
X204375Y264339D01*
X204504Y264209D01*
X204512Y264201D01*
X204536Y264177D01*
X204569Y264128D01*
X204610Y264072D01*
X204666Y263991D01*
X204723Y263893D01*
X204788Y263780D01*
X204853Y263650D01*
X204917Y263504D01*
X204982Y263334D01*
X205039Y263156D01*
X205096Y262962D01*
X205136Y262751D01*
X205169Y262516D01*
X205193Y262273D01*
X205201Y262013D01*
Y261949D01*
X205193Y261876D01*
Y261770D01*
X205177Y261649D01*
X205169Y261503D01*
X205144Y261349D01*
X205112Y261179D01*
X205079Y261001D01*
X205031Y260814D01*
X204974Y260628D01*
X204909Y260434D01*
X204828Y260255D01*
X204739Y260069D01*
X204634Y259899D01*
X204512Y259745D01*
X204504Y259737D01*
X204480Y259712D01*
X204439Y259672D01*
X204391Y259615D01*
X204318Y259559D01*
X204237Y259485D01*
X204139Y259413D01*
X204026Y259332D01*
X203904Y259251D01*
X203767Y259178D01*
X203613Y259105D01*
X203451Y259032D01*
X203281Y258975D01*
X203094Y258927D01*
X202900Y258886D01*
X202689Y258862D01*
X202616Y260498D01*
X202624D01*
X202640D01*
X202673Y260506D01*
X202714Y260515D01*
X202762Y260523D01*
X202819Y260539D01*
X202948Y260579D01*
X203094Y260636D01*
X203248Y260709D01*
X203394Y260806D01*
X203524Y260936D01*
X203540Y260952D01*
X203556Y260976D01*
X203572Y261001D01*
X203597Y261041D01*
X203629Y261090D01*
X203653Y261147D01*
X203686Y261211D01*
X203718Y261284D01*
X203743Y261357D01*
X203775Y261446D01*
X203799Y261544D01*
X203815Y261657D01*
X203832Y261770D01*
X203848Y261892D01*
Y262135D01*
X203840Y262200D01*
X203832Y262265D01*
X203815Y262419D01*
X203783Y262581D01*
X203743Y262751D01*
X203678Y262905D01*
X203637Y262970D01*
X203597Y263034D01*
X203589Y263051D01*
X203548Y263083D01*
X203499Y263132D01*
X203426Y263180D01*
X203329Y263237D01*
X203224Y263286D01*
X203102Y263318D01*
X202965Y263334D01*
X202948D01*
X202908Y263326D01*
X202843Y263318D01*
X202754Y263302D01*
X202665Y263270D01*
X202568Y263221D01*
X202462Y263148D01*
X202373Y263059D01*
X202365Y263043D01*
X202349Y263026D01*
X202333Y263002D01*
X202308Y262970D01*
X202276Y262921D01*
X202243Y262864D01*
X202203Y262799D01*
X202162Y262727D01*
X202114Y262637D01*
X202057Y262540D01*
X202000Y262427D01*
X201936Y262297D01*
X201871Y262159D01*
X201798Y262005D01*
X201725Y261835D01*
Y261827D01*
X201717Y261819D01*
X201701Y261770D01*
X201668Y261698D01*
X201620Y261608D01*
X201571Y261487D01*
X201506Y261357D01*
X201441Y261220D01*
X201368Y261066D01*
X201206Y260758D01*
X201125Y260604D01*
X201044Y260458D01*
X200955Y260320D01*
X200874Y260199D01*
X200793Y260093D01*
X200720Y260004D01*
X200712Y259996D01*
X200696Y259980D01*
X200664Y259947D01*
X200615Y259915D01*
X200558Y259866D01*
X200493Y259818D01*
X200412Y259769D01*
X200323Y259712D01*
X200226Y259656D01*
X200112Y259607D01*
X199999Y259559D01*
X199869Y259510D01*
X199724Y259477D01*
X199578Y259445D01*
X199424Y259429D01*
X199262Y259421D01*
X199246D01*
X199213D01*
X199156Y259429D01*
X199075Y259437D01*
X198986Y259445D01*
X198873Y259469D01*
X198751Y259494D01*
X198622Y259526D01*
X198476Y259575D01*
X198322Y259631D01*
X198168Y259704D01*
X198014Y259793D01*
X197852Y259891D01*
X197698Y260004D01*
X197536Y260142D01*
X197390Y260296D01*
X197382Y260304D01*
X197358Y260336D01*
X197317Y260385D01*
X197269Y260458D01*
X197212Y260547D01*
X197147Y260652D01*
X197074Y260774D01*
X197001Y260920D01*
X196928Y261082D01*
X196855Y261268D01*
X196791Y261463D01*
X196734Y261681D01*
X196685Y261916D01*
X196645Y262159D01*
X196620Y262427D01*
X196612Y262710D01*
Y262816D01*
X196620Y262889D01*
Y262986D01*
X196628Y263091D01*
X196645Y263213D01*
X196661Y263342D01*
X196677Y263488D01*
X196701Y263634D01*
X196766Y263942D01*
X196855Y264258D01*
X196904Y264412D01*
X196969Y264566D01*
X196977Y264574D01*
X196985Y264598D01*
X197009Y264639D01*
X197034Y264695D01*
X197074Y264760D01*
X197115Y264833D01*
X197228Y264995D01*
X197366Y265182D01*
X197536Y265368D01*
X197738Y265538D01*
X197852Y265611D01*
X197965Y265676D01*
X197973D01*
X197998Y265692D01*
X198030Y265708D01*
X198079Y265725D01*
X198136Y265749D01*
X198208Y265773D01*
X198298Y265806D01*
X198387Y265830D01*
X198492Y265862D01*
X198605Y265887D01*
X198727Y265911D01*
X198857Y265935D01*
X199140Y265959D01*
X199440Y265968D01*
X199529Y264339D01*
D02*
G37*
G36*
X205055Y256763D02*
Y250597D01*
X203670Y250889D01*
Y255329D01*
X201782Y255742D01*
Y251432D01*
X200396Y251723D01*
Y256050D01*
X198136Y256544D01*
Y251707D01*
X196750Y251999D01*
Y258489D01*
X205055Y256763D01*
D02*
G37*
G36*
Y248985D02*
Y245144D01*
X205047Y245063D01*
Y244974D01*
X205039Y244868D01*
X205031Y244755D01*
X205007Y244520D01*
X204966Y244277D01*
X204917Y244034D01*
X204885Y243929D01*
X204853Y243823D01*
Y243815D01*
X204844Y243799D01*
X204828Y243775D01*
X204812Y243734D01*
X204796Y243685D01*
X204763Y243637D01*
X204690Y243515D01*
X204593Y243378D01*
X204472Y243232D01*
X204318Y243094D01*
X204139Y242964D01*
X204131D01*
X204115Y242948D01*
X204091Y242932D01*
X204050Y242916D01*
X203994Y242883D01*
X203937Y242859D01*
X203864Y242827D01*
X203791Y242794D01*
X203702Y242770D01*
X203605Y242738D01*
X203386Y242681D01*
X203143Y242648D01*
X202875Y242632D01*
X202867D01*
X202827D01*
X202770D01*
X202697Y242640D01*
X202608Y242648D01*
X202503Y242665D01*
X202389Y242689D01*
X202260Y242713D01*
X202122Y242746D01*
X201984Y242786D01*
X201838Y242843D01*
X201693Y242899D01*
X201547Y242972D01*
X201401Y243062D01*
X201255Y243159D01*
X201125Y243272D01*
X201117Y243280D01*
X201093Y243305D01*
X201061Y243337D01*
X201012Y243394D01*
X200963Y243459D01*
X200898Y243540D01*
X200834Y243637D01*
X200761Y243750D01*
X200688Y243880D01*
X200615Y244018D01*
X200542Y244180D01*
X200477Y244350D01*
X200412Y244536D01*
X200356Y244739D01*
X200315Y244958D01*
X200275Y245193D01*
X200258Y245176D01*
X200218Y245136D01*
X200153Y245071D01*
X200072Y244990D01*
X199959Y244893D01*
X199821Y244795D01*
X199667Y244682D01*
X199497Y244577D01*
X199489Y244569D01*
X199448Y244552D01*
X199400Y244520D01*
X199319Y244480D01*
X199221Y244423D01*
X199100Y244358D01*
X198954Y244285D01*
X198792Y244204D01*
X198605Y244107D01*
X198403Y244010D01*
X198176Y243904D01*
X197925Y243791D01*
X197666Y243677D01*
X197374Y243556D01*
X197074Y243426D01*
X196750Y243297D01*
Y245136D01*
X196758D01*
X196782Y245144D01*
X196823Y245160D01*
X196880Y245184D01*
X196961Y245209D01*
X197050Y245241D01*
X197155Y245282D01*
X197285Y245330D01*
X197431Y245387D01*
X197593Y245444D01*
X197771Y245517D01*
X197965Y245598D01*
X198184Y245687D01*
X198419Y245784D01*
X198670Y245889D01*
X198938Y246003D01*
X198946D01*
X198970Y246019D01*
X199011Y246035D01*
X199067Y246068D01*
X199132Y246100D01*
X199205Y246133D01*
X199375Y246230D01*
X199562Y246343D01*
X199740Y246473D01*
X199821Y246538D01*
X199902Y246611D01*
X199967Y246683D01*
X200023Y246756D01*
X200032Y246765D01*
X200048Y246805D01*
X200080Y246862D01*
X200112Y246951D01*
X200137Y247072D01*
X200169Y247210D01*
X200186Y247388D01*
X200194Y247494D01*
Y248296D01*
X196750Y249017D01*
Y250718D01*
X205055Y248985D01*
D02*
G37*
G36*
Y237422D02*
Y231256D01*
X203670Y231548D01*
Y235988D01*
X201782Y236401D01*
Y232091D01*
X200396Y232382D01*
Y236709D01*
X198136Y237203D01*
Y232366D01*
X196750Y232658D01*
Y239148D01*
X205055Y237422D01*
D02*
G37*
G36*
X200931Y228582D02*
X205055Y230640D01*
Y228866D01*
X203532Y228047D01*
X203524D01*
X203499Y228031D01*
X203483Y228023D01*
X203451Y228007D01*
X203410Y227991D01*
X203362Y227958D01*
X203297Y227934D01*
X203224Y227894D01*
X203127Y227845D01*
X203021Y227796D01*
X202900Y227731D01*
X202754Y227659D01*
X202592Y227577D01*
X202406Y227488D01*
X202397Y227480D01*
X202365Y227464D01*
X202316Y227440D01*
X202260Y227415D01*
X202268Y227407D01*
X202300Y227383D01*
X202341Y227351D01*
X202397Y227302D01*
X202470Y227245D01*
X202551Y227172D01*
X202640Y227099D01*
X202738Y227010D01*
X202948Y226832D01*
X203175Y226638D01*
X203402Y226443D01*
X203605Y226265D01*
X205055Y224968D01*
Y222797D01*
X200688Y226597D01*
X196750Y224555D01*
Y226484D01*
X197957Y227124D01*
X197965Y227132D01*
X197998Y227148D01*
X198046Y227172D01*
X198111Y227205D01*
X198192Y227245D01*
X198281Y227286D01*
X198379Y227334D01*
X198484Y227391D01*
X198711Y227505D01*
X198938Y227610D01*
X199043Y227659D01*
X199148Y227707D01*
X199246Y227748D01*
X199327Y227780D01*
X199310Y227788D01*
X199294Y227804D01*
X199262Y227829D01*
X199221Y227861D01*
X199173Y227894D01*
X199116Y227942D01*
X199043Y227999D01*
X198962Y228072D01*
X198865Y228153D01*
X198751Y228242D01*
X198630Y228347D01*
X198500Y228461D01*
X198346Y228590D01*
X198176Y228736D01*
X197998Y228898D01*
X196750Y230033D01*
Y232245D01*
X200931Y228582D01*
D02*
G37*
G36*
X205055Y222465D02*
Y215918D01*
X203670Y216210D01*
Y218632D01*
X196750Y220075D01*
Y221776D01*
X203670Y220334D01*
Y222757D01*
X205055Y222465D01*
D02*
G37*
G36*
Y210821D02*
X198776Y209768D01*
X205055Y206324D01*
Y204631D01*
X196750Y209209D01*
Y211040D01*
X205055Y212531D01*
Y210821D01*
D02*
G37*
G36*
X202965Y204412D02*
Y204404D01*
X202973Y204388D01*
X202989Y204355D01*
X203005Y204323D01*
X203029Y204266D01*
X203054Y204210D01*
X203086Y204145D01*
X203127Y204064D01*
X203216Y203894D01*
X203321Y203691D01*
X203443Y203464D01*
X203572Y203221D01*
X203726Y202962D01*
X203888Y202694D01*
X204067Y202427D01*
X204253Y202160D01*
X204456Y201892D01*
X204658Y201633D01*
X204877Y201390D01*
X205104Y201163D01*
Y200183D01*
X196750Y201925D01*
Y203561D01*
X202495Y202362D01*
Y202370D01*
X202479Y202386D01*
X202462Y202411D01*
X202438Y202451D01*
X202414Y202500D01*
X202381Y202557D01*
X202341Y202621D01*
X202300Y202703D01*
X202203Y202873D01*
X202106Y203075D01*
X202000Y203294D01*
X201895Y203537D01*
Y203545D01*
X201887Y203570D01*
X201871Y203602D01*
X201855Y203650D01*
X201830Y203707D01*
X201806Y203772D01*
X201774Y203853D01*
X201741Y203934D01*
X201684Y204121D01*
X201620Y204315D01*
X201563Y204517D01*
X201514Y204720D01*
X202965Y204412D01*
D02*
G37*
G36*
X198322Y198813D02*
Y197201D01*
X196750Y197533D01*
Y199146D01*
X198322Y198813D01*
D02*
G37*
G36*
X202965Y194738D02*
Y194730D01*
X202973Y194713D01*
X202989Y194681D01*
X203005Y194648D01*
X203029Y194592D01*
X203054Y194535D01*
X203086Y194470D01*
X203127Y194389D01*
X203216Y194219D01*
X203321Y194016D01*
X203443Y193790D01*
X203572Y193547D01*
X203726Y193287D01*
X203888Y193020D01*
X204067Y192752D01*
X204253Y192485D01*
X204456Y192218D01*
X204658Y191959D01*
X204877Y191715D01*
X205104Y191488D01*
Y190508D01*
X196750Y192250D01*
Y193887D01*
X202495Y192688D01*
Y192696D01*
X202479Y192712D01*
X202462Y192736D01*
X202438Y192777D01*
X202414Y192825D01*
X202381Y192882D01*
X202341Y192947D01*
X202300Y193028D01*
X202203Y193198D01*
X202106Y193401D01*
X202000Y193619D01*
X201895Y193863D01*
Y193871D01*
X201887Y193895D01*
X201871Y193927D01*
X201855Y193976D01*
X201830Y194033D01*
X201806Y194098D01*
X201774Y194179D01*
X201741Y194260D01*
X201684Y194446D01*
X201620Y194640D01*
X201563Y194843D01*
X201514Y195046D01*
X202965Y194738D01*
D02*
G37*
G36*
X198322Y189139D02*
Y187526D01*
X196750Y187859D01*
Y189471D01*
X198322Y189139D01*
D02*
G37*
G36*
X199675Y185995D02*
X199788Y185987D01*
X199918Y185979D01*
X200072Y185971D01*
X200242Y185946D01*
X200429Y185930D01*
X200623Y185898D01*
X200834Y185865D01*
X201052Y185825D01*
X201279Y185776D01*
X201514Y185720D01*
X201749Y185655D01*
X201992Y185582D01*
X202000D01*
X202008Y185574D01*
X202033Y185565D01*
X202065Y185557D01*
X202146Y185525D01*
X202252Y185485D01*
X202381Y185436D01*
X202527Y185371D01*
X202697Y185298D01*
X202875Y185217D01*
X203062Y185128D01*
X203256Y185031D01*
X203451Y184917D01*
X203637Y184796D01*
X203832Y184674D01*
X204010Y184536D01*
X204172Y184391D01*
X204326Y184245D01*
X204334Y184237D01*
X204358Y184204D01*
X204399Y184164D01*
X204447Y184099D01*
X204504Y184026D01*
X204569Y183937D01*
X204642Y183832D01*
X204715Y183710D01*
X204780Y183580D01*
X204853Y183443D01*
X204917Y183289D01*
X204974Y183135D01*
X205023Y182965D01*
X205063Y182794D01*
X205088Y182616D01*
X205096Y182430D01*
Y182381D01*
X205088Y182333D01*
Y182260D01*
X205071Y182179D01*
X205055Y182081D01*
X205031Y181968D01*
X205007Y181846D01*
X204966Y181717D01*
X204917Y181587D01*
X204853Y181449D01*
X204788Y181312D01*
X204699Y181174D01*
X204601Y181036D01*
X204488Y180898D01*
X204358Y180777D01*
X204350Y180769D01*
X204326Y180744D01*
X204285Y180712D01*
X204221Y180672D01*
X204148Y180623D01*
X204050Y180566D01*
X203945Y180509D01*
X203824Y180445D01*
X203678Y180388D01*
X203524Y180331D01*
X203346Y180275D01*
X203159Y180226D01*
X202948Y180177D01*
X202730Y180145D01*
X202487Y180129D01*
X202235Y180121D01*
X202219D01*
X202179D01*
X202106D01*
X202017Y180129D01*
X201895Y180137D01*
X201757Y180145D01*
X201595Y180161D01*
X201425Y180177D01*
X201231Y180202D01*
X201020Y180234D01*
X200793Y180275D01*
X200558Y180323D01*
X200315Y180380D01*
X200064Y180437D01*
X199805Y180518D01*
X199537Y180599D01*
X199521Y180607D01*
X199472Y180623D01*
X199400Y180647D01*
X199302Y180688D01*
X199189Y180728D01*
X199051Y180793D01*
X198897Y180858D01*
X198735Y180931D01*
X198565Y181020D01*
X198387Y181117D01*
X198200Y181222D01*
X198022Y181336D01*
X197844Y181458D01*
X197674Y181587D01*
X197512Y181733D01*
X197366Y181879D01*
X197358Y181887D01*
X197333Y181911D01*
X197293Y181960D01*
X197252Y182017D01*
X197188Y182098D01*
X197131Y182187D01*
X197058Y182292D01*
X196993Y182405D01*
X196920Y182535D01*
X196847Y182673D01*
X196791Y182819D01*
X196734Y182981D01*
X196685Y183143D01*
X196645Y183321D01*
X196620Y183499D01*
X196612Y183686D01*
Y183726D01*
X196620Y183783D01*
Y183856D01*
X196637Y183937D01*
X196653Y184042D01*
X196677Y184156D01*
X196701Y184277D01*
X196742Y184407D01*
X196791Y184536D01*
X196847Y184674D01*
X196920Y184820D01*
X197001Y184958D01*
X197098Y185096D01*
X197212Y185225D01*
X197341Y185355D01*
X197349Y185363D01*
X197374Y185379D01*
X197414Y185412D01*
X197479Y185452D01*
X197552Y185509D01*
X197649Y185557D01*
X197755Y185622D01*
X197876Y185679D01*
X198022Y185736D01*
X198176Y185800D01*
X198354Y185849D01*
X198541Y185898D01*
X198743Y185946D01*
X198970Y185979D01*
X199205Y185995D01*
X199456Y186003D01*
X199472D01*
X199513D01*
X199578D01*
X199675Y185995D01*
D02*
G37*
G36*
X221819Y318052D02*
Y314527D01*
X221811Y314454D01*
Y314365D01*
X221803Y314268D01*
X221795Y314163D01*
X221762Y313936D01*
X221730Y313693D01*
X221673Y313466D01*
X221641Y313353D01*
X221600Y313255D01*
Y313247D01*
X221592Y313231D01*
X221576Y313207D01*
X221560Y313166D01*
X221511Y313069D01*
X221430Y312955D01*
X221333Y312818D01*
X221211Y312680D01*
X221066Y312542D01*
X220895Y312421D01*
X220887D01*
X220871Y312404D01*
X220847Y312388D01*
X220806Y312372D01*
X220766Y312348D01*
X220709Y312323D01*
X220644Y312299D01*
X220571Y312267D01*
X220401Y312210D01*
X220199Y312161D01*
X219972Y312129D01*
X219729Y312113D01*
X219721D01*
X219704D01*
X219664D01*
X219623D01*
X219567Y312121D01*
X219502Y312129D01*
X219429Y312137D01*
X219340Y312145D01*
X219153Y312178D01*
X218951Y312218D01*
X218732Y312283D01*
X218505Y312364D01*
X218497D01*
X218481Y312372D01*
X218449Y312388D01*
X218408Y312404D01*
X218359Y312429D01*
X218303Y312461D01*
X218165Y312526D01*
X218011Y312615D01*
X217857Y312721D01*
X217703Y312834D01*
X217557Y312964D01*
X217541Y312980D01*
X217500Y313020D01*
X217436Y313093D01*
X217355Y313190D01*
X217265Y313304D01*
X217176Y313433D01*
X217095Y313571D01*
X217014Y313725D01*
Y313733D01*
X217006Y313741D01*
X216998Y313766D01*
X216982Y313798D01*
X216966Y313839D01*
X216950Y313887D01*
X216933Y313944D01*
X216909Y314017D01*
X216860Y314171D01*
X216820Y314357D01*
X216771Y314576D01*
X216731Y314819D01*
Y314835D01*
X216723Y314860D01*
Y314949D01*
X216714Y315005D01*
Y315078D01*
X216706Y315159D01*
X216698Y315257D01*
Y315362D01*
X216690Y315492D01*
Y315775D01*
X216682Y315945D01*
Y317420D01*
X213514Y318084D01*
Y319786D01*
X221819Y318052D01*
D02*
G37*
G36*
Y310273D02*
Y306433D01*
X221811Y306352D01*
Y306263D01*
X221803Y306157D01*
X221795Y306044D01*
X221770Y305809D01*
X221730Y305566D01*
X221681Y305323D01*
X221649Y305217D01*
X221617Y305112D01*
Y305104D01*
X221609Y305088D01*
X221592Y305064D01*
X221576Y305023D01*
X221560Y304974D01*
X221527Y304926D01*
X221455Y304804D01*
X221357Y304667D01*
X221236Y304521D01*
X221082Y304383D01*
X220903Y304253D01*
X220895D01*
X220879Y304237D01*
X220855Y304221D01*
X220814Y304205D01*
X220758Y304172D01*
X220701Y304148D01*
X220628Y304116D01*
X220555Y304083D01*
X220466Y304059D01*
X220369Y304026D01*
X220150Y303970D01*
X219907Y303937D01*
X219639Y303921D01*
X219631D01*
X219591D01*
X219534D01*
X219461Y303929D01*
X219372Y303937D01*
X219267Y303953D01*
X219153Y303978D01*
X219024Y304002D01*
X218886Y304035D01*
X218748Y304075D01*
X218602Y304132D01*
X218457Y304188D01*
X218311Y304261D01*
X218165Y304350D01*
X218019Y304448D01*
X217889Y304561D01*
X217881Y304569D01*
X217857Y304594D01*
X217825Y304626D01*
X217776Y304683D01*
X217727Y304748D01*
X217663Y304829D01*
X217598Y304926D01*
X217525Y305039D01*
X217452Y305169D01*
X217379Y305307D01*
X217306Y305469D01*
X217241Y305639D01*
X217176Y305825D01*
X217120Y306028D01*
X217079Y306246D01*
X217039Y306481D01*
X217022Y306465D01*
X216982Y306425D01*
X216917Y306360D01*
X216836Y306279D01*
X216723Y306182D01*
X216585Y306084D01*
X216431Y305971D01*
X216261Y305866D01*
X216253Y305858D01*
X216212Y305841D01*
X216164Y305809D01*
X216082Y305769D01*
X215985Y305712D01*
X215864Y305647D01*
X215718Y305574D01*
X215556Y305493D01*
X215369Y305396D01*
X215167Y305299D01*
X214940Y305193D01*
X214689Y305080D01*
X214430Y304966D01*
X214138Y304845D01*
X213838Y304715D01*
X213514Y304585D01*
Y306425D01*
X213522D01*
X213546Y306433D01*
X213587Y306449D01*
X213644Y306473D01*
X213725Y306498D01*
X213814Y306530D01*
X213919Y306571D01*
X214049Y306619D01*
X214195Y306676D01*
X214357Y306733D01*
X214535Y306806D01*
X214729Y306887D01*
X214948Y306976D01*
X215183Y307073D01*
X215434Y307178D01*
X215702Y307292D01*
X215710D01*
X215734Y307308D01*
X215775Y307324D01*
X215831Y307357D01*
X215896Y307389D01*
X215969Y307421D01*
X216139Y307519D01*
X216326Y307632D01*
X216504Y307762D01*
X216585Y307826D01*
X216666Y307899D01*
X216731Y307972D01*
X216787Y308045D01*
X216796Y308053D01*
X216812Y308094D01*
X216844Y308151D01*
X216877Y308240D01*
X216901Y308361D01*
X216933Y308499D01*
X216950Y308677D01*
X216958Y308783D01*
Y309585D01*
X213514Y310306D01*
Y312008D01*
X221819Y310273D01*
D02*
G37*
G36*
X216958Y303119D02*
X217039D01*
X217136Y303111D01*
X217233Y303103D01*
X217346Y303086D01*
X217468Y303070D01*
X217727Y303038D01*
X218019Y302981D01*
X218319Y302908D01*
X218335D01*
X218367Y302892D01*
X218424Y302876D01*
X218505Y302852D01*
X218594Y302827D01*
X218708Y302787D01*
X218829Y302746D01*
X218967Y302689D01*
X219113Y302633D01*
X219259Y302568D01*
X219583Y302422D01*
X219907Y302244D01*
X220215Y302033D01*
X220223Y302025D01*
X220247Y302009D01*
X220296Y301968D01*
X220353Y301928D01*
X220417Y301863D01*
X220498Y301798D01*
X220588Y301717D01*
X220677Y301620D01*
X220782Y301515D01*
X220887Y301401D01*
X220993Y301280D01*
X221098Y301150D01*
X221203Y301004D01*
X221309Y300858D01*
X221495Y300534D01*
X221503Y300526D01*
X221519Y300494D01*
X221535Y300445D01*
X221568Y300372D01*
X221600Y300291D01*
X221641Y300186D01*
X221689Y300072D01*
X221730Y299943D01*
X221770Y299797D01*
X221819Y299635D01*
X221860Y299473D01*
X221892Y299286D01*
X221924Y299100D01*
X221949Y298906D01*
X221957Y298695D01*
X221965Y298484D01*
Y298419D01*
X221957Y298338D01*
X221949Y298225D01*
X221933Y298095D01*
X221916Y297950D01*
X221884Y297779D01*
X221843Y297593D01*
X221795Y297398D01*
X221730Y297204D01*
X221649Y296993D01*
X221560Y296783D01*
X221446Y296580D01*
X221317Y296378D01*
X221171Y296183D01*
X221001Y295997D01*
X220993Y295989D01*
X220960Y295956D01*
X220903Y295908D01*
X220831Y295851D01*
X220733Y295778D01*
X220612Y295697D01*
X220482Y295608D01*
X220328Y295519D01*
X220150Y295430D01*
X219964Y295340D01*
X219753Y295259D01*
X219526Y295187D01*
X219283Y295130D01*
X219024Y295081D01*
X218756Y295049D01*
X218465Y295041D01*
X218449D01*
X218408D01*
X218335D01*
X218238Y295049D01*
X218124Y295057D01*
X217978Y295073D01*
X217825Y295089D01*
X217654Y295122D01*
X217460Y295154D01*
X217257Y295195D01*
X217047Y295243D01*
X216828Y295300D01*
X216609Y295373D01*
X216374Y295462D01*
X216147Y295551D01*
X215912Y295665D01*
X215896Y295673D01*
X215856Y295689D01*
X215791Y295729D01*
X215710Y295778D01*
X215604Y295843D01*
X215491Y295916D01*
X215353Y296005D01*
X215215Y296102D01*
X215062Y296215D01*
X214908Y296345D01*
X214754Y296483D01*
X214592Y296629D01*
X214438Y296791D01*
X214292Y296961D01*
X214146Y297147D01*
X214016Y297342D01*
X214008Y297350D01*
X213992Y297390D01*
X213960Y297447D01*
X213911Y297528D01*
X213862Y297625D01*
X213806Y297747D01*
X213749Y297885D01*
X213692Y298039D01*
X213627Y298209D01*
X213571Y298395D01*
X213514Y298590D01*
X213465Y298800D01*
X213425Y299019D01*
X213392Y299254D01*
X213368Y299489D01*
X213360Y299740D01*
Y299854D01*
X213368Y299935D01*
X213376Y300032D01*
X213384Y300145D01*
X213400Y300275D01*
X213425Y300421D01*
X213457Y300567D01*
X213490Y300721D01*
X213530Y300883D01*
X213579Y301053D01*
X213644Y301215D01*
X213717Y301377D01*
X213798Y301531D01*
X213887Y301685D01*
X213895Y301693D01*
X213911Y301717D01*
X213943Y301758D01*
X213984Y301814D01*
X214032Y301879D01*
X214097Y301952D01*
X214170Y302033D01*
X214251Y302122D01*
X214340Y302211D01*
X214438Y302301D01*
X214543Y302398D01*
X214656Y302487D01*
X214916Y302657D01*
X215045Y302738D01*
X215191Y302803D01*
X215199D01*
X215224Y302819D01*
X215272Y302835D01*
X215329Y302852D01*
X215394Y302876D01*
X215483Y302908D01*
X215572Y302933D01*
X215677Y302965D01*
X215791Y302997D01*
X215920Y303022D01*
X216180Y303078D01*
X216471Y303111D01*
X216763Y303127D01*
X216771D01*
X216796D01*
X216836D01*
X216893D01*
X216958Y303119D01*
D02*
G37*
G36*
X215613Y294773D02*
X215686D01*
X215856Y294757D01*
X216034Y293177D01*
X216026D01*
X215993Y293185D01*
X215945D01*
X215888Y293193D01*
X215750Y293201D01*
X215613Y293209D01*
X215604D01*
X215596D01*
X215548D01*
X215475Y293193D01*
X215386Y293177D01*
X215288Y293153D01*
X215191Y293112D01*
X215094Y293055D01*
X215005Y292983D01*
X214997Y292974D01*
X214972Y292942D01*
X214940Y292885D01*
X214908Y292812D01*
X214867Y292715D01*
X214835Y292594D01*
X214810Y292448D01*
X214802Y292286D01*
Y292221D01*
X214810Y292180D01*
Y292124D01*
X214827Y292067D01*
X214851Y291921D01*
X214900Y291775D01*
X214964Y291621D01*
X215062Y291476D01*
X215118Y291419D01*
X215183Y291362D01*
X215199Y291354D01*
X215215Y291346D01*
X215248Y291330D01*
X215296Y291305D01*
X215345Y291289D01*
X215418Y291257D01*
X215499Y291232D01*
X215596Y291200D01*
X215718Y291159D01*
X215847Y291119D01*
X216001Y291078D01*
X216180Y291030D01*
X216374Y290989D01*
X216593Y290933D01*
X216836Y290884D01*
X221819Y289847D01*
Y288170D01*
X216787Y289215D01*
X216779D01*
X216763Y289223D01*
X216739D01*
X216698Y289231D01*
X216650Y289247D01*
X216601Y289255D01*
X216536Y289272D01*
X216463Y289288D01*
X216301Y289336D01*
X216115Y289385D01*
X215912Y289442D01*
X215702Y289507D01*
X215475Y289588D01*
X215248Y289669D01*
X215021Y289758D01*
X214802Y289855D01*
X214592Y289960D01*
X214397Y290074D01*
X214227Y290195D01*
X214081Y290317D01*
X214073Y290325D01*
X214049Y290349D01*
X214016Y290390D01*
X213968Y290446D01*
X213919Y290519D01*
X213862Y290600D01*
X213798Y290706D01*
X213733Y290827D01*
X213660Y290965D01*
X213603Y291119D01*
X213538Y291289D01*
X213490Y291476D01*
X213441Y291686D01*
X213409Y291905D01*
X213384Y292140D01*
X213376Y292399D01*
Y292513D01*
X213384Y292594D01*
X213392Y292699D01*
X213409Y292812D01*
X213425Y292934D01*
X213441Y293072D01*
X213506Y293363D01*
X213554Y293509D01*
X213603Y293663D01*
X213668Y293801D01*
X213741Y293947D01*
X213822Y294068D01*
X213919Y294190D01*
X213927Y294198D01*
X213943Y294214D01*
X213976Y294247D01*
X214016Y294279D01*
X214073Y294328D01*
X214146Y294376D01*
X214219Y294433D01*
X214316Y294482D01*
X214413Y294538D01*
X214527Y294595D01*
X214648Y294644D01*
X214786Y294692D01*
X214932Y294725D01*
X215078Y294757D01*
X215248Y294773D01*
X215418Y294781D01*
X215426D01*
X215450D01*
X215491D01*
X215548D01*
X215613Y294773D01*
D02*
G37*
G36*
X221819Y286460D02*
Y280294D01*
X220434Y280586D01*
Y285026D01*
X218546Y285439D01*
Y281129D01*
X217160Y281420D01*
Y285747D01*
X214900Y286241D01*
Y281404D01*
X213514Y281696D01*
Y288186D01*
X221819Y286460D01*
D02*
G37*
G36*
X217185Y279816D02*
X217306Y279808D01*
X217452Y279792D01*
X217614Y279775D01*
X217800Y279751D01*
X217995Y279727D01*
X218197Y279686D01*
X218416Y279638D01*
X218635Y279581D01*
X218862Y279516D01*
X219089Y279443D01*
X219315Y279354D01*
X219534Y279257D01*
X219550Y279249D01*
X219583Y279233D01*
X219648Y279200D01*
X219729Y279151D01*
X219826Y279095D01*
X219939Y279022D01*
X220061Y278941D01*
X220199Y278843D01*
X220345Y278730D01*
X220490Y278617D01*
X220636Y278479D01*
X220790Y278341D01*
X220936Y278187D01*
X221074Y278025D01*
X221211Y277847D01*
X221333Y277661D01*
X221341Y277652D01*
X221357Y277612D01*
X221390Y277555D01*
X221430Y277482D01*
X221479Y277385D01*
X221535Y277272D01*
X221592Y277142D01*
X221649Y276996D01*
X221706Y276842D01*
X221762Y276672D01*
X221819Y276486D01*
X221868Y276291D01*
X221908Y276089D01*
X221941Y275878D01*
X221957Y275659D01*
X221965Y275440D01*
Y275384D01*
X221957Y275311D01*
Y275214D01*
X221941Y275100D01*
X221924Y274970D01*
X221900Y274825D01*
X221876Y274663D01*
X221835Y274492D01*
X221787Y274314D01*
X221730Y274136D01*
X221657Y273950D01*
X221576Y273771D01*
X221479Y273593D01*
X221365Y273423D01*
X221236Y273261D01*
X221228Y273253D01*
X221203Y273228D01*
X221163Y273180D01*
X221106Y273131D01*
X221033Y273058D01*
X220944Y272985D01*
X220839Y272904D01*
X220717Y272823D01*
X220588Y272734D01*
X220442Y272653D01*
X220280Y272572D01*
X220101Y272491D01*
X219915Y272418D01*
X219713Y272362D01*
X219494Y272305D01*
X219267Y272272D01*
X219113Y273909D01*
X219121D01*
X219145Y273917D01*
X219186Y273925D01*
X219234Y273933D01*
X219291Y273950D01*
X219356Y273974D01*
X219518Y274023D01*
X219688Y274095D01*
X219858Y274193D01*
X220020Y274298D01*
X220093Y274363D01*
X220158Y274436D01*
Y274444D01*
X220174Y274452D01*
X220191Y274476D01*
X220207Y274509D01*
X220239Y274549D01*
X220263Y274590D01*
X220328Y274711D01*
X220385Y274857D01*
X220442Y275035D01*
X220474Y275238D01*
X220490Y275473D01*
Y275538D01*
X220482Y275594D01*
X220474Y275651D01*
X220466Y275732D01*
X220458Y275813D01*
X220434Y275902D01*
X220385Y276105D01*
X220304Y276324D01*
X220255Y276445D01*
X220199Y276559D01*
X220134Y276680D01*
X220053Y276794D01*
X220045Y276802D01*
X220037Y276818D01*
X220004Y276850D01*
X219972Y276899D01*
X219923Y276947D01*
X219866Y277004D01*
X219802Y277077D01*
X219721Y277150D01*
X219631Y277223D01*
X219534Y277304D01*
X219421Y277385D01*
X219299Y277466D01*
X219170Y277547D01*
X219024Y277628D01*
X218870Y277701D01*
X218700Y277774D01*
X218692D01*
X218659Y277790D01*
X218610Y277806D01*
X218546Y277831D01*
X218457Y277855D01*
X218359Y277887D01*
X218254Y277920D01*
X218132Y277952D01*
X217995Y277993D01*
X217849Y278025D01*
X217541Y278082D01*
X217217Y278122D01*
X217047Y278130D01*
X216877Y278139D01*
X216868D01*
X216836D01*
X216779D01*
X216714Y278130D01*
X216625Y278122D01*
X216528Y278114D01*
X216423Y278098D01*
X216309Y278082D01*
X216058Y278025D01*
X215928Y277985D01*
X215799Y277936D01*
X215677Y277887D01*
X215548Y277823D01*
X215434Y277750D01*
X215329Y277669D01*
X215321Y277661D01*
X215305Y277644D01*
X215280Y277620D01*
X215248Y277579D01*
X215199Y277539D01*
X215159Y277482D01*
X215110Y277418D01*
X215062Y277337D01*
X215005Y277255D01*
X214956Y277166D01*
X214875Y276964D01*
X214835Y276850D01*
X214810Y276737D01*
X214794Y276607D01*
X214786Y276478D01*
Y276413D01*
X214794Y276364D01*
X214802Y276307D01*
X214810Y276234D01*
X214818Y276162D01*
X214843Y276072D01*
X214891Y275886D01*
X214964Y275683D01*
X215013Y275578D01*
X215078Y275473D01*
X215143Y275368D01*
X215215Y275262D01*
X215224Y275254D01*
X215240Y275238D01*
X215264Y275205D01*
X215296Y275173D01*
X215337Y275124D01*
X215394Y275076D01*
X215459Y275011D01*
X215540Y274954D01*
X215621Y274890D01*
X215718Y274816D01*
X215823Y274752D01*
X215937Y274679D01*
X216058Y274614D01*
X216188Y274549D01*
X216334Y274492D01*
X216488Y274436D01*
X216220Y272710D01*
X216204Y272718D01*
X216155Y272734D01*
X216091Y272767D01*
X215993Y272807D01*
X215872Y272856D01*
X215742Y272920D01*
X215588Y273002D01*
X215434Y273091D01*
X215264Y273196D01*
X215086Y273309D01*
X214908Y273431D01*
X214737Y273569D01*
X214559Y273715D01*
X214389Y273877D01*
X214235Y274047D01*
X214089Y274233D01*
X214081Y274241D01*
X214057Y274282D01*
X214024Y274338D01*
X213976Y274411D01*
X213919Y274509D01*
X213862Y274622D01*
X213790Y274752D01*
X213725Y274906D01*
X213660Y275068D01*
X213595Y275254D01*
X213530Y275440D01*
X213473Y275651D01*
X213425Y275870D01*
X213392Y276105D01*
X213368Y276340D01*
X213360Y276591D01*
Y276656D01*
X213368Y276737D01*
X213376Y276842D01*
X213384Y276972D01*
X213409Y277118D01*
X213433Y277280D01*
X213473Y277458D01*
X213522Y277644D01*
X213587Y277839D01*
X213660Y278041D01*
X213749Y278236D01*
X213854Y278430D01*
X213976Y278625D01*
X214114Y278803D01*
X214276Y278973D01*
X214284Y278981D01*
X214316Y279006D01*
X214373Y279054D01*
X214446Y279103D01*
X214543Y279168D01*
X214656Y279241D01*
X214794Y279322D01*
X214956Y279394D01*
X215135Y279475D01*
X215329Y279557D01*
X215548Y279629D01*
X215791Y279694D01*
X216042Y279743D01*
X216326Y279783D01*
X216625Y279816D01*
X216941Y279824D01*
X216950D01*
X216958D01*
X217006D01*
X217079D01*
X217185Y279816D01*
D02*
G37*
G36*
X221819Y270863D02*
Y264316D01*
X220434Y264607D01*
Y267030D01*
X213514Y268472D01*
Y270174D01*
X220434Y268731D01*
Y271154D01*
X221819Y270863D01*
D02*
G37*
G36*
Y260037D02*
Y256877D01*
X221811Y256788D01*
Y256683D01*
X221803Y256472D01*
X221795Y256254D01*
X221787Y256156D01*
X221779Y256059D01*
X221770Y255970D01*
X221762Y255897D01*
Y255889D01*
X221754Y255873D01*
Y255840D01*
X221746Y255792D01*
X221738Y255743D01*
X221722Y255678D01*
X221689Y255532D01*
X221641Y255370D01*
X221576Y255200D01*
X221503Y255022D01*
X221414Y254860D01*
Y254852D01*
X221406Y254844D01*
X221390Y254819D01*
X221365Y254787D01*
X221309Y254714D01*
X221236Y254617D01*
X221138Y254511D01*
X221025Y254406D01*
X220887Y254301D01*
X220733Y254212D01*
X220725D01*
X220717Y254203D01*
X220693Y254187D01*
X220660Y254179D01*
X220571Y254139D01*
X220458Y254098D01*
X220320Y254058D01*
X220166Y254017D01*
X219988Y253993D01*
X219802Y253985D01*
X219793D01*
X219769D01*
X219737D01*
X219688Y253993D01*
X219623D01*
X219550Y254001D01*
X219478Y254017D01*
X219388Y254033D01*
X219202Y254082D01*
X218999Y254147D01*
X218797Y254244D01*
X218692Y254309D01*
X218594Y254374D01*
X218586Y254382D01*
X218570Y254390D01*
X218546Y254414D01*
X218513Y254447D01*
X218473Y254487D01*
X218424Y254536D01*
X218367Y254592D01*
X218311Y254665D01*
X218254Y254738D01*
X218189Y254827D01*
X218124Y254925D01*
X218060Y255030D01*
X218003Y255152D01*
X217938Y255273D01*
X217881Y255411D01*
X217833Y255557D01*
Y255549D01*
X217825Y255532D01*
X217817Y255492D01*
X217800Y255451D01*
X217776Y255403D01*
X217752Y255338D01*
X217687Y255192D01*
X217598Y255038D01*
X217492Y254876D01*
X217355Y254714D01*
X217201Y254568D01*
X217193Y254560D01*
X217185Y254552D01*
X217152Y254536D01*
X217120Y254511D01*
X217079Y254487D01*
X217031Y254455D01*
X216909Y254382D01*
X216755Y254317D01*
X216585Y254260D01*
X216399Y254220D01*
X216293Y254203D01*
X216188D01*
X216180D01*
X216155D01*
X216115D01*
X216058Y254212D01*
X215993Y254220D01*
X215920Y254228D01*
X215831Y254236D01*
X215734Y254260D01*
X215515Y254309D01*
X215272Y254382D01*
X215151Y254430D01*
X215021Y254487D01*
X214900Y254560D01*
X214770Y254633D01*
X214762Y254641D01*
X214737Y254649D01*
X214705Y254674D01*
X214664Y254714D01*
X214608Y254755D01*
X214543Y254811D01*
X214470Y254868D01*
X214397Y254941D01*
X214316Y255022D01*
X214243Y255111D01*
X214162Y255208D01*
X214081Y255306D01*
X213927Y255541D01*
X213862Y255670D01*
X213806Y255808D01*
Y255816D01*
X213790Y255840D01*
X213781Y255889D01*
X213757Y255946D01*
X213741Y256019D01*
X213717Y256116D01*
X213684Y256221D01*
X213660Y256343D01*
X213636Y256480D01*
X213603Y256634D01*
X213579Y256805D01*
X213563Y256991D01*
X213538Y257185D01*
X213530Y257396D01*
X213514Y257623D01*
Y261771D01*
X221819Y260037D01*
D02*
G37*
G36*
Y251651D02*
Y245485D01*
X220434Y245777D01*
Y250217D01*
X218546Y250630D01*
Y246320D01*
X217160Y246611D01*
Y250938D01*
X214900Y251432D01*
Y246595D01*
X213514Y246887D01*
Y253377D01*
X221819Y251651D01*
D02*
G37*
G36*
Y243913D02*
Y237747D01*
X220434Y238039D01*
Y242479D01*
X218546Y242892D01*
Y238582D01*
X217160Y238873D01*
Y243200D01*
X214900Y243694D01*
Y238857D01*
X213514Y239149D01*
Y245639D01*
X221819Y243913D01*
D02*
G37*
G36*
X217298Y237601D02*
Y234449D01*
X215726Y234782D01*
Y237934D01*
X217298Y237601D01*
D02*
G37*
G36*
X221819Y232310D02*
Y228786D01*
X221811Y228713D01*
Y228624D01*
X221803Y228526D01*
X221795Y228421D01*
X221762Y228194D01*
X221730Y227951D01*
X221673Y227724D01*
X221641Y227611D01*
X221600Y227514D01*
Y227505D01*
X221592Y227489D01*
X221576Y227465D01*
X221560Y227424D01*
X221511Y227327D01*
X221430Y227214D01*
X221333Y227076D01*
X221211Y226938D01*
X221066Y226800D01*
X220895Y226679D01*
X220887D01*
X220871Y226663D01*
X220847Y226647D01*
X220806Y226630D01*
X220766Y226606D01*
X220709Y226582D01*
X220644Y226558D01*
X220571Y226525D01*
X220401Y226468D01*
X220199Y226420D01*
X219972Y226387D01*
X219729Y226371D01*
X219721D01*
X219704D01*
X219664D01*
X219623D01*
X219567Y226379D01*
X219502Y226387D01*
X219429Y226395D01*
X219340Y226404D01*
X219153Y226436D01*
X218951Y226476D01*
X218732Y226541D01*
X218505Y226622D01*
X218497D01*
X218481Y226630D01*
X218449Y226647D01*
X218408Y226663D01*
X218359Y226687D01*
X218303Y226719D01*
X218165Y226784D01*
X218011Y226873D01*
X217857Y226979D01*
X217703Y227092D01*
X217557Y227222D01*
X217541Y227238D01*
X217500Y227279D01*
X217436Y227351D01*
X217355Y227449D01*
X217265Y227562D01*
X217176Y227692D01*
X217095Y227830D01*
X217014Y227983D01*
Y227992D01*
X217006Y228000D01*
X216998Y228024D01*
X216982Y228056D01*
X216966Y228097D01*
X216950Y228146D01*
X216933Y228202D01*
X216909Y228275D01*
X216860Y228429D01*
X216820Y228615D01*
X216771Y228834D01*
X216731Y229077D01*
Y229094D01*
X216723Y229118D01*
Y229207D01*
X216714Y229264D01*
Y229337D01*
X216706Y229418D01*
X216698Y229515D01*
Y229620D01*
X216690Y229750D01*
Y230033D01*
X216682Y230204D01*
Y231678D01*
X213514Y232343D01*
Y234044D01*
X221819Y232310D01*
D02*
G37*
G36*
X217185Y225666D02*
X217306Y225658D01*
X217452Y225642D01*
X217614Y225626D01*
X217800Y225601D01*
X217995Y225577D01*
X218197Y225536D01*
X218416Y225488D01*
X218635Y225431D01*
X218862Y225366D01*
X219089Y225294D01*
X219315Y225204D01*
X219534Y225107D01*
X219550Y225099D01*
X219583Y225083D01*
X219648Y225050D01*
X219729Y225002D01*
X219826Y224945D01*
X219939Y224872D01*
X220061Y224791D01*
X220199Y224694D01*
X220345Y224580D01*
X220490Y224467D01*
X220636Y224329D01*
X220790Y224191D01*
X220936Y224038D01*
X221074Y223876D01*
X221211Y223697D01*
X221333Y223511D01*
X221341Y223503D01*
X221357Y223462D01*
X221390Y223405D01*
X221430Y223333D01*
X221479Y223235D01*
X221535Y223122D01*
X221592Y222992D01*
X221649Y222847D01*
X221706Y222693D01*
X221762Y222522D01*
X221819Y222336D01*
X221868Y222141D01*
X221908Y221939D01*
X221941Y221728D01*
X221957Y221509D01*
X221965Y221291D01*
Y221234D01*
X221957Y221161D01*
Y221064D01*
X221941Y220951D01*
X221924Y220821D01*
X221900Y220675D01*
X221876Y220513D01*
X221835Y220343D01*
X221787Y220165D01*
X221730Y219986D01*
X221657Y219800D01*
X221576Y219622D01*
X221479Y219443D01*
X221365Y219273D01*
X221236Y219111D01*
X221228Y219103D01*
X221203Y219079D01*
X221163Y219030D01*
X221106Y218981D01*
X221033Y218909D01*
X220944Y218836D01*
X220839Y218755D01*
X220717Y218674D01*
X220588Y218584D01*
X220442Y218503D01*
X220280Y218422D01*
X220101Y218341D01*
X219915Y218269D01*
X219713Y218212D01*
X219494Y218155D01*
X219267Y218123D01*
X219113Y219759D01*
X219121D01*
X219145Y219767D01*
X219186Y219776D01*
X219234Y219784D01*
X219291Y219800D01*
X219356Y219824D01*
X219518Y219873D01*
X219688Y219946D01*
X219858Y220043D01*
X220020Y220148D01*
X220093Y220213D01*
X220158Y220286D01*
Y220294D01*
X220174Y220302D01*
X220191Y220327D01*
X220207Y220359D01*
X220239Y220399D01*
X220263Y220440D01*
X220328Y220562D01*
X220385Y220707D01*
X220442Y220886D01*
X220474Y221088D01*
X220490Y221323D01*
Y221388D01*
X220482Y221445D01*
X220474Y221501D01*
X220466Y221583D01*
X220458Y221663D01*
X220434Y221753D01*
X220385Y221955D01*
X220304Y222174D01*
X220255Y222295D01*
X220199Y222409D01*
X220134Y222530D01*
X220053Y222644D01*
X220045Y222652D01*
X220037Y222668D01*
X220004Y222701D01*
X219972Y222749D01*
X219923Y222798D01*
X219866Y222855D01*
X219802Y222927D01*
X219721Y223000D01*
X219631Y223073D01*
X219534Y223154D01*
X219421Y223235D01*
X219299Y223316D01*
X219170Y223397D01*
X219024Y223479D01*
X218870Y223551D01*
X218700Y223624D01*
X218692D01*
X218659Y223640D01*
X218610Y223657D01*
X218546Y223681D01*
X218457Y223705D01*
X218359Y223738D01*
X218254Y223770D01*
X218132Y223803D01*
X217995Y223843D01*
X217849Y223876D01*
X217541Y223932D01*
X217217Y223973D01*
X217047Y223981D01*
X216877Y223989D01*
X216868D01*
X216836D01*
X216779D01*
X216714Y223981D01*
X216625Y223973D01*
X216528Y223965D01*
X216423Y223948D01*
X216309Y223932D01*
X216058Y223876D01*
X215928Y223835D01*
X215799Y223786D01*
X215677Y223738D01*
X215548Y223673D01*
X215434Y223600D01*
X215329Y223519D01*
X215321Y223511D01*
X215305Y223495D01*
X215280Y223470D01*
X215248Y223430D01*
X215199Y223389D01*
X215159Y223333D01*
X215110Y223268D01*
X215062Y223187D01*
X215005Y223106D01*
X214956Y223017D01*
X214875Y222814D01*
X214835Y222701D01*
X214810Y222587D01*
X214794Y222458D01*
X214786Y222328D01*
Y222263D01*
X214794Y222215D01*
X214802Y222158D01*
X214810Y222085D01*
X214818Y222012D01*
X214843Y221923D01*
X214891Y221736D01*
X214964Y221534D01*
X215013Y221429D01*
X215078Y221323D01*
X215143Y221218D01*
X215215Y221112D01*
X215224Y221104D01*
X215240Y221088D01*
X215264Y221056D01*
X215296Y221023D01*
X215337Y220975D01*
X215394Y220926D01*
X215459Y220861D01*
X215540Y220805D01*
X215621Y220740D01*
X215718Y220667D01*
X215823Y220602D01*
X215937Y220529D01*
X216058Y220464D01*
X216188Y220399D01*
X216334Y220343D01*
X216488Y220286D01*
X216220Y218560D01*
X216204Y218568D01*
X216155Y218584D01*
X216091Y218617D01*
X215993Y218657D01*
X215872Y218706D01*
X215742Y218771D01*
X215588Y218852D01*
X215434Y218941D01*
X215264Y219046D01*
X215086Y219160D01*
X214908Y219281D01*
X214737Y219419D01*
X214559Y219565D01*
X214389Y219727D01*
X214235Y219897D01*
X214089Y220084D01*
X214081Y220092D01*
X214057Y220132D01*
X214024Y220189D01*
X213976Y220262D01*
X213919Y220359D01*
X213862Y220472D01*
X213790Y220602D01*
X213725Y220756D01*
X213660Y220918D01*
X213595Y221104D01*
X213530Y221291D01*
X213473Y221501D01*
X213425Y221720D01*
X213392Y221955D01*
X213368Y222190D01*
X213360Y222441D01*
Y222506D01*
X213368Y222587D01*
X213376Y222693D01*
X213384Y222822D01*
X213409Y222968D01*
X213433Y223130D01*
X213473Y223308D01*
X213522Y223495D01*
X213587Y223689D01*
X213660Y223892D01*
X213749Y224086D01*
X213854Y224281D01*
X213976Y224475D01*
X214114Y224653D01*
X214276Y224823D01*
X214284Y224832D01*
X214316Y224856D01*
X214373Y224904D01*
X214446Y224953D01*
X214543Y225018D01*
X214656Y225091D01*
X214794Y225172D01*
X214956Y225245D01*
X215135Y225326D01*
X215329Y225407D01*
X215548Y225480D01*
X215791Y225545D01*
X216042Y225593D01*
X216326Y225634D01*
X216625Y225666D01*
X216941Y225674D01*
X216950D01*
X216958D01*
X217006D01*
X217079D01*
X217185Y225666D01*
D02*
G37*
G36*
X219729Y216713D02*
Y216705D01*
X219737Y216688D01*
X219753Y216656D01*
X219769Y216624D01*
X219793Y216567D01*
X219818Y216510D01*
X219850Y216445D01*
X219891Y216364D01*
X219980Y216194D01*
X220085Y215992D01*
X220207Y215765D01*
X220336Y215522D01*
X220490Y215262D01*
X220652Y214995D01*
X220831Y214728D01*
X221017Y214460D01*
X221220Y214193D01*
X221422Y213934D01*
X221641Y213690D01*
X221868Y213464D01*
Y212483D01*
X213514Y214225D01*
Y215862D01*
X219259Y214663D01*
Y214671D01*
X219242Y214687D01*
X219226Y214711D01*
X219202Y214752D01*
X219178Y214801D01*
X219145Y214857D01*
X219105Y214922D01*
X219064Y215003D01*
X218967Y215173D01*
X218870Y215376D01*
X218764Y215595D01*
X218659Y215838D01*
Y215846D01*
X218651Y215870D01*
X218635Y215903D01*
X218619Y215951D01*
X218594Y216008D01*
X218570Y216073D01*
X218538Y216154D01*
X218505Y216235D01*
X218449Y216421D01*
X218384Y216616D01*
X218327Y216818D01*
X218278Y217021D01*
X219729Y216713D01*
D02*
G37*
G36*
X150756Y442893D02*
X149290D01*
X148156Y445845D01*
X144060D01*
X142993Y442893D01*
X141631D01*
X145365Y452656D01*
X146765D01*
X150756Y442893D01*
D02*
G37*
G36*
X114841Y480851D02*
X119118Y475050D01*
X117413D01*
X113936Y479974D01*
X112345Y478431D01*
Y475050D01*
X111050D01*
Y484813D01*
X112345D01*
Y479974D01*
X117184Y484813D01*
X118937D01*
X114841Y480851D01*
D02*
G37*
G36*
X100176Y454434D02*
X100300D01*
X100424Y454424D01*
X100710Y454405D01*
X100995Y454386D01*
X101271Y454348D01*
X101405Y454329D01*
X101519Y454301D01*
X101529D01*
X101557Y454291D01*
X101605Y454282D01*
X101662Y454263D01*
X101738Y454243D01*
X101814Y454215D01*
X101910Y454177D01*
X102015Y454139D01*
X102243Y454043D01*
X102481Y453920D01*
X102729Y453777D01*
X102957Y453596D01*
X102967Y453586D01*
X102996Y453567D01*
X103034Y453529D01*
X103081Y453481D01*
X103148Y453415D01*
X103224Y453339D01*
X103300Y453243D01*
X103396Y453148D01*
X103481Y453034D01*
X103577Y452900D01*
X103672Y452767D01*
X103767Y452624D01*
X103862Y452462D01*
X103948Y452291D01*
X104110Y451929D01*
Y451919D01*
X104129Y451881D01*
X104148Y451824D01*
X104167Y451748D01*
X104205Y451653D01*
X104234Y451538D01*
X104272Y451405D01*
X104310Y451262D01*
X104339Y451100D01*
X104377Y450919D01*
X104415Y450729D01*
X104443Y450529D01*
X104462Y450310D01*
X104481Y450090D01*
X104501Y449614D01*
Y449605D01*
Y449567D01*
Y449510D01*
Y449424D01*
X104491Y449328D01*
Y449214D01*
X104481Y449090D01*
X104472Y448947D01*
X104453Y448795D01*
X104434Y448643D01*
X104386Y448309D01*
X104319Y447966D01*
X104234Y447633D01*
Y447624D01*
X104224Y447595D01*
X104205Y447547D01*
X104186Y447490D01*
X104158Y447414D01*
X104129Y447328D01*
X104091Y447233D01*
X104053Y447138D01*
X103958Y446909D01*
X103843Y446671D01*
X103710Y446433D01*
X103567Y446214D01*
Y446204D01*
X103548Y446185D01*
X103529Y446157D01*
X103500Y446119D01*
X103415Y446023D01*
X103310Y445890D01*
X103176Y445747D01*
X103024Y445604D01*
X102862Y445461D01*
X102681Y445328D01*
X102672D01*
X102662Y445318D01*
X102634Y445299D01*
X102596Y445271D01*
X102548Y445252D01*
X102491Y445214D01*
X102357Y445147D01*
X102186Y445071D01*
X101986Y444985D01*
X101757Y444909D01*
X101510Y444842D01*
X101500D01*
X101481Y444833D01*
X101443Y444823D01*
X101386Y444814D01*
X101329Y444804D01*
X101252Y444795D01*
X101157Y444776D01*
X101062Y444766D01*
X100948Y444747D01*
X100833Y444728D01*
X100567Y444709D01*
X100271Y444690D01*
X99948Y444680D01*
X96423D01*
Y454444D01*
X100071D01*
X100176Y454434D01*
D02*
G37*
G36*
X90089Y445833D02*
X94890D01*
Y444680D01*
X88794D01*
Y454444D01*
X90089D01*
Y445833D01*
D02*
G37*
G36*
X109177Y454472D02*
X109292Y454463D01*
X109415Y454444D01*
X109549Y454415D01*
X109701Y454386D01*
X109863Y454348D01*
X110035Y454301D01*
X110206Y454243D01*
X110377Y454167D01*
X110549Y454081D01*
X110711Y453986D01*
X110873Y453872D01*
X111025Y453739D01*
X111035Y453729D01*
X111063Y453700D01*
X111101Y453662D01*
X111149Y453605D01*
X111206Y453539D01*
X111273Y453443D01*
X111340Y453348D01*
X111416Y453234D01*
X111492Y453110D01*
X111559Y452967D01*
X111625Y452824D01*
X111682Y452662D01*
X111730Y452491D01*
X111778Y452310D01*
X111797Y452129D01*
X111806Y451929D01*
Y451919D01*
Y451900D01*
Y451862D01*
X111797Y451815D01*
Y451757D01*
X111787Y451681D01*
X111759Y451519D01*
X111721Y451338D01*
X111654Y451138D01*
X111568Y450938D01*
X111444Y450738D01*
Y450729D01*
X111425Y450719D01*
X111378Y450653D01*
X111292Y450567D01*
X111178Y450452D01*
X111025Y450329D01*
X110844Y450205D01*
X110625Y450081D01*
X110368Y449967D01*
X110377D01*
X110406Y449957D01*
X110454Y449938D01*
X110511Y449910D01*
X110587Y449881D01*
X110673Y449843D01*
X110873Y449738D01*
X111092Y449605D01*
X111320Y449443D01*
X111539Y449252D01*
X111635Y449138D01*
X111730Y449024D01*
X111740Y449014D01*
X111749Y448995D01*
X111778Y448957D01*
X111806Y448909D01*
X111844Y448843D01*
X111882Y448776D01*
X111920Y448681D01*
X111968Y448586D01*
X112016Y448481D01*
X112054Y448357D01*
X112130Y448100D01*
X112187Y447795D01*
X112197Y447643D01*
X112206Y447471D01*
Y447462D01*
Y447414D01*
X112197Y447347D01*
Y447262D01*
X112178Y447157D01*
X112159Y447033D01*
X112130Y446890D01*
X112092Y446738D01*
X112044Y446576D01*
X111987Y446404D01*
X111920Y446233D01*
X111835Y446052D01*
X111730Y445871D01*
X111616Y445700D01*
X111473Y445528D01*
X111320Y445366D01*
X111311Y445357D01*
X111282Y445328D01*
X111225Y445290D01*
X111159Y445233D01*
X111073Y445166D01*
X110968Y445099D01*
X110835Y445023D01*
X110701Y444947D01*
X110539Y444861D01*
X110358Y444785D01*
X110168Y444718D01*
X109958Y444652D01*
X109739Y444595D01*
X109501Y444557D01*
X109254Y444528D01*
X108987Y444518D01*
X108920D01*
X108844Y444528D01*
X108749D01*
X108625Y444547D01*
X108482Y444566D01*
X108320Y444585D01*
X108149Y444623D01*
X107968Y444671D01*
X107777Y444728D01*
X107587Y444795D01*
X107396Y444880D01*
X107196Y444976D01*
X107006Y445090D01*
X106825Y445214D01*
X106653Y445366D01*
X106644Y445376D01*
X106615Y445404D01*
X106577Y445452D01*
X106520Y445518D01*
X106453Y445604D01*
X106377Y445709D01*
X106301Y445823D01*
X106215Y445957D01*
X106129Y446100D01*
X106053Y446261D01*
X105977Y446442D01*
X105910Y446633D01*
X105863Y446833D01*
X105815Y447043D01*
X105786Y447262D01*
X105777Y447500D01*
Y447509D01*
Y447538D01*
Y447595D01*
X105786Y447662D01*
X105796Y447738D01*
X105805Y447833D01*
X105815Y447938D01*
X105834Y448052D01*
X105891Y448309D01*
X105977Y448576D01*
X106034Y448709D01*
X106101Y448843D01*
X106167Y448967D01*
X106253Y449090D01*
X106263Y449100D01*
X106272Y449119D01*
X106301Y449148D01*
X106339Y449195D01*
X106396Y449252D01*
X106453Y449310D01*
X106529Y449376D01*
X106606Y449443D01*
X106701Y449519D01*
X106806Y449586D01*
X106920Y449662D01*
X107044Y449738D01*
X107177Y449805D01*
X107320Y449862D01*
X107472Y449919D01*
X107634Y449967D01*
X107625D01*
X107606Y449976D01*
X107558Y449995D01*
X107510Y450014D01*
X107453Y450043D01*
X107377Y450081D01*
X107215Y450167D01*
X107034Y450281D01*
X106844Y450414D01*
X106672Y450567D01*
X106520Y450748D01*
Y450757D01*
X106501Y450767D01*
X106491Y450795D01*
X106463Y450834D01*
X106434Y450891D01*
X106405Y450948D01*
X106348Y451091D01*
X106282Y451262D01*
X106224Y451472D01*
X106186Y451700D01*
X106167Y451957D01*
Y451967D01*
Y452005D01*
X106177Y452062D01*
Y452138D01*
X106186Y452224D01*
X106206Y452329D01*
X106234Y452453D01*
X106263Y452586D01*
X106301Y452719D01*
X106358Y452862D01*
X106415Y453015D01*
X106491Y453167D01*
X106577Y453310D01*
X106682Y453462D01*
X106796Y453605D01*
X106929Y453748D01*
X106939Y453758D01*
X106967Y453777D01*
X107006Y453815D01*
X107072Y453862D01*
X107149Y453920D01*
X107234Y453977D01*
X107348Y454043D01*
X107472Y454120D01*
X107606Y454186D01*
X107758Y454253D01*
X107929Y454310D01*
X108111Y454367D01*
X108310Y454415D01*
X108511Y454453D01*
X108739Y454472D01*
X108968Y454482D01*
X109092D01*
X109177Y454472D01*
D02*
G37*
G36*
X157997Y408624D02*
X157987Y408615D01*
X157959Y408577D01*
X157901Y408520D01*
X157835Y408443D01*
X157749Y408339D01*
X157654Y408224D01*
X157540Y408081D01*
X157416Y407920D01*
X157282Y407738D01*
X157130Y407538D01*
X156978Y407319D01*
X156816Y407081D01*
X156654Y406834D01*
X156482Y406567D01*
X156311Y406281D01*
X156139Y405976D01*
X156130Y405957D01*
X156101Y405900D01*
X156054Y405814D01*
X155987Y405691D01*
X155911Y405548D01*
X155825Y405367D01*
X155730Y405167D01*
X155625Y404938D01*
X155511Y404691D01*
X155396Y404433D01*
X155273Y404148D01*
X155158Y403862D01*
X155044Y403557D01*
X154930Y403243D01*
X154825Y402919D01*
X154730Y402595D01*
Y402585D01*
X154711Y402538D01*
X154691Y402471D01*
X154672Y402385D01*
X154644Y402271D01*
X154606Y402128D01*
X154577Y401976D01*
X154539Y401804D01*
X154501Y401614D01*
X154463Y401404D01*
X154425Y401185D01*
X154387Y400947D01*
X154349Y400709D01*
X154320Y400452D01*
X154272Y399919D01*
X153044D01*
Y399928D01*
Y399976D01*
X153053Y400033D01*
Y400118D01*
X153063Y400233D01*
X153072Y400366D01*
X153091Y400518D01*
X153110Y400690D01*
X153129Y400890D01*
X153158Y401100D01*
X153196Y401328D01*
X153244Y401566D01*
X153291Y401833D01*
X153349Y402100D01*
X153415Y402395D01*
X153491Y402690D01*
Y402700D01*
X153501Y402709D01*
X153510Y402766D01*
X153539Y402852D01*
X153568Y402966D01*
X153615Y403119D01*
X153672Y403290D01*
X153729Y403481D01*
X153806Y403700D01*
X153891Y403928D01*
X153987Y404176D01*
X154082Y404443D01*
X154196Y404710D01*
X154444Y405271D01*
X154730Y405843D01*
X154739Y405862D01*
X154768Y405910D01*
X154815Y405986D01*
X154873Y406100D01*
X154949Y406224D01*
X155034Y406376D01*
X155139Y406548D01*
X155253Y406729D01*
X155377Y406929D01*
X155511Y407138D01*
X155796Y407567D01*
X156120Y407996D01*
X156282Y408205D01*
X156454Y408405D01*
X151682D01*
Y409558D01*
X157997D01*
Y408624D01*
D02*
G37*
G36*
X145986Y409672D02*
X146110D01*
X146233Y409663D01*
X146519Y409644D01*
X146805Y409624D01*
X147081Y409586D01*
X147214Y409567D01*
X147329Y409539D01*
X147338D01*
X147367Y409529D01*
X147414Y409520D01*
X147472Y409501D01*
X147548Y409482D01*
X147624Y409453D01*
X147719Y409415D01*
X147824Y409377D01*
X148053Y409282D01*
X148291Y409158D01*
X148538Y409015D01*
X148767Y408834D01*
X148777Y408824D01*
X148805Y408805D01*
X148843Y408767D01*
X148891Y408720D01*
X148958Y408653D01*
X149034Y408577D01*
X149110Y408481D01*
X149205Y408386D01*
X149291Y408272D01*
X149386Y408139D01*
X149481Y408005D01*
X149577Y407862D01*
X149672Y407700D01*
X149758Y407529D01*
X149920Y407167D01*
Y407158D01*
X149939Y407119D01*
X149958Y407062D01*
X149977Y406986D01*
X150015Y406891D01*
X150043Y406777D01*
X150081Y406643D01*
X150119Y406500D01*
X150148Y406338D01*
X150186Y406157D01*
X150224Y405967D01*
X150253Y405767D01*
X150272Y405548D01*
X150291Y405329D01*
X150310Y404852D01*
Y404843D01*
Y404805D01*
Y404748D01*
Y404662D01*
X150301Y404567D01*
Y404452D01*
X150291Y404328D01*
X150281Y404186D01*
X150262Y404033D01*
X150243Y403881D01*
X150196Y403548D01*
X150129Y403205D01*
X150043Y402871D01*
Y402862D01*
X150034Y402833D01*
X150015Y402785D01*
X149996Y402728D01*
X149967Y402652D01*
X149939Y402566D01*
X149901Y402471D01*
X149862Y402376D01*
X149767Y402147D01*
X149653Y401909D01*
X149520Y401671D01*
X149377Y401452D01*
Y401442D01*
X149358Y401423D01*
X149339Y401395D01*
X149310Y401357D01*
X149224Y401261D01*
X149119Y401128D01*
X148986Y400985D01*
X148834Y400842D01*
X148672Y400700D01*
X148491Y400566D01*
X148481D01*
X148472Y400557D01*
X148443Y400538D01*
X148405Y400509D01*
X148357Y400490D01*
X148300Y400452D01*
X148167Y400385D01*
X147996Y400309D01*
X147795Y400223D01*
X147567Y400147D01*
X147319Y400080D01*
X147310D01*
X147291Y400071D01*
X147253Y400061D01*
X147195Y400052D01*
X147138Y400042D01*
X147062Y400033D01*
X146967Y400014D01*
X146872Y400004D01*
X146757Y399985D01*
X146643Y399966D01*
X146376Y399947D01*
X146081Y399928D01*
X145757Y399919D01*
X142233D01*
Y409682D01*
X145881D01*
X145986Y409672D01*
D02*
G37*
G36*
X135899Y401071D02*
X140699D01*
Y399919D01*
X134603D01*
Y409682D01*
X135899D01*
Y401071D01*
D02*
G37*
G36*
X109434Y344472D02*
X109539Y344463D01*
X109654Y344444D01*
X109777Y344424D01*
X109920Y344405D01*
X110216Y344320D01*
X110377Y344272D01*
X110530Y344205D01*
X110692Y344139D01*
X110844Y344043D01*
X110997Y343948D01*
X111139Y343834D01*
X111149Y343824D01*
X111168Y343805D01*
X111206Y343767D01*
X111254Y343720D01*
X111311Y343653D01*
X111378Y343567D01*
X111454Y343472D01*
X111530Y343367D01*
X111606Y343253D01*
X111682Y343110D01*
X111749Y342967D01*
X111825Y342805D01*
X111892Y342634D01*
X111939Y342453D01*
X111987Y342262D01*
X112025Y342053D01*
X110835Y341958D01*
Y341967D01*
X110825Y341986D01*
X110816Y342024D01*
X110806Y342072D01*
X110787Y342129D01*
X110768Y342196D01*
X110720Y342348D01*
X110654Y342519D01*
X110577Y342691D01*
X110482Y342853D01*
X110377Y342986D01*
X110368Y342996D01*
X110358Y343005D01*
X110330Y343034D01*
X110292Y343062D01*
X110244Y343110D01*
X110187Y343148D01*
X110044Y343243D01*
X109873Y343339D01*
X109663Y343424D01*
X109434Y343481D01*
X109311Y343491D01*
X109177Y343501D01*
X109082D01*
X108977Y343481D01*
X108834Y343462D01*
X108682Y343424D01*
X108511Y343367D01*
X108339Y343281D01*
X108168Y343177D01*
X108158D01*
X108139Y343158D01*
X108111Y343139D01*
X108072Y343101D01*
X107977Y343005D01*
X107844Y342872D01*
X107701Y342700D01*
X107549Y342491D01*
X107406Y342253D01*
X107272Y341967D01*
Y341958D01*
X107263Y341929D01*
X107244Y341881D01*
X107225Y341824D01*
X107196Y341738D01*
X107168Y341643D01*
X107139Y341519D01*
X107110Y341386D01*
X107082Y341234D01*
X107053Y341072D01*
X107025Y340881D01*
X106996Y340681D01*
X106977Y340462D01*
X106958Y340224D01*
X106948Y339976D01*
X106939Y339710D01*
X106948Y339719D01*
X106958Y339738D01*
X106987Y339776D01*
X107015Y339814D01*
X107053Y339871D01*
X107110Y339938D01*
X107234Y340081D01*
X107387Y340243D01*
X107568Y340405D01*
X107768Y340557D01*
X107996Y340691D01*
X108006D01*
X108025Y340700D01*
X108063Y340719D01*
X108101Y340738D01*
X108168Y340767D01*
X108234Y340795D01*
X108310Y340824D01*
X108396Y340853D01*
X108596Y340910D01*
X108815Y340967D01*
X109053Y341005D01*
X109311Y341015D01*
X109368D01*
X109425Y341005D01*
X109511D01*
X109615Y340986D01*
X109739Y340967D01*
X109873Y340938D01*
X110015Y340900D01*
X110168Y340853D01*
X110339Y340795D01*
X110501Y340729D01*
X110673Y340643D01*
X110854Y340538D01*
X111025Y340424D01*
X111187Y340281D01*
X111349Y340129D01*
X111358Y340119D01*
X111387Y340091D01*
X111425Y340033D01*
X111482Y339967D01*
X111549Y339881D01*
X111616Y339776D01*
X111692Y339652D01*
X111778Y339510D01*
X111854Y339357D01*
X111930Y339186D01*
X111997Y338995D01*
X112063Y338795D01*
X112121Y338576D01*
X112159Y338348D01*
X112187Y338109D01*
X112197Y337852D01*
Y337843D01*
Y337814D01*
Y337766D01*
X112187Y337700D01*
Y337614D01*
X112178Y337519D01*
X112168Y337414D01*
X112149Y337290D01*
X112101Y337024D01*
X112025Y336738D01*
X111930Y336442D01*
X111797Y336138D01*
Y336128D01*
X111778Y336100D01*
X111759Y336062D01*
X111721Y336014D01*
X111682Y335947D01*
X111635Y335871D01*
X111511Y335700D01*
X111349Y335499D01*
X111168Y335299D01*
X110949Y335109D01*
X110701Y334938D01*
X110692D01*
X110673Y334919D01*
X110635Y334899D01*
X110577Y334871D01*
X110511Y334842D01*
X110435Y334804D01*
X110349Y334766D01*
X110244Y334728D01*
X110139Y334690D01*
X110015Y334652D01*
X109749Y334585D01*
X109453Y334538D01*
X109292Y334528D01*
X109130Y334518D01*
X109063D01*
X108987Y334528D01*
X108882Y334538D01*
X108758Y334557D01*
X108606Y334576D01*
X108444Y334614D01*
X108263Y334652D01*
X108072Y334709D01*
X107882Y334785D01*
X107672Y334871D01*
X107472Y334985D01*
X107263Y335109D01*
X107063Y335252D01*
X106872Y335423D01*
X106691Y335614D01*
X106682Y335623D01*
X106653Y335671D01*
X106606Y335728D01*
X106548Y335823D01*
X106472Y335947D01*
X106396Y336100D01*
X106310Y336271D01*
X106224Y336481D01*
X106129Y336719D01*
X106044Y336985D01*
X105967Y337281D01*
X105901Y337614D01*
X105834Y337966D01*
X105786Y338367D01*
X105758Y338786D01*
X105748Y339243D01*
Y339252D01*
Y339271D01*
Y339310D01*
Y339367D01*
Y339433D01*
X105758Y339510D01*
Y339605D01*
X105767Y339710D01*
Y339814D01*
X105777Y339938D01*
X105805Y340205D01*
X105834Y340500D01*
X105882Y340815D01*
X105929Y341148D01*
X106005Y341491D01*
X106082Y341834D01*
X106186Y342177D01*
X106301Y342500D01*
X106444Y342815D01*
X106606Y343101D01*
X106786Y343358D01*
X106796Y343367D01*
X106825Y343405D01*
X106882Y343462D01*
X106958Y343529D01*
X107044Y343615D01*
X107158Y343710D01*
X107291Y343815D01*
X107434Y343920D01*
X107606Y344024D01*
X107787Y344129D01*
X107987Y344224D01*
X108206Y344310D01*
X108444Y344377D01*
X108692Y344434D01*
X108958Y344472D01*
X109244Y344482D01*
X109358D01*
X109434Y344472D01*
D02*
G37*
G36*
X100186Y344434D02*
X100309D01*
X100433Y344424D01*
X100719Y344405D01*
X101005Y344386D01*
X101281Y344348D01*
X101414Y344329D01*
X101529Y344301D01*
X101538D01*
X101567Y344291D01*
X101614Y344282D01*
X101672Y344263D01*
X101748Y344244D01*
X101824Y344215D01*
X101919Y344177D01*
X102024Y344139D01*
X102253Y344043D01*
X102491Y343920D01*
X102738Y343777D01*
X102967Y343596D01*
X102977Y343586D01*
X103005Y343567D01*
X103043Y343529D01*
X103091Y343481D01*
X103158Y343415D01*
X103234Y343339D01*
X103310Y343243D01*
X103405Y343148D01*
X103491Y343034D01*
X103586Y342900D01*
X103681Y342767D01*
X103777Y342624D01*
X103872Y342462D01*
X103958Y342291D01*
X104120Y341929D01*
Y341919D01*
X104139Y341881D01*
X104158Y341824D01*
X104177Y341748D01*
X104215Y341653D01*
X104243Y341538D01*
X104281Y341405D01*
X104319Y341262D01*
X104348Y341100D01*
X104386Y340919D01*
X104424Y340729D01*
X104453Y340529D01*
X104472Y340310D01*
X104491Y340091D01*
X104510Y339614D01*
Y339605D01*
Y339567D01*
Y339510D01*
Y339424D01*
X104501Y339329D01*
Y339214D01*
X104491Y339090D01*
X104481Y338948D01*
X104462Y338795D01*
X104443Y338643D01*
X104396Y338309D01*
X104329Y337966D01*
X104243Y337633D01*
Y337624D01*
X104234Y337595D01*
X104215Y337547D01*
X104196Y337490D01*
X104167Y337414D01*
X104139Y337328D01*
X104101Y337233D01*
X104062Y337138D01*
X103967Y336909D01*
X103853Y336671D01*
X103720Y336433D01*
X103577Y336214D01*
Y336204D01*
X103558Y336185D01*
X103539Y336157D01*
X103510Y336119D01*
X103424Y336023D01*
X103319Y335890D01*
X103186Y335747D01*
X103034Y335604D01*
X102872Y335461D01*
X102691Y335328D01*
X102681D01*
X102672Y335318D01*
X102643Y335299D01*
X102605Y335271D01*
X102557Y335252D01*
X102500Y335214D01*
X102367Y335147D01*
X102196Y335071D01*
X101995Y334985D01*
X101767Y334909D01*
X101519Y334842D01*
X101510D01*
X101491Y334833D01*
X101453Y334823D01*
X101395Y334814D01*
X101338Y334804D01*
X101262Y334795D01*
X101167Y334776D01*
X101072Y334766D01*
X100957Y334747D01*
X100843Y334728D01*
X100576Y334709D01*
X100281Y334690D01*
X99957Y334680D01*
X96433D01*
Y344444D01*
X100081D01*
X100186Y344434D01*
D02*
G37*
G36*
X90099Y335833D02*
X94899D01*
Y334680D01*
X88803D01*
Y344444D01*
X90099D01*
Y335833D01*
D02*
G37*
G36*
X157578Y298496D02*
X153663D01*
X153139Y295857D01*
X153148Y295867D01*
X153177Y295886D01*
X153225Y295914D01*
X153291Y295952D01*
X153368Y296000D01*
X153472Y296057D01*
X153577Y296105D01*
X153701Y296172D01*
X153834Y296229D01*
X153977Y296276D01*
X154291Y296381D01*
X154453Y296419D01*
X154625Y296448D01*
X154806Y296467D01*
X154987Y296476D01*
X155044D01*
X155111Y296467D01*
X155206D01*
X155311Y296448D01*
X155444Y296429D01*
X155587Y296400D01*
X155739Y296362D01*
X155901Y296315D01*
X156082Y296257D01*
X156263Y296191D01*
X156444Y296105D01*
X156625Y296000D01*
X156806Y295886D01*
X156978Y295743D01*
X157149Y295591D01*
X157158Y295581D01*
X157187Y295553D01*
X157235Y295495D01*
X157292Y295429D01*
X157359Y295343D01*
X157425Y295238D01*
X157511Y295114D01*
X157597Y294971D01*
X157673Y294819D01*
X157759Y294648D01*
X157825Y294457D01*
X157901Y294257D01*
X157949Y294038D01*
X157997Y293809D01*
X158025Y293562D01*
X158035Y293305D01*
Y293286D01*
Y293247D01*
X158025Y293181D01*
Y293085D01*
X158016Y292971D01*
X157997Y292838D01*
X157968Y292685D01*
X157940Y292523D01*
X157892Y292352D01*
X157844Y292162D01*
X157778Y291971D01*
X157701Y291781D01*
X157616Y291590D01*
X157511Y291390D01*
X157387Y291199D01*
X157254Y291019D01*
X157244Y291009D01*
X157206Y290971D01*
X157158Y290914D01*
X157082Y290838D01*
X156987Y290742D01*
X156873Y290647D01*
X156739Y290542D01*
X156587Y290428D01*
X156406Y290314D01*
X156215Y290209D01*
X156006Y290114D01*
X155777Y290018D01*
X155530Y289942D01*
X155273Y289885D01*
X154987Y289847D01*
X154691Y289837D01*
X154634D01*
X154568Y289847D01*
X154473D01*
X154358Y289856D01*
X154225Y289876D01*
X154082Y289904D01*
X153920Y289933D01*
X153749Y289971D01*
X153577Y290018D01*
X153396Y290076D01*
X153206Y290152D01*
X153025Y290238D01*
X152844Y290333D01*
X152672Y290447D01*
X152510Y290580D01*
X152501Y290590D01*
X152472Y290618D01*
X152434Y290657D01*
X152377Y290714D01*
X152310Y290790D01*
X152244Y290885D01*
X152158Y290990D01*
X152082Y291104D01*
X151996Y291238D01*
X151910Y291390D01*
X151834Y291552D01*
X151758Y291733D01*
X151691Y291923D01*
X151634Y292124D01*
X151586Y292333D01*
X151558Y292562D01*
X152815Y292666D01*
Y292657D01*
X152825Y292628D01*
X152834Y292581D01*
X152844Y292514D01*
X152863Y292438D01*
X152882Y292352D01*
X152949Y292143D01*
X153034Y291923D01*
X153139Y291695D01*
X153282Y291466D01*
X153368Y291371D01*
X153453Y291276D01*
X153463Y291266D01*
X153482Y291257D01*
X153510Y291238D01*
X153548Y291209D01*
X153596Y291171D01*
X153653Y291133D01*
X153806Y291047D01*
X153987Y290961D01*
X154196Y290895D01*
X154434Y290838D01*
X154558Y290828D01*
X154691Y290819D01*
X154777D01*
X154834Y290828D01*
X154911Y290838D01*
X154996Y290857D01*
X155092Y290876D01*
X155196Y290904D01*
X155435Y290980D01*
X155549Y291028D01*
X155673Y291095D01*
X155796Y291171D01*
X155920Y291257D01*
X156044Y291352D01*
X156158Y291466D01*
X156168Y291476D01*
X156187Y291495D01*
X156215Y291533D01*
X156254Y291590D01*
X156301Y291647D01*
X156349Y291733D01*
X156406Y291828D01*
X156463Y291933D01*
X156511Y292047D01*
X156568Y292181D01*
X156616Y292323D01*
X156663Y292476D01*
X156701Y292638D01*
X156730Y292819D01*
X156749Y293000D01*
X156758Y293200D01*
Y293209D01*
Y293247D01*
Y293295D01*
X156749Y293371D01*
X156739Y293457D01*
X156730Y293552D01*
X156711Y293666D01*
X156682Y293790D01*
X156616Y294048D01*
X156568Y294181D01*
X156511Y294314D01*
X156444Y294448D01*
X156368Y294581D01*
X156282Y294705D01*
X156177Y294819D01*
X156168Y294829D01*
X156149Y294848D01*
X156120Y294876D01*
X156073Y294914D01*
X156016Y294962D01*
X155949Y295009D01*
X155863Y295067D01*
X155777Y295124D01*
X155673Y295172D01*
X155558Y295229D01*
X155435Y295276D01*
X155301Y295324D01*
X155149Y295362D01*
X154996Y295390D01*
X154834Y295410D01*
X154663Y295419D01*
X154568D01*
X154511Y295410D01*
X154453D01*
X154311Y295390D01*
X154149Y295352D01*
X153977Y295305D01*
X153796Y295238D01*
X153615Y295152D01*
X153606D01*
X153596Y295143D01*
X153539Y295105D01*
X153453Y295048D01*
X153358Y294971D01*
X153234Y294867D01*
X153120Y294752D01*
X152996Y294619D01*
X152891Y294476D01*
X151767Y294619D01*
X152710Y299639D01*
X157578D01*
Y298496D01*
D02*
G37*
G36*
X145948Y299753D02*
X146071D01*
X146195Y299743D01*
X146481Y299724D01*
X146767Y299705D01*
X147043Y299667D01*
X147176Y299648D01*
X147291Y299620D01*
X147300D01*
X147329Y299610D01*
X147376Y299601D01*
X147434Y299582D01*
X147510Y299562D01*
X147586Y299534D01*
X147681Y299496D01*
X147786Y299458D01*
X148014Y299363D01*
X148253Y299239D01*
X148500Y299096D01*
X148729Y298915D01*
X148738Y298905D01*
X148767Y298886D01*
X148805Y298848D01*
X148853Y298801D01*
X148919Y298734D01*
X148996Y298658D01*
X149072Y298562D01*
X149167Y298467D01*
X149253Y298353D01*
X149348Y298220D01*
X149443Y298086D01*
X149538Y297943D01*
X149634Y297781D01*
X149719Y297610D01*
X149881Y297248D01*
Y297238D01*
X149901Y297200D01*
X149920Y297143D01*
X149939Y297067D01*
X149977Y296972D01*
X150005Y296857D01*
X150043Y296724D01*
X150081Y296581D01*
X150110Y296419D01*
X150148Y296238D01*
X150186Y296048D01*
X150215Y295848D01*
X150234Y295629D01*
X150253Y295410D01*
X150272Y294933D01*
Y294924D01*
Y294886D01*
Y294829D01*
Y294743D01*
X150262Y294648D01*
Y294533D01*
X150253Y294410D01*
X150243Y294267D01*
X150224Y294114D01*
X150205Y293962D01*
X150158Y293628D01*
X150091Y293286D01*
X150005Y292952D01*
Y292943D01*
X149996Y292914D01*
X149977Y292866D01*
X149958Y292809D01*
X149929Y292733D01*
X149901Y292647D01*
X149862Y292552D01*
X149824Y292457D01*
X149729Y292228D01*
X149615Y291990D01*
X149481Y291752D01*
X149339Y291533D01*
Y291523D01*
X149319Y291504D01*
X149300Y291476D01*
X149272Y291438D01*
X149186Y291342D01*
X149081Y291209D01*
X148948Y291066D01*
X148796Y290923D01*
X148634Y290780D01*
X148453Y290647D01*
X148443D01*
X148434Y290638D01*
X148405Y290618D01*
X148367Y290590D01*
X148319Y290571D01*
X148262Y290533D01*
X148129Y290466D01*
X147957Y290390D01*
X147757Y290304D01*
X147529Y290228D01*
X147281Y290161D01*
X147272D01*
X147253Y290152D01*
X147214Y290142D01*
X147157Y290133D01*
X147100Y290123D01*
X147024Y290114D01*
X146929Y290095D01*
X146833Y290085D01*
X146719Y290066D01*
X146605Y290047D01*
X146338Y290028D01*
X146043Y290009D01*
X145719Y289999D01*
X142195D01*
Y299762D01*
X145843D01*
X145948Y299753D01*
D02*
G37*
G36*
X135861Y291152D02*
X140661D01*
Y289999D01*
X134565D01*
Y299762D01*
X135861D01*
Y291152D01*
D02*
G37*
G36*
X110863Y228047D02*
X112178D01*
Y226952D01*
X110863D01*
Y224618D01*
X109663D01*
Y226952D01*
X105424D01*
Y228047D01*
X109882Y234382D01*
X110863D01*
Y228047D01*
D02*
G37*
G36*
X100205Y234372D02*
X100329D01*
X100452Y234363D01*
X100738Y234343D01*
X101024Y234324D01*
X101300Y234286D01*
X101433Y234267D01*
X101548Y234239D01*
X101557D01*
X101586Y234229D01*
X101634Y234220D01*
X101691Y234201D01*
X101767Y234181D01*
X101843Y234153D01*
X101938Y234115D01*
X102043Y234077D01*
X102272Y233981D01*
X102510Y233858D01*
X102757Y233715D01*
X102986Y233534D01*
X102996Y233524D01*
X103024Y233505D01*
X103062Y233467D01*
X103110Y233419D01*
X103176Y233353D01*
X103253Y233277D01*
X103329Y233181D01*
X103424Y233086D01*
X103510Y232972D01*
X103605Y232838D01*
X103700Y232705D01*
X103796Y232562D01*
X103891Y232400D01*
X103977Y232229D01*
X104139Y231867D01*
Y231857D01*
X104158Y231819D01*
X104177Y231762D01*
X104196Y231686D01*
X104234Y231591D01*
X104262Y231476D01*
X104300Y231343D01*
X104339Y231200D01*
X104367Y231038D01*
X104405Y230857D01*
X104443Y230667D01*
X104472Y230467D01*
X104491Y230248D01*
X104510Y230029D01*
X104529Y229552D01*
Y229543D01*
Y229505D01*
Y229448D01*
Y229362D01*
X104520Y229267D01*
Y229152D01*
X104510Y229028D01*
X104501Y228886D01*
X104481Y228733D01*
X104462Y228581D01*
X104415Y228248D01*
X104348Y227905D01*
X104262Y227571D01*
Y227562D01*
X104253Y227533D01*
X104234Y227486D01*
X104215Y227428D01*
X104186Y227352D01*
X104158Y227266D01*
X104120Y227171D01*
X104081Y227076D01*
X103986Y226847D01*
X103872Y226609D01*
X103738Y226371D01*
X103596Y226152D01*
Y226142D01*
X103577Y226123D01*
X103558Y226095D01*
X103529Y226057D01*
X103443Y225961D01*
X103338Y225828D01*
X103205Y225685D01*
X103053Y225542D01*
X102891Y225399D01*
X102710Y225266D01*
X102700D01*
X102691Y225257D01*
X102662Y225238D01*
X102624Y225209D01*
X102577Y225190D01*
X102519Y225152D01*
X102386Y225085D01*
X102214Y225009D01*
X102015Y224923D01*
X101786Y224847D01*
X101538Y224780D01*
X101529D01*
X101510Y224771D01*
X101472Y224761D01*
X101414Y224752D01*
X101357Y224742D01*
X101281Y224733D01*
X101186Y224714D01*
X101091Y224704D01*
X100976Y224685D01*
X100862Y224666D01*
X100595Y224647D01*
X100300Y224628D01*
X99976Y224618D01*
X96452D01*
Y234382D01*
X100100D01*
X100205Y234372D01*
D02*
G37*
G36*
X90118Y225771D02*
X94918D01*
Y224618D01*
X88822D01*
Y234382D01*
X90118D01*
Y225771D01*
D02*
G37*
G36*
X154796Y189772D02*
X154873D01*
X154949Y189762D01*
X155044Y189753D01*
X155149Y189743D01*
X155377Y189696D01*
X155616Y189639D01*
X155873Y189553D01*
X156130Y189439D01*
X156139D01*
X156158Y189420D01*
X156196Y189401D01*
X156244Y189372D01*
X156301Y189343D01*
X156358Y189296D01*
X156511Y189191D01*
X156682Y189058D01*
X156854Y188896D01*
X157016Y188705D01*
X157158Y188496D01*
Y188486D01*
X157178Y188467D01*
X157197Y188439D01*
X157216Y188391D01*
X157244Y188343D01*
X157273Y188277D01*
X157339Y188115D01*
X157406Y187934D01*
X157463Y187715D01*
X157501Y187486D01*
X157521Y187238D01*
Y187229D01*
Y187210D01*
Y187181D01*
X157511Y187134D01*
Y187076D01*
X157501Y187010D01*
X157482Y186857D01*
X157435Y186676D01*
X157378Y186486D01*
X157292Y186286D01*
X157178Y186086D01*
Y186076D01*
X157158Y186067D01*
X157140Y186038D01*
X157111Y186000D01*
X157035Y185905D01*
X156920Y185791D01*
X156777Y185657D01*
X156606Y185524D01*
X156406Y185391D01*
X156168Y185267D01*
X156177D01*
X156206Y185257D01*
X156254Y185248D01*
X156311Y185229D01*
X156387Y185200D01*
X156463Y185172D01*
X156663Y185086D01*
X156873Y184981D01*
X157101Y184829D01*
X157320Y184657D01*
X157416Y184552D01*
X157511Y184438D01*
X157521Y184429D01*
X157530Y184410D01*
X157559Y184371D01*
X157587Y184324D01*
X157625Y184267D01*
X157663Y184190D01*
X157711Y184105D01*
X157759Y184009D01*
X157797Y183895D01*
X157844Y183781D01*
X157882Y183647D01*
X157921Y183514D01*
X157978Y183209D01*
X157987Y183038D01*
X157997Y182866D01*
Y182857D01*
Y182809D01*
X157987Y182743D01*
Y182657D01*
X157968Y182543D01*
X157949Y182419D01*
X157921Y182276D01*
X157882Y182114D01*
X157835Y181952D01*
X157768Y181781D01*
X157692Y181600D01*
X157606Y181419D01*
X157492Y181238D01*
X157368Y181047D01*
X157225Y180876D01*
X157063Y180704D01*
X157054Y180695D01*
X157025Y180666D01*
X156968Y180618D01*
X156892Y180571D01*
X156806Y180495D01*
X156692Y180428D01*
X156568Y180342D01*
X156416Y180266D01*
X156254Y180180D01*
X156073Y180095D01*
X155882Y180028D01*
X155673Y179961D01*
X155454Y179904D01*
X155215Y179856D01*
X154968Y179828D01*
X154701Y179818D01*
X154644D01*
X154577Y179828D01*
X154492D01*
X154377Y179837D01*
X154253Y179856D01*
X154110Y179885D01*
X153949Y179914D01*
X153787Y179952D01*
X153615Y180009D01*
X153434Y180066D01*
X153263Y180142D01*
X153082Y180228D01*
X152901Y180333D01*
X152729Y180447D01*
X152568Y180580D01*
X152558Y180590D01*
X152529Y180618D01*
X152491Y180657D01*
X152434Y180723D01*
X152367Y180800D01*
X152291Y180885D01*
X152215Y180990D01*
X152129Y181114D01*
X152044Y181247D01*
X151958Y181400D01*
X151882Y181562D01*
X151805Y181742D01*
X151739Y181933D01*
X151682Y182133D01*
X151634Y182343D01*
X151605Y182571D01*
X152806Y182733D01*
Y182724D01*
X152815Y182686D01*
X152825Y182638D01*
X152844Y182562D01*
X152863Y182485D01*
X152891Y182381D01*
X152929Y182276D01*
X152968Y182162D01*
X153063Y181924D01*
X153187Y181676D01*
X153329Y181447D01*
X153415Y181352D01*
X153501Y181257D01*
X153510D01*
X153520Y181238D01*
X153548Y181219D01*
X153587Y181190D01*
X153634Y181152D01*
X153691Y181114D01*
X153834Y181038D01*
X154015Y180952D01*
X154225Y180876D01*
X154453Y180828D01*
X154577Y180819D01*
X154711Y180809D01*
X154796D01*
X154853Y180819D01*
X154930Y180828D01*
X155006Y180838D01*
X155101Y180857D01*
X155206Y180885D01*
X155435Y180952D01*
X155549Y181000D01*
X155673Y181057D01*
X155796Y181123D01*
X155911Y181200D01*
X156025Y181285D01*
X156139Y181390D01*
X156149Y181400D01*
X156168Y181419D01*
X156196Y181447D01*
X156235Y181495D01*
X156273Y181552D01*
X156320Y181619D01*
X156377Y181695D01*
X156435Y181790D01*
X156482Y181885D01*
X156539Y182000D01*
X156635Y182247D01*
X156663Y182381D01*
X156692Y182523D01*
X156711Y182676D01*
X156720Y182838D01*
Y182847D01*
Y182876D01*
Y182914D01*
X156711Y182981D01*
X156701Y183047D01*
X156692Y183133D01*
X156673Y183219D01*
X156654Y183324D01*
X156587Y183533D01*
X156549Y183647D01*
X156492Y183762D01*
X156425Y183876D01*
X156358Y183990D01*
X156273Y184095D01*
X156177Y184200D01*
X156168Y184209D01*
X156149Y184219D01*
X156120Y184248D01*
X156082Y184286D01*
X156025Y184324D01*
X155958Y184371D01*
X155892Y184419D01*
X155806Y184467D01*
X155711Y184514D01*
X155606Y184562D01*
X155368Y184648D01*
X155101Y184714D01*
X154958Y184724D01*
X154806Y184733D01*
X154749D01*
X154672Y184724D01*
X154577Y184714D01*
X154453Y184705D01*
X154311Y184686D01*
X154149Y184648D01*
X153968Y184610D01*
X154101Y185657D01*
X154120D01*
X154168Y185648D01*
X154234Y185638D01*
X154368D01*
X154425Y185648D01*
X154492D01*
X154568Y185657D01*
X154653Y185676D01*
X154749Y185686D01*
X154968Y185734D01*
X155196Y185810D01*
X155435Y185905D01*
X155673Y186038D01*
X155682Y186048D01*
X155701Y186057D01*
X155730Y186076D01*
X155768Y186115D01*
X155815Y186153D01*
X155873Y186210D01*
X155920Y186267D01*
X155987Y186343D01*
X156044Y186419D01*
X156092Y186514D01*
X156149Y186619D01*
X156196Y186724D01*
X156235Y186848D01*
X156263Y186981D01*
X156282Y187115D01*
X156292Y187267D01*
Y187276D01*
Y187296D01*
Y187334D01*
X156282Y187381D01*
Y187438D01*
X156273Y187505D01*
X156235Y187658D01*
X156187Y187829D01*
X156101Y188010D01*
X155997Y188191D01*
X155920Y188277D01*
X155844Y188362D01*
X155835Y188372D01*
X155825Y188381D01*
X155796Y188400D01*
X155768Y188429D01*
X155663Y188505D01*
X155530Y188581D01*
X155368Y188658D01*
X155168Y188734D01*
X154939Y188782D01*
X154825Y188801D01*
X154625D01*
X154577Y188791D01*
X154511D01*
X154444Y188782D01*
X154282Y188743D01*
X154092Y188696D01*
X153901Y188610D01*
X153701Y188505D01*
X153606Y188429D01*
X153520Y188353D01*
X153510Y188343D01*
X153501Y188334D01*
X153472Y188305D01*
X153444Y188267D01*
X153406Y188229D01*
X153368Y188172D01*
X153320Y188105D01*
X153272Y188029D01*
X153225Y187934D01*
X153167Y187838D01*
X153120Y187734D01*
X153072Y187610D01*
X153034Y187486D01*
X152987Y187343D01*
X152958Y187200D01*
X152929Y187038D01*
X151729Y187248D01*
Y187257D01*
X151739Y187305D01*
X151758Y187362D01*
X151777Y187448D01*
X151805Y187543D01*
X151844Y187667D01*
X151882Y187791D01*
X151939Y187934D01*
X151996Y188077D01*
X152072Y188229D01*
X152148Y188391D01*
X152244Y188543D01*
X152339Y188696D01*
X152453Y188848D01*
X152586Y188981D01*
X152720Y189115D01*
X152729Y189124D01*
X152758Y189143D01*
X152796Y189172D01*
X152863Y189220D01*
X152939Y189267D01*
X153025Y189324D01*
X153139Y189391D01*
X153253Y189448D01*
X153387Y189515D01*
X153539Y189572D01*
X153701Y189629D01*
X153872Y189677D01*
X154053Y189724D01*
X154244Y189753D01*
X154453Y189772D01*
X154663Y189782D01*
X154739D01*
X154796Y189772D01*
D02*
G37*
G36*
X145986Y189734D02*
X146110D01*
X146233Y189724D01*
X146519Y189705D01*
X146805Y189686D01*
X147081Y189648D01*
X147214Y189629D01*
X147329Y189601D01*
X147338D01*
X147367Y189591D01*
X147414Y189582D01*
X147472Y189562D01*
X147548Y189543D01*
X147624Y189515D01*
X147719Y189477D01*
X147824Y189439D01*
X148053Y189343D01*
X148291Y189220D01*
X148538Y189077D01*
X148767Y188896D01*
X148777Y188886D01*
X148805Y188867D01*
X148843Y188829D01*
X148891Y188782D01*
X148958Y188715D01*
X149034Y188639D01*
X149110Y188543D01*
X149205Y188448D01*
X149291Y188334D01*
X149386Y188200D01*
X149481Y188067D01*
X149577Y187924D01*
X149672Y187762D01*
X149758Y187591D01*
X149920Y187229D01*
Y187219D01*
X149939Y187181D01*
X149958Y187124D01*
X149977Y187048D01*
X150015Y186953D01*
X150043Y186838D01*
X150081Y186705D01*
X150119Y186562D01*
X150148Y186400D01*
X150186Y186219D01*
X150224Y186029D01*
X150253Y185829D01*
X150272Y185610D01*
X150291Y185391D01*
X150310Y184914D01*
Y184905D01*
Y184867D01*
Y184809D01*
Y184724D01*
X150301Y184629D01*
Y184514D01*
X150291Y184390D01*
X150281Y184248D01*
X150262Y184095D01*
X150243Y183943D01*
X150196Y183609D01*
X150129Y183267D01*
X150043Y182933D01*
Y182924D01*
X150034Y182895D01*
X150015Y182847D01*
X149996Y182790D01*
X149967Y182714D01*
X149939Y182628D01*
X149901Y182533D01*
X149862Y182438D01*
X149767Y182209D01*
X149653Y181971D01*
X149520Y181733D01*
X149377Y181514D01*
Y181504D01*
X149358Y181485D01*
X149339Y181457D01*
X149310Y181419D01*
X149224Y181323D01*
X149119Y181190D01*
X148986Y181047D01*
X148834Y180904D01*
X148672Y180761D01*
X148491Y180628D01*
X148481D01*
X148472Y180618D01*
X148443Y180599D01*
X148405Y180571D01*
X148357Y180552D01*
X148300Y180514D01*
X148167Y180447D01*
X147996Y180371D01*
X147795Y180285D01*
X147567Y180209D01*
X147319Y180142D01*
X147310D01*
X147291Y180133D01*
X147253Y180123D01*
X147195Y180114D01*
X147138Y180104D01*
X147062Y180095D01*
X146967Y180076D01*
X146872Y180066D01*
X146757Y180047D01*
X146643Y180028D01*
X146376Y180009D01*
X146081Y179990D01*
X145757Y179980D01*
X142233D01*
Y189743D01*
X145881D01*
X145986Y189734D01*
D02*
G37*
G36*
X135899Y181133D02*
X140699D01*
Y179980D01*
X134603D01*
Y189743D01*
X135899D01*
Y181133D01*
D02*
G37*
G36*
X109220Y124391D02*
X109325D01*
X109439Y124382D01*
X109573Y124362D01*
X109725Y124334D01*
X109896Y124305D01*
X110068Y124258D01*
X110249Y124210D01*
X110439Y124143D01*
X110620Y124067D01*
X110811Y123982D01*
X110982Y123877D01*
X111154Y123753D01*
X111316Y123620D01*
X111325Y123610D01*
X111354Y123581D01*
X111392Y123543D01*
X111440Y123477D01*
X111506Y123400D01*
X111573Y123315D01*
X111649Y123210D01*
X111725Y123086D01*
X111801Y122953D01*
X111878Y122800D01*
X111944Y122648D01*
X112011Y122477D01*
X112059Y122296D01*
X112097Y122096D01*
X112125Y121896D01*
X112135Y121686D01*
Y121677D01*
Y121657D01*
Y121629D01*
Y121591D01*
X112125Y121534D01*
Y121476D01*
X112106Y121324D01*
X112078Y121153D01*
X112030Y120953D01*
X111973Y120743D01*
X111887Y120534D01*
Y120524D01*
X111878Y120505D01*
X111859Y120476D01*
X111840Y120438D01*
X111811Y120381D01*
X111782Y120324D01*
X111697Y120171D01*
X111592Y120000D01*
X111449Y119790D01*
X111287Y119571D01*
X111087Y119343D01*
X111077Y119333D01*
X111059Y119314D01*
X111030Y119276D01*
X110982Y119228D01*
X110916Y119162D01*
X110849Y119086D01*
X110754Y119000D01*
X110649Y118895D01*
X110535Y118781D01*
X110392Y118647D01*
X110249Y118505D01*
X110077Y118352D01*
X109896Y118190D01*
X109696Y118009D01*
X109477Y117828D01*
X109249Y117628D01*
X109239Y117619D01*
X109201Y117590D01*
X109144Y117543D01*
X109077Y117486D01*
X108992Y117409D01*
X108896Y117324D01*
X108668Y117133D01*
X108439Y116933D01*
X108210Y116733D01*
X108106Y116638D01*
X108011Y116543D01*
X107925Y116466D01*
X107858Y116400D01*
X107849Y116390D01*
X107810Y116342D01*
X107753Y116276D01*
X107677Y116200D01*
X107601Y116095D01*
X107515Y115990D01*
X107430Y115876D01*
X107353Y115752D01*
X112144D01*
Y114599D01*
X105696D01*
Y114609D01*
Y114618D01*
Y114676D01*
Y114752D01*
X105705Y114866D01*
X105724Y114990D01*
X105744Y115133D01*
X105782Y115276D01*
X105829Y115428D01*
Y115438D01*
X105839Y115457D01*
X105858Y115495D01*
X105877Y115542D01*
X105906Y115599D01*
X105934Y115666D01*
X106020Y115838D01*
X106134Y116038D01*
X106267Y116257D01*
X106429Y116485D01*
X106620Y116723D01*
X106629Y116733D01*
X106648Y116752D01*
X106677Y116790D01*
X106725Y116838D01*
X106782Y116895D01*
X106848Y116971D01*
X106925Y117057D01*
X107020Y117152D01*
X107125Y117247D01*
X107239Y117362D01*
X107372Y117486D01*
X107506Y117619D01*
X107658Y117752D01*
X107820Y117895D01*
X108001Y118047D01*
X108182Y118200D01*
X108201Y118219D01*
X108249Y118257D01*
X108334Y118324D01*
X108439Y118419D01*
X108573Y118524D01*
X108715Y118657D01*
X108877Y118800D01*
X109049Y118952D01*
X109411Y119286D01*
X109763Y119629D01*
X109925Y119800D01*
X110077Y119972D01*
X110220Y120124D01*
X110335Y120276D01*
X110344Y120286D01*
X110363Y120314D01*
X110392Y120352D01*
X110420Y120410D01*
X110468Y120476D01*
X110516Y120553D01*
X110563Y120648D01*
X110620Y120743D01*
X110725Y120962D01*
X110820Y121200D01*
X110849Y121334D01*
X110878Y121457D01*
X110897Y121591D01*
X110906Y121715D01*
Y121724D01*
Y121743D01*
Y121781D01*
X110897Y121838D01*
X110887Y121896D01*
X110878Y121962D01*
X110839Y122134D01*
X110782Y122324D01*
X110687Y122524D01*
X110630Y122619D01*
X110563Y122724D01*
X110487Y122819D01*
X110392Y122915D01*
X110382Y122924D01*
X110373Y122934D01*
X110335Y122962D01*
X110296Y122991D01*
X110249Y123029D01*
X110182Y123067D01*
X110115Y123115D01*
X110030Y123162D01*
X109944Y123210D01*
X109839Y123258D01*
X109611Y123334D01*
X109354Y123391D01*
X109211Y123400D01*
X109058Y123410D01*
X108973D01*
X108915Y123400D01*
X108839Y123391D01*
X108753Y123381D01*
X108658Y123362D01*
X108563Y123343D01*
X108334Y123286D01*
X108106Y123191D01*
X107991Y123134D01*
X107877Y123058D01*
X107772Y122981D01*
X107668Y122886D01*
X107658Y122877D01*
X107648Y122867D01*
X107620Y122829D01*
X107591Y122791D01*
X107553Y122743D01*
X107506Y122677D01*
X107458Y122600D01*
X107410Y122515D01*
X107363Y122419D01*
X107315Y122315D01*
X107277Y122191D01*
X107229Y122067D01*
X107201Y121934D01*
X107172Y121781D01*
X107163Y121629D01*
X107153Y121457D01*
X105925Y121581D01*
Y121600D01*
X105934Y121638D01*
X105944Y121715D01*
X105953Y121810D01*
X105982Y121924D01*
X106010Y122058D01*
X106048Y122200D01*
X106086Y122362D01*
X106144Y122524D01*
X106210Y122696D01*
X106286Y122867D01*
X106372Y123048D01*
X106477Y123219D01*
X106591Y123381D01*
X106725Y123534D01*
X106868Y123677D01*
X106877Y123686D01*
X106906Y123705D01*
X106953Y123743D01*
X107020Y123791D01*
X107106Y123848D01*
X107201Y123905D01*
X107325Y123972D01*
X107458Y124039D01*
X107610Y124105D01*
X107772Y124172D01*
X107953Y124229D01*
X108153Y124286D01*
X108363Y124334D01*
X108591Y124372D01*
X108830Y124391D01*
X109087Y124401D01*
X109153D01*
X109220Y124391D01*
D02*
G37*
G36*
X100238Y124353D02*
X100362D01*
X100486Y124344D01*
X100772Y124324D01*
X101057Y124305D01*
X101334Y124267D01*
X101467Y124248D01*
X101581Y124220D01*
X101591D01*
X101619Y124210D01*
X101667Y124201D01*
X101724Y124181D01*
X101800Y124163D01*
X101876Y124134D01*
X101972Y124096D01*
X102076Y124058D01*
X102305Y123962D01*
X102543Y123839D01*
X102791Y123696D01*
X103019Y123515D01*
X103029Y123505D01*
X103057Y123486D01*
X103096Y123448D01*
X103143Y123400D01*
X103210Y123334D01*
X103286Y123258D01*
X103362Y123162D01*
X103457Y123067D01*
X103543Y122953D01*
X103638Y122819D01*
X103734Y122686D01*
X103829Y122543D01*
X103924Y122381D01*
X104010Y122210D01*
X104172Y121848D01*
Y121838D01*
X104191Y121800D01*
X104210Y121743D01*
X104229Y121667D01*
X104267Y121572D01*
X104296Y121457D01*
X104334Y121324D01*
X104372Y121181D01*
X104401Y121019D01*
X104439Y120838D01*
X104477Y120648D01*
X104505Y120448D01*
X104524Y120229D01*
X104543Y120010D01*
X104562Y119533D01*
Y119524D01*
Y119486D01*
Y119429D01*
Y119343D01*
X104553Y119248D01*
Y119133D01*
X104543Y119010D01*
X104534Y118867D01*
X104515Y118714D01*
X104496Y118562D01*
X104448Y118228D01*
X104382Y117886D01*
X104296Y117552D01*
Y117543D01*
X104286Y117514D01*
X104267Y117466D01*
X104248Y117409D01*
X104220Y117333D01*
X104191Y117247D01*
X104153Y117152D01*
X104115Y117057D01*
X104019Y116828D01*
X103905Y116590D01*
X103772Y116352D01*
X103629Y116133D01*
Y116123D01*
X103610Y116104D01*
X103591Y116076D01*
X103562Y116038D01*
X103477Y115942D01*
X103372Y115809D01*
X103238Y115666D01*
X103086Y115523D01*
X102924Y115380D01*
X102743Y115247D01*
X102734D01*
X102724Y115238D01*
X102696Y115218D01*
X102657Y115190D01*
X102610Y115171D01*
X102553Y115133D01*
X102419Y115066D01*
X102248Y114990D01*
X102048Y114904D01*
X101819Y114828D01*
X101572Y114761D01*
X101562D01*
X101543Y114752D01*
X101505Y114742D01*
X101448Y114733D01*
X101391Y114723D01*
X101314Y114714D01*
X101219Y114695D01*
X101124Y114685D01*
X101010Y114666D01*
X100895Y114647D01*
X100629Y114628D01*
X100333Y114609D01*
X100009Y114599D01*
X96485D01*
Y124362D01*
X100133D01*
X100238Y124353D01*
D02*
G37*
G36*
X90151Y115752D02*
X94952D01*
Y114599D01*
X88856D01*
Y124362D01*
X90151D01*
Y115752D01*
D02*
G37*
G36*
X157054Y69899D02*
X155854D01*
Y77529D01*
X155844D01*
X155835Y77510D01*
X155806Y77491D01*
X155777Y77462D01*
X155682Y77376D01*
X155549Y77272D01*
X155387Y77148D01*
X155187Y77005D01*
X154958Y76853D01*
X154711Y76700D01*
X154701D01*
X154682Y76681D01*
X154644Y76662D01*
X154596Y76634D01*
X154530Y76596D01*
X154463Y76557D01*
X154291Y76472D01*
X154101Y76376D01*
X153891Y76272D01*
X153672Y76176D01*
X153463Y76091D01*
Y77243D01*
X153472Y77253D01*
X153510Y77262D01*
X153558Y77291D01*
X153634Y77329D01*
X153720Y77376D01*
X153815Y77434D01*
X153930Y77491D01*
X154053Y77567D01*
X154330Y77729D01*
X154625Y77929D01*
X154920Y78148D01*
X155215Y78386D01*
X155225Y78396D01*
X155244Y78415D01*
X155292Y78453D01*
X155339Y78500D01*
X155396Y78567D01*
X155473Y78634D01*
X155549Y78720D01*
X155634Y78805D01*
X155806Y79005D01*
X155977Y79224D01*
X156139Y79462D01*
X156215Y79577D01*
X156273Y79701D01*
X157054D01*
Y69899D01*
D02*
G37*
G36*
X146929Y79653D02*
X147052D01*
X147176Y79644D01*
X147462Y79624D01*
X147748Y79605D01*
X148024Y79567D01*
X148157Y79548D01*
X148272Y79520D01*
X148281D01*
X148310Y79510D01*
X148357Y79501D01*
X148415Y79482D01*
X148491Y79462D01*
X148567Y79434D01*
X148662Y79396D01*
X148767Y79358D01*
X148996Y79262D01*
X149234Y79139D01*
X149481Y78996D01*
X149710Y78815D01*
X149719Y78805D01*
X149748Y78786D01*
X149786Y78748D01*
X149834Y78700D01*
X149901Y78634D01*
X149977Y78558D01*
X150053Y78462D01*
X150148Y78367D01*
X150234Y78253D01*
X150329Y78120D01*
X150424Y77986D01*
X150520Y77843D01*
X150615Y77681D01*
X150701Y77510D01*
X150863Y77148D01*
Y77138D01*
X150882Y77100D01*
X150901Y77043D01*
X150920Y76967D01*
X150958Y76872D01*
X150986Y76757D01*
X151024Y76624D01*
X151062Y76481D01*
X151091Y76319D01*
X151129Y76138D01*
X151167Y75948D01*
X151196Y75748D01*
X151215Y75529D01*
X151234Y75310D01*
X151253Y74833D01*
Y74824D01*
Y74786D01*
Y74729D01*
Y74643D01*
X151243Y74548D01*
Y74433D01*
X151234Y74310D01*
X151224Y74167D01*
X151205Y74014D01*
X151186Y73862D01*
X151139Y73528D01*
X151072Y73186D01*
X150986Y72852D01*
Y72843D01*
X150977Y72814D01*
X150958Y72766D01*
X150939Y72709D01*
X150910Y72633D01*
X150882Y72547D01*
X150843Y72452D01*
X150805Y72357D01*
X150710Y72128D01*
X150596Y71890D01*
X150462Y71652D01*
X150320Y71433D01*
Y71423D01*
X150301Y71404D01*
X150281Y71376D01*
X150253Y71338D01*
X150167Y71242D01*
X150062Y71109D01*
X149929Y70966D01*
X149777Y70823D01*
X149615Y70680D01*
X149434Y70547D01*
X149424D01*
X149415Y70538D01*
X149386Y70518D01*
X149348Y70490D01*
X149300Y70471D01*
X149243Y70433D01*
X149110Y70366D01*
X148938Y70290D01*
X148738Y70204D01*
X148510Y70128D01*
X148262Y70061D01*
X148253D01*
X148234Y70052D01*
X148195Y70042D01*
X148138Y70033D01*
X148081Y70023D01*
X148005Y70014D01*
X147910Y69995D01*
X147815Y69985D01*
X147700Y69966D01*
X147586Y69947D01*
X147319Y69928D01*
X147024Y69909D01*
X146700Y69899D01*
X143176D01*
Y79662D01*
X146824D01*
X146929Y79653D01*
D02*
G37*
G36*
X136842Y71052D02*
X141642D01*
Y69899D01*
X135546D01*
Y79662D01*
X136842D01*
Y71052D01*
D02*
G37*
%LPC*%
G36*
X237043Y321367D02*
X236283D01*
Y321215D01*
X235522D01*
Y321063D01*
X235066D01*
Y320911D01*
X234914D01*
Y320759D01*
X234610D01*
Y320607D01*
X234458D01*
Y320455D01*
X234306D01*
Y320303D01*
X234154D01*
Y320151D01*
X234002D01*
Y319998D01*
X233849D01*
Y319694D01*
X233697D01*
Y319238D01*
X233545D01*
Y317413D01*
X233697D01*
Y316957D01*
X233849D01*
Y316652D01*
X234002D01*
Y316500D01*
X234154D01*
Y316196D01*
X234458D01*
Y316044D01*
X234610D01*
Y315892D01*
X234762D01*
Y315740D01*
X235066D01*
Y315588D01*
X235522D01*
Y315436D01*
X236131D01*
Y315284D01*
X237348D01*
Y315436D01*
X237956D01*
Y315588D01*
X238412D01*
Y315740D01*
X238564D01*
Y315892D01*
X238869D01*
Y316044D01*
X239021D01*
Y316196D01*
X239173D01*
Y316348D01*
X239325D01*
Y316500D01*
X239477D01*
Y316805D01*
X239629D01*
Y317109D01*
X239781D01*
Y317565D01*
X239933D01*
Y319086D01*
X239781D01*
Y319542D01*
X239629D01*
Y319846D01*
X239477D01*
Y320151D01*
X239325D01*
Y320303D01*
X239173D01*
Y320455D01*
X239021D01*
Y320607D01*
X238869D01*
Y320759D01*
X238564D01*
Y320911D01*
X238260D01*
Y321063D01*
X237956D01*
Y321215D01*
X237043D01*
Y321367D01*
D02*
G37*
G36*
X237348Y308743D02*
X236131D01*
Y308591D01*
X235522D01*
Y308439D01*
X235066D01*
Y308287D01*
X234762D01*
Y308135D01*
X234610D01*
Y307983D01*
X234458D01*
Y307831D01*
X234306D01*
Y307679D01*
X234154D01*
Y307527D01*
X234002D01*
Y307375D01*
X233849D01*
Y307071D01*
X233697D01*
Y306614D01*
X233545D01*
Y304789D01*
X233697D01*
Y304333D01*
X233849D01*
Y304029D01*
X234002D01*
Y303876D01*
X234154D01*
Y303724D01*
X234306D01*
Y303572D01*
X234458D01*
Y303420D01*
X234610D01*
Y303268D01*
X234914D01*
Y303116D01*
X235218D01*
Y302964D01*
X235522D01*
Y302812D01*
X236283D01*
Y302660D01*
X237195D01*
Y302812D01*
X237956D01*
Y302964D01*
X238260D01*
Y303116D01*
X238564D01*
Y303268D01*
X238869D01*
Y303420D01*
X239021D01*
Y303572D01*
X239173D01*
Y303724D01*
X239325D01*
Y303876D01*
X239477D01*
Y304181D01*
X239629D01*
Y304485D01*
X239781D01*
Y304941D01*
X239933D01*
Y306462D01*
X239781D01*
Y306918D01*
X239629D01*
Y307223D01*
X239477D01*
Y307527D01*
X239325D01*
Y307679D01*
X239173D01*
Y307831D01*
X239021D01*
Y307983D01*
X238869D01*
Y308135D01*
X238564D01*
Y308287D01*
X238260D01*
Y308439D01*
X237956D01*
Y308591D01*
X237348D01*
Y308743D01*
D02*
G37*
G36*
X238260Y283952D02*
X237956D01*
Y279085D01*
X238108D01*
Y279237D01*
X238564D01*
Y279389D01*
X238869D01*
Y279541D01*
X239173D01*
Y279694D01*
X239325D01*
Y279846D01*
X239477D01*
Y279998D01*
X239629D01*
Y280302D01*
X239781D01*
Y280606D01*
X239933D01*
Y281214D01*
X240085D01*
Y281671D01*
X239933D01*
Y282431D01*
X239781D01*
Y282735D01*
X239629D01*
Y283040D01*
X239477D01*
Y283192D01*
X239325D01*
Y283344D01*
X239173D01*
Y283496D01*
X238869D01*
Y283648D01*
X238716D01*
Y283800D01*
X238260D01*
Y283952D01*
D02*
G37*
G36*
X238412Y226613D02*
X237956D01*
Y221898D01*
X238564D01*
Y222050D01*
X238869D01*
Y222202D01*
X239173D01*
Y222354D01*
X239325D01*
Y222506D01*
X239477D01*
Y222658D01*
X239629D01*
Y222962D01*
X239781D01*
Y223267D01*
X239933D01*
Y223875D01*
X240085D01*
Y224331D01*
X239933D01*
Y225092D01*
X239781D01*
Y225396D01*
X239629D01*
Y225700D01*
X239477D01*
Y225852D01*
X239325D01*
Y226004D01*
X239173D01*
Y226156D01*
X238869D01*
Y226308D01*
X238716D01*
Y226460D01*
X238412D01*
Y226613D01*
D02*
G37*
G36*
X199975Y341306D02*
Y338988D01*
X203313Y339474D01*
X199975Y341306D01*
D02*
G37*
G36*
X200032Y325238D02*
X200023D01*
X199991D01*
X199951D01*
X199886Y325230D01*
X199813Y325222D01*
X199732Y325214D01*
X199634Y325198D01*
X199529Y325173D01*
X199302Y325108D01*
X199189Y325068D01*
X199067Y325019D01*
X198946Y324963D01*
X198824Y324890D01*
X198711Y324809D01*
X198597Y324720D01*
X198589Y324711D01*
X198573Y324695D01*
X198541Y324663D01*
X198508Y324622D01*
X198468Y324574D01*
X198419Y324509D01*
X198362Y324436D01*
X198314Y324355D01*
X198257Y324258D01*
X198200Y324160D01*
X198152Y324047D01*
X198111Y323926D01*
X198079Y323796D01*
X198046Y323650D01*
X198030Y323504D01*
X198022Y323350D01*
Y323285D01*
X198030Y323229D01*
X198038Y323172D01*
X198046Y323099D01*
X198063Y323010D01*
X198079Y322921D01*
X198136Y322718D01*
X198216Y322491D01*
X198265Y322378D01*
X198330Y322256D01*
X198395Y322135D01*
X198476Y322013D01*
X198484Y322005D01*
X198500Y321981D01*
X198524Y321949D01*
X198565Y321908D01*
X198613Y321851D01*
X198670Y321786D01*
X198735Y321722D01*
X198816Y321641D01*
X198913Y321560D01*
X199011Y321479D01*
X199124Y321389D01*
X199254Y321300D01*
X199391Y321211D01*
X199537Y321122D01*
X199691Y321041D01*
X199861Y320960D01*
X199869Y320952D01*
X199902Y320944D01*
X199951Y320919D01*
X200023Y320895D01*
X200104Y320863D01*
X200202Y320830D01*
X200315Y320790D01*
X200437Y320749D01*
X200566Y320709D01*
X200712Y320668D01*
X201020Y320603D01*
X201336Y320555D01*
X201506Y320547D01*
X201668Y320539D01*
X201676D01*
X201709D01*
X201765D01*
X201830Y320547D01*
X201911Y320555D01*
X202008Y320563D01*
X202114Y320579D01*
X202227Y320603D01*
X202479Y320668D01*
X202600Y320709D01*
X202730Y320765D01*
X202859Y320822D01*
X202981Y320895D01*
X203102Y320976D01*
X203208Y321073D01*
X203216Y321082D01*
X203232Y321098D01*
X203256Y321130D01*
X203297Y321171D01*
X203337Y321219D01*
X203386Y321284D01*
X203443Y321357D01*
X203491Y321438D01*
X203548Y321535D01*
X203597Y321632D01*
X203645Y321746D01*
X203686Y321859D01*
X203726Y321989D01*
X203751Y322127D01*
X203767Y322265D01*
X203775Y322418D01*
Y322475D01*
X203767Y322540D01*
X203759Y322629D01*
X203743Y322734D01*
X203710Y322856D01*
X203678Y322994D01*
X203629Y323140D01*
X203564Y323302D01*
X203491Y323464D01*
X203394Y323634D01*
X203281Y323804D01*
X203143Y323974D01*
X202989Y324136D01*
X202811Y324298D01*
X202600Y324452D01*
X202584Y324460D01*
X202551Y324485D01*
X202487Y324525D01*
X202397Y324574D01*
X202284Y324630D01*
X202154Y324703D01*
X202008Y324768D01*
X201838Y324841D01*
X201660Y324922D01*
X201458Y324987D01*
X201247Y325052D01*
X201028Y325117D01*
X200793Y325165D01*
X200542Y325206D01*
X200291Y325230D01*
X200032Y325238D01*
D02*
G37*
G36*
X201441Y315718D02*
Y314591D01*
X201450Y314478D01*
Y314348D01*
X201458Y314210D01*
X201466Y314065D01*
X201482Y313757D01*
X201498Y313611D01*
X201506Y313457D01*
X201530Y313319D01*
X201547Y313190D01*
X201579Y313084D01*
X201603Y312987D01*
Y312979D01*
X201611Y312963D01*
X201620Y312946D01*
X201636Y312914D01*
X201676Y312833D01*
X201725Y312728D01*
X201798Y312614D01*
X201887Y312493D01*
X201992Y312379D01*
X202114Y312274D01*
X202122D01*
X202130Y312266D01*
X202179Y312234D01*
X202243Y312193D01*
X202341Y312144D01*
X202454Y312096D01*
X202576Y312055D01*
X202714Y312023D01*
X202851Y312015D01*
X202859D01*
X202867D01*
X202892D01*
X202924Y312023D01*
X203005Y312031D01*
X203111Y312063D01*
X203216Y312104D01*
X203329Y312169D01*
X203435Y312266D01*
X203483Y312323D01*
X203532Y312387D01*
X203540Y312395D01*
X203556Y312436D01*
X203572Y312501D01*
X203589Y312541D01*
X203605Y312598D01*
X203613Y312655D01*
X203629Y312728D01*
X203637Y312809D01*
X203645Y312898D01*
X203653Y312995D01*
X203661Y313109D01*
X203670Y313230D01*
Y315256D01*
X201441Y315718D01*
D02*
G37*
G36*
X199975Y307145D02*
Y304828D01*
X203313Y305314D01*
X199975Y307145D01*
D02*
G37*
G36*
Y271696D02*
Y269379D01*
X203313Y269865D01*
X199975Y271696D01*
D02*
G37*
G36*
X201441Y248037D02*
Y246910D01*
X201450Y246797D01*
Y246667D01*
X201458Y246530D01*
X201466Y246384D01*
X201482Y246076D01*
X201498Y245930D01*
X201506Y245776D01*
X201530Y245638D01*
X201547Y245509D01*
X201579Y245403D01*
X201603Y245306D01*
Y245298D01*
X201611Y245282D01*
X201620Y245266D01*
X201636Y245233D01*
X201676Y245152D01*
X201725Y245047D01*
X201798Y244933D01*
X201887Y244812D01*
X201992Y244698D01*
X202114Y244593D01*
X202122D01*
X202130Y244585D01*
X202179Y244552D01*
X202243Y244512D01*
X202341Y244463D01*
X202454Y244415D01*
X202576Y244374D01*
X202714Y244342D01*
X202851Y244334D01*
X202859D01*
X202867D01*
X202892D01*
X202924Y244342D01*
X203005Y244350D01*
X203111Y244382D01*
X203216Y244423D01*
X203329Y244488D01*
X203435Y244585D01*
X203483Y244642D01*
X203532Y244706D01*
X203540Y244715D01*
X203556Y244755D01*
X203572Y244820D01*
X203589Y244860D01*
X203605Y244917D01*
X203613Y244974D01*
X203629Y245047D01*
X203637Y245128D01*
X203645Y245217D01*
X203653Y245314D01*
X203661Y245427D01*
X203670Y245549D01*
Y247575D01*
X201441Y248037D01*
D02*
G37*
G36*
X199286Y184407D02*
X199124D01*
X199116D01*
X199092D01*
X199059D01*
X199019D01*
X198962Y184399D01*
X198897D01*
X198751Y184382D01*
X198597Y184358D01*
X198443Y184318D01*
X198298Y184269D01*
X198233Y184237D01*
X198176Y184196D01*
X198168Y184188D01*
X198136Y184156D01*
X198095Y184107D01*
X198046Y184042D01*
X197990Y183961D01*
X197949Y183864D01*
X197917Y183759D01*
X197909Y183637D01*
Y183597D01*
X197917Y183564D01*
X197933Y183475D01*
X197957Y183370D01*
X198006Y183240D01*
X198087Y183110D01*
X198127Y183037D01*
X198184Y182973D01*
X198249Y182900D01*
X198322Y182835D01*
X198330Y182827D01*
X198346Y182811D01*
X198387Y182786D01*
X198435Y182754D01*
X198500Y182713D01*
X198589Y182665D01*
X198695Y182616D01*
X198816Y182551D01*
X198954Y182495D01*
X199116Y182422D01*
X199294Y182357D01*
X199497Y182284D01*
X199724Y182211D01*
X199975Y182138D01*
X200242Y182073D01*
X200542Y182000D01*
X200558D01*
X200599Y181984D01*
X200672Y181976D01*
X200761Y181952D01*
X200866Y181936D01*
X200996Y181911D01*
X201142Y181879D01*
X201296Y181854D01*
X201458Y181830D01*
X201628Y181798D01*
X201968Y181757D01*
X202308Y181725D01*
X202470Y181709D01*
X202616D01*
X202624D01*
X202640D01*
X202673D01*
X202722D01*
X202770Y181717D01*
X202835D01*
X202965Y181733D01*
X203119Y181765D01*
X203264Y181798D01*
X203402Y181854D01*
X203467Y181887D01*
X203524Y181927D01*
X203532Y181936D01*
X203564Y181968D01*
X203613Y182017D01*
X203661Y182081D01*
X203710Y182162D01*
X203759Y182252D01*
X203791Y182365D01*
X203799Y182486D01*
Y182527D01*
X203791Y182560D01*
X203775Y182640D01*
X203751Y182746D01*
X203694Y182867D01*
X203621Y182997D01*
X203572Y183062D01*
X203516Y183127D01*
X203451Y183192D01*
X203378Y183256D01*
X203370Y183264D01*
X203346Y183281D01*
X203313Y183305D01*
X203264Y183337D01*
X203192Y183378D01*
X203111Y183435D01*
X203005Y183483D01*
X202892Y183548D01*
X202754Y183613D01*
X202600Y183678D01*
X202422Y183750D01*
X202235Y183824D01*
X202025Y183896D01*
X201790Y183969D01*
X201539Y184042D01*
X201263Y184107D01*
X201247D01*
X201206Y184123D01*
X201133Y184131D01*
X201044Y184156D01*
X200931Y184180D01*
X200801Y184204D01*
X200664Y184229D01*
X200501Y184253D01*
X200339Y184285D01*
X200161Y184310D01*
X199805Y184358D01*
X199456Y184391D01*
X199286Y184407D01*
D02*
G37*
G36*
X218060Y317136D02*
Y316391D01*
X218068Y316286D01*
Y316156D01*
X218076Y316018D01*
X218084Y315872D01*
X218100Y315573D01*
X218124Y315273D01*
X218149Y315135D01*
X218165Y315014D01*
X218197Y314900D01*
X218222Y314803D01*
Y314795D01*
X218230Y314779D01*
X218238Y314762D01*
X218254Y314730D01*
X218295Y314649D01*
X218351Y314544D01*
X218432Y314430D01*
X218521Y314309D01*
X218635Y314195D01*
X218764Y314090D01*
X218773D01*
X218781Y314082D01*
X218829Y314049D01*
X218910Y314009D01*
X219007Y313952D01*
X219129Y313904D01*
X219267Y313863D01*
X219429Y313831D01*
X219591Y313822D01*
X219607D01*
X219639D01*
X219696Y313831D01*
X219761Y313839D01*
X219842Y313855D01*
X219923Y313879D01*
X220004Y313912D01*
X220077Y313960D01*
X220085Y313968D01*
X220110Y313985D01*
X220142Y314017D01*
X220182Y314057D01*
X220231Y314106D01*
X220280Y314171D01*
X220320Y314244D01*
X220361Y314333D01*
X220369Y314341D01*
X220377Y314382D01*
X220385Y314414D01*
X220393Y314454D01*
X220401Y314503D01*
X220409Y314560D01*
X220417Y314625D01*
X220425Y314706D01*
Y314787D01*
X220434Y314892D01*
X220442Y314997D01*
X220450Y315127D01*
Y316634D01*
X218060Y317136D01*
D02*
G37*
G36*
X218205Y309326D02*
Y308199D01*
X218214Y308086D01*
Y307956D01*
X218222Y307818D01*
X218230Y307673D01*
X218246Y307365D01*
X218262Y307219D01*
X218270Y307065D01*
X218295Y306927D01*
X218311Y306798D01*
X218343Y306692D01*
X218367Y306595D01*
Y306587D01*
X218375Y306571D01*
X218384Y306554D01*
X218400Y306522D01*
X218440Y306441D01*
X218489Y306336D01*
X218562Y306222D01*
X218651Y306101D01*
X218756Y305987D01*
X218878Y305882D01*
X218886D01*
X218894Y305874D01*
X218943Y305841D01*
X219007Y305801D01*
X219105Y305752D01*
X219218Y305704D01*
X219340Y305663D01*
X219478Y305631D01*
X219615Y305623D01*
X219623D01*
X219631D01*
X219656D01*
X219688Y305631D01*
X219769Y305639D01*
X219874Y305671D01*
X219980Y305712D01*
X220093Y305777D01*
X220199Y305874D01*
X220247Y305931D01*
X220296Y305995D01*
X220304Y306003D01*
X220320Y306044D01*
X220336Y306109D01*
X220353Y306149D01*
X220369Y306206D01*
X220377Y306263D01*
X220393Y306336D01*
X220401Y306417D01*
X220409Y306506D01*
X220417Y306603D01*
X220425Y306716D01*
X220434Y306838D01*
Y308864D01*
X218205Y309326D01*
D02*
G37*
G36*
X216796Y301442D02*
X216787D01*
X216755D01*
X216714D01*
X216650Y301434D01*
X216577Y301425D01*
X216496Y301417D01*
X216399Y301401D01*
X216293Y301377D01*
X216066Y301312D01*
X215953Y301271D01*
X215831Y301223D01*
X215710Y301166D01*
X215588Y301093D01*
X215475Y301012D01*
X215361Y300923D01*
X215353Y300915D01*
X215337Y300899D01*
X215305Y300866D01*
X215272Y300826D01*
X215232Y300777D01*
X215183Y300713D01*
X215126Y300639D01*
X215078Y300558D01*
X215021Y300461D01*
X214964Y300364D01*
X214916Y300251D01*
X214875Y300129D01*
X214843Y299999D01*
X214810Y299854D01*
X214794Y299708D01*
X214786Y299554D01*
Y299489D01*
X214794Y299432D01*
X214802Y299375D01*
X214810Y299303D01*
X214827Y299214D01*
X214843Y299124D01*
X214900Y298922D01*
X214981Y298695D01*
X215029Y298582D01*
X215094Y298460D01*
X215159Y298338D01*
X215240Y298217D01*
X215248Y298209D01*
X215264Y298184D01*
X215288Y298152D01*
X215329Y298111D01*
X215378Y298055D01*
X215434Y297990D01*
X215499Y297925D01*
X215580Y297844D01*
X215677Y297763D01*
X215775Y297682D01*
X215888Y297593D01*
X216018Y297504D01*
X216155Y297415D01*
X216301Y297326D01*
X216455Y297244D01*
X216625Y297164D01*
X216633Y297155D01*
X216666Y297147D01*
X216714Y297123D01*
X216787Y297099D01*
X216868Y297066D01*
X216966Y297034D01*
X217079Y296993D01*
X217201Y296953D01*
X217330Y296912D01*
X217476Y296872D01*
X217784Y296807D01*
X218100Y296758D01*
X218270Y296750D01*
X218432Y296742D01*
X218440D01*
X218473D01*
X218529D01*
X218594Y296750D01*
X218675Y296758D01*
X218773Y296766D01*
X218878Y296783D01*
X218991Y296807D01*
X219242Y296872D01*
X219364Y296912D01*
X219494Y296969D01*
X219623Y297026D01*
X219745Y297099D01*
X219866Y297180D01*
X219972Y297277D01*
X219980Y297285D01*
X219996Y297301D01*
X220020Y297334D01*
X220061Y297374D01*
X220101Y297423D01*
X220150Y297488D01*
X220207Y297561D01*
X220255Y297642D01*
X220312Y297739D01*
X220361Y297836D01*
X220409Y297950D01*
X220450Y298063D01*
X220490Y298193D01*
X220515Y298330D01*
X220531Y298468D01*
X220539Y298622D01*
Y298679D01*
X220531Y298743D01*
X220523Y298833D01*
X220506Y298938D01*
X220474Y299060D01*
X220442Y299197D01*
X220393Y299343D01*
X220328Y299505D01*
X220255Y299667D01*
X220158Y299837D01*
X220045Y300007D01*
X219907Y300178D01*
X219753Y300340D01*
X219575Y300502D01*
X219364Y300656D01*
X219348Y300664D01*
X219315Y300688D01*
X219251Y300729D01*
X219161Y300777D01*
X219048Y300834D01*
X218918Y300907D01*
X218773Y300972D01*
X218602Y301045D01*
X218424Y301126D01*
X218222Y301190D01*
X218011Y301255D01*
X217792Y301320D01*
X217557Y301369D01*
X217306Y301409D01*
X217055Y301434D01*
X216796Y301442D01*
D02*
G37*
G36*
X214851Y259794D02*
Y257963D01*
X214859Y257882D01*
Y257680D01*
X214867Y257566D01*
X214883Y257339D01*
X214908Y257104D01*
X214924Y256999D01*
X214940Y256902D01*
X214956Y256813D01*
X214981Y256740D01*
Y256731D01*
X214989Y256723D01*
X215005Y256683D01*
X215037Y256618D01*
X215086Y256537D01*
X215143Y256448D01*
X215224Y256351D01*
X215313Y256254D01*
X215418Y256173D01*
X215434Y256164D01*
X215475Y256140D01*
X215532Y256099D01*
X215613Y256059D01*
X215710Y256027D01*
X215823Y255986D01*
X215945Y255962D01*
X216066Y255954D01*
X216074D01*
X216082D01*
X216139Y255962D01*
X216212Y255970D01*
X216309Y255994D01*
X216415Y256027D01*
X216528Y256083D01*
X216642Y256156D01*
X216747Y256262D01*
X216755Y256278D01*
X216787Y256318D01*
X216812Y256351D01*
X216836Y256399D01*
X216860Y256448D01*
X216885Y256505D01*
X216909Y256569D01*
X216933Y256651D01*
X216958Y256731D01*
X216982Y256829D01*
X216998Y256926D01*
X217014Y257039D01*
X217022Y257161D01*
Y259341D01*
X214851Y259794D01*
D02*
G37*
G36*
X218465Y259041D02*
Y257501D01*
X218473Y257420D01*
Y257331D01*
X218481Y257226D01*
X218497Y257023D01*
X218513Y256813D01*
X218546Y256610D01*
X218562Y256529D01*
X218586Y256448D01*
Y256440D01*
X218594Y256432D01*
X218610Y256383D01*
X218643Y256318D01*
X218683Y256229D01*
X218740Y256132D01*
X218805Y256035D01*
X218894Y255946D01*
X218991Y255865D01*
X219007Y255856D01*
X219040Y255832D01*
X219097Y255800D01*
X219178Y255767D01*
X219267Y255735D01*
X219364Y255702D01*
X219478Y255678D01*
X219599Y255670D01*
X219615D01*
X219656D01*
X219713Y255678D01*
X219785Y255694D01*
X219866Y255719D01*
X219947Y255751D01*
X220037Y255792D01*
X220118Y255856D01*
X220126Y255865D01*
X220150Y255889D01*
X220191Y255929D01*
X220231Y255994D01*
X220280Y256067D01*
X220320Y256156D01*
X220361Y256254D01*
X220393Y256375D01*
Y256383D01*
X220401Y256416D01*
X220409Y256472D01*
Y256513D01*
X220417Y256561D01*
Y256683D01*
X220425Y256756D01*
Y256845D01*
X220434Y256934D01*
Y258627D01*
X218465Y259041D01*
D02*
G37*
G36*
X218060Y231395D02*
Y230649D01*
X218068Y230544D01*
Y230414D01*
X218076Y230277D01*
X218084Y230131D01*
X218100Y229831D01*
X218124Y229531D01*
X218149Y229393D01*
X218165Y229272D01*
X218197Y229158D01*
X218222Y229061D01*
Y229053D01*
X218230Y229037D01*
X218238Y229021D01*
X218254Y228988D01*
X218295Y228907D01*
X218351Y228802D01*
X218432Y228688D01*
X218521Y228567D01*
X218635Y228454D01*
X218764Y228348D01*
X218773D01*
X218781Y228340D01*
X218829Y228308D01*
X218910Y228267D01*
X219007Y228210D01*
X219129Y228162D01*
X219267Y228121D01*
X219429Y228089D01*
X219591Y228081D01*
X219607D01*
X219639D01*
X219696Y228089D01*
X219761Y228097D01*
X219842Y228113D01*
X219923Y228137D01*
X220004Y228170D01*
X220077Y228218D01*
X220085Y228227D01*
X220110Y228243D01*
X220142Y228275D01*
X220182Y228316D01*
X220231Y228364D01*
X220280Y228429D01*
X220320Y228502D01*
X220361Y228591D01*
X220369Y228599D01*
X220377Y228640D01*
X220385Y228672D01*
X220393Y228713D01*
X220401Y228761D01*
X220409Y228818D01*
X220417Y228883D01*
X220425Y228964D01*
Y229045D01*
X220434Y229150D01*
X220442Y229256D01*
X220450Y229385D01*
Y230892D01*
X218060Y231395D01*
D02*
G37*
G36*
X146032Y451627D02*
Y451618D01*
X146023Y451589D01*
X146013Y451532D01*
X145994Y451465D01*
X145975Y451379D01*
X145956Y451284D01*
X145927Y451170D01*
X145899Y451046D01*
X145861Y450903D01*
X145822Y450760D01*
X145727Y450446D01*
X145622Y450113D01*
X145508Y449760D01*
X144422Y446893D01*
X147756D01*
X146727Y449598D01*
X146718Y449617D01*
X146708Y449655D01*
X146680Y449722D01*
X146651Y449808D01*
X146613Y449913D01*
X146565Y450036D01*
X146518Y450170D01*
X146470Y450313D01*
X146356Y450636D01*
X146242Y450979D01*
X146127Y451313D01*
X146080Y451475D01*
X146032Y451627D01*
D02*
G37*
G36*
X99976Y453291D02*
X97719D01*
Y445833D01*
X99957D01*
X100033Y445842D01*
X100128D01*
X100233Y445852D01*
X100348D01*
X100595Y445871D01*
X100843Y445909D01*
X101091Y445947D01*
X101205Y445976D01*
X101310Y446004D01*
X101319D01*
X101338Y446014D01*
X101367Y446023D01*
X101405Y446042D01*
X101500Y446081D01*
X101624Y446138D01*
X101767Y446214D01*
X101910Y446300D01*
X102053Y446404D01*
X102186Y446519D01*
X102196Y446528D01*
X102205Y446538D01*
X102234Y446566D01*
X102262Y446604D01*
X102300Y446652D01*
X102348Y446700D01*
X102453Y446842D01*
X102567Y447024D01*
X102691Y447233D01*
X102805Y447471D01*
X102910Y447747D01*
Y447757D01*
X102919Y447785D01*
X102938Y447824D01*
X102948Y447890D01*
X102967Y447966D01*
X102996Y448052D01*
X103015Y448157D01*
X103043Y448281D01*
X103062Y448405D01*
X103081Y448548D01*
X103110Y448709D01*
X103129Y448871D01*
X103148Y449052D01*
X103158Y449233D01*
X103167Y449633D01*
Y449652D01*
Y449700D01*
Y449776D01*
X103158Y449881D01*
X103148Y450014D01*
X103138Y450157D01*
X103129Y450319D01*
X103100Y450500D01*
X103081Y450681D01*
X103043Y450872D01*
X102957Y451262D01*
X102900Y451453D01*
X102834Y451643D01*
X102748Y451815D01*
X102662Y451977D01*
X102653Y451986D01*
X102643Y452015D01*
X102615Y452053D01*
X102577Y452110D01*
X102519Y452177D01*
X102462Y452253D01*
X102319Y452424D01*
X102138Y452615D01*
X101929Y452796D01*
X101691Y452958D01*
X101567Y453034D01*
X101433Y453091D01*
X101424D01*
X101405Y453100D01*
X101376Y453110D01*
X101338Y453120D01*
X101281Y453139D01*
X101214Y453158D01*
X101129Y453177D01*
X101033Y453196D01*
X100919Y453205D01*
X100805Y453224D01*
X100662Y453243D01*
X100510Y453262D01*
X100348Y453272D01*
X100167Y453281D01*
X99976Y453291D01*
D02*
G37*
G36*
X108987Y453501D02*
X108920D01*
X108872Y453491D01*
X108815D01*
X108739Y453481D01*
X108587Y453443D01*
X108406Y453396D01*
X108215Y453310D01*
X108025Y453205D01*
X107929Y453129D01*
X107844Y453053D01*
Y453043D01*
X107825Y453034D01*
X107777Y452977D01*
X107701Y452881D01*
X107625Y452757D01*
X107539Y452605D01*
X107463Y452424D01*
X107415Y452224D01*
X107406Y452119D01*
X107396Y452005D01*
Y451996D01*
Y451977D01*
Y451938D01*
X107406Y451891D01*
Y451834D01*
X107415Y451767D01*
X107453Y451605D01*
X107501Y451424D01*
X107577Y451233D01*
X107691Y451043D01*
X107758Y450957D01*
X107834Y450872D01*
X107844D01*
X107853Y450853D01*
X107882Y450834D01*
X107920Y450805D01*
X108015Y450729D01*
X108149Y450653D01*
X108310Y450576D01*
X108511Y450500D01*
X108739Y450452D01*
X108863Y450443D01*
X108996Y450433D01*
X109063D01*
X109111Y450443D01*
X109168D01*
X109244Y450452D01*
X109396Y450491D01*
X109577Y450538D01*
X109768Y450614D01*
X109958Y450719D01*
X110044Y450786D01*
X110130Y450862D01*
X110139Y450872D01*
X110149Y450881D01*
X110168Y450910D01*
X110197Y450938D01*
X110273Y451034D01*
X110358Y451157D01*
X110435Y451319D01*
X110511Y451500D01*
X110558Y451710D01*
X110577Y451824D01*
Y451938D01*
Y451948D01*
Y451967D01*
Y452005D01*
X110568Y452053D01*
Y452100D01*
X110558Y452167D01*
X110520Y452319D01*
X110463Y452500D01*
X110387Y452681D01*
X110273Y452872D01*
X110197Y452958D01*
X110120Y453043D01*
X110111Y453053D01*
X110101Y453062D01*
X110073Y453081D01*
X110035Y453120D01*
X109939Y453186D01*
X109806Y453272D01*
X109644Y453358D01*
X109453Y453434D01*
X109234Y453481D01*
X109111Y453491D01*
X108987Y453501D01*
D02*
G37*
G36*
X108958Y449452D02*
X108872D01*
X108815Y449443D01*
X108749Y449433D01*
X108663Y449424D01*
X108568Y449405D01*
X108463Y449386D01*
X108244Y449319D01*
X108130Y449271D01*
X108006Y449214D01*
X107891Y449148D01*
X107777Y449081D01*
X107663Y448986D01*
X107558Y448890D01*
X107549Y448881D01*
X107539Y448862D01*
X107510Y448833D01*
X107472Y448786D01*
X107434Y448738D01*
X107387Y448671D01*
X107329Y448595D01*
X107282Y448509D01*
X107234Y448405D01*
X107177Y448300D01*
X107091Y448062D01*
X107053Y447928D01*
X107034Y447795D01*
X107015Y447643D01*
X107006Y447490D01*
Y447481D01*
Y447471D01*
Y447443D01*
Y447405D01*
X107015Y447300D01*
X107034Y447176D01*
X107063Y447024D01*
X107110Y446852D01*
X107168Y446681D01*
X107244Y446500D01*
Y446490D01*
X107253Y446481D01*
X107291Y446423D01*
X107348Y446338D01*
X107425Y446233D01*
X107520Y446109D01*
X107644Y445985D01*
X107787Y445861D01*
X107958Y445757D01*
X107968D01*
X107977Y445747D01*
X108006Y445738D01*
X108044Y445719D01*
X108139Y445671D01*
X108272Y445633D01*
X108425Y445585D01*
X108606Y445538D01*
X108796Y445509D01*
X108996Y445499D01*
X109082D01*
X109139Y445509D01*
X109215Y445518D01*
X109301Y445528D01*
X109396Y445547D01*
X109501Y445566D01*
X109720Y445633D01*
X109844Y445681D01*
X109958Y445728D01*
X110082Y445795D01*
X110197Y445861D01*
X110311Y445947D01*
X110415Y446042D01*
X110425Y446052D01*
X110444Y446071D01*
X110463Y446100D01*
X110501Y446147D01*
X110549Y446195D01*
X110597Y446261D01*
X110644Y446338D01*
X110701Y446423D01*
X110749Y446519D01*
X110796Y446633D01*
X110892Y446871D01*
X110930Y447004D01*
X110949Y447147D01*
X110968Y447300D01*
X110977Y447452D01*
Y447462D01*
Y447490D01*
Y447538D01*
X110968Y447595D01*
X110958Y447671D01*
X110949Y447757D01*
X110930Y447852D01*
X110901Y447957D01*
X110835Y448186D01*
X110787Y448300D01*
X110730Y448424D01*
X110663Y448538D01*
X110587Y448662D01*
X110501Y448776D01*
X110396Y448881D01*
X110387Y448890D01*
X110368Y448909D01*
X110339Y448938D01*
X110292Y448967D01*
X110235Y449014D01*
X110168Y449062D01*
X110092Y449109D01*
X110006Y449167D01*
X109901Y449224D01*
X109796Y449271D01*
X109549Y449367D01*
X109415Y449395D01*
X109272Y449424D01*
X109120Y449443D01*
X108958Y449452D01*
D02*
G37*
G36*
X145786Y408529D02*
X143528D01*
Y401071D01*
X145767D01*
X145843Y401081D01*
X145938D01*
X146043Y401090D01*
X146157D01*
X146405Y401109D01*
X146652Y401147D01*
X146900Y401185D01*
X147014Y401214D01*
X147119Y401242D01*
X147129D01*
X147148Y401252D01*
X147176Y401261D01*
X147214Y401281D01*
X147310Y401319D01*
X147434Y401376D01*
X147576Y401452D01*
X147719Y401538D01*
X147862Y401642D01*
X147996Y401757D01*
X148005Y401766D01*
X148014Y401776D01*
X148043Y401804D01*
X148072Y401842D01*
X148110Y401890D01*
X148157Y401938D01*
X148262Y402081D01*
X148377Y402262D01*
X148500Y402471D01*
X148615Y402709D01*
X148719Y402985D01*
Y402995D01*
X148729Y403024D01*
X148748Y403062D01*
X148757Y403128D01*
X148777Y403205D01*
X148805Y403290D01*
X148824Y403395D01*
X148853Y403519D01*
X148872Y403643D01*
X148891Y403786D01*
X148919Y403947D01*
X148938Y404109D01*
X148958Y404290D01*
X148967Y404471D01*
X148976Y404871D01*
Y404891D01*
Y404938D01*
Y405014D01*
X148967Y405119D01*
X148958Y405252D01*
X148948Y405395D01*
X148938Y405557D01*
X148910Y405738D01*
X148891Y405919D01*
X148853Y406110D01*
X148767Y406500D01*
X148710Y406691D01*
X148643Y406881D01*
X148557Y407053D01*
X148472Y407215D01*
X148462Y407224D01*
X148453Y407253D01*
X148424Y407291D01*
X148386Y407348D01*
X148329Y407415D01*
X148272Y407491D01*
X148129Y407662D01*
X147948Y407853D01*
X147738Y408034D01*
X147500Y408196D01*
X147376Y408272D01*
X147243Y408329D01*
X147233D01*
X147214Y408339D01*
X147186Y408348D01*
X147148Y408358D01*
X147091Y408377D01*
X147024Y408396D01*
X146938Y408415D01*
X146843Y408434D01*
X146729Y408443D01*
X146614Y408462D01*
X146472Y408481D01*
X146319Y408501D01*
X146157Y408510D01*
X145976Y408520D01*
X145786Y408529D01*
D02*
G37*
G36*
X109063Y339957D02*
X108987D01*
X108930Y339948D01*
X108863Y339938D01*
X108777Y339929D01*
X108692Y339910D01*
X108587Y339881D01*
X108377Y339814D01*
X108263Y339767D01*
X108139Y339710D01*
X108025Y339643D01*
X107910Y339557D01*
X107796Y339471D01*
X107691Y339367D01*
X107682Y339357D01*
X107663Y339338D01*
X107644Y339310D01*
X107606Y339262D01*
X107558Y339205D01*
X107510Y339138D01*
X107463Y339052D01*
X107415Y338957D01*
X107358Y338852D01*
X107310Y338738D01*
X107263Y338614D01*
X107215Y338481D01*
X107177Y338338D01*
X107158Y338176D01*
X107139Y338014D01*
X107129Y337843D01*
Y337833D01*
Y337814D01*
Y337785D01*
Y337738D01*
X107139Y337681D01*
Y337614D01*
X107158Y337462D01*
X107196Y337281D01*
X107234Y337081D01*
X107301Y336871D01*
X107387Y336652D01*
Y336642D01*
X107396Y336623D01*
X107415Y336595D01*
X107434Y336557D01*
X107491Y336461D01*
X107577Y336338D01*
X107682Y336195D01*
X107806Y336052D01*
X107958Y335919D01*
X108120Y335795D01*
X108130D01*
X108139Y335785D01*
X108168Y335766D01*
X108206Y335747D01*
X108292Y335700D01*
X108415Y335652D01*
X108568Y335595D01*
X108739Y335547D01*
X108920Y335509D01*
X109111Y335499D01*
X109187D01*
X109234Y335509D01*
X109301Y335519D01*
X109377Y335528D01*
X109558Y335576D01*
X109768Y335652D01*
X109873Y335700D01*
X109987Y335757D01*
X110092Y335823D01*
X110206Y335909D01*
X110311Y336004D01*
X110415Y336109D01*
X110425Y336119D01*
X110444Y336138D01*
X110463Y336176D01*
X110501Y336223D01*
X110539Y336281D01*
X110587Y336357D01*
X110644Y336442D01*
X110692Y336547D01*
X110739Y336662D01*
X110796Y336785D01*
X110844Y336919D01*
X110882Y337071D01*
X110920Y337233D01*
X110949Y337405D01*
X110958Y337585D01*
X110968Y337776D01*
Y337785D01*
Y337824D01*
Y337871D01*
X110958Y337947D01*
X110949Y338024D01*
X110939Y338128D01*
X110920Y338233D01*
X110901Y338357D01*
X110835Y338605D01*
X110796Y338738D01*
X110739Y338871D01*
X110673Y339005D01*
X110606Y339128D01*
X110520Y339252D01*
X110425Y339367D01*
X110415Y339376D01*
X110396Y339395D01*
X110368Y339424D01*
X110330Y339462D01*
X110273Y339500D01*
X110216Y339557D01*
X110139Y339605D01*
X110054Y339662D01*
X109958Y339719D01*
X109863Y339767D01*
X109625Y339862D01*
X109501Y339900D01*
X109358Y339929D01*
X109215Y339948D01*
X109063Y339957D01*
D02*
G37*
G36*
X99986Y343291D02*
X97728D01*
Y335833D01*
X99967D01*
X100043Y335842D01*
X100138D01*
X100243Y335852D01*
X100357D01*
X100605Y335871D01*
X100852Y335909D01*
X101100Y335947D01*
X101214Y335976D01*
X101319Y336004D01*
X101329D01*
X101348Y336014D01*
X101376Y336023D01*
X101414Y336042D01*
X101510Y336081D01*
X101634Y336138D01*
X101776Y336214D01*
X101919Y336300D01*
X102062Y336404D01*
X102196Y336519D01*
X102205Y336528D01*
X102214Y336538D01*
X102243Y336566D01*
X102272Y336604D01*
X102310Y336652D01*
X102357Y336700D01*
X102462Y336842D01*
X102577Y337024D01*
X102700Y337233D01*
X102815Y337471D01*
X102919Y337747D01*
Y337757D01*
X102929Y337785D01*
X102948Y337824D01*
X102957Y337890D01*
X102977Y337966D01*
X103005Y338052D01*
X103024Y338157D01*
X103053Y338281D01*
X103072Y338405D01*
X103091Y338548D01*
X103119Y338709D01*
X103138Y338871D01*
X103158Y339052D01*
X103167Y339233D01*
X103176Y339633D01*
Y339652D01*
Y339700D01*
Y339776D01*
X103167Y339881D01*
X103158Y340014D01*
X103148Y340157D01*
X103138Y340319D01*
X103110Y340500D01*
X103091Y340681D01*
X103053Y340872D01*
X102967Y341262D01*
X102910Y341453D01*
X102843Y341643D01*
X102757Y341815D01*
X102672Y341977D01*
X102662Y341986D01*
X102653Y342015D01*
X102624Y342053D01*
X102586Y342110D01*
X102529Y342177D01*
X102472Y342253D01*
X102329Y342424D01*
X102148Y342615D01*
X101938Y342796D01*
X101700Y342958D01*
X101576Y343034D01*
X101443Y343091D01*
X101433D01*
X101414Y343101D01*
X101386Y343110D01*
X101348Y343120D01*
X101291Y343139D01*
X101224Y343158D01*
X101138Y343177D01*
X101043Y343196D01*
X100929Y343205D01*
X100814Y343224D01*
X100672Y343243D01*
X100519Y343262D01*
X100357Y343272D01*
X100176Y343281D01*
X99986Y343291D01*
D02*
G37*
G36*
X145748Y298610D02*
X143490D01*
Y291152D01*
X145729D01*
X145805Y291161D01*
X145900D01*
X146005Y291171D01*
X146119D01*
X146367Y291190D01*
X146614Y291228D01*
X146862Y291266D01*
X146976Y291295D01*
X147081Y291323D01*
X147091D01*
X147110Y291333D01*
X147138Y291342D01*
X147176Y291362D01*
X147272Y291400D01*
X147395Y291457D01*
X147538Y291533D01*
X147681Y291619D01*
X147824Y291723D01*
X147957Y291838D01*
X147967Y291847D01*
X147976Y291857D01*
X148005Y291885D01*
X148034Y291923D01*
X148072Y291971D01*
X148119Y292019D01*
X148224Y292162D01*
X148338Y292342D01*
X148462Y292552D01*
X148576Y292790D01*
X148681Y293066D01*
Y293076D01*
X148691Y293104D01*
X148710Y293143D01*
X148719Y293209D01*
X148738Y293286D01*
X148767Y293371D01*
X148786Y293476D01*
X148815Y293600D01*
X148834Y293724D01*
X148853Y293867D01*
X148881Y294028D01*
X148900Y294190D01*
X148919Y294371D01*
X148929Y294552D01*
X148938Y294952D01*
Y294971D01*
Y295019D01*
Y295095D01*
X148929Y295200D01*
X148919Y295333D01*
X148910Y295476D01*
X148900Y295638D01*
X148872Y295819D01*
X148853Y296000D01*
X148815Y296191D01*
X148729Y296581D01*
X148672Y296772D01*
X148605Y296962D01*
X148519Y297134D01*
X148434Y297295D01*
X148424Y297305D01*
X148415Y297334D01*
X148386Y297372D01*
X148348Y297429D01*
X148291Y297496D01*
X148234Y297572D01*
X148091Y297743D01*
X147910Y297934D01*
X147700Y298115D01*
X147462Y298277D01*
X147338Y298353D01*
X147205Y298410D01*
X147195D01*
X147176Y298419D01*
X147148Y298429D01*
X147110Y298438D01*
X147052Y298458D01*
X146986Y298477D01*
X146900Y298496D01*
X146805Y298515D01*
X146691Y298524D01*
X146576Y298543D01*
X146433Y298562D01*
X146281Y298581D01*
X146119Y298591D01*
X145938Y298601D01*
X145748Y298610D01*
D02*
G37*
G36*
X109663Y232458D02*
X106596Y228047D01*
X109663D01*
Y232458D01*
D02*
G37*
G36*
X100005Y233229D02*
X97747D01*
Y225771D01*
X99986D01*
X100062Y225781D01*
X100157D01*
X100262Y225790D01*
X100376D01*
X100624Y225809D01*
X100871Y225847D01*
X101119Y225885D01*
X101233Y225914D01*
X101338Y225942D01*
X101348D01*
X101367Y225952D01*
X101395Y225961D01*
X101433Y225980D01*
X101529Y226019D01*
X101652Y226076D01*
X101795Y226152D01*
X101938Y226238D01*
X102081Y226343D01*
X102214Y226457D01*
X102224Y226466D01*
X102234Y226476D01*
X102262Y226504D01*
X102291Y226542D01*
X102329Y226590D01*
X102376Y226638D01*
X102481Y226781D01*
X102596Y226962D01*
X102719Y227171D01*
X102834Y227409D01*
X102938Y227686D01*
Y227695D01*
X102948Y227724D01*
X102967Y227762D01*
X102977Y227828D01*
X102996Y227905D01*
X103024Y227990D01*
X103043Y228095D01*
X103072Y228219D01*
X103091Y228343D01*
X103110Y228486D01*
X103138Y228647D01*
X103158Y228809D01*
X103176Y228990D01*
X103186Y229171D01*
X103196Y229571D01*
Y229590D01*
Y229638D01*
Y229714D01*
X103186Y229819D01*
X103176Y229952D01*
X103167Y230095D01*
X103158Y230257D01*
X103129Y230438D01*
X103110Y230619D01*
X103072Y230810D01*
X102986Y231200D01*
X102929Y231391D01*
X102862Y231581D01*
X102776Y231753D01*
X102691Y231915D01*
X102681Y231924D01*
X102672Y231953D01*
X102643Y231991D01*
X102605Y232048D01*
X102548Y232115D01*
X102491Y232191D01*
X102348Y232362D01*
X102167Y232553D01*
X101957Y232734D01*
X101719Y232896D01*
X101595Y232972D01*
X101462Y233029D01*
X101453D01*
X101433Y233039D01*
X101405Y233048D01*
X101367Y233058D01*
X101310Y233077D01*
X101243Y233096D01*
X101157Y233115D01*
X101062Y233134D01*
X100948Y233143D01*
X100833Y233162D01*
X100690Y233181D01*
X100538Y233200D01*
X100376Y233210D01*
X100195Y233220D01*
X100005Y233229D01*
D02*
G37*
G36*
X145786Y188591D02*
X143528D01*
Y181133D01*
X145767D01*
X145843Y181142D01*
X145938D01*
X146043Y181152D01*
X146157D01*
X146405Y181171D01*
X146652Y181209D01*
X146900Y181247D01*
X147014Y181276D01*
X147119Y181304D01*
X147129D01*
X147148Y181314D01*
X147176Y181323D01*
X147214Y181342D01*
X147310Y181381D01*
X147434Y181438D01*
X147576Y181514D01*
X147719Y181600D01*
X147862Y181704D01*
X147996Y181819D01*
X148005Y181828D01*
X148014Y181838D01*
X148043Y181866D01*
X148072Y181904D01*
X148110Y181952D01*
X148157Y182000D01*
X148262Y182143D01*
X148377Y182323D01*
X148500Y182533D01*
X148615Y182771D01*
X148719Y183047D01*
Y183057D01*
X148729Y183085D01*
X148748Y183124D01*
X148757Y183190D01*
X148777Y183267D01*
X148805Y183352D01*
X148824Y183457D01*
X148853Y183581D01*
X148872Y183705D01*
X148891Y183848D01*
X148919Y184009D01*
X148938Y184171D01*
X148958Y184352D01*
X148967Y184533D01*
X148976Y184933D01*
Y184952D01*
Y185000D01*
Y185076D01*
X148967Y185181D01*
X148958Y185314D01*
X148948Y185457D01*
X148938Y185619D01*
X148910Y185800D01*
X148891Y185981D01*
X148853Y186172D01*
X148767Y186562D01*
X148710Y186753D01*
X148643Y186943D01*
X148557Y187115D01*
X148472Y187276D01*
X148462Y187286D01*
X148453Y187315D01*
X148424Y187353D01*
X148386Y187410D01*
X148329Y187477D01*
X148272Y187553D01*
X148129Y187724D01*
X147948Y187915D01*
X147738Y188096D01*
X147500Y188258D01*
X147376Y188334D01*
X147243Y188391D01*
X147233D01*
X147214Y188400D01*
X147186Y188410D01*
X147148Y188419D01*
X147091Y188439D01*
X147024Y188458D01*
X146938Y188477D01*
X146843Y188496D01*
X146729Y188505D01*
X146614Y188524D01*
X146472Y188543D01*
X146319Y188562D01*
X146157Y188572D01*
X145976Y188581D01*
X145786Y188591D01*
D02*
G37*
G36*
X100038Y123210D02*
X97781D01*
Y115752D01*
X100019D01*
X100095Y115761D01*
X100190D01*
X100295Y115771D01*
X100409D01*
X100657Y115790D01*
X100905Y115828D01*
X101152Y115866D01*
X101267Y115895D01*
X101372Y115923D01*
X101381D01*
X101400Y115933D01*
X101429Y115942D01*
X101467Y115962D01*
X101562Y116000D01*
X101686Y116057D01*
X101829Y116133D01*
X101972Y116219D01*
X102114Y116323D01*
X102248Y116438D01*
X102257Y116447D01*
X102267Y116457D01*
X102296Y116485D01*
X102324Y116523D01*
X102362Y116571D01*
X102410Y116619D01*
X102515Y116762D01*
X102629Y116943D01*
X102753Y117152D01*
X102867Y117390D01*
X102972Y117666D01*
Y117676D01*
X102981Y117704D01*
X103000Y117743D01*
X103010Y117809D01*
X103029Y117886D01*
X103057Y117971D01*
X103076Y118076D01*
X103105Y118200D01*
X103124Y118324D01*
X103143Y118467D01*
X103172Y118629D01*
X103191Y118790D01*
X103210Y118971D01*
X103219Y119152D01*
X103229Y119552D01*
Y119571D01*
Y119619D01*
Y119695D01*
X103219Y119800D01*
X103210Y119933D01*
X103200Y120076D01*
X103191Y120238D01*
X103162Y120419D01*
X103143Y120600D01*
X103105Y120791D01*
X103019Y121181D01*
X102962Y121372D01*
X102896Y121562D01*
X102810Y121734D01*
X102724Y121896D01*
X102715Y121905D01*
X102705Y121934D01*
X102676Y121972D01*
X102638Y122029D01*
X102581Y122096D01*
X102524Y122172D01*
X102381Y122343D01*
X102200Y122534D01*
X101991Y122715D01*
X101753Y122877D01*
X101629Y122953D01*
X101495Y123010D01*
X101486D01*
X101467Y123020D01*
X101438Y123029D01*
X101400Y123039D01*
X101343Y123058D01*
X101276Y123077D01*
X101191Y123096D01*
X101095Y123115D01*
X100981Y123124D01*
X100867Y123143D01*
X100724Y123162D01*
X100571Y123181D01*
X100409Y123191D01*
X100229Y123201D01*
X100038Y123210D01*
D02*
G37*
G36*
X146729Y78510D02*
X144471D01*
Y71052D01*
X146710D01*
X146786Y71062D01*
X146881D01*
X146986Y71071D01*
X147100D01*
X147348Y71090D01*
X147595Y71128D01*
X147843Y71166D01*
X147957Y71195D01*
X148062Y71223D01*
X148072D01*
X148091Y71233D01*
X148119Y71242D01*
X148157Y71262D01*
X148253Y71300D01*
X148377Y71357D01*
X148519Y71433D01*
X148662Y71519D01*
X148805Y71623D01*
X148938Y71738D01*
X148948Y71747D01*
X148958Y71757D01*
X148986Y71785D01*
X149015Y71824D01*
X149053Y71871D01*
X149100Y71919D01*
X149205Y72062D01*
X149319Y72243D01*
X149443Y72452D01*
X149558Y72690D01*
X149662Y72966D01*
Y72976D01*
X149672Y73005D01*
X149691Y73043D01*
X149700Y73109D01*
X149719Y73186D01*
X149748Y73271D01*
X149767Y73376D01*
X149796Y73500D01*
X149815Y73624D01*
X149834Y73767D01*
X149862Y73928D01*
X149881Y74090D01*
X149901Y74271D01*
X149910Y74452D01*
X149920Y74852D01*
Y74872D01*
Y74919D01*
Y74995D01*
X149910Y75100D01*
X149901Y75233D01*
X149891Y75376D01*
X149881Y75538D01*
X149853Y75719D01*
X149834Y75900D01*
X149796Y76091D01*
X149710Y76481D01*
X149653Y76672D01*
X149586Y76862D01*
X149500Y77034D01*
X149415Y77196D01*
X149405Y77205D01*
X149396Y77234D01*
X149367Y77272D01*
X149329Y77329D01*
X149272Y77396D01*
X149215Y77472D01*
X149072Y77643D01*
X148891Y77834D01*
X148681Y78015D01*
X148443Y78177D01*
X148319Y78253D01*
X148186Y78310D01*
X148176D01*
X148157Y78320D01*
X148129Y78329D01*
X148091Y78339D01*
X148034Y78358D01*
X147967Y78377D01*
X147881Y78396D01*
X147786Y78415D01*
X147672Y78424D01*
X147557Y78443D01*
X147414Y78462D01*
X147262Y78481D01*
X147100Y78491D01*
X146919Y78500D01*
X146729Y78510D01*
D02*
G37*
%LPD*%
D10*
X123302Y84500D02*
G03*
X123302Y84500I-22802J0D01*
G01*
X169102Y39800D02*
G03*
X169102Y39800I-22802J0D01*
G01*
X123302Y414500D02*
G03*
X123302Y414500I-22802J0D01*
G01*
X169102Y369800D02*
G03*
X169102Y369800I-22802J0D01*
G01*
X123302Y304500D02*
G03*
X123302Y304500I-22802J0D01*
G01*
X169102Y259800D02*
G03*
X169102Y259800I-22802J0D01*
G01*
X123302Y194500D02*
G03*
X123302Y194500I-22802J0D01*
G01*
X169102Y149800D02*
G03*
X169102Y149800I-22802J0D01*
G01*
D11*
X147800Y464800D02*
G03*
X147800Y464800I-1500J0D01*
G01*
Y494800D02*
G03*
X147800Y494800I-1500J0D01*
G01*
X162800Y479800D02*
G03*
X162800Y479800I-1500J0D01*
G01*
X132800D02*
G03*
X132800Y479800I-1500J0D01*
G01*
D12*
X168300D02*
G03*
X168300Y479800I-22000J0D01*
G01*
M02*
