G04*
G04 #@! TF.GenerationSoftware,Altium Limited,Altium Designer,24.1.2 (44)*
G04*
G04 Layer_Color=255*
%FSLAX44Y44*%
%MOMM*%
G71*
G04*
G04 #@! TF.SameCoordinates,0E3A5277-1BD3-41FE-89CB-7762C95CC174*
G04*
G04*
G04 #@! TF.FilePolarity,Positive*
G04*
G01*
G75*
%ADD28C,1.1000*%
%ADD29C,0.9000*%
%ADD30C,0.6000*%
%ADD31C,6.3500*%
%ADD32C,1.0000*%
%ADD33R,0.9100X1.2200*%
%ADD34R,0.9100X1.2200*%
%ADD35R,0.8000X0.7000*%
%ADD36C,1.5000*%
%ADD37R,0.9500X0.9000*%
%ADD38R,2.5000X2.5000*%
G04:AMPARAMS|DCode=39|XSize=0.2746mm|YSize=0.8048mm|CornerRadius=0.1373mm|HoleSize=0mm|Usage=FLASHONLY|Rotation=180.000|XOffset=0mm|YOffset=0mm|HoleType=Round|Shape=RoundedRectangle|*
%AMROUNDEDRECTD39*
21,1,0.2746,0.5302,0,0,180.0*
21,1,0.0000,0.8048,0,0,180.0*
1,1,0.2746,0.0000,0.2651*
1,1,0.2746,0.0000,0.2651*
1,1,0.2746,0.0000,-0.2651*
1,1,0.2746,0.0000,-0.2651*
%
%ADD39ROUNDEDRECTD39*%
G04:AMPARAMS|DCode=40|XSize=0.2746mm|YSize=0.8048mm|CornerRadius=0.1373mm|HoleSize=0mm|Usage=FLASHONLY|Rotation=270.000|XOffset=0mm|YOffset=0mm|HoleType=Round|Shape=RoundedRectangle|*
%AMROUNDEDRECTD40*
21,1,0.2746,0.5302,0,0,270.0*
21,1,0.0000,0.8048,0,0,270.0*
1,1,0.2746,-0.2651,0.0000*
1,1,0.2746,-0.2651,0.0000*
1,1,0.2746,0.2651,0.0000*
1,1,0.2746,0.2651,0.0000*
%
%ADD40ROUNDEDRECTD40*%
%ADD41R,1.6000X0.8000*%
%ADD42R,3.0000X2.1000*%
D28*
X100500Y404500D02*
D03*
X146300Y359800D02*
D03*
X100500Y294500D02*
D03*
X146300Y249800D02*
D03*
X100500Y184500D02*
D03*
X146300Y139800D02*
D03*
X100500Y74500D02*
D03*
X146300Y29800D02*
D03*
D29*
X110500Y414500D02*
D03*
X90500D02*
D03*
X156300Y369800D02*
D03*
X136300D02*
D03*
X110500Y304500D02*
D03*
X90500D02*
D03*
X156300Y259800D02*
D03*
X136300D02*
D03*
X110500Y194500D02*
D03*
X90500D02*
D03*
X156300Y149800D02*
D03*
X136300D02*
D03*
X110500Y84500D02*
D03*
X90500D02*
D03*
X156300Y39800D02*
D03*
X136300D02*
D03*
D30*
X338328Y7114D02*
D03*
X340335Y15778D02*
D03*
Y31779D02*
D03*
Y47779D02*
D03*
X328845Y4644D02*
D03*
X312845D02*
D03*
X296845D02*
D03*
X333114Y530371D02*
D03*
X317114Y530356D02*
D03*
X301114D02*
D03*
X285114D02*
D03*
X269114D02*
D03*
X253114D02*
D03*
X237114D02*
D03*
X221114D02*
D03*
X205114D02*
D03*
X189114D02*
D03*
X173114D02*
D03*
X157114D02*
D03*
X141114D02*
D03*
X125114D02*
D03*
X109114D02*
D03*
X93114D02*
D03*
X77114D02*
D03*
X61114D02*
D03*
X45114D02*
D03*
X29114D02*
D03*
X13114D02*
D03*
X4644Y516782D02*
D03*
Y500782D02*
D03*
Y484782D02*
D03*
Y468782D02*
D03*
Y452782D02*
D03*
Y436782D02*
D03*
Y420782D02*
D03*
Y404782D02*
D03*
Y388782D02*
D03*
Y372782D02*
D03*
Y356782D02*
D03*
Y340782D02*
D03*
Y324782D02*
D03*
Y308782D02*
D03*
Y292782D02*
D03*
Y276782D02*
D03*
Y260782D02*
D03*
Y244782D02*
D03*
Y228782D02*
D03*
Y212782D02*
D03*
Y196782D02*
D03*
Y180782D02*
D03*
Y164782D02*
D03*
Y148782D02*
D03*
Y132782D02*
D03*
Y116782D02*
D03*
Y100782D02*
D03*
Y84782D02*
D03*
Y68782D02*
D03*
Y52782D02*
D03*
Y36782D02*
D03*
Y20782D02*
D03*
X8860Y5348D02*
D03*
X24845Y4644D02*
D03*
X40845D02*
D03*
X56845D02*
D03*
X72845D02*
D03*
X88845D02*
D03*
X104845D02*
D03*
X120845D02*
D03*
X136845D02*
D03*
X152845D02*
D03*
X168845D02*
D03*
X184845D02*
D03*
X200845D02*
D03*
X216845D02*
D03*
X232845D02*
D03*
X248845D02*
D03*
X264845D02*
D03*
X280845D02*
D03*
X340335Y63779D02*
D03*
X332650Y77812D02*
D03*
X321004Y88783D02*
D03*
X320356Y104770D02*
D03*
Y120770D02*
D03*
Y136770D02*
D03*
Y152770D02*
D03*
Y168770D02*
D03*
Y184770D02*
D03*
Y200770D02*
D03*
Y216770D02*
D03*
Y232770D02*
D03*
Y248770D02*
D03*
Y264770D02*
D03*
Y280770D02*
D03*
Y296770D02*
D03*
Y312770D02*
D03*
Y328770D02*
D03*
Y344770D02*
D03*
Y360770D02*
D03*
Y376770D02*
D03*
Y392770D02*
D03*
Y408770D02*
D03*
Y424770D02*
D03*
X323615Y440435D02*
D03*
X337961Y447520D02*
D03*
X340355Y463340D02*
D03*
Y511339D02*
D03*
D31*
X309000Y49000D02*
D03*
Y499000D02*
D03*
D32*
X325164Y482836D02*
D03*
X292836D02*
D03*
Y515164D02*
D03*
X325164D02*
D03*
X331860Y499000D02*
D03*
X309000Y476140D02*
D03*
X286140Y499000D02*
D03*
X309000Y521860D02*
D03*
X325164Y32836D02*
D03*
X292836D02*
D03*
Y65164D02*
D03*
X325164D02*
D03*
X331860Y49000D02*
D03*
X309000Y26140D02*
D03*
X286140Y49000D02*
D03*
X309000Y71860D02*
D03*
D33*
X29150Y71800D02*
D03*
X74950Y137100D02*
D03*
X29150Y401800D02*
D03*
Y181800D02*
D03*
X74950Y357100D02*
D03*
Y247100D02*
D03*
X29150Y291800D02*
D03*
X74950Y27100D02*
D03*
D34*
X61850Y71800D02*
D03*
X107650Y137100D02*
D03*
X61850Y401800D02*
D03*
Y181800D02*
D03*
X107650Y357100D02*
D03*
Y247100D02*
D03*
X61850Y291800D02*
D03*
X107650Y27100D02*
D03*
D35*
X274696Y163196D02*
D03*
Y179196D02*
D03*
X208788Y204390D02*
D03*
Y220390D02*
D03*
X252725Y179206D02*
D03*
Y163206D02*
D03*
X230759D02*
D03*
Y179206D02*
D03*
X252730Y204390D02*
D03*
Y220390D02*
D03*
X230749Y220380D02*
D03*
Y204380D02*
D03*
X274701Y220390D02*
D03*
Y204390D02*
D03*
X296672Y220390D02*
D03*
Y204390D02*
D03*
D36*
Y244179D02*
D03*
X208788D02*
D03*
X267377D02*
D03*
X238083D02*
D03*
X61850Y443540D02*
D03*
X29150D02*
D03*
X162560D02*
D03*
D37*
X229708Y396954D02*
D03*
X204708Y406454D02*
D03*
X229708Y415954D02*
D03*
X229708Y361037D02*
D03*
X204708Y370537D02*
D03*
X229708Y380037D02*
D03*
Y325121D02*
D03*
X204708Y334621D02*
D03*
X229708Y344121D02*
D03*
Y289204D02*
D03*
X204708Y298704D02*
D03*
X229708Y308204D02*
D03*
D38*
X246853Y114046D02*
D03*
D39*
X259353Y133070D02*
D03*
X254353D02*
D03*
X249353D02*
D03*
X244353D02*
D03*
X239353D02*
D03*
X234353D02*
D03*
Y95022D02*
D03*
X239353D02*
D03*
X244353D02*
D03*
X249353D02*
D03*
X254353D02*
D03*
X259353D02*
D03*
D40*
X227829Y126546D02*
D03*
Y121546D02*
D03*
Y116546D02*
D03*
Y111546D02*
D03*
Y106546D02*
D03*
Y101546D02*
D03*
X265877D02*
D03*
Y106546D02*
D03*
Y111546D02*
D03*
Y116546D02*
D03*
Y121546D02*
D03*
Y126546D02*
D03*
D41*
X256794Y308848D02*
D03*
Y321348D02*
D03*
Y333848D02*
D03*
Y346348D02*
D03*
Y396348D02*
D03*
Y383848D02*
D03*
Y358848D02*
D03*
Y371348D02*
D03*
D42*
X285794Y283348D02*
D03*
Y421848D02*
D03*
M02*
