G04*
G04 #@! TF.GenerationSoftware,Altium Limited,Altium Designer,24.1.2 (44)*
G04*
G04 Layer_Physical_Order=1*
G04 Layer_Color=255*
%FSLAX44Y44*%
%MOMM*%
G71*
G04*
G04 #@! TF.SameCoordinates,1B47F422-010E-43AE-BF46-818BA779A623*
G04*
G04*
G04 #@! TF.FilePolarity,Positive*
G04*
G01*
G75*
%ADD13C,0.8890*%
%ADD22C,0.3810*%
%ADD23C,0.5000*%
%ADD24R,3.1554X3.1594*%
%ADD25R,6.3304X4.4555*%
%ADD26R,3.1750X3.1555*%
%ADD27R,3.1533X6.3308*%
%ADD28C,1.0000*%
%ADD29C,6.3500*%
%ADD30C,0.6000*%
G36*
X275435Y486000D02*
X275470Y485825D01*
Y483361D01*
X276296Y478148D01*
X277927Y473129D01*
X280323Y468426D01*
X283425Y464157D01*
X287157Y460425D01*
X291426Y457323D01*
X296129Y454926D01*
X301148Y453296D01*
X306361Y452470D01*
X311639D01*
X312404Y452591D01*
X325904D01*
X326349Y450813D01*
X323462Y449270D01*
X320314Y446687D01*
X317731Y443539D01*
X315812Y439948D01*
X314630Y436052D01*
X314236Y432055D01*
X314212Y432055D01*
X314209Y432038D01*
X314212Y432026D01*
X314208Y431903D01*
X314208Y430277D01*
Y92000D01*
X314251Y91782D01*
X314629Y87948D01*
X315811Y84052D01*
X317730Y80461D01*
X320313Y77313D01*
X323461Y74730D01*
X327052Y72811D01*
X330948Y71629D01*
X333819Y71346D01*
X333732Y69568D01*
X309000D01*
X308808Y69530D01*
X306361D01*
X301148Y68704D01*
X296129Y67073D01*
X291426Y64677D01*
X287157Y61575D01*
X283425Y57843D01*
X280323Y53574D01*
X277927Y48871D01*
X276296Y43852D01*
X275470Y38639D01*
Y36175D01*
X275435Y36000D01*
Y10792D01*
X12032D01*
X11404Y11404D01*
X10792Y12032D01*
Y522968D01*
X11404Y523596D01*
X12032Y524208D01*
X275435D01*
Y486000D01*
D02*
G37*
G36*
X341558Y36818D02*
X343642Y26756D01*
X344497Y20863D01*
X344925Y15622D01*
X344978Y13247D01*
X336088Y11424D01*
X336017Y12436D01*
X335802Y13220D01*
X335444Y13776D01*
X334943Y14104D01*
X334298Y14204D01*
X333510Y14076D01*
X332579Y13720D01*
X331628Y13202D01*
X331133Y12337D01*
X330746Y11422D01*
X330578Y10649D01*
X330627Y10016D01*
X330894Y9523D01*
X331378Y9171D01*
X332080Y8960D01*
X333000Y8890D01*
X331563Y0D01*
X329185Y54D01*
X323947Y486D01*
X318065Y1349D01*
X308035Y3454D01*
X300544Y5397D01*
X330066Y14800D01*
X330333Y15622D01*
X339635Y44342D01*
X341558Y36818D01*
D02*
G37*
%LPC*%
G36*
X101393Y433980D02*
X99607D01*
X97883Y433518D01*
X96337Y432625D01*
X95075Y431363D01*
X94182Y429817D01*
X93720Y428093D01*
Y426307D01*
X94182Y424583D01*
X95075Y423037D01*
X96337Y421775D01*
X97883Y420882D01*
X99607Y420420D01*
X101393D01*
X103117Y420882D01*
X104663Y421775D01*
X105925Y423037D01*
X106818Y424583D01*
X107280Y426307D01*
Y428093D01*
X106818Y429817D01*
X105925Y431363D01*
X104663Y432625D01*
X103117Y433518D01*
X101393Y433980D01*
D02*
G37*
G36*
X114093Y421280D02*
X112307D01*
X110583Y420818D01*
X109037Y419925D01*
X107775Y418663D01*
X106882Y417117D01*
X106420Y415393D01*
Y413607D01*
X106882Y411883D01*
X107775Y410337D01*
X109037Y409075D01*
X110583Y408182D01*
X112307Y407720D01*
X114093D01*
X115817Y408182D01*
X117363Y409075D01*
X118625Y410337D01*
X119518Y411883D01*
X119980Y413607D01*
Y415393D01*
X119518Y417117D01*
X118625Y418663D01*
X117363Y419925D01*
X115817Y420818D01*
X114093Y421280D01*
D02*
G37*
G36*
X88693D02*
X86907D01*
X85183Y420818D01*
X83637Y419925D01*
X82375Y418663D01*
X81482Y417117D01*
X81020Y415393D01*
Y413607D01*
X81482Y411883D01*
X82375Y410337D01*
X83637Y409075D01*
X85183Y408182D01*
X86907Y407720D01*
X88693D01*
X90417Y408182D01*
X91963Y409075D01*
X93225Y410337D01*
X94118Y411883D01*
X94580Y413607D01*
Y415393D01*
X94118Y417117D01*
X93225Y418663D01*
X91963Y419925D01*
X90417Y420818D01*
X88693Y421280D01*
D02*
G37*
G36*
X101393Y408580D02*
X99607D01*
X97883Y408118D01*
X96337Y407225D01*
X95075Y405963D01*
X94182Y404417D01*
X93720Y402693D01*
Y400907D01*
X94182Y399183D01*
X95075Y397637D01*
X96337Y396375D01*
X97883Y395482D01*
X99607Y395020D01*
X101393D01*
X103117Y395482D01*
X104663Y396375D01*
X105925Y397637D01*
X106818Y399183D01*
X107280Y400907D01*
Y402693D01*
X106818Y404417D01*
X105925Y405963D01*
X104663Y407225D01*
X103117Y408118D01*
X101393Y408580D01*
D02*
G37*
G36*
X147193Y389280D02*
X145407D01*
X143683Y388818D01*
X142137Y387925D01*
X140875Y386663D01*
X139982Y385117D01*
X139520Y383393D01*
Y381607D01*
X139982Y379883D01*
X140875Y378337D01*
X142137Y377075D01*
X143683Y376182D01*
X145407Y375720D01*
X147193D01*
X148917Y376182D01*
X150463Y377075D01*
X151725Y378337D01*
X152618Y379883D01*
X153080Y381607D01*
Y383393D01*
X152618Y385117D01*
X151725Y386663D01*
X150463Y387925D01*
X148917Y388818D01*
X147193Y389280D01*
D02*
G37*
G36*
X30101Y469600D02*
X28199D01*
X26442Y468872D01*
X25098Y467528D01*
X24370Y465771D01*
Y463869D01*
X25098Y462112D01*
X26442Y460768D01*
X28199Y460040D01*
X30101D01*
X31105Y460456D01*
X254732D01*
X277322Y437866D01*
Y373303D01*
X276906Y372299D01*
Y370397D01*
X277634Y368640D01*
X278978Y367296D01*
X280735Y366568D01*
X282637D01*
X284394Y367296D01*
X285738Y368640D01*
X286466Y370397D01*
Y372299D01*
X286050Y373303D01*
Y439674D01*
X285718Y441344D01*
X284772Y442760D01*
X259626Y467906D01*
X258210Y468852D01*
X256540Y469184D01*
X31105D01*
X30101Y469600D01*
D02*
G37*
G36*
X159893Y376580D02*
X158107D01*
X156383Y376118D01*
X154837Y375225D01*
X153575Y373963D01*
X152682Y372417D01*
X152220Y370693D01*
Y368907D01*
X152682Y367183D01*
X153575Y365637D01*
X154837Y364375D01*
X156383Y363482D01*
X158107Y363020D01*
X159893D01*
X161617Y363482D01*
X163163Y364375D01*
X164425Y365637D01*
X165318Y367183D01*
X165780Y368907D01*
Y370693D01*
X165318Y372417D01*
X164425Y373963D01*
X163163Y375225D01*
X161617Y376118D01*
X159893Y376580D01*
D02*
G37*
G36*
X134493D02*
X132707D01*
X130983Y376118D01*
X129437Y375225D01*
X128175Y373963D01*
X127282Y372417D01*
X126820Y370693D01*
Y368907D01*
X127282Y367183D01*
X128175Y365637D01*
X129437Y364375D01*
X130983Y363482D01*
X132707Y363020D01*
X134493D01*
X136217Y363482D01*
X137763Y364375D01*
X139025Y365637D01*
X139918Y367183D01*
X140380Y368907D01*
Y370693D01*
X139918Y372417D01*
X139025Y373963D01*
X137763Y375225D01*
X136217Y376118D01*
X134493Y376580D01*
D02*
G37*
G36*
X147193Y363880D02*
X145407D01*
X143683Y363418D01*
X142137Y362525D01*
X140875Y361263D01*
X139982Y359717D01*
X139520Y357993D01*
Y356207D01*
X139982Y354483D01*
X140875Y352937D01*
X142137Y351675D01*
X143683Y350782D01*
X145407Y350320D01*
X147193D01*
X148917Y350782D01*
X150463Y351675D01*
X151725Y352937D01*
X152618Y354483D01*
X153080Y356207D01*
Y357993D01*
X152618Y359717D01*
X151725Y361263D01*
X150463Y362525D01*
X148917Y363418D01*
X147193Y363880D01*
D02*
G37*
G36*
X101393Y323980D02*
X99607D01*
X97883Y323518D01*
X96337Y322625D01*
X95075Y321363D01*
X94182Y319817D01*
X93720Y318093D01*
Y316307D01*
X94182Y314583D01*
X95075Y313037D01*
X96337Y311775D01*
X97883Y310882D01*
X99607Y310420D01*
X101393D01*
X103117Y310882D01*
X104663Y311775D01*
X105925Y313037D01*
X106818Y314583D01*
X107280Y316307D01*
Y318093D01*
X106818Y319817D01*
X105925Y321363D01*
X104663Y322625D01*
X103117Y323518D01*
X101393Y323980D01*
D02*
G37*
G36*
X114093Y311280D02*
X112307D01*
X110583Y310818D01*
X109037Y309925D01*
X107775Y308663D01*
X106882Y307117D01*
X106420Y305393D01*
Y303607D01*
X106882Y301883D01*
X107775Y300337D01*
X109037Y299075D01*
X110583Y298182D01*
X112307Y297720D01*
X114093D01*
X115817Y298182D01*
X117363Y299075D01*
X118625Y300337D01*
X119518Y301883D01*
X119980Y303607D01*
Y305393D01*
X119518Y307117D01*
X118625Y308663D01*
X117363Y309925D01*
X115817Y310818D01*
X114093Y311280D01*
D02*
G37*
G36*
X88693D02*
X86907D01*
X85183Y310818D01*
X83637Y309925D01*
X82375Y308663D01*
X81482Y307117D01*
X81020Y305393D01*
Y303607D01*
X81482Y301883D01*
X82375Y300337D01*
X83637Y299075D01*
X85183Y298182D01*
X86907Y297720D01*
X88693D01*
X90417Y298182D01*
X91963Y299075D01*
X93225Y300337D01*
X94118Y301883D01*
X94580Y303607D01*
Y305393D01*
X94118Y307117D01*
X93225Y308663D01*
X91963Y309925D01*
X90417Y310818D01*
X88693Y311280D01*
D02*
G37*
G36*
X101393Y298580D02*
X99607D01*
X97883Y298118D01*
X96337Y297225D01*
X95075Y295963D01*
X94182Y294417D01*
X93720Y292693D01*
Y290907D01*
X94182Y289183D01*
X95075Y287637D01*
X96337Y286375D01*
X97883Y285482D01*
X99607Y285020D01*
X101393D01*
X103117Y285482D01*
X104663Y286375D01*
X105925Y287637D01*
X106818Y289183D01*
X107280Y290907D01*
Y292693D01*
X106818Y294417D01*
X105925Y295963D01*
X104663Y297225D01*
X103117Y298118D01*
X101393Y298580D01*
D02*
G37*
G36*
X147193Y279280D02*
X145407D01*
X143683Y278818D01*
X142137Y277925D01*
X140875Y276663D01*
X139982Y275117D01*
X139520Y273393D01*
Y271607D01*
X139982Y269883D01*
X140875Y268337D01*
X142137Y267075D01*
X143683Y266182D01*
X145407Y265720D01*
X147193D01*
X148917Y266182D01*
X150463Y267075D01*
X151725Y268337D01*
X152618Y269883D01*
X153080Y271607D01*
Y273393D01*
X152618Y275117D01*
X151725Y276663D01*
X150463Y277925D01*
X148917Y278818D01*
X147193Y279280D01*
D02*
G37*
G36*
X159893Y266580D02*
X158107D01*
X156383Y266118D01*
X154837Y265225D01*
X153575Y263963D01*
X152682Y262417D01*
X152220Y260693D01*
Y258907D01*
X152682Y257183D01*
X153575Y255637D01*
X154837Y254375D01*
X156383Y253482D01*
X158107Y253020D01*
X159893D01*
X161617Y253482D01*
X163163Y254375D01*
X164425Y255637D01*
X165318Y257183D01*
X165780Y258907D01*
Y260693D01*
X165318Y262417D01*
X164425Y263963D01*
X163163Y265225D01*
X161617Y266118D01*
X159893Y266580D01*
D02*
G37*
G36*
X134493D02*
X132707D01*
X130983Y266118D01*
X129437Y265225D01*
X128175Y263963D01*
X127282Y262417D01*
X126820Y260693D01*
Y258907D01*
X127282Y257183D01*
X128175Y255637D01*
X129437Y254375D01*
X130983Y253482D01*
X132707Y253020D01*
X134493D01*
X136217Y253482D01*
X137763Y254375D01*
X139025Y255637D01*
X139918Y257183D01*
X140380Y258907D01*
Y260693D01*
X139918Y262417D01*
X139025Y263963D01*
X137763Y265225D01*
X136217Y266118D01*
X134493Y266580D01*
D02*
G37*
G36*
X147193Y253880D02*
X145407D01*
X143683Y253418D01*
X142137Y252525D01*
X140875Y251263D01*
X139982Y249717D01*
X139520Y247993D01*
Y246207D01*
X139982Y244483D01*
X140875Y242937D01*
X142137Y241675D01*
X143683Y240782D01*
X145407Y240320D01*
X147193D01*
X148917Y240782D01*
X150463Y241675D01*
X151725Y242937D01*
X152618Y244483D01*
X153080Y246207D01*
Y247993D01*
X152618Y249717D01*
X151725Y251263D01*
X150463Y252525D01*
X148917Y253418D01*
X147193Y253880D01*
D02*
G37*
G36*
X230659Y277068D02*
X228757D01*
X227000Y276340D01*
X225656Y274996D01*
X224928Y273239D01*
Y271337D01*
X225656Y269580D01*
X225951Y269285D01*
Y252554D01*
X226237Y251116D01*
X227051Y249897D01*
X233303Y243646D01*
Y243228D01*
X234030Y241472D01*
X235375Y240127D01*
X237132Y239399D01*
X239033D01*
X240790Y240127D01*
X242135Y241472D01*
X242863Y243228D01*
Y245130D01*
X242135Y246887D01*
X240790Y248232D01*
X239033Y248959D01*
X238616D01*
X233465Y254110D01*
Y269285D01*
X233760Y269580D01*
X234488Y271337D01*
Y273239D01*
X233760Y274996D01*
X232416Y276340D01*
X230659Y277068D01*
D02*
G37*
G36*
X218477Y312984D02*
X216575D01*
X214818Y312256D01*
X213474Y310912D01*
X212746Y309155D01*
Y307253D01*
X213474Y305496D01*
X213746Y305224D01*
X213769Y304886D01*
Y254473D01*
X208255Y248959D01*
X207837D01*
X206080Y248232D01*
X204736Y246887D01*
X204008Y245130D01*
Y243228D01*
X204736Y241472D01*
X206080Y240127D01*
X207837Y239399D01*
X209739D01*
X211496Y240127D01*
X212840Y241472D01*
X213568Y243228D01*
Y243613D01*
X213791Y243869D01*
X220183Y250261D01*
X220997Y251479D01*
X221283Y252917D01*
Y305201D01*
X221578Y305496D01*
X222306Y307253D01*
Y309155D01*
X221578Y310912D01*
X220234Y312256D01*
X218477Y312984D01*
D02*
G37*
G36*
X101393Y213980D02*
X99607D01*
X97883Y213518D01*
X96337Y212625D01*
X95075Y211363D01*
X94182Y209817D01*
X93720Y208093D01*
Y206307D01*
X94182Y204583D01*
X95075Y203037D01*
X96337Y201775D01*
X97883Y200882D01*
X99607Y200420D01*
X101393D01*
X103117Y200882D01*
X104663Y201775D01*
X105925Y203037D01*
X106818Y204583D01*
X107280Y206307D01*
Y208093D01*
X106818Y209817D01*
X105925Y211363D01*
X104663Y212625D01*
X103117Y213518D01*
X101393Y213980D01*
D02*
G37*
G36*
X114093Y201280D02*
X112307D01*
X110583Y200818D01*
X109037Y199925D01*
X107775Y198663D01*
X106882Y197117D01*
X106420Y195393D01*
Y193607D01*
X106882Y191883D01*
X107775Y190337D01*
X109037Y189075D01*
X110583Y188182D01*
X112307Y187720D01*
X114093D01*
X115817Y188182D01*
X117363Y189075D01*
X118625Y190337D01*
X119518Y191883D01*
X119980Y193607D01*
Y195393D01*
X119518Y197117D01*
X118625Y198663D01*
X117363Y199925D01*
X115817Y200818D01*
X114093Y201280D01*
D02*
G37*
G36*
X88693D02*
X86907D01*
X85183Y200818D01*
X83637Y199925D01*
X82375Y198663D01*
X81482Y197117D01*
X81020Y195393D01*
Y193607D01*
X81482Y191883D01*
X82375Y190337D01*
X83637Y189075D01*
X85183Y188182D01*
X86907Y187720D01*
X88693D01*
X90417Y188182D01*
X91963Y189075D01*
X93225Y190337D01*
X94118Y191883D01*
X94580Y193607D01*
Y195393D01*
X94118Y197117D01*
X93225Y198663D01*
X91963Y199925D01*
X90417Y200818D01*
X88693Y201280D01*
D02*
G37*
G36*
X219645Y375112D02*
X217743D01*
X215986Y374384D01*
X214642Y373040D01*
X213914Y371283D01*
Y369381D01*
X214642Y367624D01*
X215986Y366280D01*
X217743Y365552D01*
X219645D01*
X220650Y365968D01*
X235192D01*
X248366Y352794D01*
Y216241D01*
X229051Y196925D01*
X228046Y196509D01*
X226702Y195165D01*
X225974Y193408D01*
Y191506D01*
X226702Y189749D01*
X228046Y188405D01*
X229803Y187677D01*
X231705D01*
X233462Y188405D01*
X234806Y189749D01*
X235222Y190754D01*
X255816Y211347D01*
X256762Y212763D01*
X257094Y214433D01*
Y354601D01*
X256762Y356271D01*
X255816Y357687D01*
X240085Y373418D01*
X238669Y374364D01*
X236999Y374696D01*
X220650D01*
X219645Y375112D01*
D02*
G37*
G36*
X101393Y188580D02*
X99607D01*
X97883Y188118D01*
X96337Y187225D01*
X95075Y185963D01*
X94182Y184417D01*
X93720Y182693D01*
Y180907D01*
X94182Y179183D01*
X95075Y177637D01*
X96337Y176375D01*
X97883Y175482D01*
X99607Y175020D01*
X101393D01*
X103117Y175482D01*
X104663Y176375D01*
X105925Y177637D01*
X106818Y179183D01*
X107280Y180907D01*
Y182693D01*
X106818Y184417D01*
X105925Y185963D01*
X104663Y187225D01*
X103117Y188118D01*
X101393Y188580D01*
D02*
G37*
G36*
X147193Y169280D02*
X145407D01*
X143683Y168818D01*
X142137Y167925D01*
X140875Y166663D01*
X139982Y165117D01*
X139520Y163393D01*
Y161607D01*
X139982Y159883D01*
X140875Y158337D01*
X142137Y157075D01*
X143683Y156182D01*
X145407Y155720D01*
X147193D01*
X148917Y156182D01*
X150463Y157075D01*
X151725Y158337D01*
X152618Y159883D01*
X153080Y161607D01*
Y163393D01*
X152618Y165117D01*
X151725Y166663D01*
X150463Y167925D01*
X148917Y168818D01*
X147193Y169280D01*
D02*
G37*
G36*
X159893Y156580D02*
X158107D01*
X156383Y156118D01*
X154837Y155225D01*
X153575Y153963D01*
X152682Y152417D01*
X152220Y150693D01*
Y148907D01*
X152682Y147183D01*
X153575Y145637D01*
X154837Y144375D01*
X156383Y143482D01*
X158107Y143020D01*
X159893D01*
X161617Y143482D01*
X163163Y144375D01*
X164425Y145637D01*
X165318Y147183D01*
X165780Y148907D01*
Y150693D01*
X165318Y152417D01*
X164425Y153963D01*
X163163Y155225D01*
X161617Y156118D01*
X159893Y156580D01*
D02*
G37*
G36*
X134493D02*
X132707D01*
X130983Y156118D01*
X129437Y155225D01*
X128175Y153963D01*
X127282Y152417D01*
X126820Y150693D01*
Y148907D01*
X127282Y147183D01*
X128175Y145637D01*
X129437Y144375D01*
X130983Y143482D01*
X132707Y143020D01*
X134493D01*
X136217Y143482D01*
X137763Y144375D01*
X139025Y145637D01*
X139918Y147183D01*
X140380Y148907D01*
Y150693D01*
X139918Y152417D01*
X139025Y153963D01*
X137763Y155225D01*
X136217Y156118D01*
X134493Y156580D01*
D02*
G37*
G36*
X147193Y143880D02*
X145407D01*
X143683Y143418D01*
X142137Y142525D01*
X140875Y141263D01*
X139982Y139717D01*
X139520Y137993D01*
Y136207D01*
X139982Y134483D01*
X140875Y132937D01*
X142137Y131675D01*
X143683Y130782D01*
X145407Y130320D01*
X147193D01*
X148917Y130782D01*
X150463Y131675D01*
X151725Y132937D01*
X152618Y134483D01*
X153080Y136207D01*
Y137993D01*
X152618Y139717D01*
X151725Y141263D01*
X150463Y142525D01*
X148917Y143418D01*
X147193Y143880D01*
D02*
G37*
G36*
X101393Y103980D02*
X99607D01*
X97883Y103518D01*
X96337Y102625D01*
X95075Y101363D01*
X94182Y99817D01*
X93720Y98093D01*
Y96307D01*
X94182Y94583D01*
X95075Y93037D01*
X96337Y91775D01*
X97883Y90882D01*
X99607Y90420D01*
X101393D01*
X103117Y90882D01*
X104663Y91775D01*
X105925Y93037D01*
X106818Y94583D01*
X107280Y96307D01*
Y98093D01*
X106818Y99817D01*
X105925Y101363D01*
X104663Y102625D01*
X103117Y103518D01*
X101393Y103980D01*
D02*
G37*
G36*
X230659Y446778D02*
X228757D01*
X227000Y446051D01*
X225656Y444706D01*
X224928Y442949D01*
Y441048D01*
X225656Y439291D01*
X227000Y437946D01*
X228757Y437219D01*
X230659D01*
X231663Y437635D01*
X248618D01*
X259404Y426848D01*
Y165162D01*
X258988Y164157D01*
Y162255D01*
X259716Y160498D01*
X261060Y159154D01*
X262065Y158738D01*
X275609Y145193D01*
Y113768D01*
Y104892D01*
X275193Y103888D01*
Y101986D01*
X275609Y100981D01*
Y92558D01*
X269457Y86406D01*
X265861D01*
X264857Y86822D01*
X262955D01*
X261950Y86406D01*
X248808D01*
X247804Y86822D01*
X245902D01*
X244897Y86406D01*
X227834D01*
X226829Y86822D01*
X224928D01*
X223923Y86406D01*
X208818D01*
X202161Y93062D01*
Y106876D01*
X202577Y107880D01*
Y109782D01*
X202161Y110787D01*
Y126750D01*
X202577Y127755D01*
Y129657D01*
X201850Y131414D01*
X200505Y132758D01*
X198748Y133486D01*
X196847D01*
X195090Y132758D01*
X193745Y131414D01*
X193017Y129657D01*
Y127755D01*
X193433Y126750D01*
Y110787D01*
X193017Y109782D01*
Y107880D01*
X193433Y106876D01*
Y91255D01*
X193766Y89585D01*
X194712Y88169D01*
X203924Y78956D01*
X205340Y78010D01*
X207010Y77678D01*
X223923D01*
X224928Y77262D01*
X226829D01*
X227834Y77678D01*
X244897D01*
X245902Y77262D01*
X247804D01*
X248808Y77678D01*
X261950D01*
X262955Y77262D01*
X264857D01*
X265861Y77678D01*
X271265D01*
X272935Y78010D01*
X274350Y78956D01*
X283059Y87665D01*
X284005Y89080D01*
X284337Y90750D01*
Y100981D01*
X284753Y101986D01*
Y103888D01*
X284337Y104892D01*
Y107053D01*
X284437Y107621D01*
X284595Y108095D01*
X284788Y108454D01*
X285013Y108728D01*
X285287Y108953D01*
X285646Y109146D01*
X286120Y109304D01*
X286497Y109370D01*
X287421Y108988D01*
X289322D01*
X291079Y109716D01*
X292424Y111060D01*
X293151Y112817D01*
Y114719D01*
X292424Y116476D01*
X291079Y117820D01*
X289322Y118548D01*
X287421D01*
X286497Y118165D01*
X286120Y118232D01*
X285646Y118390D01*
X285287Y118583D01*
X285013Y118808D01*
X284788Y119082D01*
X284595Y119440D01*
X284437Y119915D01*
X284337Y120483D01*
Y147001D01*
X284005Y148671D01*
X283059Y150087D01*
X268236Y164909D01*
X268132Y165162D01*
Y428656D01*
X267800Y430326D01*
X266854Y431741D01*
X253511Y445084D01*
X252095Y446030D01*
X250425Y446362D01*
X231663D01*
X230659Y446778D01*
D02*
G37*
G36*
X114093Y91280D02*
X112307D01*
X110583Y90818D01*
X109037Y89925D01*
X107775Y88663D01*
X106882Y87117D01*
X106420Y85393D01*
Y83607D01*
X106882Y81883D01*
X107775Y80337D01*
X109037Y79075D01*
X110583Y78182D01*
X112307Y77720D01*
X114093D01*
X115817Y78182D01*
X117363Y79075D01*
X118625Y80337D01*
X119518Y81883D01*
X119980Y83607D01*
Y85393D01*
X119518Y87117D01*
X118625Y88663D01*
X117363Y89925D01*
X115817Y90818D01*
X114093Y91280D01*
D02*
G37*
G36*
X88693D02*
X86907D01*
X85183Y90818D01*
X83637Y89925D01*
X82375Y88663D01*
X81482Y87117D01*
X81020Y85393D01*
Y83607D01*
X81482Y81883D01*
X82375Y80337D01*
X83637Y79075D01*
X85183Y78182D01*
X86907Y77720D01*
X88693D01*
X90417Y78182D01*
X91963Y79075D01*
X93225Y80337D01*
X94118Y81883D01*
X94580Y83607D01*
Y85393D01*
X94118Y87117D01*
X93225Y88663D01*
X91963Y89925D01*
X90417Y90818D01*
X88693Y91280D01*
D02*
G37*
G36*
X101393Y78580D02*
X99607D01*
X97883Y78118D01*
X96337Y77225D01*
X95075Y75963D01*
X94182Y74417D01*
X93720Y72693D01*
Y70907D01*
X94182Y69183D01*
X95075Y67637D01*
X96337Y66375D01*
X97883Y65482D01*
X99607Y65020D01*
X101393D01*
X103117Y65482D01*
X104663Y66375D01*
X105925Y67637D01*
X106818Y69183D01*
X107280Y70907D01*
Y72693D01*
X106818Y74417D01*
X105925Y75963D01*
X104663Y77225D01*
X103117Y78118D01*
X101393Y78580D01*
D02*
G37*
G36*
X147193Y59280D02*
X145407D01*
X143683Y58818D01*
X142137Y57925D01*
X140875Y56663D01*
X139982Y55117D01*
X139520Y53393D01*
Y51607D01*
X139982Y49883D01*
X140875Y48337D01*
X142137Y47075D01*
X143683Y46182D01*
X145407Y45720D01*
X147193D01*
X148917Y46182D01*
X150463Y47075D01*
X151725Y48337D01*
X152618Y49883D01*
X153080Y51607D01*
Y53393D01*
X152618Y55117D01*
X151725Y56663D01*
X150463Y57925D01*
X148917Y58818D01*
X147193Y59280D01*
D02*
G37*
G36*
X159893Y46580D02*
X158107D01*
X156383Y46118D01*
X154837Y45225D01*
X153575Y43963D01*
X152682Y42417D01*
X152220Y40693D01*
Y38907D01*
X152682Y37183D01*
X153575Y35637D01*
X154837Y34375D01*
X156383Y33482D01*
X158107Y33020D01*
X159893D01*
X161617Y33482D01*
X163163Y34375D01*
X164425Y35637D01*
X165318Y37183D01*
X165780Y38907D01*
Y40693D01*
X165318Y42417D01*
X164425Y43963D01*
X163163Y45225D01*
X161617Y46118D01*
X159893Y46580D01*
D02*
G37*
G36*
X134493D02*
X132707D01*
X130983Y46118D01*
X129437Y45225D01*
X128175Y43963D01*
X127282Y42417D01*
X126820Y40693D01*
Y38907D01*
X127282Y37183D01*
X128175Y35637D01*
X129437Y34375D01*
X130983Y33482D01*
X132707Y33020D01*
X134493D01*
X136217Y33482D01*
X137763Y34375D01*
X139025Y35637D01*
X139918Y37183D01*
X140380Y38907D01*
Y40693D01*
X139918Y42417D01*
X139025Y43963D01*
X137763Y45225D01*
X136217Y46118D01*
X134493Y46580D01*
D02*
G37*
G36*
X147193Y33880D02*
X145407D01*
X143683Y33418D01*
X142137Y32525D01*
X140875Y31263D01*
X139982Y29717D01*
X139520Y27993D01*
Y26207D01*
X139982Y24483D01*
X140875Y22937D01*
X142137Y21675D01*
X143683Y20782D01*
X145407Y20320D01*
X147193D01*
X148917Y20782D01*
X150463Y21675D01*
X151725Y22937D01*
X152618Y24483D01*
X153080Y26207D01*
Y27993D01*
X152618Y29717D01*
X151725Y31263D01*
X150463Y32525D01*
X148917Y33418D01*
X147193Y33880D01*
D02*
G37*
%LPD*%
G36*
X219589Y306007D02*
X219556Y305921D01*
X219527Y305804D01*
X219501Y305654D01*
X219462Y305259D01*
X219439Y304736D01*
X219431Y304086D01*
X215621D01*
X215619Y304427D01*
X215525Y305804D01*
X215496Y305921D01*
X215463Y306007D01*
X215426Y306062D01*
X219626D01*
X219589Y306007D01*
D02*
G37*
G36*
X213047Y245744D02*
X212807Y245501D01*
X211900Y244462D01*
X211837Y244358D01*
X211800Y244274D01*
X211788Y244209D01*
X208818Y247179D01*
X208883Y247191D01*
X208967Y247229D01*
X209071Y247291D01*
X209195Y247379D01*
X209501Y247631D01*
X209887Y247984D01*
X210352Y248438D01*
X213047Y245744D01*
D02*
G37*
G36*
X282523Y120318D02*
X282673Y119468D01*
X282923Y118718D01*
X283273Y118068D01*
X283723Y117518D01*
X284273Y117068D01*
X284923Y116718D01*
X285673Y116468D01*
X286523Y116318D01*
X287473Y116268D01*
Y111268D01*
X286523Y111218D01*
X285673Y111068D01*
X284923Y110818D01*
X284273Y110468D01*
X283723Y110018D01*
X283273Y109468D01*
X282923Y108818D01*
X282673Y108068D01*
X282523Y107218D01*
X282473Y106268D01*
X277473Y113768D01*
X282473Y121268D01*
X282523Y120318D01*
D02*
G37*
D13*
X340554Y452520D02*
X340523Y451758D01*
X335010Y446445D02*
X337621Y447102D01*
X339617Y448909D01*
X340528Y451443D01*
X340533Y72491D02*
X339638Y75057D01*
X337634Y76891D01*
X335000Y77555D01*
X340533Y523583D02*
X339801Y526290D01*
X338132Y528545D01*
X335756Y530034D01*
X333000Y530555D01*
X334968Y446445D02*
X332468Y446221D01*
X330045Y445568D01*
X327771Y444505D01*
X325715Y443065D01*
X323940Y441290D01*
X322499Y439235D01*
X321435Y436962D01*
X320781Y434538D01*
X320556Y432038D01*
X320555Y92000D02*
X320774Y89492D01*
X321426Y87059D01*
X322490Y84777D01*
X323935Y82715D01*
X325715Y80934D01*
X327777Y79490D01*
X330060Y78426D01*
X332492Y77775D01*
X335000Y77555D01*
X12000Y530555D02*
X9665Y530185D01*
X7559Y529112D01*
X5888Y527441D01*
X4815Y525335D01*
X4445Y523000D01*
X333000Y4445D02*
X335758Y4966D01*
X338135Y6458D01*
X339803Y8714D01*
X340533Y11424D01*
X4445Y12000D02*
X4815Y9665D01*
X5888Y7559D01*
X7559Y5888D01*
X9665Y4815D01*
X12000Y4445D01*
X340554Y452520D02*
Y523163D01*
X340533Y11424D02*
Y72491D01*
X12000Y530555D02*
X333000D01*
X320555Y92000D02*
Y431903D01*
X12000Y4445D02*
X333000D01*
X4445Y12000D02*
Y523000D01*
D22*
X229708Y252554D02*
Y272288D01*
Y252554D02*
X238083Y244179D01*
X217526Y252917D02*
Y308204D01*
X208788Y244179D02*
X217526Y252917D01*
D23*
X29150Y464820D02*
X256540D01*
X281686Y439674D01*
Y371348D02*
Y439674D01*
X218694Y370332D02*
X236999D01*
X252730Y214433D02*
Y354601D01*
X236999Y370332D02*
X252730Y354601D01*
X230754Y192457D02*
X252730Y214433D01*
X279973Y102937D02*
Y113768D01*
X288371D01*
X279973D02*
Y147001D01*
X263906Y82042D02*
X271265D01*
X197797Y91255D02*
X207010Y82042D01*
X197797Y91255D02*
Y108831D01*
X271265Y82042D02*
X279973Y90750D01*
Y102937D01*
X246853Y82042D02*
X263906D01*
X197797Y108831D02*
Y128706D01*
X207010Y82042D02*
X246853D01*
X263768Y163206D02*
X279973Y147001D01*
X263768Y163206D02*
Y428656D01*
X250425Y441998D02*
X263768Y428656D01*
X229708Y441998D02*
X250425D01*
D24*
X324777Y470203D02*
D03*
D25*
X308902Y508278D02*
D03*
D26*
X293125Y20222D02*
D03*
D27*
X324767Y36099D02*
D03*
D28*
X100500Y71800D02*
D03*
X87800Y84500D02*
D03*
X113200D02*
D03*
X100500Y97200D02*
D03*
X146300Y27100D02*
D03*
X133600Y39800D02*
D03*
X159000D02*
D03*
X146300Y52500D02*
D03*
X100500Y427200D02*
D03*
X113200Y414500D02*
D03*
X87800D02*
D03*
X100500Y401800D02*
D03*
X146300Y382500D02*
D03*
X159000Y369800D02*
D03*
X133600D02*
D03*
X146300Y357100D02*
D03*
X100500Y317200D02*
D03*
X113200Y304500D02*
D03*
X87800D02*
D03*
X100500Y291800D02*
D03*
X146300Y272500D02*
D03*
X159000Y259800D02*
D03*
X133600D02*
D03*
X146300Y247100D02*
D03*
X100500Y207200D02*
D03*
X113200Y194500D02*
D03*
X87800D02*
D03*
X100500Y181800D02*
D03*
X146300Y162500D02*
D03*
X159000Y149800D02*
D03*
X133600D02*
D03*
X146300Y137100D02*
D03*
X325164Y469836D02*
D03*
X292836D02*
D03*
Y502164D02*
D03*
X325164D02*
D03*
X331860Y486000D02*
D03*
X309000Y463140D02*
D03*
X286140Y486000D02*
D03*
X309000Y508860D02*
D03*
X325164Y19835D02*
D03*
X292836D02*
D03*
Y52165D02*
D03*
X325164D02*
D03*
X331860Y36000D02*
D03*
X309000Y13140D02*
D03*
X286140Y36000D02*
D03*
X309000Y58860D02*
D03*
D29*
Y486000D02*
D03*
Y36000D02*
D03*
D30*
X333114Y530371D02*
D03*
X317114Y530356D02*
D03*
X301114D02*
D03*
X285114D02*
D03*
X269114D02*
D03*
X253114D02*
D03*
X237114D02*
D03*
X221114D02*
D03*
X205114D02*
D03*
X189114D02*
D03*
X173114D02*
D03*
X157114D02*
D03*
X141114D02*
D03*
X125114D02*
D03*
X109114D02*
D03*
X93114D02*
D03*
X77114D02*
D03*
X61114D02*
D03*
X45114D02*
D03*
X29114D02*
D03*
X13114D02*
D03*
X4644Y516782D02*
D03*
Y500782D02*
D03*
Y484782D02*
D03*
Y468782D02*
D03*
Y452782D02*
D03*
Y436782D02*
D03*
Y420782D02*
D03*
Y404782D02*
D03*
Y388782D02*
D03*
Y372782D02*
D03*
Y356782D02*
D03*
Y340782D02*
D03*
Y324782D02*
D03*
Y308782D02*
D03*
Y292782D02*
D03*
Y276782D02*
D03*
Y260782D02*
D03*
Y244782D02*
D03*
Y228782D02*
D03*
Y212782D02*
D03*
Y196782D02*
D03*
Y180782D02*
D03*
Y164782D02*
D03*
Y148782D02*
D03*
Y132782D02*
D03*
Y116782D02*
D03*
Y100782D02*
D03*
Y84782D02*
D03*
Y68782D02*
D03*
Y52782D02*
D03*
Y36782D02*
D03*
Y20782D02*
D03*
X8860Y5348D02*
D03*
X24845Y4644D02*
D03*
X40845D02*
D03*
X56845D02*
D03*
X72845D02*
D03*
X88845D02*
D03*
X104845D02*
D03*
X120845D02*
D03*
X136845D02*
D03*
X152845D02*
D03*
X168845D02*
D03*
X184845D02*
D03*
X200845D02*
D03*
X216845D02*
D03*
X232845D02*
D03*
X248845D02*
D03*
X264845D02*
D03*
X280845D02*
D03*
X340335Y63779D02*
D03*
X332650Y77812D02*
D03*
X321004Y88783D02*
D03*
X320356Y104770D02*
D03*
Y120770D02*
D03*
Y136770D02*
D03*
Y152770D02*
D03*
Y168770D02*
D03*
Y184770D02*
D03*
Y200770D02*
D03*
Y216770D02*
D03*
Y232770D02*
D03*
Y248770D02*
D03*
Y264770D02*
D03*
Y280770D02*
D03*
Y296770D02*
D03*
Y312770D02*
D03*
Y328770D02*
D03*
Y344770D02*
D03*
Y360770D02*
D03*
Y376770D02*
D03*
Y392770D02*
D03*
Y408770D02*
D03*
Y424770D02*
D03*
X323615Y440435D02*
D03*
X337961Y447520D02*
D03*
X340355Y463340D02*
D03*
Y511339D02*
D03*
X216662Y135750D02*
D03*
X309000Y251546D02*
D03*
Y222546D02*
D03*
Y106546D02*
D03*
Y135546D02*
D03*
Y164546D02*
D03*
Y193546D02*
D03*
X187198Y351037D02*
D03*
Y380037D02*
D03*
X29250Y483750D02*
D03*
Y512750D02*
D03*
X290250Y396750D02*
D03*
Y367750D02*
D03*
Y338750D02*
D03*
Y309750D02*
D03*
Y193750D02*
D03*
Y164750D02*
D03*
Y135750D02*
D03*
X261250Y512750D02*
D03*
Y483750D02*
D03*
X232250Y512750D02*
D03*
Y483750D02*
D03*
Y454750D02*
D03*
X203250Y512750D02*
D03*
Y483750D02*
D03*
Y454750D02*
D03*
Y425750D02*
D03*
Y309750D02*
D03*
X174250Y512750D02*
D03*
Y483750D02*
D03*
Y454750D02*
D03*
Y425750D02*
D03*
Y396750D02*
D03*
X145250Y512750D02*
D03*
Y483750D02*
D03*
Y454750D02*
D03*
Y367750D02*
D03*
Y193750D02*
D03*
X116250Y512750D02*
D03*
Y483750D02*
D03*
Y454750D02*
D03*
Y425750D02*
D03*
Y338750D02*
D03*
Y280750D02*
D03*
Y222750D02*
D03*
Y164750D02*
D03*
Y106750D02*
D03*
Y48750D02*
D03*
X87250Y512750D02*
D03*
Y483750D02*
D03*
Y454750D02*
D03*
Y425750D02*
D03*
Y338750D02*
D03*
Y280750D02*
D03*
Y251750D02*
D03*
Y222750D02*
D03*
Y164750D02*
D03*
Y135750D02*
D03*
Y106750D02*
D03*
Y48750D02*
D03*
X58250Y512750D02*
D03*
Y483750D02*
D03*
Y425750D02*
D03*
Y367750D02*
D03*
Y338750D02*
D03*
Y280750D02*
D03*
Y222750D02*
D03*
Y164750D02*
D03*
Y106750D02*
D03*
Y48750D02*
D03*
X238083Y244179D02*
D03*
X208788D02*
D03*
X200406Y256032D02*
D03*
X281178Y253238D02*
D03*
X254353Y121546D02*
D03*
Y106546D02*
D03*
X239353D02*
D03*
Y121546D02*
D03*
X246853Y114046D02*
D03*
X217526Y334621D02*
D03*
X210058Y316738D02*
D03*
X29150Y464820D02*
D03*
X281686Y371348D02*
D03*
X197797Y128706D02*
D03*
Y108831D02*
D03*
X225878Y82042D02*
D03*
X246853D02*
D03*
X263906D02*
D03*
X279973Y102937D02*
D03*
X288371Y113768D02*
D03*
X229708Y441998D02*
D03*
X263768Y163206D02*
D03*
X230754Y192457D02*
D03*
X218694Y370332D02*
D03*
X217526Y308204D02*
D03*
X229708Y272288D02*
D03*
M02*
