M48
;Layer_Color=9474304
;FILE_FORMAT=4:2
METRIC,TZ
;TYPE=PLATED
T01F00S00C0.30
T02F00S00C0.60
T03F00S00C0.70
T04F00S00C3.20
%
T01
X89Y53
X248Y46
X408
X568
X728
X888
X1048
X1208
X1368
X1528
X1688
X1848
X2008
X2168
X2328
X2488
X2648
X2808
X2639Y820
X2469
X2259
X2394Y1065
X2544
Y1215
X2394
X2469Y1140
X2800Y1029
X2638Y1632
X2308Y1925
X2381Y2442
X2088
X2004Y2560
X2297Y2723
X2812Y2532
X2167Y1357
X1978Y1287
Y1088
X1162Y1068
X873
Y1357
Y1647
X1162
X1452Y1937
X1162Y2227
X873
Y2517
Y2807
X1162
X582
X46Y2768
Y2928
Y2608
Y2448
Y2288
Y2128
Y1968
Y1808
Y1648
Y1488
Y1328
Y1168
Y1008
Y848
Y688
Y528
Y368
Y208
X582Y488
X873
X1162
X582Y1068
Y1647
Y2227
X3090Y2225
X3204Y2168
Y2008
Y1848
Y1688
X3090Y1645
X2902Y1647
Y1937
X3090Y1935
X3204Y2328
Y2488
X3090Y2515
X3204Y2648
Y2808
Y2968
Y1528
Y1368
X3090Y1355
X2902Y1357
X2884Y1138
X3090Y1065
X3204Y1048
Y1208
X3210Y888
X3326Y778
X3403Y638
X3204Y3128
Y3288
Y3448
Y3608
Y3768
Y3928
Y4088
Y4248
X3236Y4404
X3380Y4475
X3404Y4633
Y5113
X3331Y5304
X3171Y5304
X3011
X2902Y3967
Y3677
Y3387
Y3097
X2817Y3713
X2187Y3703
X2175Y3346
X2101Y3167
X2032Y3097
X2175Y3082
X1872Y3510
Y3800
X1742Y3967
Y4257
X2032
Y4547
X2322
X2297Y4420
X2322Y4837
X2612
Y5127
X2691Y5304
X2851
X2531
X2371
X2211
X2051
X1891
X1731
X1571
X1411
X1251
X1091
X931
X771
X611
X451
X291
X131
X46Y5168
Y5008
Y4848
Y4688
Y4528
Y4368
Y4208
Y4048
Y3888
Y3728
Y3568
Y3408
Y3248
Y3088
X582Y3387
X873
X1162
X1452Y3677
Y4547
X1742
Y4837
X2032
Y5127
X2322
X1742
X1452
Y4837
X1162
Y5127
X873
Y4837
Y4547
X1162
Y4257
X873
X582
Y4837
X292
X291Y4648
X292Y5127
X582
Y3677
T02
X1005Y718
X878Y845
X1132
X1005Y972
Y1818
Y2072
X1132Y1945
X878
X1463Y1625
X1590Y1498
X1336
X1463Y1371
Y525
Y271
X1336Y398
X1590
Y2598
X1463Y2725
X1336Y2598
X1463Y2471
X1132Y3045
X878
X1005Y2918
Y3172
Y4018
Y4272
X1132Y4145
X878
X1463Y3825
X1590Y3698
X1336
X1463Y3571
T03
X2861Y360
X2928Y198
X3090Y131
X3252Y198
X3319Y360
X3252Y522
X3090Y589
X2928Y522
Y4698
X3090Y4631
X3252Y4698
X3319Y4860
X3252Y5022
X3090Y5089
X2928Y5022
X2861Y4860
T04
X3090Y360
Y4860
M30
