M48
;Layer_Color=9474304
;FILE_FORMAT=4:2
METRIC,LZ
;TYPE=PLATED
T01F00S00C0.30
T02F00S00C0.60
T03F00S00C0.70
T04F00S00C3.20
%
T01
X000089Y000053
X000248Y000046
X000408
X000568
X000728
X000888
X001048
X001208
X001368
X001528
X001688
X001848
X002008
X002168
X002328
X002488
X002648
X002808
X002639Y00082
X002469
X002259
X002394Y001065
X002544
Y001215
X002394
X002469Y00114
X0028Y001029
X002638Y001632
X002308Y001925
X002381Y002442
X002088
X002004Y00256
X002297Y002723
X002812Y002532
X002167Y001357
X001978Y001287
Y001088
X001162Y001068
X000873
Y001357
Y001647
X001162
X001452Y001937
X001162Y002227
X000873
Y002517
Y002807
X001162
X000582
X000046Y002768
Y002928
Y002608
Y002448
Y002288
Y002128
Y001968
Y001808
Y001648
Y001488
Y001328
Y001168
Y001008
Y000848
Y000688
Y000528
Y000368
Y000208
X000582Y000488
X000873
X001162
X000582Y001068
Y001647
Y002227
X00309Y002225
X003204Y002168
Y002008
Y001848
Y001688
X00309Y001645
X002902Y001647
Y001937
X00309Y001935
X003204Y002328
Y002488
X00309Y002515
X003204Y002648
Y002808
Y002968
Y001528
Y001368
X00309Y001355
X002902Y001357
X002884Y001138
X00309Y001065
X003204Y001048
Y001208
X00321Y000888
X003326Y000778
X003403Y000638
X003204Y003128
Y003288
Y003448
Y003608
Y003768
Y003928
Y004088
Y004248
X003236Y004404
X00338Y004475
X003404Y004633
Y005113
X003331Y005304
X003171Y005304
X003011
X002902Y003967
Y003677
Y003387
Y003097
X002817Y003713
X002187Y003703
X002175Y003346
X002101Y003167
X002032Y003097
X002175Y003082
X001872Y00351
Y0038
X001742Y003967
Y004257
X002032
Y004547
X002322
X002297Y00442
X002322Y004837
X002612
Y005127
X002691Y005304
X002851
X002531
X002371
X002211
X002051
X001891
X001731
X001571
X001411
X001251
X001091
X000931
X000771
X000611
X000451
X000291
X000131
X000046Y005168
Y005008
Y004848
Y004688
Y004528
Y004368
Y004208
Y004048
Y003888
Y003728
Y003568
Y003408
Y003248
Y003088
X000582Y003387
X000873
X001162
X001452Y003677
Y004547
X001742
Y004837
X002032
Y005127
X002322
X001742
X001452
Y004837
X001162
Y005127
X000873
Y004837
Y004547
X001162
Y004257
X000873
X000582
Y004837
X000292
X000291Y004648
X000292Y005127
X000582
Y003677
T02
X001005Y000718
X000878Y000845
X001132
X001005Y000972
Y001818
Y002072
X001132Y001945
X000878
X001463Y001625
X00159Y001498
X001336
X001463Y001371
Y000525
Y000271
X001336Y000398
X00159
Y002598
X001463Y002725
X001336Y002598
X001463Y002471
X001132Y003045
X000878
X001005Y002918
Y003172
Y004018
Y004272
X001132Y004145
X000878
X001463Y003825
X00159Y003698
X001336
X001463Y003571
T03
X002861Y00036
X002928Y000198
X00309Y000131
X003252Y000198
X003319Y00036
X003252Y000522
X00309Y000589
X002928Y000522
Y004698
X00309Y004631
X003252Y004698
X003319Y00486
X003252Y005022
X00309Y005089
X002928Y005022
X002861Y00486
T04
X00309Y00036
Y00486
M30
