G04*
G04 #@! TF.GenerationSoftware,Altium Limited,Altium Designer,25.3.2 (17)*
G04*
G04 Layer_Color=128*
%FSLAX44Y44*%
%MOMM*%
G71*
G04*
G04 #@! TF.SameCoordinates,D9C597C5-9DFD-42FE-9E8E-5E5B82B02BC8*
G04*
G04*
G04 #@! TF.FilePolarity,Positive*
G04*
G01*
G75*
%ADD31R,0.8000X0.7000*%
%ADD32C,1.5000*%
%ADD33R,0.9100X1.2200*%
%ADD34R,0.9100X1.2200*%
%ADD35R,0.9500X0.9000*%
%ADD36R,2.5000X2.5000*%
G04:AMPARAMS|DCode=37|XSize=0.2746mm|YSize=0.8048mm|CornerRadius=0.1373mm|HoleSize=0mm|Usage=FLASHONLY|Rotation=180.000|XOffset=0mm|YOffset=0mm|HoleType=Round|Shape=RoundedRectangle|*
%AMROUNDEDRECTD37*
21,1,0.2746,0.5302,0,0,180.0*
21,1,0.0000,0.8048,0,0,180.0*
1,1,0.2746,0.0000,0.2651*
1,1,0.2746,0.0000,0.2651*
1,1,0.2746,0.0000,-0.2651*
1,1,0.2746,0.0000,-0.2651*
%
%ADD37ROUNDEDRECTD37*%
G04:AMPARAMS|DCode=38|XSize=0.2746mm|YSize=0.8048mm|CornerRadius=0.1373mm|HoleSize=0mm|Usage=FLASHONLY|Rotation=270.000|XOffset=0mm|YOffset=0mm|HoleType=Round|Shape=RoundedRectangle|*
%AMROUNDEDRECTD38*
21,1,0.2746,0.5302,0,0,270.0*
21,1,0.0000,0.8048,0,0,270.0*
1,1,0.2746,-0.2651,0.0000*
1,1,0.2746,-0.2651,0.0000*
1,1,0.2746,0.2651,0.0000*
1,1,0.2746,0.2651,0.0000*
%
%ADD38ROUNDEDRECTD38*%
%ADD39R,1.6000X0.8000*%
%ADD40R,3.0000X2.1000*%
G36*
X245853Y113046D02*
Y101796D01*
X234603D01*
Y113046D01*
X245853D01*
D02*
G37*
G36*
Y126296D02*
Y115046D01*
X234603D01*
Y126296D01*
X245853D01*
D02*
G37*
G36*
X259103Y113046D02*
Y101796D01*
X247853D01*
Y113046D01*
X259103D01*
D02*
G37*
G36*
Y126296D02*
Y115046D01*
X247853D01*
Y126296D01*
X259103D01*
D02*
G37*
D31*
X274696Y163196D02*
D03*
Y179196D02*
D03*
X208788Y204390D02*
D03*
Y220390D02*
D03*
X252725Y179206D02*
D03*
Y163206D02*
D03*
X230759D02*
D03*
Y179206D02*
D03*
X252730Y204390D02*
D03*
Y220390D02*
D03*
X230749Y220380D02*
D03*
Y204380D02*
D03*
X274701Y220390D02*
D03*
Y204390D02*
D03*
X296672Y220390D02*
D03*
Y204390D02*
D03*
D32*
Y244179D02*
D03*
X208788D02*
D03*
X267377D02*
D03*
X238083D02*
D03*
X61850Y443540D02*
D03*
X29150D02*
D03*
X162560D02*
D03*
D33*
X61850Y71800D02*
D03*
X107650Y137100D02*
D03*
X61850Y401800D02*
D03*
Y181800D02*
D03*
X107650Y357100D02*
D03*
Y247100D02*
D03*
X61850Y291800D02*
D03*
X107650Y27100D02*
D03*
D34*
X29150Y71800D02*
D03*
X74950Y137100D02*
D03*
X29150Y401800D02*
D03*
Y181800D02*
D03*
X74950Y357100D02*
D03*
Y247100D02*
D03*
X29150Y291800D02*
D03*
X74950Y27100D02*
D03*
D35*
X229708Y396954D02*
D03*
X204708Y406454D02*
D03*
X229708Y415954D02*
D03*
X229708Y361037D02*
D03*
X204708Y370537D02*
D03*
X229708Y380037D02*
D03*
Y325121D02*
D03*
X204708Y334621D02*
D03*
X229708Y344121D02*
D03*
Y289204D02*
D03*
X204708Y298704D02*
D03*
X229708Y308204D02*
D03*
D36*
X246853Y114046D02*
D03*
D37*
X259353Y133070D02*
D03*
X254353D02*
D03*
X249353D02*
D03*
X244353D02*
D03*
X239353D02*
D03*
X234353D02*
D03*
Y95022D02*
D03*
X239353D02*
D03*
X244353D02*
D03*
X249353D02*
D03*
X254353D02*
D03*
X259353D02*
D03*
D38*
X227829Y126546D02*
D03*
Y121546D02*
D03*
Y116546D02*
D03*
Y111546D02*
D03*
Y106546D02*
D03*
Y101546D02*
D03*
X265877D02*
D03*
Y106546D02*
D03*
Y111546D02*
D03*
Y116546D02*
D03*
Y121546D02*
D03*
Y126546D02*
D03*
D39*
X256794Y308848D02*
D03*
Y321348D02*
D03*
Y333848D02*
D03*
Y346348D02*
D03*
Y396348D02*
D03*
Y383848D02*
D03*
Y358848D02*
D03*
Y371348D02*
D03*
D40*
X285794Y283348D02*
D03*
Y421848D02*
D03*
M02*
